<?xml version="1.0" encoding="UTF-8"?>
<!DOCTYPE svg PUBLIC "-//W3C//DTD SVG 1.1//EN" "http://www.w3.org/Graphics/SVG/1.1/DTD/svg11.dtd">
<svg xmlns="http://www.w3.org/2000/svg" version="1.1" width="1619px" height="1659px" style="shape-rendering:geometricPrecision; text-rendering:geometricPrecision; image-rendering:optimizeQuality; fill-rule:evenodd; clip-rule:evenodd" xmlns:xlink="http://www.w3.org/1999/xlink">
<g><path style="opacity:1" fill="#cf175b" d="M 807.5,-0.5 C 807.833,-0.5 808.167,-0.5 808.5,-0.5C 886.822,193.487 970.655,385.153 1060,574.5C 1177.14,813.116 1298.14,1049.45 1423,1283.5C 1423.62,1285.46 1423.12,1287.13 1421.5,1288.5C 1365.33,1250.92 1303.99,1225.75 1237.5,1213C 1324.13,1265.25 1404.97,1325.41 1480,1393.5C 1526.7,1480.24 1572.87,1567.24 1618.5,1654.5C 1618.5,1655.17 1618.5,1655.83 1618.5,1656.5C 1553.1,1622.64 1489.1,1586.47 1426.5,1548C 1333.41,1498.12 1237.41,1454.79 1138.5,1418C 1091.71,1402.9 1044.37,1389.74 996.5,1378.5C 994.889,1375.78 994.056,1372.78 994,1369.5C 993.833,1364.83 993.667,1360.17 993.5,1355.5C 1014.2,1233.18 990.371,1120.51 922,1017.5C 849.358,939.919 777.024,940.253 705,1018.5C 650.694,1101.72 627.027,1193.05 634,1292.5C 637.78,1319.3 641.28,1346.13 644.5,1373C 644.167,1374.17 643.833,1375.33 643.5,1376.5C 524.51,1399.51 411.176,1438.67 303.5,1494C 201.54,1544.29 102.54,1599.13 6.5,1658.5C 4.83333,1658.5 3.16667,1658.5 1.5,1658.5C 1.06795,1657.29 0.40128,1656.29 -0.5,1655.5C -0.5,1654.83 -0.5,1654.17 -0.5,1653.5C 206.962,1280.94 404.462,902.273 592,517.5C 593.668,514.4 595.835,513.9 598.5,516C 655.676,567.284 720.343,606.951 792.5,635C 794.447,635.991 796.447,636.325 798.5,636C 743.968,591.817 692.135,544.317 643,493.5C 633.609,483.945 624.776,473.945 616.5,463.5C 684.602,310.633 748.269,155.966 807.5,-0.5 Z"/></g>
</svg>
