<?xml version="1.0" encoding="UTF-8"?>
<!DOCTYPE svg PUBLIC "-//W3C//DTD SVG 1.1//EN" "http://www.w3.org/Graphics/SVG/1.1/DTD/svg11.dtd">
<svg xmlns="http://www.w3.org/2000/svg" version="1.1" width="19275px" height="4350px" style="shape-rendering:geometricPrecision; text-rendering:geometricPrecision; image-rendering:optimizeQuality; fill-rule:evenodd; clip-rule:evenodd" xmlns:xlink="http://www.w3.org/1999/xlink">
<g><path style="opacity:1" fill="#ce175a" d="M 7754.5,36.5 C 7769.61,33.7761 7782.94,37.2761 7794.5,47C 7764.98,84.4613 7758.64,125.461 7775.5,170C 7751.65,198.572 7732.65,230.239 7718.5,265C 7747.13,311.081 7775.3,310.914 7803,264.5C 7791.49,301.11 7794.99,336.277 7813.5,370C 7804.76,393.815 7792.43,415.482 7776.5,435C 7879.51,445.249 7979.84,432.916 8077.5,398C 8121.97,328.849 8171.8,263.682 8227,202.5C 8243.65,184.681 8260.82,167.348 8278.5,150.5C 8288.31,153.715 8297.98,157.215 8307.5,161C 8264.2,208.102 8236.7,263.269 8225,326.5C 8229.25,309.787 8238.08,296.287 8251.5,286C 8261.8,282.212 8271.8,282.879 8281.5,288C 8294.93,296.925 8306.59,307.759 8316.5,320.5C 8322.82,314.682 8328.99,308.682 8335,302.5C 8348.04,325.836 8345.87,347.669 8328.5,368C 8538.57,347.749 8746.57,360.749 8952.5,407C 8952.83,407.333 8953.17,407.667 8953.5,408C 8941.5,414 8929.5,420 8917.5,426C 8944.31,429.628 8970.81,434.795 8997,441.5C 9005.05,443.286 9012.05,446.952 9018,452.5C 9018.67,454.833 9018.67,457.167 9018,459.5C 9014.79,463.187 9010.96,466.021 9006.5,468C 8999.91,470.531 8993.24,472.864 8986.5,475C 8957.65,482.369 8928.65,488.702 8899.5,494C 8966.53,516.939 9035.2,532.606 9105.5,541C 9069.81,559.454 9032.14,572.12 8992.5,579C 8759.78,599.215 8528.11,627.882 8297.5,665C 8266.32,697.605 8238.32,732.105 8213.5,768.5C 8289.64,761.341 8365.98,758.174 8442.5,759C 8544.05,771.647 8645.05,787.647 8745.5,807C 8762.14,820.348 8764.98,836.181 8754,854.5C 8691.65,883.504 8626.82,905.338 8559.5,920C 8602.49,919.36 8645.15,922.693 8687.5,930C 8635.69,949.568 8585.02,971.902 8535.5,997C 8417.19,1008.6 8300.85,1030.6 8186.5,1063C 8139.22,1051.32 8097.06,1061.15 8060,1092.5C 8029.16,1142.36 7991.33,1186.53 7946.5,1225C 7958.07,1239.31 7967.74,1254.81 7975.5,1271.5C 8158.35,1217.14 8345.02,1195.31 8535.5,1206C 8541.83,1212.33 8548.17,1218.67 8554.5,1225C 8530.36,1231.03 8506.36,1237.37 8482.5,1244C 8550.38,1254.15 8618.38,1263.32 8686.5,1271.5C 8690.98,1183.58 8713.48,1100.58 8754,1022.5C 8861.02,861.733 8984.18,713.567 9123.5,578C 9249.77,489.718 9388.1,427.051 9538.5,390C 9620.74,370.97 9704.08,360.636 9788.5,359C 9859.98,262.497 9948.81,186.664 10055,131.5C 10073.9,139.799 10077.5,152.466 10066,169.5C 10037,198.347 10008.2,227.347 9979.5,256.5C 9983.99,270.99 9991.66,283.49 10002.5,294C 10011.3,299.523 10020.3,299.856 10029.5,295C 10042.8,287.006 10054.3,276.84 10064,264.5C 10069,344.994 10041.2,411.661 9980.5,464.5C 9988.94,472.725 9994.77,482.391 9998,493.5C 9979.34,506.004 9960.84,518.671 9942.5,531.5C 9948.15,537.652 9953.99,543.652 9960,549.5C 10223.1,398.819 10505.6,339.319 10807.5,371C 11002.9,407.473 11100.4,525.307 11100,724.5C 11037.2,1031.4 10885.7,1283.9 10645.5,1482C 10629.8,1494.33 10614.2,1506.67 10598.5,1519C 10597.5,1519.67 10596.5,1519.67 10595.5,1519C 10589.7,1513.17 10583.8,1507.33 10578,1501.5C 10519.1,1572.1 10449.3,1628.94 10368.5,1672C 10275.8,1682.21 10183.1,1681.88 10090.5,1671C 10021.8,1636.67 9953.17,1602.33 9884.5,1568C 9848.3,1512.64 9809.97,1458.8 9769.5,1406.5C 9542.65,1586.78 9283.82,1687.78 8993,1709.5C 8904.15,1700.98 8826.98,1666.81 8761.5,1607C 8745.27,1591.44 8729.77,1575.27 8715,1558.5C 8696.27,1515.83 8686.6,1471.17 8686,1424.5C 8526.99,1435.55 8369.49,1457.72 8213.5,1491C 8061.5,1529 7909.5,1567 7757.5,1605C 7701.2,1656.3 7647.2,1709.97 7595.5,1766C 7585.4,1762.89 7575.07,1760.22 7564.5,1758C 7551.84,1756.39 7539.18,1756.06 7526.5,1757C 7544.13,1744.66 7547.63,1729.16 7537,1710.5C 7499.36,1760.97 7461.53,1811.31 7423.5,1861.5C 7421.75,1788.27 7442.91,1722.6 7487,1664.5C 7487.48,1663.55 7487.65,1662.55 7487.5,1661.5C 7461.03,1652.69 7439.2,1637.36 7422,1615.5C 7386.1,1628.97 7351.6,1625.8 7318.5,1606C 7307.69,1596.55 7302.85,1584.71 7304,1570.5C 7309.43,1560.01 7317.93,1553.18 7329.5,1550C 7277.34,1554.03 7226.01,1563.03 7175.5,1577C 7119.54,1585.09 7075.38,1566.26 7043,1520.5C 7035.8,1528.19 7027.3,1534.02 7017.5,1538C 7016.06,1538.78 7014.72,1538.61 7013.5,1537.5C 6942.42,1336.44 6913.59,1129.44 6927,916.5C 6773.91,1219.75 6609.91,1516.09 6435,1805.5C 6428.99,1811.68 6422.82,1817.68 6416.5,1823.5C 6413.3,1816.77 6409.8,1810.11 6406,1803.5C 6395.41,1791.9 6382.91,1789.4 6368.5,1796C 6331.55,1848.05 6296.72,1901.55 6264,1956.5C 6263.67,1919.17 6263.33,1881.83 6263,1844.5C 6206.69,1913.65 6150.19,1982.65 6093.5,2051.5C 6096.71,2015.92 6102.21,1980.59 6110,1945.5C 6124.37,1878.03 6143.7,1812.03 6168,1747.5C 6293.2,1490.78 6413.2,1231.78 6528,970.5C 6629.76,817.72 6721.93,658.72 6804.5,493.5C 6876.31,449.211 6943.14,398.211 7005,340.5C 7006.37,349.313 7008.37,357.979 7011,366.5C 7016.91,383.871 7028.74,390.371 7046.5,386C 7051.78,384.027 7056.78,381.527 7061.5,378.5C 7103.6,405.076 7141.77,436.742 7176,473.5C 7176.01,590.942 7185.51,707.609 7204.5,823.5C 7204.33,824.833 7204.17,826.167 7204,827.5C 7180.7,863.712 7183.87,897.379 7213.5,928.5C 7368.23,614.139 7548.56,316.805 7754.5,36.5 Z M 10675.5,604.5 C 10733.4,604.832 10776.2,630.165 10804,680.5C 10807.8,687.712 10811.3,695.045 10814.5,702.5C 10768.2,847.835 10697,978.835 10601,1095.5C 10505.1,1207.85 10390.6,1295.68 10257.5,1359C 10237.5,1364.3 10217.2,1366.3 10196.5,1365C 10158.8,1360.59 10134,1340.43 10122,1304.5C 10115.6,1284.32 10112.6,1263.65 10113,1242.5C 10209.9,994.65 10374,805.483 10605.5,675C 10597.7,648.167 10606.1,627.833 10630.5,614C 10634.7,611.806 10639.1,609.806 10643.5,608C 10654.3,606.423 10664.9,605.256 10675.5,604.5 Z M 7933.5,606.5 C 7944.67,606.724 7954.67,610.224 7963.5,617C 7920.93,676.602 7883.26,739.436 7850.5,805.5C 7770.05,822.696 7691.05,845.029 7613.5,872.5C 7607.01,866.515 7600.68,860.348 7594.5,854C 7632.28,795.805 7667.28,735.805 7699.5,674C 7693.5,668 7687.5,662 7681.5,656C 7767.66,649.934 7851.66,633.434 7933.5,606.5 Z M 9867.5,735.5 C 9874.68,710.159 9891.01,693.992 9916.5,687C 9924.46,684.874 9932.46,684.041 9940.5,684.5C 9947.32,703.151 9960.15,715.484 9979,721.5C 10046.2,694.206 10114.4,669.706 10183.5,648C 10025.5,779.872 9906.21,940.538 9825.5,1130C 9632.44,1238.53 9430.44,1326.86 9219.5,1395C 9170.81,1405.65 9121.81,1407.32 9072.5,1400C 9064,1398.81 9055.67,1396.97 9047.5,1394.5C 9032.04,1373.58 9019.71,1350.92 9010.5,1326.5C 9022.32,1224.21 9055.48,1129.54 9110,1042.5C 9117.67,1030.83 9125.33,1019.17 9133,1007.5C 9255.81,894.154 9391.64,799.154 9540.5,722.5C 9543.46,727.512 9545.96,732.846 9548,738.5C 9559.87,770.772 9570.53,803.438 9580,836.5C 9596.1,850.298 9614.6,859.464 9635.5,864C 9630.11,866.726 9625.27,870.226 9621,874.5C 9618.9,878.451 9619.07,882.284 9621.5,886C 9626.02,889.262 9631.02,891.429 9636.5,892.5C 9724.87,861.668 9800.54,811.835 9863.5,743C 9866.51,745.39 9869.01,748.557 9871,752.5C 9877.4,759.491 9884.57,760.324 9892.5,755C 9896.74,750.592 9900.41,745.759 9903.5,740.5C 9899.67,729.257 9892,724.757 9880.5,727C 9875.8,729.346 9871.46,732.18 9867.5,735.5 Z M 7565.5,949.5 C 7575.28,950.779 7584.61,953.612 7593.5,958C 7597.13,961.05 7598.3,964.883 7597,969.5C 7594.25,974.252 7590.75,978.419 7586.5,982C 7579.44,987.391 7572.11,992.391 7564.5,997C 7573.86,1004.59 7580.03,1014.09 7583,1025.5C 7560.72,1045.73 7535.55,1061.57 7507.5,1073C 7516.83,1082.33 7526.17,1091.67 7535.5,1101C 7554.39,1097.69 7573.39,1094.69 7592.5,1092C 7633.16,1087.39 7673.83,1087.39 7714.5,1092C 7714.96,1092.41 7715.29,1092.91 7715.5,1093.5C 7651.13,1186.08 7601.13,1286.25 7565.5,1394C 7483.78,1445.12 7395.45,1461.46 7300.5,1443C 7360.89,1347.05 7411.39,1245.88 7452,1139.5C 7486.08,1073.63 7523.91,1010.3 7565.5,949.5 Z"/></g>
<g><path style="opacity:0.998" fill="#ce175b" d="M 5113.5,188.5 C 5133.08,188.174 5152.58,188.507 5172,189.5C 5341.96,623.68 5527.29,1051.35 5728,1472.5C 6017.33,2025.83 6306.67,2579.17 6596,3132.5C 6596.67,3133.83 6596.67,3135.17 6596,3136.5C 6590,3142.84 6583.66,3148.84 6577,3154.5C 6479.22,3092.23 6373.05,3051.4 6258.5,3032C 6430.34,3138.78 6590.5,3261.28 6739,3399.5C 6848.46,3586.55 6952.96,3776.72 7052.5,3970C 7043.58,3977.73 7033.92,3984.56 7023.5,3990.5C 6777.3,3852.89 6526.63,3722.72 6271.5,3600C 6044.69,3500.34 5810.69,3421.51 5569.5,3363.5C 5588.08,3135.45 5559.58,2913.45 5484,2697.5C 5455.24,2646.76 5422.58,2598.76 5386,2553.5C 5358.08,2520.24 5326.91,2490.41 5292.5,2464C 5208.21,2403.1 5120.88,2398.43 5030.5,2450C 4992.54,2473.6 4958.37,2502.1 4928,2535.5C 4887.28,2580.95 4850.95,2629.62 4819,2681.5C 4747.87,2869.1 4721.87,3062.77 4741,3262.5C 4744,3292.33 4748.17,3322 4753.5,3351.5C 4753.39,3352.44 4753.06,3353.28 4752.5,3354C 4224.19,3488.3 3730.36,3700.46 3271,3990.5C 3263.87,3981.08 3257.37,3971.25 3251.5,3961C 3535.32,3433.5 3821.82,2907.67 4111,2383.5C 4284.49,2061.19 4448.49,1733.86 4603,1401.5C 4620.23,1383.69 4639.06,1381.86 4659.5,1396C 4741.05,1472.48 4834.38,1530.81 4939.5,1571C 4951,1575.5 4962.67,1579.17 4974.5,1582C 4859.4,1493.57 4760.06,1390.23 4676.5,1272C 4833.38,915.392 4979.05,554.225 5113.5,188.5 Z"/></g>
<g><path style="opacity:0.175" fill="#cf175b" d="M 9123.5,530.5 C 9130.3,533.732 9136.96,537.232 9143.5,541C 9137.04,538.778 9130.71,535.945 9124.5,532.5C 9123.7,532.043 9123.37,531.376 9123.5,530.5 Z"/></g>
<g><path style="opacity:0.997" fill="#313331" d="M 10605.5,1822.5 C 10624.8,1822.5 10644.2,1822.5 10663.5,1822.5C 10669.7,1992.95 10663.5,2162.95 10645,2332.5C 10644.7,2334.43 10644.2,2336.27 10643.5,2338C 10617.1,2355.73 10593.1,2376.4 10571.5,2400C 10629.5,2373.99 10684.9,2343.33 10737.5,2308C 10970.7,2241.76 11193.3,2267.09 11405.5,2384C 11465.9,2426.01 11513,2479.51 11547,2544.5C 11562.4,2887.35 11559.2,3230.02 11537.5,3572.5C 11430.8,3598.62 11322.8,3617.62 11213.5,3629.5C 11216.7,3318.77 11213.5,3008.1 11204,2697.5C 11185.7,2626.2 11140.2,2584.37 11067.5,2572C 10950.3,2551.37 10840.6,2571.37 10738.5,2632C 10716,2649.25 10700.5,2671.41 10692,2698.5C 10664.3,2989.24 10654.8,3280.57 10663.5,3572.5C 10549.4,3591.07 10435.4,3610.07 10321.5,3629.5C 10314.1,3052.37 10320.1,2475.37 10339.5,1898.5C 10429.2,1876.57 10517.9,1851.23 10605.5,1822.5 Z"/></g>
<g><path style="opacity:1" fill="#ce175a" d="M 11916.5,1822.5 C 11935.8,1822.5 11955.2,1822.5 11974.5,1822.5C 11980.9,2402.63 11974.8,2982.63 11956,3562.5C 11956,3566.33 11955.2,3569.83 11953.5,3573C 11904.4,3589.42 11854.1,3595.59 11802.5,3591.5C 11796.4,3014.36 11802.7,2437.36 11821.5,1860.5C 11854.8,1851.74 11886.5,1839.07 11916.5,1822.5 Z"/></g>
<g><path style="opacity:0.987" fill="#c31b5a" d="M 12258.5,1841.5 C 12303.6,1872.8 12342,1910.97 12373.5,1956C 12335.8,1992.29 12294.6,2024.12 12250,2051.5C 12211.1,2016.77 12175.9,1978.77 12144.5,1937.5C 12180.7,1919.46 12212.6,1895.46 12240,1865.5C 12246.8,1857.91 12252.9,1849.91 12258.5,1841.5 Z"/></g>
<g><path style="opacity:0.997" fill="#313331" d="M 7498.5,2199.5 C 7669.62,2193.2 7831.28,2229.03 7983.5,2307C 8096.48,2406.67 8153.82,2532.34 8155.5,2684C 8136.45,2979.91 8130.12,3276.08 8136.5,3572.5C 8028.53,3582.68 7920.86,3595.35 7813.5,3610.5C 7810.37,3557.57 7828.71,3513.4 7868.5,3478C 7877.28,3470.56 7886.61,3463.89 7896.5,3458C 7910,3445.9 7910.5,3433.4 7898,3420.5C 7754.05,3586.6 7573.88,3646.76 7357.5,3601C 7027.13,3498.91 6895.97,3277.41 6964,2936.5C 6966.37,2924.76 6970.7,2913.76 6977,2903.5C 7063.81,2737.11 7200.64,2641.27 7387.5,2616C 7415.93,2613.47 7444.26,2610.14 7472.5,2606C 7578.19,2595.88 7675.36,2619.72 7764,2677.5C 7775.12,2637.54 7763.62,2605.7 7729.5,2582C 7720.64,2575.38 7710.64,2571.71 7699.5,2571C 7504.22,2533.75 7313.89,2550.91 7128.5,2622.5C 7121.69,2606.38 7115.02,2590.22 7108.5,2574C 7131.49,2470.24 7150.65,2365.74 7166,2260.5C 7261.54,2243.39 7356.71,2224.22 7451.5,2203C 7467.32,2201.8 7482.99,2200.64 7498.5,2199.5 Z M 7480.5,2922.5 C 7563.72,2921.06 7642.72,2938.39 7717.5,2974.5C 7809.87,3104.52 7784.87,3205.02 7642.5,3276C 7470.05,3327.85 7350.55,3270.68 7284,3104.5C 7282.27,3100.98 7281.6,3097.32 7282,3093.5C 7306.71,3013.8 7357.54,2957.96 7434.5,2926C 7449.97,2924.5 7465.3,2923.33 7480.5,2922.5 Z"/></g>
<g><path style="opacity:0.998" fill="#313331" d="M 9067.5,2219.5 C 9087.84,2219.33 9108.17,2219.5 9128.5,2220C 9139.88,2220.3 9151.21,2221.14 9162.5,2222.5C 9131.94,2334.28 9090.77,2441.94 9039,2545.5C 8902.08,2557.63 8788.08,2614.63 8697,2716.5C 8668.99,2994.87 8659.49,3273.87 8668.5,3553.5C 8547.77,3570.01 8427.44,3589.01 8307.5,3610.5C 8306.5,3166.5 8306.17,2722.5 8306.5,2278.5C 8401.41,2266.35 8495.08,2247.85 8587.5,2223C 8608.16,2222.5 8628.83,2222.33 8649.5,2222.5C 8646.11,2272.09 8648.95,2321.42 8658,2370.5C 8658.31,2371.31 8658.81,2371.97 8659.5,2372.5C 8778.72,2277.75 8914.72,2226.75 9067.5,2219.5 Z"/></g>
<g><path style="opacity:0.997" fill="#313331" d="M 9619.5,2237.5 C 9812.1,2233.9 9991.1,2281.06 10156.5,2379C 10192.7,2402.73 10222.4,2432.9 10245.5,2469.5C 10169.1,2552.02 10093,2634.68 10017,2717.5C 9817.6,2548.19 9618.1,2548.19 9418.5,2717.5C 9301.57,2933.11 9341.91,3112.61 9539.5,3256C 9722.71,3324.76 9884.04,3291.1 10023.5,3155C 10024.6,3154.36 10025.8,3153.86 10027,3153.5C 10116.4,3210.45 10185.8,3285.79 10235,3379.5C 10235.7,3380.83 10235.7,3382.17 10235,3383.5C 10097.8,3545.13 9922.64,3620.63 9709.5,3610C 9150.32,3561.31 8919.49,3260.14 9017,2706.5C 9047.2,2599.06 9099.86,2504.73 9175,2423.5C 9256.76,2341.68 9354.26,2286.84 9467.5,2259C 9517.46,2245.61 9568.12,2238.45 9619.5,2237.5 Z"/></g>
<g><path style="opacity:1" fill="#ce175a" d="M 13116.5,2293.5 C 13269.4,2290.63 13405.2,2336.63 13524,2431.5C 13553,2471.79 13577.7,2514.79 13598,2560.5C 13599.2,2568.76 13599.9,2577.09 13600,2585.5C 13609,2920.84 13618.1,3256.17 13627.5,3591.5C 13570.8,3603.83 13513.5,3610.17 13455.5,3610.5C 13449.8,3323.4 13456.1,3036.57 13474.5,2750C 13445.5,2577.65 13343.8,2484.65 13169.5,2471C 12978.9,2467.34 12837.7,2548.17 12746,2713.5C 12744.7,2723.07 12744.1,2732.73 12744,2742.5C 12740.6,3018.03 12731.2,3293.37 12716,3568.5C 12715.7,3570.1 12715.2,3571.6 12714.5,3573C 12660,3597.48 12603,3606.65 12543.5,3600.5C 12551.3,3185.5 12551.5,2770.5 12544,2355.5C 12599.4,2348.12 12653.6,2335.45 12706.5,2317.5C 12712.3,2386.33 12718.8,2455 12726,2523.5C 12808.2,2407.27 12918.7,2332.1 13057.5,2298C 13077.3,2296.02 13097,2294.52 13116.5,2293.5 Z"/></g>
<g><path style="opacity:1" fill="#ce175a" d="M 12295.5,2317.5 C 12296.9,2317.88 12297.8,2318.88 12298,2320.5C 12335.9,2743.42 12348.4,3167.09 12335.5,3591.5C 12284.2,3592.58 12233.5,3598.92 12183.5,3610.5C 12176.5,3197.98 12182.5,2785.65 12201.5,2373.5C 12236.4,2360.41 12267.7,2341.75 12295.5,2317.5 Z"/></g>
<g><path style="opacity:1" fill="#ce175a" d="M 13891.5,2336.5 C 13923.8,2336.5 13956.2,2336.5 13988.5,2336.5C 13980.4,2666.71 13990.2,2996.38 14018,3325.5C 14075.7,3429.65 14164.6,3479.82 14284.5,3476C 14348.6,3470.92 14410.6,3456.92 14470.5,3434C 14601.5,3379.93 14679,3282.76 14703,3142.5C 14711.4,3091.47 14714,3040.13 14711,2988.5C 14694.6,2783.8 14688.1,2578.8 14691.5,2373.5C 14755.1,2361.04 14818.8,2348.7 14882.5,2336.5C 14885.2,2749.21 14882,3161.88 14873,3574.5C 14872.8,3580.2 14872.3,3585.86 14871.5,3591.5C 14819.3,3610.28 14765.6,3622.95 14710.5,3629.5C 14712.5,3575.07 14711,3520.74 14706,3466.5C 14704.9,3451.62 14702.9,3436.95 14700,3422.5C 14662.3,3490.19 14610.8,3545.02 14545.5,3587C 14481.2,3625.22 14411.5,3645.89 14336.5,3649C 14293.8,3649.25 14251.2,3648.92 14208.5,3648C 14045.1,3639.44 13924.3,3563.94 13846,3421.5C 13839.1,3409.11 13832.8,3396.45 13827,3383.5C 13817.7,3041.12 13807.8,2698.79 13797.5,2356.5C 13811.1,2356.48 13824.8,2356.31 13838.5,2356C 13857.9,2353.71 13875.5,2347.21 13891.5,2336.5 Z"/></g>
<g><path style="opacity:0.993" fill="#c61a5a" d="M 15127.5,2336.5 C 15131.4,2338.85 15134.9,2341.85 15138,2345.5C 15267.7,2491.81 15394.3,2640.48 15518,2791.5C 15609.7,2658.58 15701.5,2525.75 15793.5,2393C 15872,2375.13 15919.5,2405.3 15936,2483.5C 15936.7,2485.83 15936.7,2488.17 15936,2490.5C 15827.8,2646.67 15717.3,2801.17 15604.5,2954C 15753.3,3143.74 15892.6,3340.24 16022.5,3543.5C 16013.9,3566.32 16000.2,3585.48 15981.5,3601C 15957.1,3616.82 15930.8,3621.15 15902.5,3614C 15898.5,3613 15894.5,3612 15890.5,3611C 15888.7,3610.22 15887.2,3609.05 15886,3607.5C 15763.7,3437.69 15641.2,3268.03 15518.5,3098.5C 15392.1,3277.69 15262.5,3454.53 15129.5,3629C 15092,3606.63 15056.5,3581.13 15023,3552.5C 15012.1,3534.4 15011.7,3516.07 15022,3497.5C 15156.1,3315.97 15286.3,3131.64 15412.5,2944.5C 15284.1,2778.78 15158,2611.45 15034,2442.5C 15033.3,2441.5 15033.3,2440.5 15034,2439.5C 15068.6,2408.04 15099.8,2373.71 15127.5,2336.5 Z"/></g>
<g><path style="opacity:0.006" fill="#792a4b" d="M 5001.5,4199.5 C 5000.76,4199.63 5000.09,4199.46 4999.5,4199C 5000.44,4198.31 5001.1,4198.47 5001.5,4199.5 Z"/></g>
<g><path style="opacity:0.008" fill="#792a4b" d="M 5001.5,4199.5 C 5002.49,4199.33 5003.16,4199.66 5003.5,4200.5C 5002.51,4200.67 5001.84,4200.34 5001.5,4199.5 Z"/></g>
<g><path style="opacity:0.008" fill="#792a4b" d="M 5003.5,4200.5 C 5004.49,4200.33 5005.16,4200.66 5005.5,4201.5C 5004.51,4201.67 5003.84,4201.34 5003.5,4200.5 Z"/></g>
<g><path style="opacity:0.008" fill="#792a4b" d="M 5005.5,4201.5 C 5006.49,4201.33 5007.16,4201.66 5007.5,4202.5C 5006.51,4202.67 5005.84,4202.34 5005.5,4201.5 Z"/></g>
<g><path style="opacity:0.008" fill="#792a4b" d="M 5007.5,4202.5 C 5008.49,4202.33 5009.16,4202.66 5009.5,4203.5C 5008.51,4203.67 5007.84,4203.34 5007.5,4202.5 Z"/></g>
<g><path style="opacity:0.008" fill="#792a4b" d="M 5009.5,4203.5 C 5010.49,4203.33 5011.16,4203.66 5011.5,4204.5C 5010.51,4204.67 5009.84,4204.34 5009.5,4203.5 Z"/></g>
<g><path style="opacity:0.008" fill="#792a4b" d="M 5011.5,4204.5 C 5012.49,4204.33 5013.16,4204.66 5013.5,4205.5C 5012.51,4205.67 5011.84,4205.34 5011.5,4204.5 Z"/></g>
<g><path style="opacity:0.008" fill="#792a4b" d="M 5013.5,4205.5 C 5014.49,4205.33 5015.16,4205.66 5015.5,4206.5C 5014.51,4206.67 5013.84,4206.34 5013.5,4205.5 Z"/></g>
<g><path style="opacity:0.008" fill="#792a4b" d="M 5015.5,4206.5 C 5016.49,4206.33 5017.16,4206.66 5017.5,4207.5C 5016.51,4207.67 5015.84,4207.34 5015.5,4206.5 Z"/></g>
<g><path style="opacity:0.006" fill="#792a4b" d="M 5017.5,4207.5 C 5018.24,4207.37 5018.91,4207.54 5019.5,4208C 5018.56,4208.69 5017.9,4208.53 5017.5,4207.5 Z"/></g>
<g><path style="opacity:0.008" fill="#7d2a4e" d="M 3783.5,4255.5 C 3799.21,4264.92 3805.04,4278.59 3801,4296.5C 3799.17,4302.5 3796.67,4308.17 3793.5,4313.5C 3783.91,4295.29 3780.58,4275.95 3783.5,4255.5 Z"/></g>
</svg>
