<?xml version="1.0" encoding="UTF-8"?>
<!DOCTYPE svg PUBLIC "-//W3C//DTD SVG 1.1//EN" "http://www.w3.org/Graphics/SVG/1.1/DTD/svg11.dtd">
<svg xmlns="http://www.w3.org/2000/svg" version="1.1" width="19275px" height="4350px" style="shape-rendering:geometricPrecision; text-rendering:geometricPrecision; image-rendering:optimizeQuality; fill-rule:evenodd; clip-rule:evenodd" xmlns:xlink="http://www.w3.org/1999/xlink">
<g><path style="opacity:0.997" fill="#fe005f" d="M 14465.5,869.5 C 14498.5,869.333 14531.5,869.5 14564.5,870C 14588.5,870.887 14611.8,875.221 14634.5,883C 14664.7,898.223 14682.2,922.723 14687,956.5C 14688.6,982.932 14691.3,1009.26 14695,1035.5C 14707.6,1098.38 14719.6,1161.38 14731,1224.5C 14734.3,1241.02 14736.5,1257.69 14737.5,1274.5C 14737.1,1289.6 14732.9,1303.6 14725,1316.5C 14706.7,1342.09 14684.6,1363.59 14658.5,1381C 14626.6,1403.44 14592.3,1421.44 14555.5,1435C 14535.4,1441.97 14514.7,1444.64 14493.5,1443C 14483.7,1439.91 14475.6,1434.41 14469,1426.5C 14456.8,1408.46 14448.2,1388.8 14443,1367.5C 14439.3,1350.1 14435.3,1332.77 14431,1315.5C 14413.8,1257.08 14374.8,1230.41 14314,1235.5C 14168.4,1235.16 14028.9,1264 13895.5,1322C 13768.2,1380.89 13659.7,1464.39 13570,1572.5C 13551.2,1594.76 13533.9,1618.1 13518,1642.5C 13511.6,1652.76 13506.9,1663.76 13504,1675.5C 13503.3,1678.5 13503.3,1681.5 13504,1684.5C 13510.1,1692.8 13518.2,1697.97 13528.5,1700C 13562.2,1707.88 13596.4,1711.38 13631,1710.5C 13748.2,1706.92 13865.4,1708.09 13982.5,1714C 14238.3,1729.37 14493.6,1750.37 14748.5,1777C 14834.1,1786.61 14918.8,1801.61 15002.5,1822C 15028.8,1830.94 15048.3,1847.77 15061,1872.5C 15073.5,1898.8 15081.2,1926.46 15084,1955.5C 15088.2,1995.8 15088.5,2036.13 15085,2076.5C 15083.6,2092.06 15081,2107.39 15077,2122.5C 15032,2270.48 14961,2403.82 14864,2522.5C 14774.6,2629.26 14672.8,2721.76 14558.5,2800C 14438,2883.62 14308.6,2951.62 14170.5,3004C 13984.6,3072.75 13792.6,3102.75 13594.5,3094C 13538,3091.57 13483.7,3079.57 13431.5,3058C 13389.2,3038.04 13350.9,3012.37 13316.5,2981C 13238.2,2907.72 13175.7,2822.89 13129,2726.5C 13090,2642.06 13073,2553.39 13078,2460.5C 13079.2,2437.27 13085.6,2415.6 13097,2395.5C 13106.4,2382.22 13119.2,2374.72 13135.5,2373C 13165.3,2372.04 13191.6,2381.04 13214.5,2400C 13227,2410.87 13238.5,2422.7 13249,2435.5C 13276.8,2481.91 13306.1,2527.24 13337,2571.5C 13415.8,2663.04 13513.7,2725.54 13630.5,2759C 13704.4,2779.89 13779.7,2791.56 13856.5,2794C 13976.5,2799.66 14094.2,2785.66 14209.5,2752C 14296.4,2725.7 14377.4,2687.36 14452.5,2637C 14564.4,2559.74 14639.2,2455.57 14677,2324.5C 14682.3,2304.5 14685.5,2284.17 14686.5,2263.5C 14684.5,2234.93 14672.5,2211.43 14650.5,2193C 14624.7,2172.95 14596.4,2157.28 14565.5,2146C 14510.9,2126.67 14454.9,2112.67 14397.5,2104C 14280,2086.92 14162,2074.58 14043.5,2067C 13950.6,2060.46 13857.6,2054.79 13764.5,2050C 13608.5,2042.91 13452.5,2035.58 13296.5,2028C 13180.8,2017.29 13117.3,1954.12 13106,1838.5C 13103.2,1810.34 13104.2,1782.34 13109,1754.5C 13139.9,1676.67 13179.6,1604.01 13228,1536.5C 13356.6,1358.5 13513.5,1211 13698.5,1094C 13900.3,970.942 14119.3,898.608 14355.5,877C 14392.3,873.744 14428.9,871.244 14465.5,869.5 Z"/></g>
<g><path style="opacity:0.997" fill="#fe005f" d="M 11764.5,872.5 C 12125.7,859.061 12422.2,989.394 12654,1263.5C 12789.2,1429.82 12861.9,1620.82 12872,1836.5C 12885.9,2153.16 12787.9,2428.83 12578,2663.5C 12473.4,2779.8 12353.9,2876.97 12219.5,2955C 12041,3055.2 11849.4,3108.87 11644.5,3116C 11461.9,3125.14 11287.6,3091.81 11121.5,3016C 10827,2873.43 10640.5,2642.93 10562,2324.5C 10525.8,2148.11 10530.5,1972.77 10576,1798.5C 10614.3,1660.52 10676,1534.52 10761,1420.5C 10871.8,1274.32 11004.7,1152.82 11159.5,1056C 11345.1,942.349 11546.7,881.182 11764.5,872.5 Z M 11653.5,1145.5 C 11901.6,1135.35 12107.1,1223.02 12270,1408.5C 12419,1581.67 12493.2,1783.34 12492.5,2013.5C 12491.7,2257.34 12407.8,2467.01 12241,2642.5C 12069.6,2819.66 11860.4,2896.49 11613.5,2873C 11464.3,2858.4 11331.9,2804.07 11216.5,2710C 11016.4,2541.37 10909.3,2325.54 10895,2062.5C 10882.3,1763.47 10987.8,1515.97 11211.5,1320C 11339,1212.76 11486.3,1154.6 11653.5,1145.5 Z"/></g>
<g><path style="opacity:0.997" fill="#fe005f" d="M 8280.5,887.5 C 8309.9,885.687 8335.56,894.521 8357.5,914C 8382.96,938.788 8403.79,966.954 8420,998.5C 8436.31,1027.79 8449.31,1058.46 8459,1090.5C 8466.35,1114.46 8468.35,1138.79 8465,1163.5C 8459.06,1189.31 8450.73,1214.31 8440,1238.5C 8414.31,1299.21 8386.98,1359.21 8358,1418.5C 8297.49,1567.36 8242.49,1718.36 8193,1871.5C 8107.12,2134.01 8029.79,2399.01 7961,2666.5C 7939.39,2753.62 7918.72,2840.95 7899,2928.5C 7891.37,2954.43 7879.04,2977.76 7862,2998.5C 7834.28,3026.3 7800.78,3038.46 7761.5,3035C 7755.07,3032.89 7749.41,3029.56 7744.5,3025C 7732.16,3011.83 7721.66,2997.33 7713,2981.5C 7686.17,2928.01 7663.83,2872.67 7646,2815.5C 7619.8,2726.36 7593.13,2637.36 7566,2548.5C 7536.14,2454.92 7505.47,2361.58 7474,2268.5C 7400.51,2094.35 7329.17,1919.35 7260,1743.5C 7199.67,1913.17 7139.33,2082.83 7079,2252.5C 7004.46,2468.46 6937.79,2686.79 6879,2907.5C 6864.9,2962.66 6851.57,3017.99 6839,3073.5C 6831.36,3103.13 6817.69,3129.46 6798,3152.5C 6767.73,3181.92 6731.56,3193.76 6689.5,3188C 6676.37,3182.87 6665.54,3174.71 6657,3163.5C 6638.83,3136.48 6625.5,3107.15 6617,3075.5C 6591.24,2971.35 6566.24,2867.02 6542,2762.5C 6486.03,2544.93 6428.03,2327.93 6368,2111.5C 6310.92,1913.6 6246.26,1718.27 6174,1525.5C 6163.22,1497.27 6151.89,1469.27 6140,1441.5C 6121.46,1405.08 6103.46,1368.41 6086,1331.5C 6069.63,1296.05 6058.29,1259.05 6052,1220.5C 6048.42,1190.96 6052.76,1162.63 6065,1135.5C 6076.93,1111.92 6091.59,1090.25 6109,1070.5C 6130.48,1047.01 6154.31,1026.51 6180.5,1009C 6203.01,994.328 6227.68,986.162 6254.5,984.5C 6263.51,985.173 6271.51,988.34 6278.5,994C 6290.56,1005.05 6300.73,1017.55 6309,1031.5C 6328.65,1067.13 6345.32,1104.13 6359,1142.5C 6370.61,1175.62 6381.61,1208.95 6392,1242.5C 6431.28,1379.95 6467.28,1518.28 6500,1657.5C 6573.12,1918.97 6650.12,2179.31 6731,2438.5C 6787.4,2244.31 6850.4,2052.31 6920,1862.5C 6979.47,1706.42 7039.14,1550.42 7099,1394.5C 7120.63,1336.24 7148.3,1281.24 7182,1229.5C 7199.88,1203.29 7222.04,1181.46 7248.5,1164C 7269.94,1150.91 7292.94,1146.58 7317.5,1151C 7335.56,1160.4 7349.73,1173.9 7360,1191.5C 7378.35,1224.21 7393.02,1258.54 7404,1294.5C 7415.58,1337.59 7428.58,1380.25 7443,1422.5C 7507.39,1599.01 7571.39,1775.68 7635,1952.5C 7681.12,2085.54 7726.46,2218.87 7771,2352.5C 7898.67,1934.15 8032,1517.48 8171,1102.5C 8182.8,1064.11 8194.8,1025.77 8207,987.5C 8218.8,954.426 8236.3,924.926 8259.5,899C 8265.98,894.094 8272.98,890.26 8280.5,887.5 Z"/></g>
<g><path style="opacity:0.997" fill="#fe005f" d="M 4405.5,975.5 C 4425.86,975.116 4446.2,975.616 4466.5,977C 4528.89,983.242 4555.06,1017.41 4545,1079.5C 4542.59,1117.95 4538.92,1156.29 4534,1194.5C 4512.09,1326.32 4498.09,1458.99 4492,1592.5C 4485.71,1722.42 4482.54,1852.42 4482.5,1982.5C 4482.44,2126.89 4485.27,2271.23 4491,2415.5C 4493.3,2473.41 4498.3,2531.07 4506,2588.5C 4508.47,2607.73 4513.14,2626.4 4520,2644.5C 4526.44,2657.48 4536.94,2664.65 4551.5,2666C 4567.92,2668.03 4584.26,2667.37 4600.5,2664C 4634.99,2657.21 4668.99,2648.55 4702.5,2638C 4776.64,2614.51 4849.97,2588.84 4922.5,2561C 5048.79,2512.68 5174.13,2462.01 5298.5,2409C 5369.92,2378.53 5440.08,2345.36 5509,2309.5C 5502.14,2132.51 5495.14,1955.51 5488,1778.5C 5480.9,1603.2 5479.9,1427.86 5485,1252.5C 5485.93,1226.48 5487.27,1200.48 5489,1174.5C 5486.85,1112.3 5510.69,1063.13 5560.5,1027C 5626.42,981.079 5699.09,965.413 5778.5,980C 5800.75,983.701 5818.92,994.201 5833,1011.5C 5837.67,1018.85 5840.67,1026.85 5842,1035.5C 5842.67,1050.5 5842.67,1065.5 5842,1080.5C 5839.14,1126.27 5835.14,1171.93 5830,1217.5C 5822.57,1283.24 5814.57,1348.9 5806,1414.5C 5793.77,1537.55 5786.1,1660.88 5783,1784.5C 5773.92,2049.72 5782.25,2314.38 5808,2578.5C 5818.63,2668.54 5829.63,2758.54 5841,2848.5C 5843.29,2866.77 5844.79,2885.1 5845.5,2903.5C 5845.11,2942.12 5829.11,2972.28 5797.5,2994C 5776.4,3007.6 5753.74,3017.93 5729.5,3025C 5705.64,3032.31 5681.3,3037.31 5656.5,3040C 5574.28,3049.35 5531.45,3012.85 5528,2930.5C 5527.68,2837.5 5526.35,2744.5 5524,2651.5C 5378.61,2735.77 5225.78,2803.6 5065.5,2855C 4924.08,2904.36 4781.42,2949.69 4637.5,2991C 4575.86,3008.33 4513.52,3022.66 4450.5,3034C 4407.97,3041.37 4365.3,3042.37 4322.5,3037C 4303.91,3034.03 4286.57,3027.69 4270.5,3018C 4254.62,3006.43 4244.78,2990.93 4241,2971.5C 4237.19,2953.02 4234.86,2934.35 4234,2915.5C 4235.16,2716.7 4230.49,2518.03 4220,2319.5C 4207.3,2127.65 4197.64,1935.65 4191,1743.5C 4184.36,1589.54 4183.02,1435.54 4187,1281.5C 4187.9,1229.33 4191.23,1177.33 4197,1125.5C 4206.23,1082.18 4229.07,1048.02 4265.5,1023C 4308.15,995.285 4354.81,979.451 4405.5,975.5 Z"/></g>
<g><path style="opacity:0.997" fill="#fe005f" d="M 8892.5,975.5 C 8912.86,975.116 8933.2,975.616 8953.5,977C 9015.89,983.242 9042.06,1017.41 9032,1079.5C 9029.59,1117.95 9025.92,1156.29 9021,1194.5C 8999.09,1326.32 8985.09,1458.99 8979,1592.5C 8972.71,1722.42 8969.54,1852.42 8969.5,1982.5C 8969.44,2126.89 8972.27,2271.23 8978,2415.5C 8980.3,2473.41 8985.3,2531.07 8993,2588.5C 8995.47,2607.73 9000.14,2626.4 9007,2644.5C 9013.44,2657.48 9023.94,2664.65 9038.5,2666C 9054.92,2668.03 9071.26,2667.37 9087.5,2664C 9121.99,2657.21 9155.99,2648.55 9189.5,2638C 9263.64,2614.51 9336.97,2588.84 9409.5,2561C 9535.79,2512.68 9661.13,2462.01 9785.5,2409C 9856.92,2378.53 9927.08,2345.36 9996,2309.5C 9989.14,2132.51 9982.14,1955.51 9975,1778.5C 9967.9,1603.2 9966.9,1427.86 9972,1252.5C 9972.93,1226.48 9974.27,1200.48 9976,1174.5C 9973.85,1112.3 9997.69,1063.13 10047.5,1027C 10113.4,981.079 10186.1,965.413 10265.5,980C 10287.8,983.701 10305.9,994.201 10320,1011.5C 10324.7,1018.85 10327.7,1026.85 10329,1035.5C 10329.7,1050.5 10329.7,1065.5 10329,1080.5C 10326.1,1126.27 10322.1,1171.93 10317,1217.5C 10309.6,1283.24 10301.6,1348.9 10293,1414.5C 10280.8,1537.55 10273.1,1660.88 10270,1784.5C 10260.9,2049.72 10269.3,2314.38 10295,2578.5C 10305.6,2668.54 10316.6,2758.54 10328,2848.5C 10330.3,2866.77 10331.8,2885.1 10332.5,2903.5C 10332.1,2942.12 10316.1,2972.28 10284.5,2994C 10263.4,3007.6 10240.7,3017.93 10216.5,3025C 10192.6,3032.31 10168.3,3037.31 10143.5,3040C 10061.3,3049.35 10018.4,3012.85 10015,2930.5C 10014.7,2837.5 10013.3,2744.5 10011,2651.5C 9865.61,2735.77 9712.78,2803.6 9552.5,2855C 9411.08,2904.36 9268.42,2949.69 9124.5,2991C 9062.86,3008.33 9000.52,3022.66 8937.5,3034C 8894.97,3041.37 8852.3,3042.37 8809.5,3037C 8790.91,3034.03 8773.57,3027.69 8757.5,3018C 8741.62,3006.43 8731.78,2990.93 8728,2971.5C 8724.19,2953.02 8721.86,2934.35 8721,2915.5C 8722.16,2716.7 8717.49,2518.03 8707,2319.5C 8694.3,2127.65 8684.64,1935.65 8678,1743.5C 8671.36,1589.54 8670.02,1435.54 8674,1281.5C 8674.9,1229.33 8678.23,1177.33 8684,1125.5C 8693.23,1082.18 8716.07,1048.02 8752.5,1023C 8795.15,995.285 8841.81,979.451 8892.5,975.5 Z"/></g>
</svg>
