<?xml version="1.0" encoding="UTF-8"?>
<!DOCTYPE svg PUBLIC "-//W3C//DTD SVG 1.1//EN" "http://www.w3.org/Graphics/SVG/1.1/DTD/svg11.dtd">
<svg xmlns="http://www.w3.org/2000/svg" version="1.1" width="1013px" height="304px" style="shape-rendering:geometricPrecision; text-rendering:geometricPrecision; image-rendering:optimizeQuality; fill-rule:evenodd; clip-rule:evenodd" xmlns:xlink="http://www.w3.org/1999/xlink">
<g><path style="opacity:0.923" fill="#c48cae" d="M 398.5,30.5 C 399.5,30.5 400.5,30.5 401.5,30.5C 401.378,35.1176 400.044,39.2842 397.5,43C 398.649,44.7441 399.983,44.9108 401.5,43.5C 402.292,45.4648 402.959,47.4648 403.5,49.5C 403.023,50.4776 402.357,51.3109 401.5,52C 407.042,52.9128 412.375,52.2461 417.5,50C 420.629,44.7052 424.629,40.2052 429.5,36.5C 430.167,36.8333 430.833,37.1667 431.5,37.5C 429.973,39.1933 428.64,41.0266 427.5,43C 429.158,44.6625 431.158,45.4959 433.5,45.5C 433.5,46.5 433.5,47.5 433.5,48.5C 444.074,48.1244 454.574,48.7911 465,50.5C 467.51,51.3979 469.676,52.7312 471.5,54.5C 470.335,55.5836 469.002,56.4169 467.5,57C 470.723,58.1264 473.889,58.2931 477,57.5C 477.667,58.1667 478.333,58.8333 479,59.5C 489.687,52.2713 501.521,48.438 514.5,48C 518.921,42.0706 524.588,37.9039 531.5,35.5C 531.649,36.552 531.483,37.552 531,38.5C 529.315,40.0175 527.815,41.6841 526.5,43.5C 528.29,43.7111 529.956,43.7111 531.5,43.5C 531.337,48.0282 529.671,51.8615 526.5,55C 526.93,55.9195 527.264,56.7528 527.5,57.5C 544.04,48.6863 561.373,46.5197 579.5,51C 588.102,56.125 591.269,63.625 589,73.5C 582.356,96.3143 568.522,113.148 547.5,124C 532.88,126.516 521.547,121.683 513.5,109.5C 500.538,118.989 486.038,124.656 470,126.5C 463.2,125.6 457.533,122.6 453,117.5C 452.023,115.26 451.523,112.927 451.5,110.5C 434.133,111.591 417.133,114.757 400.5,120C 396.868,122.63 393.535,125.63 390.5,129C 388.837,129.265 387.337,128.765 386,127.5C 384.327,130.001 382.493,132.334 380.5,134.5C 379.699,130.677 380.365,127.011 382.5,123.5C 382.291,122.914 381.957,122.414 381.5,122C 378.139,121.946 375.139,120.946 372.5,119C 372.833,118.667 373.167,118.333 373.5,118C 369.53,118.326 365.53,118.326 361.5,118C 360.333,117.5 359.5,116.667 359,115.5C 358.107,116.711 357.274,116.711 356.5,115.5C 353.043,105.471 351.21,95.1377 351,84.5C 342.577,101.024 333.41,117.024 323.5,132.5C 322.522,132.023 321.689,131.357 321,130.5C 319.056,134.11 316.723,137.443 314,140.5C 313.667,139.167 313.333,137.833 313,136.5C 310.147,139.052 307.647,141.885 305.5,145C 304.833,145.667 304.167,145.667 303.5,145C 304.915,139.511 306.415,134.011 308,128.5C 318.755,103.698 330.922,79.6981 344.5,56.5C 348.5,53.5 352.5,50.5 356.5,47.5C 360.173,49.3376 363.507,51.6709 366.5,54.5C 367.65,62.8819 368.15,71.2152 368,79.5C 377.176,62.4669 387.343,46.1336 398.5,30.5 Z M 476.5,60.5 C 468.791,68.7103 461.624,77.3769 455,86.5C 453.051,90.6293 451.884,94.9627 451.5,99.5C 449.143,99.6633 446.81,99.4966 444.5,99C 445.833,98.3333 445.833,97.6667 444.5,97C 434.006,95.9293 423.673,96.7626 413.5,99.5C 412.833,99.1667 412.167,98.8333 411.5,98.5C 413.486,95.3508 415.819,92.5175 418.5,90C 429.589,88.4195 440.422,85.9195 451,82.5C 451.5,82.1667 452,81.8333 452.5,81.5C 451.624,80.7492 450.624,80.2492 449.5,80C 451.5,79.3333 453.5,78.6667 455.5,78C 456.38,76.6439 456.714,75.1439 456.5,73.5C 446.557,71.3863 436.557,70.5529 426.5,71C 427.833,69.6667 429.167,68.3333 430.5,67C 445.839,64.7222 461.172,62.5556 476.5,60.5 Z M 408.5,63.5 C 409.239,63.369 409.906,63.5357 410.5,64C 408.004,66.6559 406.004,69.6559 404.5,73C 399.863,74.7722 395.196,76.1056 390.5,77C 392.709,73.414 395.043,69.914 397.5,66.5C 401.366,65.8114 405.032,64.8114 408.5,63.5 Z M 562.5,63.5 C 566.688,63.0938 570.021,64.5938 572.5,68C 567.251,84.5828 556.918,96.9162 541.5,105C 537.074,106.252 534.408,104.586 533.5,100C 538.673,85.8241 547.839,74.9908 561,67.5C 561.41,66.0993 561.91,64.766 562.5,63.5 Z M 533.5,67.5 C 525.975,74.6983 519.975,83.0317 515.5,92.5C 505,98.4156 494,103.249 482.5,107C 479.118,107.824 475.784,107.657 472.5,106.5C 471.438,103.897 471.272,101.23 472,98.5C 475.932,87.5632 483.099,79.3965 493.5,74C 495.746,72.9605 497.913,71.7938 500,70.5C 500.847,74.5052 503.014,77.5052 506.5,79.5C 511.313,77.8557 515.48,75.189 519,71.5C 520.131,72.6039 520.965,72.2705 521.5,70.5C 521.291,69.914 520.957,69.414 520.5,69C 522.367,68.2888 523.867,68.7888 525,70.5C 527.69,69.0708 530.523,68.0708 533.5,67.5 Z M 386.5,87.5 C 386.639,85.663 387.306,85.3296 388.5,86.5C 388.043,87.2975 387.376,87.6309 386.5,87.5 Z M 383.5,90.5 C 386.837,91.7391 390.17,91.7391 393.5,90.5C 394.308,90.8076 394.975,91.3076 395.5,92C 392.176,96.8149 389.509,101.982 387.5,107.5C 383.379,109.952 379.046,110.619 374.5,109.5C 378.314,103.539 381.314,97.2056 383.5,90.5 Z"/></g>
<g><path style="opacity:0.964" fill="#c48cae" d="M 248.5,38.5 C 250.167,38.5 251.833,38.5 253.5,38.5C 261.82,60.812 270.986,82.812 281,104.5C 298.578,138.658 316.412,172.658 334.5,206.5C 333.833,206.833 333.167,207.167 332.5,207.5C 314.817,200.22 314.15,201.386 330.5,211C 334.967,214.465 339.133,218.298 343,222.5C 348.889,232.443 354.389,242.61 359.5,253C 359.387,254.28 358.72,255.113 357.5,255.5C 335.088,241.961 311.421,231.128 286.5,223C 282.553,221.846 278.553,221.013 274.5,220.5C 275.594,206.738 273.761,193.404 269,180.5C 256.65,161.619 244.65,161.952 233,181.5C 231.039,186.677 229.706,192.01 229,197.5C 228.661,204.928 228.494,212.262 228.5,219.5C 198.697,227.43 170.697,239.43 144.5,255.5C 144.167,254.833 143.833,254.167 143.5,253.5C 162.474,216.885 181.974,180.552 202,144.5C 207.801,132.115 213.801,119.782 220,107.5C 221.049,106.483 222.216,106.316 223.5,107C 227.185,110.996 231.518,113.663 236.5,115C 231.611,110.614 227.278,105.78 223.5,100.5C 232.953,80.2644 241.286,59.5977 248.5,38.5 Z"/></g>
<g><path style="opacity:0.93" fill="#fefffe" d="M 558.5,131.5 C 561.079,131.083 563.246,131.75 565,133.5C 564.698,142.516 564.865,151.516 565.5,160.5C 579.486,154.953 593.153,155.786 606.5,163C 609.667,164.833 612.167,167.333 614,170.5C 615.141,179.737 615.641,189.071 615.5,198.5C 615.397,209.847 615.064,221.18 614.5,232.5C 607.832,233.5 601.165,234.5 594.5,235.5C 594.667,217.164 594.5,198.83 594,180.5C 591.389,176.34 587.556,174.34 582.5,174.5C 576.556,174.645 571.389,176.645 567,180.5C 565.17,197.783 564.336,215.116 564.5,232.5C 557.891,233.019 551.391,234.019 545,235.5C 544.225,202.154 544.391,168.821 545.5,135.5C 550.165,134.922 554.499,133.589 558.5,131.5 Z"/></g>
<g><path style="opacity:0.873" fill="#c48cae" d="M 633.5,131.5 C 635.5,131.5 637.5,131.5 639.5,131.5C 639.766,164.846 639.266,198.179 638,231.5C 635.003,232.866 631.836,233.533 628.5,233.5C 628.333,205.165 628.5,176.831 629,148.5C 629.171,143.467 629.671,138.467 630.5,133.5C 631.739,133.058 632.739,132.391 633.5,131.5 Z"/></g>
<g><path style="opacity:0.765" fill="#c48cae" d="M 654.5,132.5 C 657.764,134.094 660.431,136.427 662.5,139.5C 660.116,141.885 657.45,143.885 654.5,145.5C 651.833,143.5 649.5,141.167 647.5,138.5C 650.464,137.192 652.797,135.192 654.5,132.5 Z"/></g>
<g><path style="opacity:0.932" fill="#fefffe" d="M 381.5,152.5 C 392.43,151.877 402.764,154.043 412.5,159C 419.832,165.488 423.165,173.655 422.5,183.5C 421.978,199.735 421.311,215.902 420.5,232C 414.436,232.508 408.436,233.341 402.5,234.5C 401.669,232.527 401.502,230.527 402,228.5C 388,237.017 374.5,236.184 361.5,226C 353.023,216.628 350.523,205.795 354,193.5C 360.789,181.184 371.289,175.184 385.5,175.5C 390.321,175.829 394.821,177.163 399,179.5C 399.09,177.232 397.923,175.732 395.5,175C 385.052,173.362 374.719,174.195 364.5,177.5C 362.833,177.167 361.833,176.167 361.5,174.5C 362.985,168.91 364.151,163.244 365,157.5C 365.5,157 366,156.5 366.5,156C 371.702,155.131 376.702,153.964 381.5,152.5 Z M 379.5,195.5 C 385.402,194.962 391.068,195.795 396.5,198C 401.459,204.913 400.126,210.246 392.5,214C 382.77,216.639 376.436,213.306 373.5,204C 374.407,200.337 376.407,197.503 379.5,195.5 Z"/></g>
<g><path style="opacity:0.915" fill="#fefffe" d="M 473.5,172.5 C 465.864,173.654 459.364,176.987 454,182.5C 452.069,198.421 451.069,214.421 451,230.5C 444.185,231.776 437.351,233.109 430.5,234.5C 429.5,208.842 429.167,183.175 429.5,157.5C 436.501,156.166 443.501,154.833 450.5,153.5C 450.335,156.518 450.502,159.518 451,162.5C 459.333,156.001 468.833,153.001 479.5,153.5C 478.302,160.093 476.302,166.427 473.5,172.5 Z"/></g>
<g><path style="opacity:0.931" fill="#fefffe" d="M 473.5,172.5 C 485.833,156.445 501.833,151.279 521.5,157C 529.576,158.533 536.243,162.367 541.5,168.5C 536.981,173.184 532.648,178.018 528.5,183C 524.645,181.073 520.645,179.073 516.5,177C 494.123,175.696 486.623,185.529 494,206.5C 501.716,214.94 510.883,216.773 521.5,212C 523.96,210.542 526.127,208.709 528,206.5C 534,210.139 538,215.139 540,221.5C 528.057,233.626 513.89,237.126 497.5,232C 478.749,226.848 469.082,214.514 468.5,195C 468.685,187.134 470.352,179.634 473.5,172.5 Z"/></g>
<g><path style="opacity:0.873" fill="#c48cae" d="M 697.5,158.5 C 708.203,156.765 717.87,159.098 726.5,165.5C 728.499,167.493 729.999,169.827 731,172.5C 732.166,192.82 733,213.153 733.5,233.5C 729.802,233.552 726.135,233.886 722.5,234.5C 722.407,217.464 722.574,200.464 723,183.5C 720.63,174.301 714.63,169.634 705,169.5C 695.815,169.687 688.815,173.687 684,181.5C 682.812,198.482 681.978,215.482 681.5,232.5C 677.881,233.244 674.215,233.577 670.5,233.5C 670.5,209.5 670.5,185.5 670.5,161.5C 674.197,160.992 677.864,160.326 681.5,159.5C 681.335,163.182 681.501,166.848 682,170.5C 686.184,165.14 691.351,161.14 697.5,158.5 Z"/></g>
<g><path style="opacity:0.819" fill="#c48cae" d="M 656.5,159.5 C 657.268,160.263 657.768,161.263 658,162.5C 660.033,186.152 660.533,209.819 659.5,233.5C 656.421,233.26 653.421,233.593 650.5,234.5C 649.338,210.485 649.671,186.485 651.5,162.5C 653.396,161.725 655.063,160.725 656.5,159.5 Z"/></g>
<g><path style="opacity:0.88" fill="#c48cae" d="M 746.5,160.5 C 748.833,160.5 751.167,160.5 753.5,160.5C 753.139,179.895 753.972,199.228 756,218.5C 759.192,222.93 763.526,225.263 769,225.5C 785.527,224.309 793.694,215.475 793.5,199C 792.673,186.847 792.34,174.68 792.5,162.5C 796.5,161.833 800.5,161.167 804.5,160.5C 804.794,184.859 804.461,209.193 803.5,233.5C 800.447,233.911 797.447,234.577 794.5,235.5C 793.675,231.878 793.175,228.211 793,224.5C 787.476,232.846 779.642,236.846 769.5,236.5C 752.284,236.779 743.451,228.446 743,211.5C 742.548,194.829 742.048,178.162 741.5,161.5C 743.415,161.784 745.081,161.451 746.5,160.5 Z"/></g>
<g><path style="opacity:0.874" fill="#c48cae" d="M 816.5,160.5 C 818.716,161.203 820.549,162.536 822,164.5C 827.626,171.794 833.626,178.794 840,185.5C 845.167,178.333 850.333,171.167 855.5,164C 860.995,162.838 863.828,165.005 864,170.5C 858.2,179.265 852.034,187.765 845.5,196C 853.388,206.222 860.888,216.722 868,227.5C 868.843,233.192 866.343,235.359 860.5,234C 853.667,224.5 846.833,215 840,205.5C 833.36,214.974 826.527,224.307 819.5,233.5C 818.277,234.614 816.944,234.781 815.5,234C 814.271,232.471 812.771,231.304 811,230.5C 810.333,229.167 810.333,227.833 811,226.5C 818.5,216.333 826,206.167 833.5,196C 825.975,186.643 818.642,177.143 811.5,167.5C 813.605,165.408 815.272,163.075 816.5,160.5 Z"/></g>
<g><path style="opacity:0.005" fill="#7d2a4e" d="M 173.5,270.5 C 174.289,270.783 174.956,271.283 175.5,272C 174.184,272.528 173.517,272.028 173.5,270.5 Z"/></g>
</svg>
