<?xml version="1.0" encoding="UTF-8"?>
<!DOCTYPE svg PUBLIC "-//W3C//DTD SVG 1.1//EN" "http://www.w3.org/Graphics/SVG/1.1/DTD/svg11.dtd">
<svg xmlns="http://www.w3.org/2000/svg" version="1.1" width="256px" height="256px" style="shape-rendering:geometricPrecision; text-rendering:geometricPrecision; image-rendering:optimizeQuality; fill-rule:evenodd; clip-rule:evenodd" xmlns:xlink="http://www.w3.org/1999/xlink">
<g><path style="opacity:1" fill="#635057" d="M 167.5,32.5 C 167.167,32.5 166.833,32.5 166.5,32.5C 165.079,29.9906 163.412,27.6572 161.5,25.5C 163.386,24.9348 165.053,23.9348 166.5,22.5C 165.311,21.5713 163.978,21.238 162.5,21.5C 162.657,20.1266 162.49,18.7932 162,17.5C 161.667,19.5 161.333,21.5 161,23.5C 160.617,24.056 160.117,24.3893 159.5,24.5C 160.88,19.2936 159.047,16.2936 154,15.5C 151.817,15.5221 150.317,16.5221 149.5,18.5C 147.563,21.6955 145.563,24.3622 143.5,26.5C 140.784,24.9139 138.45,25.2472 136.5,27.5C 135.833,27.5 135.5,27.8333 135.5,28.5C 133.264,28.5835 130.93,28.2502 128.5,27.5C 127.5,27.5 126.5,27.5 125.5,27.5C 125.379,23.8731 123.545,21.5398 120,20.5C 119.014,23.7417 119.848,26.4083 122.5,28.5C 116.915,31.2076 117.248,32.5409 123.5,32.5C 122.551,33.1524 121.385,33.4857 120,33.5C 117.275,33.0181 115.108,31.6847 113.5,29.5C 110.403,30.5189 109.737,32.5189 111.5,35.5C 110.999,37.8357 109.999,39.8357 108.5,41.5C 108.737,42.791 108.404,43.791 107.5,44.5C 106.659,43.9907 106.159,44.6573 106,46.5C 105.852,43.4114 105.019,40.5781 103.5,38C 104.451,35.8417 104.951,33.675 105,31.5C 103.284,34.6401 101.951,37.9734 101,41.5C 99.4312,52.8013 98.4312,64.1347 98,75.5C 98.1981,73.6183 98.6981,71.9516 99.5,70.5C 99.2256,75.263 99.559,79.9296 100.5,84.5C 100.266,93.5485 101.266,102.549 103.5,111.5C 105.857,111.663 108.19,111.497 110.5,111C 109.409,108.936 109.242,106.769 110,104.5C 110.662,106.813 111.162,109.146 111.5,111.5C 113.5,111.167 115.5,110.833 117.5,110.5C 113.397,112.146 109.063,113.479 104.5,114.5C 105.941,117.724 107.608,120.724 109.5,123.5C 104.195,123.945 100.195,121.612 97.5,116.5C 96.8902,115.609 96.5569,114.609 96.5,113.5C 91.1456,95.9447 88.6456,77.9447 89,59.5C 87.1556,76.9217 88.9889,93.9217 94.5,110.5C 91.3437,111.384 88.3437,112.384 85.5,113.5C 84.2905,113.068 83.2905,112.401 82.5,111.5C 83.1667,111.5 83.5,111.167 83.5,110.5C 84.4682,108.393 84.8016,106.059 84.5,103.5C 85.3091,105.292 85.8091,107.292 86,109.5C 86.1667,107 86.3333,104.5 86.5,102C 84.1641,81.789 83.9974,61.6224 86,41.5C 85.7679,42.7375 85.2679,43.7375 84.5,44.5C 85.2095,38.5387 87.2095,33.0387 90.5,28C 89.09,27.6322 88.09,26.7989 87.5,25.5C 88.5,23.8333 89.8333,22.5 91.5,21.5C 90.0297,18.6807 90.1964,16.014 92,13.5C 93.4216,15.6381 95.255,16.8047 97.5,17C 95.7215,14.8646 95.0548,12.3646 95.5,9.5C 98.3251,10.1434 100.825,11.4767 103,13.5C 116.247,5.04411 130.413,3.21078 145.5,8C 150.392,11.0661 155.392,13.8995 160.5,16.5C 163.93,15.2578 165.263,16.5911 164.5,20.5C 169.791,21.9411 169.791,23.7745 164.5,26C 165.914,27.9935 166.914,30.1602 167.5,32.5 Z"/></g>
<g><path style="opacity:1" fill="#8caf7a" d="M 110.5,25.5 C 113.579,27.0195 116.912,27.8529 120.5,28C 117.833,28.6667 115.167,28.6667 112.5,28C 111.244,27.5831 110.577,26.7498 110.5,25.5 Z"/></g>
<g><path style="opacity:1" fill="#df6c96" d="M 107.5,19.5 C 106.192,20.2323 104.858,21.0656 103.5,22C 104.308,22.3076 104.975,22.8076 105.5,23.5C 104.174,24.6422 103.174,25.9755 102.5,27.5C 101.833,27.5 101.167,27.5 100.5,27.5C 99.8902,26.609 99.5569,25.609 99.5,24.5C 100.218,19.4193 102.885,17.7526 107.5,19.5 Z"/></g>
<g><path style="opacity:1" fill="#f476a5" d="M 109.5,25.5 C 108.7,27.7409 107.034,28.7409 104.5,28.5C 103.342,27.0502 103.842,26.0502 106,25.5C 106.483,24.552 106.649,23.552 106.5,22.5C 107.5,22.5 108.5,22.5 109.5,22.5C 109.5,23.5 109.5,24.5 109.5,25.5 Z"/></g>
<g><path style="opacity:1" fill="#98d589" d="M 99.5,24.5 C 99.5569,25.609 99.8902,26.609 100.5,27.5C 100.719,28.675 100.386,29.675 99.5,30.5C 98.5713,29.3112 98.238,27.9778 98.5,26.5C 95.2784,26.8919 92.2784,26.3919 89.5,25C 91.0589,24.0201 92.7256,23.1867 94.5,22.5C 92.4986,20.5134 91.6652,18.1801 92,15.5C 93.9986,17.4935 95.4986,19.8268 96.5,22.5C 97.3569,23.4252 98.3569,24.0919 99.5,24.5 Z"/></g>
<g><path style="opacity:1" fill="#a14c6d" d="M 107.5,19.5 C 109.975,20.6874 110.975,22.6874 110.5,25.5C 110.167,25.5 109.833,25.5 109.5,25.5C 109.5,24.5 109.5,23.5 109.5,22.5C 108.5,22.5 107.5,22.5 106.5,22.5C 106.649,23.552 106.483,24.552 106,25.5C 103.842,26.0502 103.342,27.0502 104.5,28.5C 103.508,28.6716 102.842,28.3382 102.5,27.5C 103.174,25.9755 104.174,24.6422 105.5,23.5C 104.975,22.8076 104.308,22.3076 103.5,22C 104.858,21.0656 106.192,20.2323 107.5,19.5 Z"/></g>
<g><path style="opacity:1" fill="#eb719f" d="M 159.5,24.5 C 159.5,24.8333 159.5,25.1667 159.5,25.5C 157.621,26.3414 155.621,26.6747 153.5,26.5C 154.174,24.9755 155.174,23.6422 156.5,22.5C 154.913,20.5539 155.246,19.0539 157.5,18C 153.002,16.5233 150.835,18.0233 151,22.5C 152.099,19.9557 153.265,19.9557 154.5,22.5C 153.311,23.4287 151.978,23.762 150.5,23.5C 149.549,22.0813 149.216,20.4147 149.5,18.5C 150.317,16.5221 151.817,15.5221 154,15.5C 159.047,16.2936 160.88,19.2936 159.5,24.5 Z"/></g>
<g><path style="opacity:1" fill="#84b076" d="M 161.5,25.5 C 161.167,25.5 160.833,25.5 160.5,25.5C 160.167,25.5 159.833,25.5 159.5,25.5C 159.5,25.1667 159.5,24.8333 159.5,24.5C 160.117,24.3893 160.617,24.056 161,23.5C 161.333,21.5 161.667,19.5 162,17.5C 162.49,18.7932 162.657,20.1266 162.5,21.5C 163.978,21.238 165.311,21.5713 166.5,22.5C 165.053,23.9348 163.386,24.9348 161.5,25.5 Z"/></g>
<g><path style="opacity:1" fill="#b45278" d="M 153.5,26.5 C 153.167,26.5 152.833,26.5 152.5,26.5C 152.5,26.1667 152.5,25.8333 152.5,25.5C 151.833,24.8333 151.167,24.1667 150.5,23.5C 151.978,23.762 153.311,23.4287 154.5,22.5C 153.265,19.9557 152.099,19.9557 151,22.5C 150.835,18.0233 153.002,16.5233 157.5,18C 155.246,19.0539 154.913,20.5539 156.5,22.5C 155.174,23.6422 154.174,24.9755 153.5,26.5 Z"/></g>
<g><path style="opacity:1" fill="#9dd890" d="M 97.5,11.5 C 99.1454,12.4787 100.479,13.812 101.5,15.5C 98.0797,16.7527 96.7464,15.4193 97.5,11.5 Z"/></g>
<g><path style="opacity:1" fill="#81956d" d="M 128.5,27.5 C 130.93,28.2502 133.264,28.5835 135.5,28.5C 133.052,29.4731 130.385,29.8064 127.5,29.5C 127.833,28.8333 128.167,28.1667 128.5,27.5 Z"/></g>
<g><path style="opacity:1" fill="#95d688" d="M 128.5,27.5 C 128.167,28.1667 127.833,28.8333 127.5,29.5C 126.764,31.2294 125.43,32.2294 123.5,32.5C 117.248,32.5409 116.915,31.2076 122.5,28.5C 119.848,26.4083 119.014,23.7417 120,20.5C 123.545,21.5398 125.379,23.8731 125.5,27.5C 126.5,27.5 127.5,27.5 128.5,27.5 Z"/></g>
<g><path style="opacity:0.917" fill="#e5c353" d="M 194.5,26.5 C 196.973,26.6043 197.639,27.6043 196.5,29.5C 192.307,33.3833 187.64,36.3833 182.5,38.5C 182.351,37.448 182.517,36.448 183,35.5C 186.812,32.3596 190.645,29.3596 194.5,26.5 Z"/></g>
<g><path style="opacity:1" fill="#d66791" d="M 143.5,26.5 C 145.744,33.0878 143.577,35.0878 137,32.5C 136.506,30.8659 136.34,29.1992 136.5,27.5C 138.45,25.2472 140.784,24.9139 143.5,26.5 Z"/></g>
<g><path style="opacity:0.993" fill="#f6cf6b" d="M 67.5,23.5 C 69.0174,23.5106 70.1841,24.1772 71,25.5C 72.944,29.1099 75.2774,32.4432 78,35.5C 80.3531,39.634 79.5197,40.4673 75.5,38C 72.6225,33.7451 69.6225,29.5784 66.5,25.5C 66.8627,24.8165 67.1961,24.1499 67.5,23.5 Z"/></g>
<g><path style="opacity:1" fill="#836f74" d="M 160.5,25.5 C 160.833,25.5 161.167,25.5 161.5,25.5C 163.412,27.6572 165.079,29.9906 166.5,32.5C 169.347,40.9149 170.68,49.5816 170.5,58.5C 169.883,58.3893 169.383,58.056 169,57.5C 165.218,47.0356 162.385,36.369 160.5,25.5 Z"/></g>
<g><path style="opacity:0.762" fill="#f8ce64" d="M 58.5,32.5 C 63.2441,34.9749 67.4107,38.3083 71,42.5C 71.7494,43.635 71.5827,44.635 70.5,45.5C 66.5233,42.6908 62.69,39.6908 59,36.5C 58.51,35.2068 58.3433,33.8734 58.5,32.5 Z"/></g>
<g><path style="opacity:1" fill="#e9c552" d="M 200.5,35.5 C 202.225,35.8425 202.725,36.8425 202,38.5C 198.762,41.9234 194.929,44.2567 190.5,45.5C 192.796,41.2042 196.129,37.8708 200.5,35.5 Z"/></g>
<g><path style="opacity:1" fill="#68545c" d="M 149.5,18.5 C 149.216,20.4147 149.549,22.0813 150.5,23.5C 151.167,24.1667 151.833,24.8333 152.5,25.5C 148.507,24.9995 146.84,26.4995 147.5,30C 148.577,30.4696 149.577,30.3029 150.5,29.5C 152.655,29.628 154.655,29.128 156.5,28C 155.207,27.51 153.873,27.3433 152.5,27.5C 152.5,27.1667 152.5,26.8333 152.5,26.5C 152.833,26.5 153.167,26.5 153.5,26.5C 155.621,26.6747 157.621,26.3414 159.5,25.5C 159.833,25.5 160.167,25.5 160.5,25.5C 162.385,36.369 165.218,47.0356 169,57.5C 169.383,58.056 169.883,58.3893 170.5,58.5C 170.666,62.8461 170.499,67.1794 170,71.5C 167.212,73.4121 165.879,76.0787 166,79.5C 165.667,75.8333 165.333,72.1667 165,68.5C 163.9,81.5893 162.567,94.5893 161,107.5C 161.278,106.584 161.778,105.918 162.5,105.5C 162.579,106.93 162.246,108.264 161.5,109.5C 162.325,110.386 163.325,110.719 164.5,110.5C 164.167,111.167 163.833,111.833 163.5,112.5C 162.127,112.343 160.793,112.51 159.5,113C 157.277,118.057 153.611,121.557 148.5,123.5C 147.438,122.575 147.438,121.575 148.5,120.5C 150.41,117.548 151.41,114.214 151.5,110.5C 152.29,109.391 152.79,108.058 153,106.5C 153.825,96.6578 153.658,86.9911 152.5,77.5C 152.5,77.1667 152.5,76.8333 152.5,76.5C 152.5,74.5 152.5,72.5 152.5,70.5C 153.147,69.7261 153.48,68.7261 153.5,67.5C 152.458,57.3944 150.958,47.3944 149,37.5C 149.07,42.8342 149.57,48.1676 150.5,53.5C 150.167,54.8333 149.833,56.1667 149.5,57.5C 147.38,56.1285 146.38,56.7952 146.5,59.5C 144.94,59.4809 143.44,59.1476 142,58.5C 140.236,61.1376 138.902,60.8042 138,57.5C 137.667,58.5 137.333,59.5 137,60.5C 136.392,58.9336 135.558,57.6002 134.5,56.5C 132.87,52.0886 131.87,47.422 131.5,42.5C 132.797,40.3066 132.797,37.9732 131.5,35.5C 130.031,38.2979 129.198,41.2979 129,44.5C 128.667,44.8333 128.333,45.1667 128,45.5C 127.558,43.3215 126.558,42.6548 125,43.5C 124.305,47.5331 123.472,51.5331 122.5,55.5C 118.153,51.5322 116.153,46.5322 116.5,40.5C 115.325,40.281 114.325,40.6143 113.5,41.5C 112.77,44.1092 112.27,46.7759 112,49.5C 111.667,47.1667 111.333,44.8333 111,42.5C 110.505,44.4727 110.338,46.4727 110.5,48.5C 109.833,46.1667 109.167,43.8333 108.5,41.5C 109.999,39.8357 110.999,37.8357 111.5,35.5C 109.737,32.5189 110.403,30.5189 113.5,29.5C 115.108,31.6847 117.275,33.0181 120,33.5C 121.385,33.4857 122.551,33.1524 123.5,32.5C 125.43,32.2294 126.764,31.2294 127.5,29.5C 130.385,29.8064 133.052,29.4731 135.5,28.5C 135.5,27.8333 135.833,27.5 136.5,27.5C 136.34,29.1992 136.506,30.8659 137,32.5C 143.577,35.0878 145.744,33.0878 143.5,26.5C 145.563,24.3622 147.563,21.6955 149.5,18.5 Z"/></g>
<g><path style="opacity:1" fill="#769066" d="M 152.5,27.5 C 153.873,27.3433 155.207,27.51 156.5,28C 154.655,29.128 152.655,29.628 150.5,29.5C 150.833,28.5 151.5,27.8333 152.5,27.5 Z"/></g>
<g><path style="opacity:1" fill="#93d284" d="M 152.5,25.5 C 152.5,25.8333 152.5,26.1667 152.5,26.5C 152.5,26.8333 152.5,27.1667 152.5,27.5C 151.5,27.8333 150.833,28.5 150.5,29.5C 149.577,30.3029 148.577,30.4696 147.5,30C 146.84,26.4995 148.507,24.9995 152.5,25.5 Z"/></g>
<g><path style="opacity:1" fill="#e9c4c5" d="M 131.5,42.5 C 131.87,47.422 132.87,52.0886 134.5,56.5C 134.993,58.8056 135.326,61.139 135.5,63.5C 133.883,61.8791 132.716,59.8791 132,57.5C 131.955,60.334 131.121,62.834 129.5,65C 124.411,65.8257 119.411,65.4924 114.5,64C 111.722,61.5161 110.389,58.3494 110.5,54.5C 111.795,57.3634 113.462,60.03 115.5,62.5C 116.086,62.2907 116.586,61.9574 117,61.5C 117.519,62.5156 118.353,63.1822 119.5,63.5C 122.865,62.9248 126.198,62.2581 129.5,61.5C 130.13,54.4379 130.796,48.1046 131.5,42.5 Z"/></g>
<g><path style="opacity:1" fill="#e9c654" d="M 211.5,49.5 C 212.5,49.5 213.5,49.5 214.5,49.5C 214.67,50.8221 214.337,51.9887 213.5,53C 209.731,54.5966 206.064,56.43 202.5,58.5C 201.417,57.635 201.251,56.635 202,55.5C 205.18,53.3377 208.346,51.3377 211.5,49.5 Z"/></g>
<g><path style="opacity:0.883" fill="#ecc960" d="M 42.5,55.5 C 47.807,55.6006 52.4737,57.2673 56.5,60.5C 55.6667,60.8333 54.8333,61.1667 54,61.5C 50.8357,60.6676 47.669,59.8343 44.5,59C 43.0267,58.2904 42.3601,57.1238 42.5,55.5 Z"/></g>
<g><path style="opacity:1" fill="#5b424d" d="M 131.5,42.5 C 130.796,48.1046 130.13,54.4379 129.5,61.5C 126.198,62.2581 122.865,62.9248 119.5,63.5C 118.353,63.1822 117.519,62.5156 117,61.5C 116.586,61.9574 116.086,62.2907 115.5,62.5C 113.462,60.03 111.795,57.3634 110.5,54.5C 110.5,52.5 110.5,50.5 110.5,48.5C 110.338,46.4727 110.505,44.4727 111,42.5C 111.333,44.8333 111.667,47.1667 112,49.5C 112.27,46.7759 112.77,44.1092 113.5,41.5C 114.325,40.6143 115.325,40.281 116.5,40.5C 116.153,46.5322 118.153,51.5322 122.5,55.5C 123.472,51.5331 124.305,47.5331 125,43.5C 126.558,42.6548 127.558,43.3215 128,45.5C 128.333,45.1667 128.667,44.8333 129,44.5C 129.198,41.2979 130.031,38.2979 131.5,35.5C 132.797,37.9732 132.797,40.3066 131.5,42.5 Z"/></g>
<g><path style="opacity:1" fill="#e2bdbe" d="M 108.5,41.5 C 109.167,43.8333 109.833,46.1667 110.5,48.5C 110.5,50.5 110.5,52.5 110.5,54.5C 109.5,54.5 108.5,54.5 107.5,54.5C 106.728,58.4517 106.395,62.4517 106.5,66.5C 105.71,67.4013 104.71,68.0679 103.5,68.5C 103.5,67.5 103.5,66.5 103.5,65.5C 104.317,58.5352 105.65,51.5352 107.5,44.5C 108.404,43.791 108.737,42.791 108.5,41.5 Z"/></g>
<g><path style="opacity:1" fill="#57404a" d="M 107.5,44.5 C 105.65,51.5352 104.317,58.5352 103.5,65.5C 102.9,62.3753 101.733,62.042 100,64.5C 99.5045,66.4727 99.3379,68.4727 99.5,70.5C 98.6981,71.9516 98.1981,73.6183 98,75.5C 98.4312,64.1347 99.4312,52.8013 101,41.5C 101.951,37.9734 103.284,34.6401 105,31.5C 104.951,33.675 104.451,35.8417 103.5,38C 105.019,40.5781 105.852,43.4114 106,46.5C 106.159,44.6573 106.659,43.9907 107.5,44.5 Z"/></g>
<g><path style="opacity:1" fill="#543d48" d="M 152.5,70.5 C 152.579,67.7294 152.079,65.0627 151,62.5C 150.517,63.448 150.351,64.448 150.5,65.5C 147.478,65.196 144.478,64.696 141.5,64C 140.333,63.5 139.5,62.6667 139,61.5C 138.583,62.756 137.75,63.4226 136.5,63.5C 136.167,63.5 135.833,63.5 135.5,63.5C 135.326,61.139 134.993,58.8056 134.5,56.5C 135.558,57.6002 136.392,58.9336 137,60.5C 137.333,59.5 137.667,58.5 138,57.5C 138.902,60.8042 140.236,61.1376 142,58.5C 143.44,59.1476 144.94,59.4809 146.5,59.5C 146.38,56.7952 147.38,56.1285 149.5,57.5C 149.833,56.1667 150.167,54.8333 150.5,53.5C 149.57,48.1676 149.07,42.8342 149,37.5C 150.958,47.3944 152.458,57.3944 153.5,67.5C 153.48,68.7261 153.147,69.7261 152.5,70.5 Z"/></g>
<g><path style="opacity:1" fill="#fcf2e8" d="M 110.5,54.5 C 110.389,58.3494 111.722,61.5161 114.5,64C 119.411,65.4924 124.411,65.8257 129.5,65C 131.121,62.834 131.955,60.334 132,57.5C 132.716,59.8791 133.883,61.8791 135.5,63.5C 135.833,63.5 136.167,63.5 136.5,63.5C 136.5,64.1667 136.5,64.8333 136.5,65.5C 136.623,68.007 136.289,70.6737 135.5,73.5C 135.34,75.3545 136.007,76.6879 137.5,77.5C 138.841,79.12 140.674,80.12 143,80.5C 143.464,79.9056 143.631,79.2389 143.5,78.5C 144.496,78.5858 145.329,78.2524 146,77.5C 146.973,75.6079 147.64,73.6079 148,71.5C 149.561,73.6248 150.728,75.2915 151.5,76.5C 151.833,76.5 152.167,76.5 152.5,76.5C 152.5,76.8333 152.5,77.1667 152.5,77.5C 152.677,81.2343 152.344,84.9009 151.5,88.5C 150.599,89.2905 149.932,90.2905 149.5,91.5C 147.996,93.8356 145.996,95.669 143.5,97C 139.741,98.8793 136.075,100.713 132.5,102.5C 128.833,103.833 125.167,103.833 121.5,102.5C 116.893,100.452 112.227,98.2854 107.5,96C 103.984,92.7859 101.65,88.9526 100.5,84.5C 99.559,79.9296 99.2256,75.263 99.5,70.5C 99.3379,68.4727 99.5045,66.4727 100,64.5C 101.733,62.042 102.9,62.3753 103.5,65.5C 103.5,66.5 103.5,67.5 103.5,68.5C 100.76,70.9003 99.9271,73.9003 101,77.5C 101.26,75.3825 102.26,73.7158 104,72.5C 104.814,75.1767 106.314,77.1767 108.5,78.5C 108.369,79.3764 108.702,80.0431 109.5,80.5C 111.382,79.9067 113.215,79.2401 115,78.5C 116.157,74.1908 116.657,69.8575 116.5,65.5C 113.098,65.3424 109.764,65.6758 106.5,66.5C 106.395,62.4517 106.728,58.4517 107.5,54.5C 108.5,54.5 109.5,54.5 110.5,54.5 Z"/></g>
<g><path style="opacity:1" fill="#cdaab0" d="M 152.5,70.5 C 152.5,72.5 152.5,74.5 152.5,76.5C 152.167,76.5 151.833,76.5 151.5,76.5C 150.621,67.3071 145.621,63.6405 136.5,65.5C 136.5,64.8333 136.5,64.1667 136.5,63.5C 137.75,63.4226 138.583,62.756 139,61.5C 139.5,62.6667 140.333,63.5 141.5,64C 144.478,64.696 147.478,65.196 150.5,65.5C 150.351,64.448 150.517,63.448 151,62.5C 152.079,65.0627 152.579,67.7294 152.5,70.5 Z"/></g>
<g><path style="opacity:1" fill="#5a4148" d="M 151.5,76.5 C 150.728,75.2915 149.561,73.6248 148,71.5C 147.64,73.6079 146.973,75.6079 146,77.5C 145.329,78.2524 144.496,78.5858 143.5,78.5C 145.123,74.5922 144.456,73.9255 141.5,76.5C 139.512,74.8528 138.179,75.1861 137.5,77.5C 136.007,76.6879 135.34,75.3545 135.5,73.5C 136.289,70.6737 136.623,68.007 136.5,65.5C 145.621,63.6405 150.621,67.3071 151.5,76.5 Z"/></g>
<g><path style="opacity:1" fill="#cfc8ca" d="M 142.5,68.5 C 143.5,68.5 144.5,68.5 145.5,68.5C 145.495,73.3127 144.495,73.3127 142.5,68.5 Z"/></g>
<g><path style="opacity:0.952" fill="#f4d16e" d="M 36.5,70.5 C 41.2142,70.3531 45.8809,70.6864 50.5,71.5C 50.5,72.5 50.5,73.5 50.5,74.5C 46.1539,74.6657 41.8206,74.499 37.5,74C 35.273,73.296 34.9397,72.1294 36.5,70.5 Z"/></g>
<g><path style="opacity:1" fill="#553c43" d="M 108.5,78.5 C 106.314,77.1767 104.814,75.1767 104,72.5C 102.26,73.7158 101.26,75.3825 101,77.5C 99.9271,73.9003 100.76,70.9003 103.5,68.5C 104.71,68.0679 105.71,67.4013 106.5,66.5C 109.764,65.6758 113.098,65.3424 116.5,65.5C 116.657,69.8575 116.157,74.1908 115,78.5C 113.215,79.2401 111.382,79.9067 109.5,80.5C 108.702,80.0431 108.369,79.3764 108.5,78.5 Z"/></g>
<g><path style="opacity:1" fill="#bcb3b5" d="M 110.5,68.5 C 111.833,68.5 113.167,68.5 114.5,68.5C 114.649,69.552 114.483,70.552 114,71.5C 112.271,71.0257 111.105,70.0257 110.5,68.5 Z"/></g>
<g><path style="opacity:1" fill="#e9c5b3" d="M 108.5,78.5 C 108.5,77.5 108.5,76.5 108.5,75.5C 110.144,75.7135 111.644,75.3802 113,74.5C 113.692,75.0253 114.192,75.6919 114.5,76.5C 112.827,78.0863 110.827,78.7529 108.5,78.5 Z"/></g>
<g><path style="opacity:1" fill="#eac8b6" d="M 143.5,78.5 C 141.565,77.8505 139.565,77.5172 137.5,77.5C 138.179,75.1861 139.512,74.8528 141.5,76.5C 144.456,73.9255 145.123,74.5922 143.5,78.5 Z"/></g>
<g><path style="opacity:1" fill="#66504f" d="M 137.5,77.5 C 139.565,77.5172 141.565,77.8505 143.5,78.5C 143.631,79.2389 143.464,79.9056 143,80.5C 140.674,80.12 138.841,79.12 137.5,77.5 Z"/></g>
<g><path style="opacity:0.973" fill="#f7d06c" d="M 225.5,79.5 C 227.87,79.9825 228.537,81.1492 227.5,83C 222.777,83.9775 218.111,85.1441 213.5,86.5C 211.512,85.7112 211.179,84.5445 212.5,83C 216.999,81.961 221.332,80.7943 225.5,79.5 Z"/></g>
<g><path style="opacity:1" fill="#564148" d="M 166.5,32.5 C 166.833,32.5 167.167,32.5 167.5,32.5C 171.462,41.4707 173.462,50.9707 173.5,61C 172.606,64.7762 172.272,68.6095 172.5,72.5C 171.617,77.1031 171.283,81.7697 171.5,86.5C 171.5,90.1667 171.5,93.8333 171.5,97.5C 171.103,102.324 169.937,102.324 168,97.5C 167.283,101.137 166.783,104.804 166.5,108.5C 166.319,111.163 166.985,113.497 168.5,115.5C 169.73,117.297 170.396,119.297 170.5,121.5C 170.565,121.938 170.399,122.272 170,122.5C 169.065,118.28 166.899,114.947 163.5,112.5C 163.833,111.833 164.167,111.167 164.5,110.5C 164.664,107.813 164.497,105.146 164,102.5C 163.487,103.527 162.987,104.527 162.5,105.5C 161.778,105.918 161.278,106.584 161,107.5C 162.567,94.5893 163.9,81.5893 165,68.5C 165.333,72.1667 165.667,75.8333 166,79.5C 165.879,76.0787 167.212,73.4121 170,71.5C 170.499,67.1794 170.666,62.8461 170.5,58.5C 170.68,49.5816 169.347,40.9149 166.5,32.5 Z"/></g>
<g><path style="opacity:1" fill="#473038" d="M 152.5,77.5 C 153.658,86.9911 153.825,96.6578 153,106.5C 152.79,108.058 152.29,109.391 151.5,110.5C 149.282,110.386 147.282,109.72 145.5,108.5C 144.522,107.703 144.855,107.036 146.5,106.5C 147.695,108.297 149.362,109.297 151.5,109.5C 152.361,102.429 152.361,95.4292 151.5,88.5C 152.344,84.9009 152.677,81.2343 152.5,77.5 Z"/></g>
<g><path style="opacity:0.958" fill="#f7cf68" d="M 29.5,89.5 C 34.2158,90.0083 38.8824,90.8416 43.5,92C 44.8413,93.8265 44.3413,94.9931 42,95.5C 38.1974,94.5394 34.364,93.7061 30.5,93C 28.273,92.296 27.9397,91.1294 29.5,89.5 Z"/></g>
<g><path style="opacity:1" fill="#825f6a" d="M 100.5,84.5 C 101.65,88.9526 103.984,92.7859 107.5,96C 112.227,98.2854 116.893,100.452 121.5,102.5C 120.072,105.072 118.738,107.739 117.5,110.5C 115.5,110.833 113.5,111.167 111.5,111.5C 111.162,109.146 110.662,106.813 110,104.5C 109.242,106.769 109.409,108.936 110.5,111C 108.19,111.497 105.857,111.663 103.5,111.5C 101.266,102.549 100.266,93.5485 100.5,84.5 Z"/></g>
<g><path style="opacity:0.994" fill="#f6d06e" d="M 223.5,89.5 C 225.681,89.2837 227.347,90.117 228.5,92C 225.013,93.6217 221.346,94.455 217.5,94.5C 217.281,93.325 217.614,92.325 218.5,91.5C 220.336,90.9724 222.003,90.3058 223.5,89.5 Z"/></g>
<g><path style="opacity:1" fill="#84626c" d="M 151.5,88.5 C 152.361,95.4292 152.361,102.429 151.5,109.5C 149.362,109.297 147.695,108.297 146.5,106.5C 144.855,107.036 144.522,107.703 145.5,108.5C 144.833,110.5 144.167,112.5 143.5,114.5C 142.167,116.5 140.833,118.5 139.5,120.5C 134.906,123.963 129.906,126.63 124.5,128.5C 128.768,125.691 133.102,122.857 137.5,120C 139.141,118.871 140.141,117.371 140.5,115.5C 141.478,115.189 142.145,114.522 142.5,113.5C 141.051,112.828 139.718,112.161 138.5,111.5C 139.239,111.631 139.906,111.464 140.5,111C 134.219,108.092 133.886,104.592 139.5,100.5C 140.321,103.447 140.821,106.447 141,109.5C 141.333,106.167 141.667,102.833 142,99.5C 144.846,97.7433 147.512,95.7433 150,93.5C 150.692,92.5632 150.525,91.8966 149.5,91.5C 149.932,90.2905 150.599,89.2905 151.5,88.5 Z"/></g>
<g><path style="opacity:0.824" fill="#544248" d="M 217.5,119.5 C 217.5,120.167 217.5,120.833 217.5,121.5C 212.354,114.568 207.188,107.568 202,100.5C 198.174,95.3183 193.341,93.8183 187.5,96C 182.99,100.409 178.323,104.575 173.5,108.5C 172.833,108.5 172.5,108.167 172.5,107.5C 176.605,103.898 180.605,100.065 184.5,96C 186.71,94.2609 189.21,93.0943 192,92.5C 198.112,94.6068 203.112,98.2735 207,103.5C 210.759,108.691 214.259,114.024 217.5,119.5 Z"/></g>
<g><path style="opacity:1" fill="#fdfdfd" d="M 71.5,100.5 C 74.8062,104.473 78.4729,108.14 82.5,111.5C 83.2905,112.401 84.2905,113.068 85.5,113.5C 83.201,121.573 80.0344,129.24 76,136.5C 74.0726,142.009 71.906,147.342 69.5,152.5C 67.9925,154.181 66.9925,156.181 66.5,158.5C 64.1441,161.715 62.6441,165.381 62,169.5C 61.6806,174.975 61.5139,180.309 61.5,185.5C 58.7318,187.087 56.0652,188.92 53.5,191C 51.892,191.658 50.7253,191.158 50,189.5C 47.8665,193.933 44.6999,197.433 40.5,200C 39.2161,200.684 38.0495,200.517 37,199.5C 36.6667,197.833 36.3333,196.167 36,194.5C 34.0879,196.657 32.4213,198.991 31,201.5C 27.4772,205.701 24.4772,205.368 22,200.5C 21.0177,195.874 20.1843,191.208 19.5,186.5C 15.7157,193.734 12.2157,201.067 9,208.5C 6.99566,205.525 5.99566,202.192 6,198.5C 3.81951,176.708 8.81951,156.708 21,138.5C 31.7464,121.753 45.2464,107.586 61.5,96C 66.3075,94.5744 69.6408,96.0744 71.5,100.5 Z"/></g>
<g><path style="opacity:1" fill="#fdfdfd" d="M 217.5,121.5 C 232.982,144.483 242.316,169.817 245.5,197.5C 245.5,202.5 245.5,207.5 245.5,212.5C 244.178,212.67 243.011,212.337 242,211.5C 240.363,208.283 239.03,204.95 238,201.5C 238.152,204.447 238.319,207.447 238.5,210.5C 236.345,210.628 234.345,210.128 232.5,209C 231,206.833 229.5,204.667 228,202.5C 226.574,205.861 224.407,206.361 221.5,204C 217.964,199.763 214.798,195.263 212,190.5C 211.506,192.134 211.34,193.801 211.5,195.5C 206.772,195.625 203.439,193.458 201.5,189C 197.471,185.985 193.137,183.485 188.5,181.5C 186.722,177.435 186.055,173.101 186.5,168.5C 185.999,163.324 184.332,158.658 181.5,154.5C 179.574,147.974 177.074,141.641 174,135.5C 172.972,131.527 172.139,127.527 171.5,123.5C 171.672,122.508 171.338,121.842 170.5,121.5C 170.396,119.297 169.73,117.297 168.5,115.5C 169.704,112.862 171.37,110.529 173.5,108.5C 178.323,104.575 182.99,100.409 187.5,96C 193.341,93.8183 198.174,95.3183 202,100.5C 207.188,107.568 212.354,114.568 217.5,121.5 Z"/></g>
<g><path style="opacity:1" fill="#6c595f" d="M 172.5,72.5 C 179.255,82.4783 179.089,92.4783 172,102.5C 171.22,104.387 171.387,106.054 172.5,107.5C 172.5,108.167 172.833,108.5 173.5,108.5C 171.37,110.529 169.704,112.862 168.5,115.5C 166.985,113.497 166.319,111.163 166.5,108.5C 166.783,104.804 167.283,101.137 168,97.5C 169.937,102.324 171.103,102.324 171.5,97.5C 173.867,94.32 174.867,90.6533 174.5,86.5C 173.473,74.7467 172.473,74.7467 171.5,86.5C 171.283,81.7697 171.617,77.1031 172.5,72.5 Z"/></g>
<g><path style="opacity:1" fill="#62464d" d="M 149.5,91.5 C 150.525,91.8966 150.692,92.5632 150,93.5C 147.512,95.7433 144.846,97.7433 142,99.5C 141.667,102.833 141.333,106.167 141,109.5C 140.821,106.447 140.321,103.447 139.5,100.5C 133.886,104.592 134.219,108.092 140.5,111C 139.906,111.464 139.239,111.631 138.5,111.5C 136.983,111.489 135.816,110.823 135,109.5C 135.03,106.639 134.197,104.305 132.5,102.5C 136.075,100.713 139.741,98.8793 143.5,97C 145.996,95.669 147.996,93.8356 149.5,91.5 Z"/></g>
<g><path style="opacity:1" fill="#f7cf66" d="M 220.5,99.5 C 224.555,99.1758 228.555,99.5091 232.5,100.5C 232.291,101.086 231.957,101.586 231.5,102C 228.475,102.361 225.475,102.861 222.5,103.5C 219.652,103.139 218.986,101.806 220.5,99.5 Z"/></g>
<g><path style="opacity:1" fill="#443138" d="M 96.5,113.5 C 92.758,111.982 89.4246,112.648 86.5,115.5C 86.6716,114.508 86.3382,113.842 85.5,113.5C 88.3437,112.384 91.3437,111.384 94.5,110.5C 88.9889,93.9217 87.1556,76.9217 89,59.5C 88.6456,77.9447 91.1456,95.9447 96.5,113.5 Z"/></g>
<g><path style="opacity:1" fill="#e8c1c5" d="M 121.5,102.5 C 125.167,105.167 128.833,105.167 132.5,102.5C 134.197,104.305 135.03,106.639 135,109.5C 135.816,110.823 136.983,111.489 138.5,111.5C 139.718,112.161 141.051,112.828 142.5,113.5C 142.145,114.522 141.478,115.189 140.5,115.5C 136.318,116.952 131.984,117.618 127.5,117.5C 121.448,117.222 115.448,116.555 109.5,115.5C 109.034,117.201 109.034,118.701 109.5,120C 113.167,120.333 116.833,120.667 120.5,121C 121.973,121.71 122.64,122.876 122.5,124.5C 119.367,123.735 116.2,123.068 113,122.5C 111.615,122.514 110.449,122.848 109.5,123.5C 107.608,120.724 105.941,117.724 104.5,114.5C 109.063,113.479 113.397,112.146 117.5,110.5C 118.738,107.739 120.072,105.072 121.5,102.5 Z"/></g>
<g><path style="opacity:1" fill="#6f565a" d="M 121.5,102.5 C 125.167,103.833 128.833,103.833 132.5,102.5C 128.833,105.167 125.167,105.167 121.5,102.5 Z"/></g>
<g><path style="opacity:0.976" fill="#f7d167" d="M 41.5,110.5 C 40.8333,110.5 40.5,110.833 40.5,111.5C 35.8333,111.5 31.1667,111.5 26.5,111.5C 26.33,110.178 26.6634,109.011 27.5,108C 31.5,107.333 35.5,107.333 39.5,108C 40.756,108.417 41.4226,109.25 41.5,110.5 Z"/></g>
<g><path style="opacity:1" fill="#cec4c3" d="M 145.5,108.5 C 147.282,109.72 149.282,110.386 151.5,110.5C 151.41,114.214 150.41,117.548 148.5,120.5C 148.662,118.473 148.495,116.473 148,114.5C 147.178,116.788 146.511,119.122 146,121.5C 145.242,119.231 145.409,117.064 146.5,115C 145.552,114.517 144.552,114.351 143.5,114.5C 144.167,112.5 144.833,110.5 145.5,108.5 Z"/></g>
<g><path style="opacity:1" fill="#e5c0c2" d="M 96.5,113.5 C 96.5569,114.609 96.8902,115.609 97.5,116.5C 93.8333,116.5 90.1667,116.5 86.5,116.5C 86.5,116.167 86.5,115.833 86.5,115.5C 89.4246,112.648 92.758,111.982 96.5,113.5 Z"/></g>
<g><path style="opacity:1" fill="#fdfbf6" d="M 171.5,171.5 C 170.92,167.858 170.42,164.191 170,160.5C 169.803,158.139 168.636,156.472 166.5,155.5C 165.333,184.828 165.167,214.161 166,243.5C 167.049,245.107 168.549,245.773 170.5,245.5C 170.877,237.389 171.877,229.389 173.5,221.5C 175.192,223.359 176.692,225.359 178,227.5C 178.816,228.823 179.983,229.489 181.5,229.5C 184.909,234.323 187.243,239.656 188.5,245.5C 183.507,245.916 178.507,246.249 173.5,246.5C 168.5,246.5 163.5,246.5 158.5,246.5C 157.217,230.443 155.384,214.443 153,198.5C 152.583,197.244 151.75,196.577 150.5,196.5C 150.631,195.624 150.298,194.957 149.5,194.5C 148.341,211.279 149.008,227.945 151.5,244.5C 149.143,246.098 146.477,247.098 143.5,247.5C 134.161,247.666 124.827,247.5 115.5,247C 111.553,245.915 108.053,244.081 105,241.5C 104.506,239.866 104.34,238.199 104.5,236.5C 105.338,236.158 105.672,235.492 105.5,234.5C 107.04,228.749 107.706,222.749 107.5,216.5C 106.998,203.813 106.165,191.146 105,178.5C 104.888,175.553 103.388,174.22 100.5,174.5C 100.333,190.17 100.5,205.837 101,221.5C 101.273,223.101 101.773,224.601 102.5,226C 102.272,226.399 101.938,226.565 101.5,226.5C 98.1614,224.386 94.4947,223.053 90.5,222.5C 89.6314,220.283 89.298,217.95 89.5,215.5C 91.5798,213.427 93.2464,211.093 94.5,208.5C 95.1174,208.389 95.6174,208.056 96,207.5C 96.6667,203.167 96.6667,198.833 96,194.5C 95.6667,196.167 95.3333,197.833 95,199.5C 94.6232,198.058 93.7899,197.058 92.5,196.5C 91.1667,193.167 88.8333,190.833 85.5,189.5C 82.8333,186.167 79.8333,183.167 76.5,180.5C 76.6716,179.508 76.3382,178.842 75.5,178.5C 74.7255,173.203 74.3921,167.87 74.5,162.5C 75.9075,154.688 76.9075,146.688 77.5,138.5C 77.5041,136.158 78.3375,134.158 80,132.5C 89.8918,137.27 100.058,137.77 110.5,134C 115.612,133.024 120.278,131.191 124.5,128.5C 129.906,126.63 134.906,123.963 139.5,120.5C 141.017,120.489 142.184,119.823 143,118.5C 143.251,120.433 143.751,122.266 144.5,124C 143.944,124.383 143.611,124.883 143.5,125.5C 142.202,134.287 140.369,142.954 138,151.5C 136.172,149.193 134.506,149.526 133,152.5C 125.747,164.671 118.747,177.004 112,189.5C 111.788,196.747 112.288,203.914 113.5,211C 114.944,211.781 116.277,211.614 117.5,210.5C 119.69,207.235 121.69,203.901 123.5,200.5C 126.54,197.086 128.54,193.086 129.5,188.5C 134.192,178.077 137.192,167.077 138.5,155.5C 141.452,146.15 143.452,136.483 144.5,126.5C 146.482,126.005 148.482,125.505 150.5,125C 154.699,121.628 158.699,118.128 162.5,114.5C 163.672,114.919 164.672,115.585 165.5,116.5C 167.351,123.139 169.018,129.806 170.5,136.5C 169.47,140.465 169.303,144.465 170,148.5C 172.194,156.026 173.694,163.692 174.5,171.5C 175.833,171.5 177.167,171.5 178.5,171.5C 178.5,168.833 178.5,166.167 178.5,163.5C 179.822,163.33 180.989,163.663 182,164.5C 182.392,167.188 182.892,169.855 183.5,172.5C 184.084,179.907 180.751,183.907 173.5,184.5C 173.116,179.99 172.449,175.657 171.5,171.5 Z"/></g>
<g><path style="opacity:1" fill="#f4f3f1" d="M 163.5,112.5 C 166.899,114.947 169.065,118.28 170,122.5C 170.399,122.272 170.565,121.938 170.5,121.5C 171.338,121.842 171.672,122.508 171.5,123.5C 170.853,124.274 170.52,125.274 170.5,126.5C 173.315,140.37 175.148,154.37 176,168.5C 176.563,159.092 176.23,149.759 175,140.5C 176.899,145.396 179.065,150.063 181.5,154.5C 182.842,159.207 184.175,163.874 185.5,168.5C 185.95,174.136 184.95,179.47 182.5,184.5C 179.757,186.239 177.757,188.573 176.5,191.5C 175.833,191.833 175.167,192.167 174.5,192.5C 173.203,190.629 172.203,188.629 171.5,186.5C 171.5,181.833 171.5,177.167 171.5,172.5C 171.5,172.167 171.5,171.833 171.5,171.5C 172.449,175.657 173.116,179.99 173.5,184.5C 180.751,183.907 184.084,179.907 183.5,172.5C 182.892,169.855 182.392,167.188 182,164.5C 180.989,163.663 179.822,163.33 178.5,163.5C 178.5,166.167 178.5,168.833 178.5,171.5C 177.167,171.5 175.833,171.5 174.5,171.5C 173.694,163.692 172.194,156.026 170,148.5C 169.303,144.465 169.47,140.465 170.5,136.5C 169.018,129.806 167.351,123.139 165.5,116.5C 164.672,115.585 163.672,114.919 162.5,114.5C 158.699,118.128 154.699,121.628 150.5,125C 148.482,125.505 146.482,126.005 144.5,126.5C 144.5,125.833 144.167,125.5 143.5,125.5C 143.611,124.883 143.944,124.383 144.5,124C 143.751,122.266 143.251,120.433 143,118.5C 142.184,119.823 141.017,120.489 139.5,120.5C 140.833,118.5 142.167,116.5 143.5,114.5C 144.552,114.351 145.552,114.517 146.5,115C 145.409,117.064 145.242,119.231 146,121.5C 146.511,119.122 147.178,116.788 148,114.5C 148.495,116.473 148.662,118.473 148.5,120.5C 147.438,121.575 147.438,122.575 148.5,123.5C 153.611,121.557 157.277,118.057 159.5,113C 160.793,112.51 162.127,112.343 163.5,112.5 Z"/></g>
<g><path style="opacity:1" fill="#fbf4ea" d="M 140.5,115.5 C 140.141,117.371 139.141,118.871 137.5,120C 133.102,122.857 128.768,125.691 124.5,128.5C 116.747,130.73 108.914,132.73 101,134.5C 99.6739,134.245 98.6739,133.578 98,132.5C 96.4747,133.72 94.6413,134.387 92.5,134.5C 89.433,134.393 86.433,133.893 83.5,133C 82.4844,132.481 81.8178,131.647 81.5,130.5C 82.7797,125.659 84.4464,120.992 86.5,116.5C 90.1667,116.5 93.8333,116.5 97.5,116.5C 100.195,121.612 104.195,123.945 109.5,123.5C 110.449,122.848 111.615,122.514 113,122.5C 116.2,123.068 119.367,123.735 122.5,124.5C 122.64,122.876 121.973,121.71 120.5,121C 116.833,120.667 113.167,120.333 109.5,120C 109.034,118.701 109.034,117.201 109.5,115.5C 115.448,116.555 121.448,117.222 127.5,117.5C 131.984,117.618 136.318,116.952 140.5,115.5 Z"/></g>
<g><path style="opacity:0.812" fill="#f4ce69" d="M 219.5,122.5 C 218.833,122.167 218.167,121.833 217.5,121.5C 217.5,120.833 217.5,120.167 217.5,119.5C 221.424,118.835 225.424,119.002 229.5,120C 230.973,120.71 231.64,121.876 231.5,123.5C 227.5,123.167 223.5,122.833 219.5,122.5 Z"/></g>
<g><path style="opacity:1" fill="#725f5f" d="M 85.5,113.5 C 86.3382,113.842 86.6716,114.508 86.5,115.5C 86.5,115.833 86.5,116.167 86.5,116.5C 84.4464,120.992 82.7797,125.659 81.5,130.5C 81.8178,131.647 82.4844,132.481 83.5,133C 86.433,133.893 89.433,134.393 92.5,134.5C 94.6413,134.387 96.4747,133.72 98,132.5C 98.6739,133.578 99.6739,134.245 101,134.5C 108.914,132.73 116.747,130.73 124.5,128.5C 120.278,131.191 115.612,133.024 110.5,134C 100.058,137.77 89.8918,137.27 80,132.5C 78.3375,134.158 77.5041,136.158 77.5,138.5C 76.1302,140.25 75.1302,142.25 74.5,144.5C 73.9254,148.523 73.2588,152.523 72.5,156.5C 71.6909,154.708 71.1909,152.708 71,150.5C 70.7216,151.416 70.2216,152.082 69.5,152.5C 71.906,147.342 74.0726,142.009 76,136.5C 80.0344,129.24 83.201,121.573 85.5,113.5 Z"/></g>
<g><path style="opacity:1" fill="#dfd8d2" d="M 89.5,140.5 C 90.8221,140.33 91.9887,140.663 93,141.5C 96.5048,150.745 97.1715,160.079 95,169.5C 94.2015,165.576 93.7015,165.576 93.5,169.5C 94.4147,173.144 94.5813,176.81 94,180.5C 92.584,169.753 90.7506,159.086 88.5,148.5C 88.6144,145.783 88.9477,143.116 89.5,140.5 Z"/></g>
<g><path style="opacity:1" fill="#dcd2ce" d="M 162.5,127.5 C 163.83,133.463 164.496,139.796 164.5,146.5C 164.333,152.833 164.167,159.167 164,165.5C 162.809,152.861 162.309,140.194 162.5,127.5 Z"/></g>
<g><path style="opacity:1" fill="#746164" d="M 171.5,123.5 C 172.139,127.527 172.972,131.527 174,135.5C 177.074,141.641 179.574,147.974 181.5,154.5C 179.065,150.063 176.899,145.396 175,140.5C 176.23,149.759 176.563,159.092 176,168.5C 175.148,154.37 173.315,140.37 170.5,126.5C 170.52,125.274 170.853,124.274 171.5,123.5 Z"/></g>
<g><path style="opacity:1" fill="#a29492" d="M 111.5,147.5 C 112.552,147.351 113.552,147.517 114.5,148C 111.068,150.072 107.402,150.738 103.5,150C 106.379,149.454 109.046,148.621 111.5,147.5 Z"/></g>
<g><path style="opacity:1" fill="#a29899" d="M 77.5,138.5 C 76.9075,146.688 75.9075,154.688 74.5,162.5C 74.6716,161.508 74.3382,160.842 73.5,160.5C 74.1245,156.006 74.7912,151.506 75.5,147C 75.472,145.93 75.1386,145.097 74.5,144.5C 75.1302,142.25 76.1302,140.25 77.5,138.5 Z"/></g>
<g><path style="opacity:1" fill="#bbb1af" d="M 72.5,156.5 C 72.1077,158.179 71.6077,159.846 71,161.5C 69.9272,156.847 68.4272,156.513 66.5,160.5C 66.5,159.833 66.5,159.167 66.5,158.5C 66.9925,156.181 67.9925,154.181 69.5,152.5C 70.2216,152.082 70.7216,151.416 71,150.5C 71.1909,152.708 71.6909,154.708 72.5,156.5 Z"/></g>
<g><path style="opacity:1" fill="#ddd8d3" d="M 143.5,125.5 C 144.167,125.5 144.5,125.833 144.5,126.5C 143.452,136.483 141.452,146.15 138.5,155.5C 135.134,166.295 132.134,177.295 129.5,188.5C 126.992,192.182 124.992,196.182 123.5,200.5C 121.69,203.901 119.69,207.235 117.5,210.5C 116.277,211.614 114.944,211.781 113.5,211C 112.288,203.914 111.788,196.747 112,189.5C 118.747,177.004 125.747,164.671 133,152.5C 134.506,149.526 136.172,149.193 138,151.5C 140.369,142.954 142.202,134.287 143.5,125.5 Z"/></g>
<g><path style="opacity:1" fill="#ddd7d3" d="M 74.5,144.5 C 75.1386,145.097 75.472,145.93 75.5,147C 74.7912,151.506 74.1245,156.006 73.5,160.5C 72.9293,166.052 71.4293,171.385 69,176.5C 65.3602,184.748 63.1936,184.414 62.5,175.5C 63.3703,170.351 64.7036,165.351 66.5,160.5C 68.4272,156.513 69.9272,156.847 71,161.5C 71.6077,159.846 72.1077,158.179 72.5,156.5C 73.2588,152.523 73.9254,148.523 74.5,144.5 Z"/></g>
<g><path style="opacity:1" fill="#776267" d="M 181.5,154.5 C 184.332,158.658 185.999,163.324 186.5,168.5C 186.167,168.5 185.833,168.5 185.5,168.5C 184.175,163.874 182.842,159.207 181.5,154.5 Z"/></g>
<g><path style="opacity:1" fill="#8d7f7e" d="M 138.5,155.5 C 137.192,167.077 134.192,178.077 129.5,188.5C 132.134,177.295 135.134,166.295 138.5,155.5 Z"/></g>
<g><path style="opacity:1" fill="#4e3239" d="M 185.5,168.5 C 185.833,168.5 186.167,168.5 186.5,168.5C 186.055,173.101 186.722,177.435 188.5,181.5C 187.542,181.047 186.708,180.381 186,179.5C 185.303,181.584 184.136,183.251 182.5,184.5C 184.95,179.47 185.95,174.136 185.5,168.5 Z"/></g>
<g><path style="opacity:0.941" fill="#645357" d="M 217.5,121.5 C 218.167,121.833 218.833,122.167 219.5,122.5C 234.51,144.182 243.844,168.182 247.5,194.5C 246.833,195.5 246.167,196.5 245.5,197.5C 242.316,169.817 232.982,144.483 217.5,121.5 Z"/></g>
<g><path style="opacity:1" fill="#7b6769" d="M 66.5,158.5 C 66.5,159.167 66.5,159.833 66.5,160.5C 64.7036,165.351 63.3703,170.351 62.5,175.5C 63.1936,184.414 65.3602,184.748 69,176.5C 71.4293,171.385 72.9293,166.052 73.5,160.5C 74.3382,160.842 74.6716,161.508 74.5,162.5C 74.3921,167.87 74.7255,173.203 75.5,178.5C 73.9318,176.189 73.0984,173.522 73,170.5C 71.4873,174.188 69.9873,177.855 68.5,181.5C 66.3374,183.083 64.0041,184.416 61.5,185.5C 61.5139,180.309 61.6806,174.975 62,169.5C 62.6441,165.381 64.1441,161.715 66.5,158.5 Z"/></g>
<g><path style="opacity:1" fill="#746262" d="M 76.5,180.5 C 79.8333,183.167 82.8333,186.167 85.5,189.5C 82.6545,189.809 81.1545,191.475 81,194.5C 80.2411,196.063 79.0744,197.063 77.5,197.5C 79.0265,194.281 80.6932,191.115 82.5,188C 79.8823,185.894 77.8823,183.394 76.5,180.5 Z"/></g>
<g><path style="opacity:1" fill="#99908d" d="M 171.5,172.5 C 171.5,177.167 171.5,181.833 171.5,186.5C 170.852,188.086 170.352,189.753 170,191.5C 169.088,184.914 169.588,178.581 171.5,172.5 Z"/></g>
<g><path style="opacity:1" fill="#e7c0c2" d="M 75.5,178.5 C 76.3382,178.842 76.6716,179.508 76.5,180.5C 77.8823,183.394 79.8823,185.894 82.5,188C 80.6932,191.115 79.0265,194.281 77.5,197.5C 76.8333,197.5 76.1667,197.5 75.5,197.5C 76.9259,192.437 76.7593,187.437 75,182.5C 74.6121,181.572 73.9454,180.905 73,180.5C 71.5603,181.148 70.0603,181.481 68.5,181.5C 69.9873,177.855 71.4873,174.188 73,170.5C 73.0984,173.522 73.9318,176.189 75.5,178.5 Z"/></g>
<g><path style="opacity:1" fill="#faf4eb" d="M 75.5,197.5 C 73.9962,199.836 71.9962,201.669 69.5,203C 58.1348,209.347 46.8014,215.681 35.5,222C 31.6883,227.575 26.6883,231.742 20.5,234.5C 19.2519,233.96 18.0852,233.293 17,232.5C 16.3083,231.563 16.475,230.897 17.5,230.5C 19.3904,230.297 20.8904,230.963 22,232.5C 22.1667,232.167 22.3333,231.833 22.5,231.5C 20.9918,229.493 19.1584,227.826 17,226.5C 15.955,227.373 15.1217,228.373 14.5,229.5C 11.7508,229.274 9.08415,229.607 6.5,230.5C 3.98815,229.216 3.98815,228.216 6.5,227.5C 9.56407,227.856 12.2307,227.023 14.5,225C 10.9206,225.337 7.25397,225.504 3.5,225.5C 2.71087,225.217 2.0442,224.717 1.5,224C 6.95701,224.41 11.6237,222.744 15.5,219C 12.1667,218.667 8.83333,218.333 5.5,218C 3.87528,217.147 3.54195,216.147 4.5,215C 10.0078,214.583 15.5078,214.083 21,213.5C 24.6979,213.959 28.1979,214.792 31.5,216C 30.8333,215.333 30.1667,214.667 29.5,214C 40.9561,205.377 51.6227,195.877 61.5,185.5C 64.0041,184.416 66.3374,183.083 68.5,181.5C 70.0603,181.481 71.5603,181.148 73,180.5C 73.9454,180.905 74.6121,181.572 75,182.5C 76.7593,187.437 76.9259,192.437 75.5,197.5 Z"/></g>
<g><path style="opacity:1" fill="#e9c1c5" d="M 188.5,181.5 C 190.833,183.5 193.167,185.5 195.5,187.5C 192.14,187.384 188.807,187.051 185.5,186.5C 185.162,193.141 186.829,199.141 190.5,204.5C 186.951,203.277 183.951,201.277 181.5,198.5C 181.751,195.091 181.417,191.758 180.5,188.5C 181.63,187.378 182.297,186.044 182.5,184.5C 184.136,183.251 185.303,181.584 186,179.5C 186.708,180.381 187.542,181.047 188.5,181.5 Z"/></g>
<g><path style="opacity:0.796" fill="#4c353b" d="M 247.5,198.5 C 248.624,203.187 248.624,207.853 247.5,212.5C 248.5,212.5 249.5,212.5 250.5,212.5C 248.833,213.833 247.167,213.833 245.5,212.5C 246.167,207.833 246.833,203.167 247.5,198.5 Z"/></g>
<g><path style="opacity:1" fill="#a49a9c" d="M 247.5,194.5 C 247.5,195.833 247.5,197.167 247.5,198.5C 246.833,203.167 246.167,207.833 245.5,212.5C 245.5,207.5 245.5,202.5 245.5,197.5C 246.167,196.5 246.833,195.5 247.5,194.5 Z"/></g>
<g><path style="opacity:1" fill="#ddd7d2" d="M 105.5,234.5 C 105.657,233.127 105.49,231.793 105,230.5C 103.624,229.295 102.458,227.962 101.5,226.5C 101.938,226.565 102.272,226.399 102.5,226C 101.773,224.601 101.273,223.101 101,221.5C 100.5,205.837 100.333,190.17 100.5,174.5C 103.388,174.22 104.888,175.553 105,178.5C 106.165,191.146 106.998,203.813 107.5,216.5C 107.706,222.749 107.04,228.749 105.5,234.5 Z"/></g>
<g><path style="opacity:1" fill="#ded9d4" d="M 171.5,171.5 C 171.5,171.833 171.5,172.167 171.5,172.5C 169.588,178.581 169.088,184.914 170,191.5C 170.352,189.753 170.852,188.086 171.5,186.5C 172.203,188.629 173.203,190.629 174.5,192.5C 174.018,196.932 176.018,199.265 180.5,199.5C 180.789,202.649 180.289,205.649 179,208.5C 177.667,210.5 176.333,212.5 175,214.5C 174.292,213.619 173.458,212.953 172.5,212.5C 175.755,218.008 178.755,223.675 181.5,229.5C 179.983,229.489 178.816,228.823 178,227.5C 176.692,225.359 175.192,223.359 173.5,221.5C 171.877,229.389 170.877,237.389 170.5,245.5C 168.549,245.773 167.049,245.107 166,243.5C 165.167,214.161 165.333,184.828 166.5,155.5C 168.636,156.472 169.803,158.139 170,160.5C 170.42,164.191 170.92,167.858 171.5,171.5 Z"/></g>
<g><path style="opacity:0.71" fill="#5b494c" d="M 84.5,103.5 C 84.1328,97.8277 83.6328,92.161 83,86.5C 81.1863,91.9638 78.0196,96.4638 73.5,100C 76.3351,104.001 79.6684,107.501 83.5,110.5C 83.5,111.167 83.1667,111.5 82.5,111.5C 78.4729,108.14 74.8062,104.473 71.5,100.5C 69.6408,96.0744 66.3075,94.5744 61.5,96C 45.2464,107.586 31.7464,121.753 21,138.5C 8.81951,156.708 3.81951,176.708 6,198.5C 5.99566,202.192 6.99566,205.525 9,208.5C 12.2157,201.067 15.7157,193.734 19.5,186.5C 20.1843,191.208 21.0177,195.874 22,200.5C 24.4772,205.368 27.4772,205.701 31,201.5C 32.4213,198.991 34.0879,196.657 36,194.5C 36.3333,196.167 36.6667,197.833 37,199.5C 38.0495,200.517 39.2161,200.684 40.5,200C 44.6999,197.433 47.8665,193.933 50,189.5C 50.7253,191.158 51.892,191.658 53.5,191C 56.0652,188.92 58.7318,187.087 61.5,185.5C 51.6227,195.877 40.9561,205.377 29.5,214C 30.1667,214.667 30.8333,215.333 31.5,216C 28.1979,214.792 24.6979,213.959 21,213.5C 15.5078,214.083 10.0078,214.583 4.5,215C 3.54195,216.147 3.87528,217.147 5.5,218C 8.83333,218.333 12.1667,218.667 15.5,219C 11.6237,222.744 6.95701,224.41 1.5,224C 2.0442,224.717 2.71087,225.217 3.5,225.5C 4.5,226.167 5.5,226.833 6.5,227.5C 3.98815,228.216 3.98815,229.216 6.5,230.5C 9.08415,229.607 11.7508,229.274 14.5,229.5C 14.5,229.833 14.5,230.167 14.5,230.5C 12.4727,230.338 10.4727,230.505 8.5,231C 9.24382,232.039 10.2438,232.539 11.5,232.5C 12.5676,233.434 13.901,233.768 15.5,233.5C 15.238,232.022 15.5713,230.689 16.5,229.5C 17.1067,229.624 17.44,229.957 17.5,230.5C 16.475,230.897 16.3083,231.563 17,232.5C 18.0852,233.293 19.2519,233.96 20.5,234.5C 26.6883,231.742 31.6883,227.575 35.5,222C 46.8014,215.681 58.1348,209.347 69.5,203C 71.9962,201.669 73.9962,199.836 75.5,197.5C 76.1667,197.5 76.8333,197.5 77.5,197.5C 75.4939,200.173 73.1606,202.506 70.5,204.5C 69.7287,212.975 73.3954,218.308 81.5,220.5C 82.5207,219.099 83.5207,217.765 84.5,216.5C 82.8309,221.17 81.1642,225.837 79.5,230.5C 77.8768,236.009 77.2101,241.676 77.5,247.5C 82.1667,247.5 86.8333,247.5 91.5,247.5C 98.175,247.666 104.842,247.5 111.5,247C 105.785,245.787 102.785,242.287 102.5,236.5C 103.167,236.5 103.833,236.5 104.5,236.5C 104.34,238.199 104.506,239.866 105,241.5C 108.053,244.081 111.553,245.915 115.5,247C 124.827,247.5 134.161,247.666 143.5,247.5C 153.681,247.827 163.681,247.494 173.5,246.5C 178.507,246.249 183.507,245.916 188.5,245.5C 187.243,239.656 184.909,234.323 181.5,229.5C 178.755,223.675 175.755,218.008 172.5,212.5C 173.458,212.953 174.292,213.619 175,214.5C 176.333,212.5 177.667,210.5 179,208.5C 180.289,205.649 180.789,202.649 180.5,199.5C 180.5,198.833 180.833,198.5 181.5,198.5C 183.951,201.277 186.951,203.277 190.5,204.5C 199.825,211.168 209.825,216.835 220.5,221.5C 224.019,225.852 228.019,229.686 232.5,233C 235.579,234.09 237.912,233.257 239.5,230.5C 239,230.167 238.5,229.833 238,229.5C 236.607,230.615 235.107,231.115 233.5,231C 235.026,229.113 237.026,228.113 239.5,228C 238.304,227.346 238.304,226.846 239.5,226.5C 242.092,227.917 244.759,228.917 247.5,229.5C 249.298,230.463 250.632,229.796 251.5,227.5C 249.234,226.686 246.9,226.186 244.5,226C 247.5,225.667 250.5,225.333 253.5,225C 253.957,224.586 254.291,224.086 254.5,223.5C 249.46,224.319 245.126,222.819 241.5,219C 244.638,217.756 247.972,217.089 251.5,217C 251.957,216.586 252.291,216.086 252.5,215.5C 246.102,214.855 239.769,213.855 233.5,212.5C 230.388,213.49 227.388,214.323 224.5,215C 226.481,214.395 226.815,213.395 225.5,212C 214.755,204.756 204.755,196.589 195.5,187.5C 193.167,185.5 190.833,183.5 188.5,181.5C 193.137,183.485 197.471,185.985 201.5,189C 203.439,193.458 206.772,195.625 211.5,195.5C 211.34,193.801 211.506,192.134 212,190.5C 214.798,195.263 217.964,199.763 221.5,204C 224.407,206.361 226.574,205.861 228,202.5C 229.5,204.667 231,206.833 232.5,209C 234.345,210.128 236.345,210.628 238.5,210.5C 238.319,207.447 238.152,204.447 238,201.5C 239.03,204.95 240.363,208.283 242,211.5C 243.011,212.337 244.178,212.67 245.5,212.5C 247.167,213.833 248.833,213.833 250.5,212.5C 255.293,213.93 255.626,216.096 251.5,219C 249.167,219.333 246.833,219.667 244.5,220C 248.15,221.036 251.817,221.536 255.5,221.5C 255.5,222.833 255.5,224.167 255.5,225.5C 254.042,229.12 251.375,231.62 247.5,233C 242.583,234.512 237.583,235.179 232.5,235C 227.245,231.749 222.578,227.749 218.5,223C 206.408,216.566 194.575,209.733 183,202.5C 181.76,207.479 179.594,211.979 176.5,216C 182.121,225.135 187.121,234.635 191.5,244.5C 190.989,247.569 189.489,248.569 187,247.5C 174.204,248.528 161.371,249.194 148.5,249.5C 124.222,249.462 99.8891,249.295 75.5,249C 74.7642,239.839 76.4308,231.005 80.5,222.5C 76.957,221.222 73.957,219.222 71.5,216.5C 71.2041,214.597 70.5375,212.93 69.5,211.5C 69.7989,209.396 69.4656,207.396 68.5,205.5C 59.1585,211.506 49.4918,217.006 39.5,222C 35.2002,225.298 31.2002,228.965 27.5,233C 25.421,234.64 23.0876,235.806 20.5,236.5C 15.1176,235.807 9.78428,234.141 4.5,231.5C 3.29101,229.059 1.62435,227.059 -0.5,225.5C -0.5,224.5 -0.5,223.5 -0.5,222.5C 0.72065,221.972 1.88732,221.305 3,220.5C 5.40086,221.602 7.90086,221.769 10.5,221C 7.1776,220.941 4.34427,219.774 2,217.5C 1.13494,215.112 1.96827,213.612 4.5,213C 12.8709,212.046 21.2042,211.713 29.5,212C 33.5,208.667 37.5,205.333 41.5,202C 38.6087,202.635 36.442,201.468 35,198.5C 32.9739,202.026 30.1405,204.693 26.5,206.5C 24.2466,205.747 22.4133,204.414 21,202.5C 20,199.5 19,196.5 18,193.5C 15.6667,198.833 13.3333,204.167 11,209.5C 9.95054,210.517 8.78387,210.684 7.5,210C 4.45072,203.378 3.11738,196.378 3.5,189C 3.57442,175.869 6.40776,163.369 12,151.5C 19.0804,136.376 28.5804,123.043 40.5,111.5C 41.1667,111.5 41.5,111.167 41.5,110.5C 48.0018,104.834 54.6685,99.3344 61.5,94C 65.8956,92.864 69.5623,94.0306 72.5,97.5C 77.4719,93.6846 80.6386,88.6846 82,82.5C 82.3333,72.1667 82.6667,61.8333 83,51.5C 83.2904,49.0796 83.7904,46.7463 84.5,44.5C 85.2679,43.7375 85.7679,42.7375 86,41.5C 83.9974,61.6224 84.1641,81.789 86.5,102C 86.3333,104.5 86.1667,107 86,109.5C 85.8091,107.292 85.3091,105.292 84.5,103.5 Z M 222.5,207.5 C 224.679,209.164 226.512,208.83 228,206.5C 229.353,207.685 230.52,209.019 231.5,210.5C 230.372,211.262 229.205,211.929 228,212.5C 226.188,210.7 224.355,209.033 222.5,207.5 Z M 220.5,205.5 C 216.891,203.02 213.224,200.52 209.5,198C 211.061,197.682 212.228,196.849 213,195.5C 215.266,199.042 217.766,202.375 220.5,205.5 Z M 47.5,196.5 C 47.6854,194.804 48.5187,193.471 50,192.5C 50.2793,194.412 49.4459,195.746 47.5,196.5 Z"/></g>
<g><path style="opacity:1" fill="#dbd5d1" d="M 89.5,215.5 C 89.298,217.95 89.6314,220.283 90.5,222.5C 93.4483,224.018 96.4483,225.685 99.5,227.5C 100.384,230.656 101.384,233.656 102.5,236.5C 102.785,242.287 105.785,245.787 111.5,247C 104.842,247.5 98.175,247.666 91.5,247.5C 89.0251,243.155 87.1918,238.489 86,233.5C 83.7415,232.62 81.5748,231.62 79.5,230.5C 81.1642,225.837 82.8309,221.17 84.5,216.5C 85.2216,216.082 85.7216,215.416 86,214.5C 86.3599,216.608 87.0266,218.608 88,220.5C 88.1981,218.618 88.6981,216.952 89.5,215.5 Z"/></g>
<g><path style="opacity:0.997" fill="#f6ce6b" d="M 69.5,211.5 C 70.5375,212.93 71.2041,214.597 71.5,216.5C 69.9468,218.385 67.9468,219.385 65.5,219.5C 66.3045,216.558 67.6378,213.891 69.5,211.5 Z"/></g>
<g><path style="opacity:1" fill="#7d6e6e" d="M 172.5,212.5 C 170.837,210.507 169.67,208.174 169,205.5C 169.204,212.824 169.204,220.157 169,227.5C 167.364,218.566 166.697,209.566 167,200.5C 167.317,198.699 167.984,198.366 169,199.5C 169.872,203.943 171.038,208.276 172.5,212.5 Z"/></g>
<g><path style="opacity:1" fill="#ded9d3" d="M 150.5,196.5 C 151.75,196.577 152.583,197.244 153,198.5C 155.384,214.443 157.217,230.443 158.5,246.5C 163.5,246.5 168.5,246.5 173.5,246.5C 163.681,247.494 153.681,247.827 143.5,247.5C 146.477,247.098 149.143,246.098 151.5,244.5C 152.124,244.083 152.457,243.416 152.5,242.5C 150.824,227.222 150.158,211.889 150.5,196.5 Z"/></g>
<g><path style="opacity:1" fill="#958787" d="M 94.5,208.5 C 94.8099,204.3 94.1432,200.3 92.5,196.5C 93.7899,197.058 94.6232,198.058 95,199.5C 95.3333,197.833 95.6667,196.167 96,194.5C 96.6667,198.833 96.6667,203.167 96,207.5C 95.6174,208.056 95.1174,208.389 94.5,208.5 Z"/></g>
<g><path style="opacity:1" fill="#dfd8d4" d="M 92.5,196.5 C 94.1432,200.3 94.8099,204.3 94.5,208.5C 92.5372,209.96 90.7038,211.627 89,213.5C 88.7336,207.154 89.067,200.821 90,194.5C 90.7083,195.381 91.5416,196.047 92.5,196.5 Z"/></g>
<g><path style="opacity:1" fill="#f9f3eb" d="M 195.5,187.5 C 204.755,196.589 214.755,204.756 225.5,212C 226.815,213.395 226.481,214.395 224.5,215C 227.388,214.323 230.388,213.49 233.5,212.5C 239.769,213.855 246.102,214.855 252.5,215.5C 252.291,216.086 251.957,216.586 251.5,217C 247.972,217.089 244.638,217.756 241.5,219C 245.126,222.819 249.46,224.319 254.5,223.5C 254.291,224.086 253.957,224.586 253.5,225C 250.5,225.333 247.5,225.667 244.5,226C 246.9,226.186 249.234,226.686 251.5,227.5C 250.632,229.796 249.298,230.463 247.5,229.5C 244.759,228.917 242.092,227.917 239.5,226.5C 238.304,226.846 238.304,227.346 239.5,228C 237.026,228.113 235.026,229.113 233.5,231C 235.107,231.115 236.607,230.615 238,229.5C 238.5,229.833 239,230.167 239.5,230.5C 237.912,233.257 235.579,234.09 232.5,233C 228.019,229.686 224.019,225.852 220.5,221.5C 209.825,216.835 199.825,211.168 190.5,204.5C 186.829,199.141 185.162,193.141 185.5,186.5C 188.807,187.051 192.14,187.384 195.5,187.5 Z"/></g>
<g><path style="opacity:1" fill="#776666" d="M 182.5,184.5 C 182.297,186.044 181.63,187.378 180.5,188.5C 181.417,191.758 181.751,195.091 181.5,198.5C 180.833,198.5 180.5,198.833 180.5,199.5C 176.018,199.265 174.018,196.932 174.5,192.5C 175.167,192.167 175.833,191.833 176.5,191.5C 177.757,188.573 179.757,186.239 182.5,184.5 Z"/></g>
<g><path style="opacity:1" fill="#847979" d="M 85.5,189.5 C 88.8333,190.833 91.1667,193.167 92.5,196.5C 91.5416,196.047 90.7083,195.381 90,194.5C 89.067,200.821 88.7336,207.154 89,213.5C 90.7038,211.627 92.5372,209.96 94.5,208.5C 93.2464,211.093 91.5798,213.427 89.5,215.5C 88.6981,216.952 88.1981,218.618 88,220.5C 87.0266,218.608 86.3599,216.608 86,214.5C 85.7216,215.416 85.2216,216.082 84.5,216.5C 87.395,208.452 88.2283,200.119 87,191.5C 86.2828,190.956 85.7828,190.289 85.5,189.5 Z"/></g>
<g><path style="opacity:1" fill="#827171" d="M 129.5,188.5 C 128.54,193.086 126.54,197.086 123.5,200.5C 124.992,196.182 126.992,192.182 129.5,188.5 Z"/></g>
<g><path style="opacity:1" fill="#e1dbd7" d="M 176.5,191.5 C 177.458,191.047 178.292,190.381 179,189.5C 179.667,192.167 179.667,194.833 179,197.5C 177.989,196.663 176.822,196.33 175.5,196.5C 175.629,194.784 175.962,193.117 176.5,191.5 Z"/></g>
<g><path style="opacity:1" fill="#dbd6d0" d="M 85.5,189.5 C 85.7828,190.289 86.2828,190.956 87,191.5C 88.2283,200.119 87.395,208.452 84.5,216.5C 83.5207,217.765 82.5207,219.099 81.5,220.5C 73.3954,218.308 69.7287,212.975 70.5,204.5C 73.1606,202.506 75.4939,200.173 77.5,197.5C 79.0744,197.063 80.2411,196.063 81,194.5C 81.1545,191.475 82.6545,189.809 85.5,189.5 Z"/></g>
<g><path style="opacity:1" fill="#998587" d="M 71.5,100.5 C 70.3347,102.416 68.668,103.249 66.5,103C 67.9101,101.628 69.5767,100.795 71.5,100.5 Z"/></g>
<g><path style="opacity:0.935" fill="#f7ce67" d="M 186.5,218.5 C 189.516,219.343 192.183,220.843 194.5,223C 195.337,224.011 195.67,225.178 195.5,226.5C 191.976,226.071 188.976,224.571 186.5,222C 185.316,220.855 185.316,219.688 186.5,218.5 Z"/></g>
<g><path style="opacity:1" fill="#938181" d="M 6.5,227.5 C 5.5,226.833 4.5,226.167 3.5,225.5C 7.25397,225.504 10.9206,225.337 14.5,225C 12.2307,227.023 9.56407,227.856 6.5,227.5 Z"/></g>
<g><path style="opacity:1" fill="#988b88" d="M 17.5,230.5 C 17.44,229.957 17.1067,229.624 16.5,229.5C 15.5713,230.689 15.238,232.022 15.5,233.5C 13.901,233.768 12.5676,233.434 11.5,232.5C 13.1788,232.715 14.1788,232.048 14.5,230.5C 14.5,230.167 14.5,229.833 14.5,229.5C 15.1217,228.373 15.955,227.373 17,226.5C 19.1584,227.826 20.9918,229.493 22.5,231.5C 22.3333,231.833 22.1667,232.167 22,232.5C 20.8904,230.963 19.3904,230.297 17.5,230.5 Z"/></g>
<g><path style="opacity:1" fill="#f9f8f8" d="M 14.5,230.5 C 14.1788,232.048 13.1788,232.715 11.5,232.5C 10.2438,232.539 9.24382,232.039 8.5,231C 10.4727,230.505 12.4727,230.338 14.5,230.5 Z"/></g>
<g><path style="opacity:1" fill="#e3e0e0" d="M 247.5,229.5 C 245.91,231.821 243.577,232.821 240.5,232.5C 240.5,231.5 240.5,230.5 240.5,229.5C 242.833,229.5 245.167,229.5 247.5,229.5 Z"/></g>
<g><path style="opacity:1" fill="#efeee9" d="M 79.5,230.5 C 81.5748,231.62 83.7415,232.62 86,233.5C 87.1918,238.489 89.0251,243.155 91.5,247.5C 86.8333,247.5 82.1667,247.5 77.5,247.5C 77.2101,241.676 77.8768,236.009 79.5,230.5 Z"/></g>
<g><path style="opacity:1" fill="#8f8181" d="M 90.5,222.5 C 94.4947,223.053 98.1614,224.386 101.5,226.5C 102.458,227.962 103.624,229.295 105,230.5C 105.49,231.793 105.657,233.127 105.5,234.5C 105.672,235.492 105.338,236.158 104.5,236.5C 103.833,236.5 103.167,236.5 102.5,236.5C 101.384,233.656 100.384,230.656 99.5,227.5C 96.4483,225.685 93.4483,224.018 90.5,222.5 Z"/></g>
<g><path style="opacity:1" fill="#9c8e8a" d="M 150.5,196.5 C 150.158,211.889 150.824,227.222 152.5,242.5C 152.457,243.416 152.124,244.083 151.5,244.5C 149.008,227.945 148.341,211.279 149.5,194.5C 150.298,194.957 150.631,195.624 150.5,196.5 Z"/></g>
</svg>
