<?xml version="1.0" encoding="UTF-8"?>
<!DOCTYPE svg PUBLIC "-//W3C//DTD SVG 1.1//EN" "http://www.w3.org/Graphics/SVG/1.1/DTD/svg11.dtd">
<svg xmlns="http://www.w3.org/2000/svg" version="1.1" width="1013px" height="304px" style="shape-rendering:geometricPrecision; text-rendering:geometricPrecision; image-rendering:optimizeQuality; fill-rule:evenodd; clip-rule:evenodd" xmlns:xlink="http://www.w3.org/1999/xlink">
<g><path style="opacity:0.908" fill="#524044" d="M 197.5,12.5 C 202.129,13.8125 206.129,16.1458 209.5,19.5C 209.5,20.1667 209.5,20.8333 209.5,21.5C 208.167,21.5 206.833,21.5 205.5,21.5C 205.489,19.9826 204.823,18.8159 203.5,18C 200.785,16.0922 197.785,14.7589 194.5,14C 186.151,13.0369 177.817,12.0369 169.5,11C 178.944,10.0606 188.277,10.5606 197.5,12.5 Z"/></g>
<g><path style="opacity:1" fill="#96cd88" d="M 147.5,20.5 C 147.672,21.4916 147.338,22.1583 146.5,22.5C 143.056,21.955 141.889,19.955 143,16.5C 144.397,18.0703 145.897,19.4036 147.5,20.5 Z"/></g>
<g><path style="opacity:0.306" fill="#725b64" d="M 209.5,19.5 C 211.781,20.2071 213.948,21.2071 216,22.5C 216.725,20.842 217.892,20.342 219.5,21C 221.083,22.8974 221.75,24.7307 221.5,26.5C 221.44,27.0431 221.107,27.3764 220.5,27.5C 219.571,26.3112 219.238,24.9778 219.5,23.5C 217.821,23.2852 216.821,23.9519 216.5,25.5C 216.784,27.4147 216.451,29.0813 215.5,30.5C 216.65,25.3274 214.65,22.3274 209.5,21.5C 209.5,20.8333 209.5,20.1667 209.5,19.5 Z"/></g>
<g><path style="opacity:0.337" fill="#564a49" d="M 149.5,19.5 C 149.158,20.3382 148.492,20.6716 147.5,20.5C 145.897,19.4036 144.397,18.0703 143,16.5C 141.889,19.955 143.056,21.955 146.5,22.5C 145.214,25.117 143.547,27.4504 141.5,29.5C 140.648,26.3168 138.982,23.6502 136.5,21.5C 136.167,22 135.833,22.5 135.5,23C 136.8,25.4373 137.8,27.9373 138.5,30.5C 137.5,30.5 136.5,30.5 135.5,30.5C 138.098,29.5278 138.098,28.5278 135.5,27.5C 134.883,27.3893 134.383,27.056 134,26.5C 133.503,24.1902 133.337,21.8568 133.5,19.5C 136.864,18.7893 139.197,19.956 140.5,23C 141.167,23.6667 141.833,23.6667 142.5,23C 138.944,19.7107 138.778,16.544 142,13.5C 144.652,15.3198 147.152,17.3198 149.5,19.5 Z"/></g>
<g><path style="opacity:1" fill="#f775a9" d="M 214.5,31.5 C 214.5,31.8333 214.5,32.1667 214.5,32.5C 213.833,32.8333 213.167,33.1667 212.5,33.5C 211.022,33.762 209.689,33.4287 208.5,32.5C 209.737,31.7193 210.737,30.7193 211.5,29.5C 210.319,27.802 210.319,26.1353 211.5,24.5C 214.029,26.0625 215.029,28.3959 214.5,31.5 Z"/></g>
<g><path style="opacity:1" fill="#c85f87" d="M 205.5,21.5 C 206.833,21.5 208.167,21.5 209.5,21.5C 214.65,22.3274 216.65,25.3274 215.5,30.5C 215.5,31.1667 215.167,31.5 214.5,31.5C 215.029,28.3959 214.029,26.0625 211.5,24.5C 210.319,26.1353 210.319,27.802 211.5,29.5C 210.737,30.7193 209.737,31.7193 208.5,32.5C 209.689,33.4287 211.022,33.762 212.5,33.5C 212.5,34.1667 212.167,34.5 211.5,34.5C 209.219,34.9227 207.552,34.256 206.5,32.5C 202.832,30.6081 201.665,27.6081 203,23.5C 203.708,22.6195 204.542,21.9528 205.5,21.5 Z"/></g>
<g><path style="opacity:0.663" fill="#6d6f61" d="M 221.5,26.5 C 225.647,27.6001 226.313,29.6001 223.5,32.5C 223.158,31.6618 222.492,31.3284 221.5,31.5C 222.567,29.1205 221.567,28.1205 218.5,28.5C 218.657,27.1266 218.49,25.7932 218,24.5C 217.617,25.056 217.117,25.3893 216.5,25.5C 216.821,23.9519 217.821,23.2852 219.5,23.5C 219.238,24.9778 219.571,26.3112 220.5,27.5C 221.107,27.3764 221.44,27.0431 221.5,26.5 Z"/></g>
<g><path style="opacity:1" fill="#93ce83" d="M 141.5,29.5 C 142.167,30.1667 142.833,30.8333 143.5,31.5C 142.552,32.9779 141.219,33.9779 139.5,34.5C 137.023,34.9492 135.023,34.2825 133.5,32.5C 133.855,31.4777 134.522,30.811 135.5,30.5C 136.5,30.5 137.5,30.5 138.5,30.5C 137.8,27.9373 136.8,25.4373 135.5,23C 135.833,22.5 136.167,22 136.5,21.5C 138.982,23.6502 140.648,26.3168 141.5,29.5 Z"/></g>
<g><path style="opacity:0.957" fill="#4c4d4c" d="M 344.5,28.5 C 350.167,28.5 355.833,28.5 361.5,28.5C 361.5,33.5 361.5,38.5 361.5,43.5C 363.833,43.5 366.167,43.5 368.5,43.5C 368.5,46.1667 368.5,48.8333 368.5,51.5C 371.167,51.5 373.833,51.5 376.5,51.5C 376.5,54.1667 376.5,56.8333 376.5,59.5C 381.167,59.5 385.833,59.5 390.5,59.5C 390.5,56.8333 390.5,54.1667 390.5,51.5C 393.167,51.5 395.833,51.5 398.5,51.5C 398.5,48.8333 398.5,46.1667 398.5,43.5C 401.167,43.5 403.833,43.5 406.5,43.5C 406.5,38.5 406.5,33.5 406.5,28.5C 411.833,28.5 417.167,28.5 422.5,28.5C 422.5,64.8333 422.5,101.167 422.5,137.5C 417.167,137.5 411.833,137.5 406.5,137.5C 406.5,114.167 406.5,90.8333 406.5,67.5C 404.167,67.5 401.833,67.5 399.5,67.5C 399.5,70.1667 399.5,72.8333 399.5,75.5C 396.833,75.5 394.167,75.5 391.5,75.5C 391.5,80.5 391.5,85.5 391.5,90.5C 386.167,90.5 380.833,90.5 375.5,90.5C 375.5,85.5 375.5,80.5 375.5,75.5C 372.833,75.5 370.167,75.5 367.5,75.5C 367.5,72.8333 367.5,70.1667 367.5,67.5C 365.5,67.5 363.5,67.5 361.5,67.5C 361.5,90.8333 361.5,114.167 361.5,137.5C 355.833,137.5 350.167,137.5 344.5,137.5C 344.5,101.167 344.5,64.8333 344.5,28.5 Z"/></g>
<g><path style="opacity:0.946" fill="#4c4d4c" d="M 622.5,28.5 C 628.167,28.5 633.833,28.5 639.5,28.5C 639.5,41.1667 639.5,53.8333 639.5,66.5C 641.5,66.5 643.5,66.5 645.5,66.5C 645.5,64.1667 645.5,61.8333 645.5,59.5C 648.167,59.5 650.833,59.5 653.5,59.5C 653.5,56.8333 653.5,54.1667 653.5,51.5C 661.5,51.5 669.5,51.5 677.5,51.5C 677.5,54.1667 677.5,56.8333 677.5,59.5C 680.167,59.5 682.833,59.5 685.5,59.5C 685.5,61.8333 685.5,64.1667 685.5,66.5C 688.167,66.5 690.833,66.5 693.5,66.5C 693.5,69.1667 693.5,71.8333 693.5,74.5C 695.833,74.5 698.167,74.5 700.5,74.5C 700.5,95.5 700.5,116.5 700.5,137.5C 695.167,137.5 689.833,137.5 684.5,137.5C 684.5,119.5 684.5,101.5 684.5,83.5C 681.833,83.5 679.167,83.5 676.5,83.5C 676.5,80.8333 676.5,78.1667 676.5,75.5C 674.167,75.5 671.833,75.5 669.5,75.5C 669.5,72.8333 669.5,70.1667 669.5,67.5C 667.167,67.5 664.833,67.5 662.5,67.5C 662.5,70.1667 662.5,72.8333 662.5,75.5C 659.833,75.5 657.167,75.5 654.5,75.5C 654.5,78.1667 654.5,80.8333 654.5,83.5C 651.833,83.5 649.167,83.5 646.5,83.5C 646.5,85.8333 646.5,88.1667 646.5,90.5C 644.167,90.5 641.833,90.5 639.5,90.5C 639.5,106.167 639.5,121.833 639.5,137.5C 633.833,137.5 628.167,137.5 622.5,137.5C 622.5,101.167 622.5,64.8333 622.5,28.5 Z"/></g>
<g><path style="opacity:1" fill="#85b276" d="M 221.5,31.5 C 218.956,31.1043 216.789,31.771 215,33.5C 214.601,33.2716 214.435,32.9382 214.5,32.5C 214.5,32.1667 214.5,31.8333 214.5,31.5C 215.167,31.5 215.5,31.1667 215.5,30.5C 216.451,29.0813 216.784,27.4147 216.5,25.5C 217.117,25.3893 217.617,25.056 218,24.5C 218.49,25.7932 218.657,27.1266 218.5,28.5C 221.567,28.1205 222.567,29.1205 221.5,31.5 Z"/></g>
<g><path style="opacity:0.008" fill="#937428" d="M 257.5,34.5 C 258.124,34.9169 258.457,35.5836 258.5,36.5C 258.253,37.7133 257.586,38.38 256.5,38.5C 257.234,37.2921 257.567,35.9587 257.5,34.5 Z"/></g>
<g><path style="opacity:0.981" fill="#f6cf6b" d="M 108.5,29.5 C 112.648,34.4293 116.815,39.4293 121,44.5C 121.49,45.7932 121.657,47.1266 121.5,48.5C 120.127,48.6567 118.793,48.49 117.5,48C 112.828,43.5029 109.161,38.3362 106.5,32.5C 106.942,31.2613 107.609,30.2613 108.5,29.5 Z"/></g>
<g><path style="opacity:0.98" fill="#ebca57" d="M 257.5,34.5 C 257.567,35.9587 257.234,37.2921 256.5,38.5C 253.206,41.1558 249.873,43.8225 246.5,46.5C 245.352,45.8359 244.019,45.6692 242.5,46C 243.823,45.1841 244.489,44.0174 244.5,42.5C 247.948,38.5593 252.115,35.5593 257,33.5C 257.399,33.7284 257.565,34.0618 257.5,34.5 Z"/></g>
<g><path style="opacity:0.955" fill="#4c4d4c" d="M 916.5,43.5 C 932.167,43.5 947.833,43.5 963.5,43.5C 963.5,46.1667 963.5,48.8333 963.5,51.5C 966.167,51.5 968.833,51.5 971.5,51.5C 971.5,54.1667 971.5,56.8333 971.5,59.5C 973.833,59.5 976.167,59.5 978.5,59.5C 978.5,85.5 978.5,111.5 978.5,137.5C 973.167,137.5 967.833,137.5 962.5,137.5C 962.5,134.833 962.5,132.167 962.5,129.5C 960.167,129.5 957.833,129.5 955.5,129.5C 955.5,132.167 955.5,134.833 955.5,137.5C 942.5,137.5 929.5,137.5 916.5,137.5C 916.5,134.833 916.5,132.167 916.5,129.5C 913.833,129.5 911.167,129.5 908.5,129.5C 908.5,126.833 908.5,124.167 908.5,121.5C 905.833,121.5 903.167,121.5 900.5,121.5C 900.5,111.167 900.5,100.833 900.5,90.5C 903.167,90.5 905.833,90.5 908.5,90.5C 908.5,87.8333 908.5,85.1667 908.5,82.5C 911.167,82.5 913.833,82.5 916.5,82.5C 916.5,79.8333 916.5,77.1667 916.5,74.5C 929.5,74.5 942.5,74.5 955.5,74.5C 955.5,77.1667 955.5,79.8333 955.5,82.5C 957.833,82.5 960.167,82.5 962.5,82.5C 962.5,77.5 962.5,72.5 962.5,67.5C 959.833,67.5 957.167,67.5 954.5,67.5C 954.5,65.1667 954.5,62.8333 954.5,60.5C 941.833,60.5 929.167,60.5 916.5,60.5C 916.5,54.8333 916.5,49.1667 916.5,43.5 Z M 924.5,90.5 C 934.5,90.5 944.5,90.5 954.5,90.5C 954.5,93.1667 954.5,95.8333 954.5,98.5C 957.167,98.5 959.833,98.5 962.5,98.5C 962.5,103.5 962.5,108.5 962.5,113.5C 959.833,113.5 957.167,113.5 954.5,113.5C 954.5,115.833 954.5,118.167 954.5,120.5C 944.5,120.5 934.5,120.5 924.5,120.5C 924.5,118.167 924.5,115.833 924.5,113.5C 922.167,113.5 919.833,113.5 917.5,113.5C 917.5,108.5 917.5,103.5 917.5,98.5C 919.833,98.5 922.167,98.5 924.5,98.5C 924.5,95.8333 924.5,93.1667 924.5,90.5 Z"/></g>
<g><path style="opacity:1" fill="#836f74" d="M 226.5,52.5 C 227.32,58.7974 227.653,65.1308 227.5,71.5C 226.503,71.5299 225.836,71.0299 225.5,70C 221.374,58.7896 218.374,47.2896 216.5,35.5C 216.824,33.4311 217.658,33.0977 219,34.5C 221.821,40.49 224.321,46.49 226.5,52.5 Z"/></g>
<g><path style="opacity:0.31" fill="#c4a544" d="M 244.5,42.5 C 244.489,44.0174 243.823,45.1841 242.5,46C 244.019,45.6692 245.352,45.8359 246.5,46.5C 245.415,48.5822 243.915,48.9156 242,47.5C 241.253,45.0722 242.086,43.4056 244.5,42.5 Z"/></g>
<g><path style="opacity:1" fill="#e8c654" d="M 261.5,44.5 C 262.833,44.5 264.167,44.5 265.5,44.5C 265.762,45.9778 265.429,47.3112 264.5,48.5C 261.025,50.8076 257.692,53.3076 254.5,56C 253.207,56.49 251.873,56.6567 250.5,56.5C 250.421,55.0695 250.754,53.7362 251.5,52.5C 255.165,50.1593 258.499,47.4926 261.5,44.5 Z"/></g>
<g><path style="opacity:0.611" fill="#f8cf68" d="M 96.5,41.5 C 99.2257,41.2639 101.559,42.0972 103.5,44C 106.887,47.3874 110.221,50.7208 113.5,54C 112.953,54.9246 112.287,55.7579 111.5,56.5C 104.662,52.9958 99.6616,47.9958 96.5,41.5 Z"/></g>
<g><path style="opacity:1" fill="#66535a" d="M 197.5,12.5 C 188.277,10.5606 178.944,10.0606 169.5,11C 177.817,12.0369 186.151,13.0369 194.5,14C 197.785,14.7589 200.785,16.0922 203.5,18C 204.823,18.8159 205.489,19.9826 205.5,21.5C 204.542,21.9528 203.708,22.6195 203,23.5C 201.665,27.6081 202.832,30.6081 206.5,32.5C 204.901,32.2322 203.568,32.5655 202.5,33.5C 199.924,33.7218 199.09,35.0551 200,37.5C 201.49,38.7279 202.99,38.7279 204.5,37.5C 207.577,37.821 209.91,36.821 211.5,34.5C 212.167,34.5 212.5,34.1667 212.5,33.5C 213.167,33.1667 213.833,32.8333 214.5,32.5C 214.435,32.9382 214.601,33.2716 215,33.5C 216.789,31.771 218.956,31.1043 221.5,31.5C 222.492,31.3284 223.158,31.6618 223.5,32.5C 220.405,33.1187 220.071,34.1187 222.5,35.5C 227.072,43.2161 229.406,51.5494 229.5,60.5C 228.726,57.1729 227.726,54.5062 226.5,52.5C 224.321,46.49 221.821,40.49 219,34.5C 217.658,33.0977 216.824,33.4311 216.5,35.5C 218.374,47.2896 221.374,58.7896 225.5,70C 225.836,71.0299 226.503,71.5299 227.5,71.5C 227.335,74.8499 227.502,78.1832 228,81.5C 229.715,77.2185 229.881,72.8852 228.5,68.5C 228.64,66.9704 229.307,65.9704 230.5,65.5C 230.5,72.5 230.5,79.5 230.5,86.5C 229.833,86.5 229.5,86.8333 229.5,87.5C 227.171,86.2511 225.338,86.9177 224,89.5C 223.667,91.1667 223.333,92.8333 223,94.5C 222.827,90.4592 222.327,86.4592 221.5,82.5C 221.167,83.1667 220.833,83.8333 220.5,84.5C 220.765,100.856 218.599,116.856 214,132.5C 212.333,134.833 210.667,137.167 209,139.5C 208.667,138.833 208.333,138.167 208,137.5C 207.163,139.351 206.329,141.184 205.5,143C 206.094,143.464 206.761,143.631 207.5,143.5C 205.924,144.143 204.59,145.143 203.5,146.5C 202.503,146.53 201.836,146.03 201.5,145C 202.651,142.535 203.651,140.035 204.5,137.5C 205.461,135.735 205.795,133.735 205.5,131.5C 207.14,128.512 207.974,125.179 208,121.5C 208.667,111.833 208.667,102.167 208,92.5C 207.821,96.0252 207.321,99.3586 206.5,102.5C 206.813,98.9581 206.479,95.6248 205.5,92.5C 205.5,90.8333 205.5,89.1667 205.5,87.5C 206.473,85.0521 206.806,82.3854 206.5,79.5C 205.5,79.5 204.5,79.5 203.5,79.5C 203.238,78.0222 203.571,76.6888 204.5,75.5C 205.192,76.0253 205.692,76.6919 206,77.5C 205.986,68.8206 205.486,60.154 204.5,51.5C 207.516,54.3614 210.016,54.0281 212,50.5C 212.687,52.5547 213.854,54.2214 215.5,55.5C 218.557,50.2216 217.39,45.8882 212,42.5C 208.983,42.781 205.817,42.781 202.5,42.5C 202.5,43.5 202.5,44.5 202.5,45.5C 201.406,48.6677 201.406,52.001 202.5,55.5C 200.482,58.8878 199.482,62.5545 199.5,66.5C 198.07,66.5792 196.736,66.2458 195.5,65.5C 192.958,48.2319 190.291,48.2319 187.5,65.5C 188.52,67.4325 188.687,69.4325 188,71.5C 187.152,68.4403 186.152,65.4403 185,62.5C 184.517,63.448 184.351,64.448 184.5,65.5C 183.677,62.3162 183.01,58.9828 182.5,55.5C 182.657,54.1266 182.49,52.7932 182,51.5C 181.617,52.056 181.117,52.3893 180.5,52.5C 182.137,50.0767 182.637,47.41 182,44.5C 180.883,45.9494 180.216,47.6161 180,49.5C 179.223,57.1525 178.723,64.8192 178.5,72.5C 176.169,72.5023 174.169,71.669 172.5,70C 169.633,65.6489 166.633,61.4823 163.5,57.5C 162.914,57.7093 162.414,58.0426 162,58.5C 161.708,62.882 161.208,67.2153 160.5,71.5C 159.687,69.7392 158.687,68.0725 157.5,66.5C 157.248,61.4814 156.748,56.4814 156,51.5C 154.279,57.2246 152.779,62.8913 151.5,68.5C 151.788,65.1337 151.954,61.8004 152,58.5C 151.667,58.8333 151.333,59.1667 151,59.5C 149.579,53.8306 149.245,48.1639 150,42.5C 148.299,45.3558 146.966,48.3558 146,51.5C 143.948,64.605 143.448,77.605 144.5,90.5C 144.5,91.8333 144.5,93.1667 144.5,94.5C 142.903,110.893 145.236,126.893 151.5,142.5C 150.141,142.387 148.807,143.053 147.5,144.5C 145.367,142.909 143.701,140.909 142.5,138.5C 141.15,134.905 138.483,133.572 134.5,134.5C 136.265,133.539 138.265,133.205 140.5,133.5C 139.092,125.04 137.258,116.706 135,108.5C 134.13,95.5031 133.296,82.5031 132.5,69.5C 131.501,80.4798 131.168,91.4798 131.5,102.5C 130.989,104.195 130.322,105.861 129.5,107.5C 127.052,90.5611 126.886,73.5611 129,56.5C 130.256,51.655 131.756,46.8217 133.5,42C 133.333,41.5 133.167,41 133,40.5C 132.292,41.3805 131.458,42.0472 130.5,42.5C 131.212,40.0721 132.212,37.7388 133.5,35.5C 131.816,34.1456 131.316,32.4789 132,30.5C 133.518,29.8366 134.685,28.8366 135.5,27.5C 138.098,28.5278 138.098,29.5278 135.5,30.5C 134.522,30.811 133.855,31.4777 133.5,32.5C 135.023,34.2825 137.023,34.9492 139.5,34.5C 140.833,34.5 142.167,34.5 143.5,34.5C 143.116,36.6648 143.783,38.3315 145.5,39.5C 146.452,37.9547 146.785,36.288 146.5,34.5C 152.613,38.1105 155.946,36.4438 156.5,29.5C 156.573,27.9731 155.906,26.9731 154.5,26.5C 153.866,25.0532 152.699,24.3866 151,24.5C 149.301,24.3866 148.134,25.0532 147.5,26.5C 146.094,26.9731 145.427,27.9731 145.5,29.5C 145.5,30.8333 145.5,32.1667 145.5,33.5C 144.833,32.8333 144.167,32.1667 143.5,31.5C 142.833,30.8333 142.167,30.1667 141.5,29.5C 143.547,27.4504 145.214,25.117 146.5,22.5C 147.338,22.1583 147.672,21.4916 147.5,20.5C 148.492,20.6716 149.158,20.3382 149.5,19.5C 150.716,17.5491 152.382,16.0491 154.5,15C 158.5,13.3333 162.5,11.6667 166.5,10C 175.167,9.33333 183.833,9.33333 192.5,10C 194.315,10.7568 195.981,11.5902 197.5,12.5 Z"/></g>
<g><path style="opacity:1" fill="#7e6a6f" d="M 204.5,51.5 C 204.125,49.3024 203.458,47.3024 202.5,45.5C 202.5,44.5 202.5,43.5 202.5,42.5C 205.817,42.781 208.983,42.781 212,42.5C 217.39,45.8882 218.557,50.2216 215.5,55.5C 213.854,54.2214 212.687,52.5547 212,50.5C 210.016,54.0281 207.516,54.3614 204.5,51.5 Z"/></g>
<g><path style="opacity:1" fill="#79656c" d="M 176.5,39.5 C 178.907,42.1153 179.074,45.1153 177,48.5C 172.848,50.4919 171.015,49.1585 171.5,44.5C 169.712,44.7852 168.045,44.4519 166.5,43.5C 168.969,42.8319 171.302,42.1653 173.5,41.5C 173.5,41.1667 173.5,40.8333 173.5,40.5C 174.609,40.4431 175.609,40.1098 176.5,39.5 Z"/></g>
<g><path style="opacity:1" fill="#79646b" d="M 188.5,41.5 C 191.167,42.8333 193.833,42.8333 196.5,41.5C 197.117,41.3893 197.617,41.056 198,40.5C 201.238,43.9464 201.238,47.2797 198,50.5C 196,49.1667 194,49.1667 192,50.5C 190.395,49.8993 189.062,48.8993 188,47.5C 186.644,48.3802 185.144,48.7135 183.5,48.5C 183.5,45.8333 183.5,43.1667 183.5,40.5C 185.292,40.366 186.958,40.6993 188.5,41.5 Z"/></g>
<g><path style="opacity:1" fill="#739166" d="M 167.5,39.5 C 169.265,40.4614 171.265,40.7947 173.5,40.5C 173.5,40.8333 173.5,41.1667 173.5,41.5C 171.076,41.8076 168.743,41.4742 166.5,40.5C 166.624,39.8933 166.957,39.56 167.5,39.5 Z"/></g>
<g><path style="opacity:1" fill="#d2658f" d="M 196.5,41.5 C 193.833,42.8333 191.167,42.8333 188.5,41.5C 188.336,38.8127 188.503,36.146 189,33.5C 195.762,31.986 198.262,34.6526 196.5,41.5 Z"/></g>
<g><path style="opacity:1" fill="#90cc81" d="M 202.5,33.5 C 203.5,33.5 204.5,33.5 205.5,33.5C 205.567,34.9587 205.234,36.2921 204.5,37.5C 202.99,38.7279 201.49,38.7279 200,37.5C 199.09,35.0551 199.924,33.7218 202.5,33.5 Z"/></g>
<g><path style="opacity:1" fill="#768165" d="M 177.5,35.5 C 180.5,35.5 183.5,35.5 186.5,35.5C 186.5,36.5 186.5,37.5 186.5,38.5C 183.518,38.0371 180.518,37.7038 177.5,37.5C 177.5,36.8333 177.5,36.1667 177.5,35.5 Z"/></g>
<g><path style="opacity:1" fill="#788d69" d="M 168.5,32.5 C 169.818,33.7574 171.151,35.0907 172.5,36.5C 171.675,37.3857 170.675,37.719 169.5,37.5C 166.695,36.6805 163.695,36.1805 160.5,36C 158.096,35.4921 157.429,34.3255 158.5,32.5C 162.048,35.0492 165.381,35.0492 168.5,32.5 Z"/></g>
<g><path style="opacity:1" fill="#e46e9b" d="M 156.5,29.5 C 155.946,36.4438 152.613,38.1105 146.5,34.5C 146.5,33.8333 146.167,33.5 145.5,33.5C 145.5,32.1667 145.5,30.8333 145.5,29.5C 147.446,28.8012 149.446,29.1345 151.5,30.5C 147.397,34.2981 147.73,34.9648 152.5,32.5C 153.386,31.675 153.719,30.675 153.5,29.5C 154.5,29.5 155.5,29.5 156.5,29.5 Z"/></g>
<g><path style="opacity:1" fill="#81a175" d="M 143.5,31.5 C 144.167,32.1667 144.833,32.8333 145.5,33.5C 146.167,33.5 146.5,33.8333 146.5,34.5C 146.785,36.288 146.452,37.9547 145.5,39.5C 143.783,38.3315 143.116,36.6648 143.5,34.5C 142.167,34.5 140.833,34.5 139.5,34.5C 141.219,33.9779 142.552,32.9779 143.5,31.5 Z"/></g>
<g><path style="opacity:1" fill="#769268" d="M 202.5,33.5 C 203.568,32.5655 204.901,32.2322 206.5,32.5C 207.552,34.256 209.219,34.9227 211.5,34.5C 209.91,36.821 207.577,37.821 204.5,37.5C 205.234,36.2921 205.567,34.9587 205.5,33.5C 204.5,33.5 203.5,33.5 202.5,33.5 Z"/></g>
<g><path style="opacity:1" fill="#98da8a" d="M 177.5,35.5 C 177.5,36.1667 177.5,36.8333 177.5,37.5C 176.662,37.8417 176.328,38.5084 176.5,39.5C 175.609,40.1098 174.609,40.4431 173.5,40.5C 171.265,40.7947 169.265,40.4614 167.5,39.5C 167.833,38.5 168.5,37.8333 169.5,37.5C 170.675,37.719 171.675,37.3857 172.5,36.5C 171.151,35.0907 169.818,33.7574 168.5,32.5C 166.597,26.7113 167.931,25.5447 172.5,29C 174.436,31.0423 176.103,33.209 177.5,35.5 Z"/></g>
<g><path style="opacity:1" fill="#b45378" d="M 147.5,26.5 C 149.833,27.8333 152.167,27.8333 154.5,26.5C 155.906,26.9731 156.573,27.9731 156.5,29.5C 155.5,29.5 154.5,29.5 153.5,29.5C 153.719,30.675 153.386,31.675 152.5,32.5C 147.73,34.9648 147.397,34.2981 151.5,30.5C 149.446,29.1345 147.446,28.8012 145.5,29.5C 145.427,27.9731 146.094,26.9731 147.5,26.5 Z"/></g>
<g><path style="opacity:1" fill="#e6729d" d="M 154.5,26.5 C 152.167,27.8333 149.833,27.8333 147.5,26.5C 148.134,25.0532 149.301,24.3866 151,24.5C 152.699,24.3866 153.866,25.0532 154.5,26.5 Z"/></g>
<g><path style="opacity:0.957" fill="#4c4d4c" d="M 452.5,51.5 C 468.167,51.5 483.833,51.5 499.5,51.5C 499.5,54.1667 499.5,56.8333 499.5,59.5C 502.167,59.5 504.833,59.5 507.5,59.5C 507.5,61.8333 507.5,64.1667 507.5,66.5C 509.833,66.5 512.167,66.5 514.5,66.5C 514.5,74.5 514.5,82.5 514.5,90.5C 512.167,90.5 509.833,90.5 507.5,90.5C 507.5,93.1667 507.5,95.8333 507.5,98.5C 489.5,98.5 471.5,98.5 453.5,98.5C 453.5,103.5 453.5,108.5 453.5,113.5C 455.833,113.5 458.167,113.5 460.5,113.5C 460.5,115.833 460.5,118.167 460.5,120.5C 470.5,120.5 480.5,120.5 490.5,120.5C 490.5,118.167 490.5,115.833 490.5,113.5C 498.5,113.5 506.5,113.5 514.5,113.5C 514.5,116.167 514.5,118.833 514.5,121.5C 512.167,121.5 509.833,121.5 507.5,121.5C 507.5,124.167 507.5,126.833 507.5,129.5C 504.833,129.5 502.167,129.5 499.5,129.5C 499.5,132.167 499.5,134.833 499.5,137.5C 483.833,137.5 468.167,137.5 452.5,137.5C 452.5,134.833 452.5,132.167 452.5,129.5C 449.833,129.5 447.167,129.5 444.5,129.5C 444.5,126.833 444.5,124.167 444.5,121.5C 441.833,121.5 439.167,121.5 436.5,121.5C 436.5,103.167 436.5,84.8333 436.5,66.5C 439.167,66.5 441.833,66.5 444.5,66.5C 444.5,64.1667 444.5,61.8333 444.5,59.5C 447.167,59.5 449.833,59.5 452.5,59.5C 452.5,56.8333 452.5,54.1667 452.5,51.5 Z M 460.5,67.5 C 470.5,67.5 480.5,67.5 490.5,67.5C 490.5,70.1667 490.5,72.8333 490.5,75.5C 493.167,75.5 495.833,75.5 498.5,75.5C 498.5,77.8333 498.5,80.1667 498.5,82.5C 483.5,82.5 468.5,82.5 453.5,82.5C 453.5,80.1667 453.5,77.8333 453.5,75.5C 455.833,75.5 458.167,75.5 460.5,75.5C 460.5,72.8333 460.5,70.1667 460.5,67.5 Z"/></g>
<g><path style="opacity:0.951" fill="#4c4d4c" d="M 529.5,51.5 C 535.167,51.5 540.833,51.5 546.5,51.5C 546.5,54.1667 546.5,56.8333 546.5,59.5C 548.5,59.5 550.5,59.5 552.5,59.5C 552.5,56.8333 552.5,54.1667 552.5,51.5C 565.833,51.5 579.167,51.5 592.5,51.5C 592.5,54.1667 592.5,56.8333 592.5,59.5C 595.167,59.5 597.833,59.5 600.5,59.5C 600.5,61.8333 600.5,64.1667 600.5,66.5C 602.833,66.5 605.167,66.5 607.5,66.5C 607.5,90.1667 607.5,113.833 607.5,137.5C 602.167,137.5 596.833,137.5 591.5,137.5C 591.5,116.833 591.5,96.1667 591.5,75.5C 588.833,75.5 586.167,75.5 583.5,75.5C 583.5,72.8333 583.5,70.1667 583.5,67.5C 573.5,67.5 563.5,67.5 553.5,67.5C 553.5,70.1667 553.5,72.8333 553.5,75.5C 551.167,75.5 548.833,75.5 546.5,75.5C 546.5,96.1667 546.5,116.833 546.5,137.5C 540.833,137.5 535.167,137.5 529.5,137.5C 529.5,108.833 529.5,80.1667 529.5,51.5 Z"/></g>
<g><path style="opacity:0.957" fill="#4c4d4c" d="M 730.5,51.5 C 746.167,51.5 761.833,51.5 777.5,51.5C 777.5,54.1667 777.5,56.8333 777.5,59.5C 780.167,59.5 782.833,59.5 785.5,59.5C 785.5,61.8333 785.5,64.1667 785.5,66.5C 787.833,66.5 790.167,66.5 792.5,66.5C 792.5,74.5 792.5,82.5 792.5,90.5C 790.167,90.5 787.833,90.5 785.5,90.5C 785.5,93.1667 785.5,95.8333 785.5,98.5C 767.5,98.5 749.5,98.5 731.5,98.5C 731.5,103.5 731.5,108.5 731.5,113.5C 733.833,113.5 736.167,113.5 738.5,113.5C 738.5,115.833 738.5,118.167 738.5,120.5C 748.5,120.5 758.5,120.5 768.5,120.5C 768.5,118.167 768.5,115.833 768.5,113.5C 776.5,113.5 784.5,113.5 792.5,113.5C 792.5,116.167 792.5,118.833 792.5,121.5C 790.167,121.5 787.833,121.5 785.5,121.5C 785.5,124.167 785.5,126.833 785.5,129.5C 782.833,129.5 780.167,129.5 777.5,129.5C 777.5,132.167 777.5,134.833 777.5,137.5C 761.833,137.5 746.167,137.5 730.5,137.5C 730.5,134.833 730.5,132.167 730.5,129.5C 727.833,129.5 725.167,129.5 722.5,129.5C 722.5,126.833 722.5,124.167 722.5,121.5C 719.833,121.5 717.167,121.5 714.5,121.5C 714.5,103.167 714.5,84.8333 714.5,66.5C 717.167,66.5 719.833,66.5 722.5,66.5C 722.5,64.1667 722.5,61.8333 722.5,59.5C 725.167,59.5 727.833,59.5 730.5,59.5C 730.5,56.8333 730.5,54.1667 730.5,51.5 Z M 738.5,67.5 C 748.5,67.5 758.5,67.5 768.5,67.5C 768.5,70.1667 768.5,72.8333 768.5,75.5C 771.167,75.5 773.833,75.5 776.5,75.5C 776.5,77.8333 776.5,80.1667 776.5,82.5C 761.5,82.5 746.5,82.5 731.5,82.5C 731.5,80.1667 731.5,77.8333 731.5,75.5C 733.833,75.5 736.167,75.5 738.5,75.5C 738.5,72.8333 738.5,70.1667 738.5,67.5 Z"/></g>
<g><path style="opacity:0.94" fill="#4c4d4c" d="M 807.5,51.5 C 813.167,51.5 818.833,51.5 824.5,51.5C 824.5,56.5 824.5,61.5 824.5,66.5C 826.5,66.5 828.5,66.5 830.5,66.5C 830.5,64.1667 830.5,61.8333 830.5,59.5C 833.167,59.5 835.833,59.5 838.5,59.5C 838.5,56.8333 838.5,54.1667 838.5,51.5C 849.167,51.5 859.833,51.5 870.5,51.5C 870.5,54.1667 870.5,56.8333 870.5,59.5C 873.167,59.5 875.833,59.5 878.5,59.5C 878.5,61.8333 878.5,64.1667 878.5,66.5C 880.833,66.5 883.167,66.5 885.5,66.5C 885.5,72.1667 885.5,77.8333 885.5,83.5C 880.167,83.5 874.833,83.5 869.5,83.5C 869.5,80.8333 869.5,78.1667 869.5,75.5C 866.833,75.5 864.167,75.5 861.5,75.5C 861.5,72.8333 861.5,70.1667 861.5,67.5C 856.833,67.5 852.167,67.5 847.5,67.5C 847.5,70.1667 847.5,72.8333 847.5,75.5C 844.833,75.5 842.167,75.5 839.5,75.5C 839.5,78.1667 839.5,80.8333 839.5,83.5C 836.833,83.5 834.167,83.5 831.5,83.5C 831.5,85.8333 831.5,88.1667 831.5,90.5C 829.167,90.5 826.833,90.5 824.5,90.5C 824.5,106.167 824.5,121.833 824.5,137.5C 818.833,137.5 813.167,137.5 807.5,137.5C 807.5,108.833 807.5,80.1667 807.5,51.5 Z"/></g>
<g><path style="opacity:0.055" fill="#706167" d="M 129.5,46.5 C 129.029,50.356 128.362,54.1893 127.5,58C 127.316,59.3756 126.649,60.2089 125.5,60.5C 125.964,55.4688 127.297,50.8022 129.5,46.5 Z"/></g>
<g><path style="opacity:1" fill="#e0c3c2" d="M 157.5,66.5 C 156.178,66.33 155.011,66.6634 154,67.5C 153.708,71.882 153.208,76.2153 152.5,80.5C 151.71,81.4013 150.71,82.0679 149.5,82.5C 149.459,80.2547 148.625,79.5881 147,80.5C 145.402,82.8945 145.236,85.2279 146.5,87.5C 146.34,89.1992 146.506,90.8659 147,92.5C 149.305,84.7396 151.138,84.7396 152.5,92.5C 151.85,92.1961 151.183,91.8627 150.5,91.5C 149.15,92.9501 147.484,93.6168 145.5,93.5C 145.5,95.5 145.5,97.5 145.5,99.5C 144.549,98.0813 144.216,96.4147 144.5,94.5C 144.5,93.1667 144.5,91.8333 144.5,90.5C 144.176,86.4454 144.509,82.4454 145.5,78.5C 146.833,75.8333 148.167,75.8333 149.5,78.5C 150.167,75.0227 150.834,71.6893 151.5,68.5C 152.779,62.8913 154.279,57.2246 156,51.5C 156.748,56.4814 157.248,61.4814 157.5,66.5 Z"/></g>
<g><path style="opacity:1" fill="#e7c2c4" d="M 182.5,55.5 C 183.01,58.9828 183.677,62.3162 184.5,65.5C 185.5,69.5 186.5,73.5 187.5,77.5C 185.323,74.9748 183.323,72.3081 181.5,69.5C 181.181,64.6367 181.514,59.97 182.5,55.5 Z"/></g>
<g><path style="opacity:1" fill="#a78689" d="M 182.5,55.5 C 181.514,59.97 181.181,64.6367 181.5,69.5C 181.5,71.1667 181.5,72.8333 181.5,74.5C 181.167,74.5 180.833,74.5 180.5,74.5C 180.5,67.1667 180.5,59.8333 180.5,52.5C 181.117,52.3893 181.617,52.056 182,51.5C 182.49,52.7932 182.657,54.1266 182.5,55.5 Z"/></g>
<g><path style="opacity:1" fill="#58404a" d="M 180.5,52.5 C 180.5,59.8333 180.5,67.1667 180.5,74.5C 174.75,75.7616 169.083,76.4283 163.5,76.5C 162.237,74.9713 161.237,73.3046 160.5,71.5C 161.208,67.2153 161.708,62.882 162,58.5C 162.414,58.0426 162.914,57.7093 163.5,57.5C 166.633,61.4823 169.633,65.6489 172.5,70C 174.169,71.669 176.169,72.5023 178.5,72.5C 178.723,64.8192 179.223,57.1525 180,49.5C 180.216,47.6161 180.883,45.9494 182,44.5C 182.637,47.41 182.137,50.0767 180.5,52.5 Z"/></g>
<g><path style="opacity:0.384" fill="#e2c052" d="M 275.5,60.5 C 279.652,60.6308 280.318,62.1308 277.5,65C 273.673,66.746 270.007,68.746 266.5,71C 262.833,71.6667 261.833,70.3333 263.5,67C 267.434,64.5361 271.434,62.3694 275.5,60.5 Z"/></g>
<g><path style="opacity:0.478" fill="#908289" d="M 125.5,61.5 C 126.147,62.2739 126.48,63.2739 126.5,64.5C 126.66,66.3545 125.993,67.6879 124.5,68.5C 124.674,66.139 125.007,63.8056 125.5,61.5 Z"/></g>
<g><path style="opacity:1" fill="#fcf4ed" d="M 157.5,66.5 C 157.4,69.667 158.067,72.667 159.5,75.5C 159.291,76.086 158.957,76.586 158.5,77C 159.833,77.3333 161.167,77.6667 162.5,78C 160.292,78.1909 158.292,78.6909 156.5,79.5C 155.292,80.2341 153.959,80.5674 152.5,80.5C 153.208,76.2153 153.708,71.882 154,67.5C 155.011,66.6634 156.178,66.33 157.5,66.5 Z"/></g>
<g><path style="opacity:0.498" fill="#f2cd66" d="M 79.5,67.5 C 84.3102,68.0359 88.9769,69.2025 93.5,71C 95.1066,72.049 95.7733,73.549 95.5,75.5C 89.2096,75.347 83.5429,73.5137 78.5,70C 78.7432,69.0979 79.0766,68.2646 79.5,67.5 Z"/></g>
<g><path style="opacity:1" fill="#563f48" d="M 151.5,68.5 C 150.834,71.6893 150.167,75.0227 149.5,78.5C 148.167,75.8333 146.833,75.8333 145.5,78.5C 144.509,82.4454 144.176,86.4454 144.5,90.5C 143.448,77.605 143.948,64.605 146,51.5C 146.966,48.3558 148.299,45.3558 150,42.5C 149.245,48.1639 149.579,53.8306 151,59.5C 151.333,59.1667 151.667,58.8333 152,58.5C 151.954,61.8004 151.788,65.1337 151.5,68.5 Z"/></g>
<g><path style="opacity:1" fill="#5a434d" d="M 202.5,45.5 C 203.458,47.3024 204.125,49.3024 204.5,51.5C 205.486,60.154 205.986,68.8206 206,77.5C 205.692,76.6919 205.192,76.0253 204.5,75.5C 203.571,76.6888 203.238,78.0222 203.5,79.5C 200.507,78.8654 197.507,78.6987 194.5,79C 199.786,79.7911 203.453,82.6244 205.5,87.5C 205.5,89.1667 205.5,90.8333 205.5,92.5C 204.686,90.2187 203.352,88.2187 201.5,86.5C 200.648,88.9242 199.648,91.2576 198.5,93.5C 197.842,92.6016 197.176,91.6016 196.5,90.5C 195.893,90.6236 195.56,90.9569 195.5,91.5C 194.2,90.8921 192.867,90.2255 191.5,89.5C 190.584,89.5427 189.917,89.8761 189.5,90.5C 189.5,91.5 189.5,92.5 189.5,93.5C 191.564,93.687 193.564,94.187 195.5,95C 194.207,95.49 192.873,95.6567 191.5,95.5C 189.983,95.4894 188.816,94.8228 188,93.5C 187.739,89.294 187.239,85.1274 186.5,81C 186.57,80.2352 186.903,79.7352 187.5,79.5C 189.414,78.8153 191.414,78.3153 193.5,78C 192.975,77.3076 192.308,76.8076 191.5,76.5C 190.264,77.2458 188.93,77.5792 187.5,77.5C 186.5,73.5 185.5,69.5 184.5,65.5C 184.351,64.448 184.517,63.448 185,62.5C 186.152,65.4403 187.152,68.4403 188,71.5C 188.687,69.4325 188.52,67.4325 187.5,65.5C 190.291,48.2319 192.958,48.2319 195.5,65.5C 196.736,66.2458 198.07,66.5792 199.5,66.5C 199.482,62.5545 200.482,58.8878 202.5,55.5C 201.406,52.001 201.406,48.6677 202.5,45.5 Z"/></g>
<g><path style="opacity:1" fill="#e4c4c4" d="M 157.5,66.5 C 158.687,68.0725 159.687,69.7392 160.5,71.5C 161.237,73.3046 162.237,74.9713 163.5,76.5C 169.083,76.4283 174.75,75.7616 180.5,74.5C 180.833,74.5 181.167,74.5 181.5,74.5C 181.714,76.1439 181.38,77.6439 180.5,79C 175.511,79.4993 170.511,79.6659 165.5,79.5C 165.483,81.5648 165.15,83.5648 164.5,85.5C 163.709,83.6907 163.709,81.6907 164.5,79.5C 161.833,79.5 159.167,79.5 156.5,79.5C 158.292,78.6909 160.292,78.1909 162.5,78C 161.167,77.6667 159.833,77.3333 158.5,77C 158.957,76.586 159.291,76.086 159.5,75.5C 158.067,72.667 157.4,69.667 157.5,66.5 Z"/></g>
<g><path style="opacity:1" fill="#4c383e" d="M 229.5,60.5 C 230.451,61.9187 230.784,63.5853 230.5,65.5C 229.307,65.9704 228.64,66.9704 228.5,68.5C 229.881,72.8852 229.715,77.2185 228,81.5C 227.502,78.1832 227.335,74.8499 227.5,71.5C 227.653,65.1308 227.32,58.7974 226.5,52.5C 227.726,54.5062 228.726,57.1729 229.5,60.5 Z"/></g>
<g><path style="opacity:1" fill="#b79ca1" d="M 187.5,79.5 C 187.5,78.8333 187.5,78.1667 187.5,77.5C 188.93,77.5792 190.264,77.2458 191.5,76.5C 192.308,76.8076 192.975,77.3076 193.5,78C 191.414,78.3153 189.414,78.8153 187.5,79.5 Z"/></g>
<g><path style="opacity:1" fill="#fbf2e8" d="M 181.5,69.5 C 183.323,72.3081 185.323,74.9748 187.5,77.5C 187.5,78.1667 187.5,78.8333 187.5,79.5C 186.903,79.7352 186.57,80.2352 186.5,81C 187.239,85.1274 187.739,89.294 188,93.5C 188.816,94.8228 189.983,95.4894 191.5,95.5C 194.255,96.8103 196.588,96.1437 198.5,93.5C 199.648,91.2576 200.648,88.9242 201.5,86.5C 203.352,88.2187 204.686,90.2187 205.5,92.5C 206.479,95.6248 206.813,98.9581 206.5,102.5C 205.007,107.319 202.34,111.319 198.5,114.5C 193.941,116.61 189.608,118.943 185.5,121.5C 182.565,121.717 179.731,122.383 177,123.5C 173.71,122.792 170.544,121.792 167.5,120.5C 155.546,118.211 148.213,111.211 145.5,99.5C 145.5,97.5 145.5,95.5 145.5,93.5C 147.484,93.6168 149.15,92.9501 150.5,91.5C 151.183,91.8627 151.85,92.1961 152.5,92.5C 153.222,93.5511 154.222,94.2178 155.5,94.5C 155.369,95.3764 155.702,96.0431 156.5,96.5C 159.047,96.229 161.047,95.229 162.5,93.5C 163.117,93.3893 163.617,93.056 164,92.5C 164.497,90.1902 164.663,87.8568 164.5,85.5C 165.15,83.5648 165.483,81.5648 165.5,79.5C 170.511,79.6659 175.511,79.4993 180.5,79C 181.38,77.6439 181.714,76.1439 181.5,74.5C 181.5,72.8333 181.5,71.1667 181.5,69.5 Z"/></g>
<g><path style="opacity:1" fill="#f5f2f1" d="M 149.5,82.5 C 148.075,83.922 147.075,85.5887 146.5,87.5C 145.236,85.2279 145.402,82.8945 147,80.5C 148.625,79.5881 149.459,80.2547 149.5,82.5 Z"/></g>
<g><path style="opacity:1" fill="#dbb6be" d="M 203.5,79.5 C 204.5,79.5 205.5,79.5 206.5,79.5C 206.806,82.3854 206.473,85.0521 205.5,87.5C 203.453,82.6244 199.786,79.7911 194.5,79C 197.507,78.6987 200.507,78.8654 203.5,79.5 Z"/></g>
<g><path style="opacity:1" fill="#c5bdbf" d="M 195.5,82.5 C 196.5,82.5 197.5,82.5 198.5,82.5C 198.549,88.7022 197.549,88.7022 195.5,82.5 Z"/></g>
<g><path style="opacity:0.066" fill="#f4d275" d="M 72.5,84.5 C 77.5068,84.7509 82.5068,85.0843 87.5,85.5C 87.5,87.1667 87.5,88.8333 87.5,90.5C 81.8477,89.9682 76.181,89.6349 70.5,89.5C 70.3653,87.4458 71.032,85.7791 72.5,84.5 Z"/></g>
<g><path style="opacity:1" fill="#5a4148" d="M 156.5,79.5 C 159.167,79.5 161.833,79.5 164.5,79.5C 163.709,81.6907 163.709,83.6907 164.5,85.5C 164.663,87.8568 164.497,90.1902 164,92.5C 163.617,93.056 163.117,93.3893 162.5,93.5C 162.48,89.4871 161.147,88.8205 158.5,91.5C 156.105,90.4775 155.105,91.4775 155.5,94.5C 154.222,94.2178 153.222,93.5511 152.5,92.5C 151.138,84.7396 149.305,84.7396 147,92.5C 146.506,90.8659 146.34,89.1992 146.5,87.5C 147.075,85.5887 148.075,83.922 149.5,82.5C 150.71,82.0679 151.71,81.4013 152.5,80.5C 153.959,80.5674 155.292,80.2341 156.5,79.5 Z"/></g>
<g><path style="opacity:1" fill="#b4a9ac" d="M 158.5,83.5 C 159.833,83.5 161.167,83.5 162.5,83.5C 162.719,84.675 162.386,85.675 161.5,86.5C 159.787,86.1207 158.787,85.1207 158.5,83.5 Z"/></g>
<g><path style="opacity:1" fill="#9f807f" d="M 189.5,90.5 C 189.917,89.8761 190.584,89.5427 191.5,89.5C 192.867,90.2255 194.2,90.8921 195.5,91.5C 195.265,92.0967 194.765,92.4301 194,92.5C 192.7,91.2927 191.2,90.6261 189.5,90.5 Z"/></g>
<g><path style="opacity:1" fill="#e7c3b1" d="M 162.5,93.5 C 160.139,93.6741 157.806,94.0074 155.5,94.5C 155.105,91.4775 156.105,90.4775 158.5,91.5C 161.147,88.8205 162.48,89.4871 162.5,93.5 Z"/></g>
<g><path style="opacity:1" fill="#d2b3a4" d="M 189.5,90.5 C 191.2,90.6261 192.7,91.2927 194,92.5C 194.765,92.4301 195.265,92.0967 195.5,91.5C 195.56,90.9569 195.893,90.6236 196.5,90.5C 197.176,91.6016 197.842,92.6016 198.5,93.5C 196.588,96.1437 194.255,96.8103 191.5,95.5C 192.873,95.6567 194.207,95.49 195.5,95C 193.564,94.187 191.564,93.687 189.5,93.5C 189.5,92.5 189.5,91.5 189.5,90.5 Z"/></g>
<g><path style="opacity:1" fill="#695555" d="M 162.5,93.5 C 161.047,95.229 159.047,96.229 156.5,96.5C 155.702,96.0431 155.369,95.3764 155.5,94.5C 157.806,94.0074 160.139,93.6741 162.5,93.5 Z"/></g>
<g><path style="opacity:0.882" fill="#f8cf6b" d="M 286.5,96.5 C 289.5,96.5 292.5,96.5 295.5,96.5C 295.67,97.8221 295.337,98.9887 294.5,100C 288.291,101.875 281.957,103.042 275.5,103.5C 275.238,102.022 275.571,100.689 276.5,99.5C 279.954,98.4873 283.287,97.4873 286.5,96.5 Z"/></g>
<g><path style="opacity:1" fill="#58434b" d="M 229.5,87.5 C 228.438,89.2341 228.438,90.9008 229.5,92.5C 229.5,92.8333 229.5,93.1667 229.5,93.5C 228.502,97.3276 228.502,100.994 229.5,104.5C 229.5,107.833 229.5,111.167 229.5,114.5C 228.833,114.5 228.5,114.833 228.5,115.5C 228.5,115.833 228.5,116.167 228.5,116.5C 228.697,119.303 228.363,122.303 227.5,125.5C 227.833,126.833 228.167,128.167 228.5,129.5C 229.107,129.376 229.44,129.043 229.5,128.5C 232.211,124.788 235.544,121.788 239.5,119.5C 240.167,119.5 240.833,119.5 241.5,119.5C 237.814,124.186 233.48,128.186 228.5,131.5C 226.197,135.68 225.864,140.014 227.5,144.5C 227.5,145.167 227.167,145.5 226.5,145.5C 225.83,142.327 224.664,139.327 223,136.5C 220.503,134.522 217.669,134.022 214.5,135C 212.745,138.364 210.412,141.198 207.5,143.5C 206.761,143.631 206.094,143.464 205.5,143C 206.329,141.184 207.163,139.351 208,137.5C 208.333,138.167 208.667,138.833 209,139.5C 210.667,137.167 212.333,134.833 214,132.5C 218.599,116.856 220.765,100.856 220.5,84.5C 220.833,83.8333 221.167,83.1667 221.5,82.5C 222.327,86.4592 222.827,90.4592 223,94.5C 223.333,92.8333 223.667,91.1667 224,89.5C 225.338,86.9177 227.171,86.2511 229.5,87.5 Z M 218.5,124.5 C 219.797,126.693 219.797,129.027 218.5,131.5C 217.943,129.282 217.943,126.949 218.5,124.5 Z"/></g>
<g><path style="opacity:0.502" fill="#76666b" d="M 230.5,86.5 C 235.677,95.5734 236.844,105.24 234,115.5C 232.579,118.009 230.912,120.343 229,122.5C 228.211,124.712 228.378,126.712 229.5,128.5C 229.44,129.043 229.107,129.376 228.5,129.5C 228.167,128.167 227.833,126.833 227.5,125.5C 228.363,122.303 228.697,119.303 228.5,116.5C 229.644,117.183 229.644,116.849 228.5,115.5C 228.5,114.833 228.833,114.5 229.5,114.5C 232.431,108.465 232.931,102.132 231,95.5C 230.047,98.4318 229.547,101.432 229.5,104.5C 228.502,100.994 228.502,97.3276 229.5,93.5C 230.833,93.1667 230.833,92.8333 229.5,92.5C 228.438,90.9008 228.438,89.2341 229.5,87.5C 229.5,86.8333 229.833,86.5 230.5,86.5 Z"/></g>
<g><path style="opacity:0.748" fill="#f6d06a" d="M 63.5,106.5 C 68.1272,107.438 72.7939,108.271 77.5,109C 82.0712,110.444 82.4046,112.277 78.5,114.5C 73.2081,113.285 67.8747,112.285 62.5,111.5C 62.366,109.708 62.6993,108.042 63.5,106.5 Z"/></g>
<g><path style="opacity:0.719" fill="#f6d173" d="M 286.5,107.5 C 289.167,107.5 291.833,107.5 294.5,107.5C 294.5,108.833 294.5,110.167 294.5,111.5C 290.521,112.465 286.521,112.965 282.5,113C 281.549,112.282 281.383,111.449 282,110.5C 283.409,109.219 284.909,108.219 286.5,107.5 Z"/></g>
<g><path style="opacity:0.667" fill="#75676c" d="M 124.5,94.5 C 125.497,94.4701 126.164,94.9701 126.5,96C 126.008,99.3097 125.675,102.476 125.5,105.5C 123.698,110.418 120.865,114.751 117,118.5C 116.517,119.448 116.351,120.448 116.5,121.5C 115.263,120.035 114.263,118.368 113.5,116.5C 120.338,110.825 124.004,103.492 124.5,94.5 Z"/></g>
<g><path style="opacity:0.345" fill="#8b7a81" d="M 125.5,107.5 C 126.586,107.62 127.253,108.287 127.5,109.5C 127.457,110.416 127.124,111.083 126.5,111.5C 125.566,110.432 125.232,109.099 125.5,107.5 Z"/></g>
<g><path style="opacity:1" fill="#896571" d="M 202.5,129.5 C 199.503,126.737 196.836,127.237 194.5,131C 189.671,132.338 187.338,130.504 187.5,125.5C 187.199,121.823 188.866,120.157 192.5,120.5C 192.335,123.85 192.502,127.183 193,130.5C 194.262,126.687 194.929,122.687 195,118.5C 196.652,117.601 198.152,116.601 199.5,115.5C 202.559,113.603 204.726,110.936 206,107.5C 206.321,115.17 206.154,122.837 205.5,130.5C 204.209,130.737 203.209,130.404 202.5,129.5 Z"/></g>
<g><path style="opacity:1" fill="#fdfdfd" d="M 111.5,118.5 C 110.284,120.451 108.618,121.951 106.5,123C 109.207,123.317 111.54,122.484 113.5,120.5C 117.27,126.608 122.27,131.274 128.5,134.5C 128.6,137.108 127.933,139.442 126.5,141.5C 122.489,151.87 118.155,162.203 113.5,172.5C 105.96,183.094 101.627,194.927 100.5,208C 100.503,210.69 100.836,213.19 101.5,215.5C 99.2054,219.462 96.2054,222.795 92.5,225.5C 92.1667,225.5 91.8333,225.5 91.5,225.5C 89.7105,224.987 88.0438,224.487 86.5,224C 84.6991,226.443 83.0324,228.943 81.5,231.5C 80.4206,233.543 78.754,234.876 76.5,235.5C 72.3811,235.801 70.3811,233.801 70.5,229.5C 68.0251,233.142 65.3585,236.642 62.5,240C 60.8333,240.667 59.1667,240.667 57.5,240C 55.1934,236.884 53.8601,233.384 53.5,229.5C 53.5,226.5 53.5,223.5 53.5,220.5C 52.209,220.263 51.209,220.596 50.5,221.5C 46.8475,229.474 43.1809,237.474 39.5,245.5C 38.914,245.291 38.414,244.957 38,244.5C 36.7139,239.904 35.8806,235.237 35.5,230.5C 34.4852,214.925 36.8186,199.925 42.5,185.5C 47.0577,175.383 52.391,165.716 58.5,156.5C 59.8333,155.833 60.8333,154.833 61.5,153.5C 64.3985,148.428 67.8985,143.761 72,139.5C 81.5218,129.441 92.1885,121.107 104,114.5C 107.329,114.413 109.829,115.746 111.5,118.5 Z"/></g>
<g><path style="opacity:1" fill="#4e363e" d="M 205.5,131.5 C 204.167,131.5 202.833,131.5 201.5,131.5C 201.5,131.167 201.5,130.833 201.5,130.5C 201.5,129.833 201.833,129.5 202.5,129.5C 203.209,130.404 204.209,130.737 205.5,130.5C 206.154,122.837 206.321,115.17 206,107.5C 204.726,110.936 202.559,113.603 199.5,115.5C 198.833,115.5 198.5,115.167 198.5,114.5C 202.34,111.319 205.007,107.319 206.5,102.5C 207.321,99.3586 207.821,96.0252 208,92.5C 208.667,102.167 208.667,111.833 208,121.5C 207.974,125.179 207.14,128.512 205.5,131.5 Z"/></g>
<g><path style="opacity:1" fill="#fdfcfc" d="M 304.5,187.5 C 311.935,207.773 315.602,228.773 315.5,250.5C 314.167,250.5 312.833,250.5 311.5,250.5C 310.833,249.167 310.167,247.833 309.5,246.5C 309.231,243.403 308.065,240.737 306,238.5C 306.456,241.428 306.456,244.428 306,247.5C 305.329,248.252 304.496,248.586 303.5,248.5C 299.849,246.243 296.849,243.243 294.5,239.5C 293.259,242.144 291.259,242.977 288.5,242C 283.726,236.949 279.56,231.449 276,225.5C 275.506,227.134 275.34,228.801 275.5,230.5C 269.894,230.752 265.894,228.252 263.5,223C 258.923,220.761 254.589,218.095 250.5,215C 247.679,212.859 246.346,210.025 246.5,206.5C 246.75,201.42 246.25,196.42 245,191.5C 241.591,183.102 238.091,174.769 234.5,166.5C 234.068,165.29 233.401,164.29 232.5,163.5C 231.25,160.994 230.584,158.327 230.5,155.5C 230.258,151.521 229.258,147.854 227.5,144.5C 225.864,140.014 226.197,135.68 228.5,131.5C 233.48,128.186 237.814,124.186 241.5,119.5C 244.286,117.887 246.953,116.054 249.5,114C 251.833,113.333 254.167,113.333 256.5,114C 260.633,117.131 264.466,120.631 268,124.5C 282.93,143.923 295.097,164.923 304.5,187.5 Z"/></g>
<g><path style="opacity:0.282" fill="#5d4b50" d="M 282.5,141.5 C 282.75,143.674 283.75,145.341 285.5,146.5C 293.076,156.984 299.076,168.318 303.5,180.5C 303.586,182.677 304.253,184.677 305.5,186.5C 305.376,187.107 305.043,187.44 304.5,187.5C 295.097,164.923 282.93,143.923 268,124.5C 264.466,120.631 260.633,117.131 256.5,114C 254.167,113.333 251.833,113.333 249.5,114C 246.953,116.054 244.286,117.887 241.5,119.5C 240.833,119.5 240.167,119.5 239.5,119.5C 245.683,110.766 253.35,109.266 262.5,115C 270.212,123.189 276.878,132.022 282.5,141.5 Z"/></g>
<g><path style="opacity:1" fill="#49363d" d="M 134.5,134.5 C 133.29,134.932 132.29,135.599 131.5,136.5C 129.915,135.998 129.415,134.998 130,133.5C 130.414,133.957 130.914,134.291 131.5,134.5C 133.51,132.829 135.843,132.162 138.5,132.5C 135.932,122.346 133.599,112.346 131.5,102.5C 131.168,91.4798 131.501,80.4798 132.5,69.5C 133.296,82.5031 134.13,95.5031 135,108.5C 137.258,116.706 139.092,125.04 140.5,133.5C 138.265,133.205 136.265,133.539 134.5,134.5 Z"/></g>
<g><path style="opacity:1" fill="#876370" d="M 167.5,129.5 C 165.648,133.76 162.314,135.427 157.5,134.5C 158.952,133.698 160.618,133.198 162.5,133C 161.552,132.517 160.552,132.351 159.5,132.5C 158.973,129.769 158.14,127.102 157,124.5C 156.231,127.099 156.398,129.599 157.5,132C 154.986,133.252 152.32,133.752 149.5,133.5C 147.865,125.227 147.032,116.894 147,108.5C 149.463,111.965 152.296,115.131 155.5,118C 159.099,119.309 162.599,120.809 166,122.5C 166.186,125.036 166.686,127.369 167.5,129.5 Z"/></g>
<g><path style="opacity:1" fill="#8d7174" d="M 167.5,120.5 C 170.544,121.792 173.71,122.792 177,123.5C 179.731,122.383 182.565,121.717 185.5,121.5C 185.5,121.833 185.5,122.167 185.5,122.5C 179.96,126.345 174.46,126.345 169,122.5C 168.536,123.094 168.369,123.761 168.5,124.5C 167.566,123.432 167.232,122.099 167.5,120.5 Z"/></g>
<g><path style="opacity:0.346" fill="#f6cf68" d="M 286.5,118.5 C 290.833,118.5 295.167,118.5 299.5,118.5C 299.773,120.451 299.107,121.951 297.5,123C 293.179,123.499 288.846,123.666 284.5,123.5C 284.365,121.446 285.032,119.779 286.5,118.5 Z"/></g>
<g><path style="opacity:1" fill="#e7bfc4" d="M 185.5,122.5 C 183.789,130.117 186.789,133.784 194.5,133.5C 194.598,135.553 193.931,137.22 192.5,138.5C 192.44,137.957 192.107,137.624 191.5,137.5C 181.197,139.687 170.864,139.687 160.5,137.5C 160.027,136.094 159.027,135.427 157.5,135.5C 157.5,135.167 157.5,134.833 157.5,134.5C 162.314,135.427 165.648,133.76 167.5,129.5C 168.451,128.081 168.784,126.415 168.5,124.5C 168.369,123.761 168.536,123.094 169,122.5C 174.46,126.345 179.96,126.345 185.5,122.5 Z"/></g>
<g><path style="opacity:0.4" fill="#f7d064" d="M 77.5,131.5 C 76.8333,131.5 76.5,131.833 76.5,132.5C 75.5084,132.328 74.8417,132.662 74.5,133.5C 70.2282,132.699 65.8948,132.532 61.5,133C 59.8934,131.951 59.2267,130.451 59.5,128.5C 65.5256,127.494 71.5256,127.494 77.5,128.5C 77.5,129.5 77.5,130.5 77.5,131.5 Z"/></g>
<g><path style="opacity:0.976" fill="#57444a" d="M 131.5,102.5 C 133.599,112.346 135.932,122.346 138.5,132.5C 135.843,132.162 133.51,132.829 131.5,134.5C 130.914,134.291 130.414,133.957 130,133.5C 129.415,134.998 129.915,135.998 131.5,136.5C 130.833,137.5 130.167,138.5 129.5,139.5C 128.326,140.514 127.66,141.847 127.5,143.5C 126.662,143.158 126.328,142.492 126.5,141.5C 127.933,139.442 128.6,137.108 128.5,134.5C 122.27,131.274 117.27,126.608 113.5,120.5C 113.167,119.5 112.5,118.833 111.5,118.5C 109.829,115.746 107.329,114.413 104,114.5C 92.1885,121.107 81.5218,129.441 72,139.5C 67.8985,143.761 64.3985,148.428 61.5,153.5C 60.6618,153.158 60.3284,152.492 60.5,151.5C 64.7607,145.233 69.4273,139.233 74.5,133.5C 75.4916,133.672 76.1583,133.338 76.5,132.5C 76.5,131.833 76.8333,131.5 77.5,131.5C 84.9968,124.516 92.9968,118.016 101.5,112C 106.524,111.02 110.524,112.52 113.5,116.5C 114.263,118.368 115.263,120.035 116.5,121.5C 119.768,125.271 123.268,128.938 127,132.5C 127.108,125.507 126.941,118.507 126.5,111.5C 127.124,111.083 127.457,110.416 127.5,109.5C 127.253,108.287 126.586,107.62 125.5,107.5C 125.5,106.833 125.5,106.167 125.5,105.5C 125.675,102.476 126.008,99.3097 126.5,96C 126.164,94.9701 125.497,94.4701 124.5,94.5C 124.5,85.8333 124.5,77.1667 124.5,68.5C 125.993,67.6879 126.66,66.3545 126.5,64.5C 126.48,63.2739 126.147,62.2739 125.5,61.5C 125.5,61.1667 125.5,60.8333 125.5,60.5C 126.649,60.2089 127.316,59.3756 127.5,58C 128.362,54.1893 129.029,50.356 129.5,46.5C 129.433,45.0413 129.766,43.7079 130.5,42.5C 131.458,42.0472 132.292,41.3805 133,40.5C 133.167,41 133.333,41.5 133.5,42C 131.756,46.8217 130.256,51.655 129,56.5C 126.886,73.5611 127.052,90.5611 129.5,107.5C 130.322,105.861 130.989,104.195 131.5,102.5 Z"/></g>
<g><path style="opacity:1" fill="#ab9a9c" d="M 111.5,118.5 C 112.5,118.833 113.167,119.5 113.5,120.5C 111.54,122.484 109.207,123.317 106.5,123C 108.618,121.951 110.284,120.451 111.5,118.5 Z"/></g>
<g><path style="opacity:1" fill="#694c54" d="M 198.5,114.5 C 198.5,115.167 198.833,115.5 199.5,115.5C 198.152,116.601 196.652,117.601 195,118.5C 194.929,122.687 194.262,126.687 193,130.5C 192.502,127.183 192.335,123.85 192.5,120.5C 188.866,120.157 187.199,121.823 187.5,125.5C 187.338,130.504 189.671,132.338 194.5,131C 196.836,127.237 199.503,126.737 202.5,129.5C 201.833,129.5 201.5,129.833 201.5,130.5C 200.039,129.314 198.705,129.314 197.5,130.5C 196.272,131.306 195.272,132.306 194.5,133.5C 186.789,133.784 183.789,130.117 185.5,122.5C 185.5,122.167 185.5,121.833 185.5,121.5C 189.608,118.943 193.941,116.61 198.5,114.5 Z"/></g>
<g><path style="opacity:1" fill="#9a8e90" d="M 201.5,131.5 C 202.833,131.5 204.167,131.5 205.5,131.5C 205.795,133.735 205.461,135.735 204.5,137.5C 204.5,135.833 204.5,134.167 204.5,132.5C 203.209,132.737 202.209,132.404 201.5,131.5 Z"/></g>
<g><path style="opacity:1" fill="#e7c2c4" d="M 134.5,134.5 C 138.483,133.572 141.15,134.905 142.5,138.5C 138.119,138.372 133.785,138.705 129.5,139.5C 130.167,138.5 130.833,137.5 131.5,136.5C 132.29,135.599 133.29,134.932 134.5,134.5 Z"/></g>
<g><path style="opacity:1" fill="#5f474d" d="M 144.5,94.5 C 144.216,96.4147 144.549,98.0813 145.5,99.5C 148.213,111.211 155.546,118.211 167.5,120.5C 167.232,122.099 167.566,123.432 168.5,124.5C 168.784,126.415 168.451,128.081 167.5,129.5C 166.686,127.369 166.186,125.036 166,122.5C 162.599,120.809 159.099,119.309 155.5,118C 152.296,115.131 149.463,111.965 147,108.5C 147.032,116.894 147.865,125.227 149.5,133.5C 152.32,133.752 154.986,133.252 157.5,132C 156.398,129.599 156.231,127.099 157,124.5C 158.14,127.102 158.973,129.769 159.5,132.5C 160.552,132.351 161.552,132.517 162.5,133C 160.618,133.198 158.952,133.698 157.5,134.5C 157.5,134.833 157.5,135.167 157.5,135.5C 155.5,135.5 153.5,135.5 151.5,135.5C 152.287,139.07 153.62,142.403 155.5,145.5C 156.562,146.575 156.562,147.575 155.5,148.5C 152.761,147.163 150.094,145.83 147.5,144.5C 148.807,143.053 150.141,142.387 151.5,142.5C 145.236,126.893 142.903,110.893 144.5,94.5 Z"/></g>
<g><path style="opacity:1" fill="#fdfbf6" d="M 229.5,206.5 C 229.737,205.209 229.404,204.209 228.5,203.5C 227.931,198.083 226.931,192.75 225.5,187.5C 224.5,187.5 223.5,187.5 222.5,187.5C 221.834,195.483 221.501,203.483 221.5,211.5C 221.173,221.015 221.506,230.348 222.5,239.5C 222.5,241.833 222.5,244.167 222.5,246.5C 221.231,260.509 221.231,274.509 222.5,288.5C 224.167,288.5 225.833,288.5 227.5,288.5C 227.928,279.775 228.762,271.109 230,262.5C 230.414,262.043 230.914,261.709 231.5,261.5C 233.522,265.522 236.522,268.522 240.5,270.5C 245.065,275.972 247.732,282.305 248.5,289.5C 243.5,289.5 238.5,289.5 233.5,289.5C 226.833,289.5 220.167,289.5 213.5,289.5C 211.744,273.862 210.244,258.196 209,242.5C 208.654,239.424 207.988,236.424 207,233.5C 206.583,232.244 205.75,231.577 204.5,231.5C 204.5,230.833 204.5,230.167 204.5,229.5C 204.869,221.729 204.202,214.062 202.5,206.5C 201.173,222.995 201.173,239.328 202.5,255.5C 202.319,265.909 202.985,276.242 204.5,286.5C 204.833,287.833 205.167,289.167 205.5,290.5C 191.5,290.5 177.5,290.5 163.5,290.5C 160.169,289.385 156.836,288.051 153.5,286.5C 152.542,286.047 151.708,285.381 151,284.5C 150.398,281.779 150.565,279.113 151.5,276.5C 152.451,275.081 152.784,273.415 152.5,271.5C 154.045,265.581 154.711,259.414 154.5,253C 153.474,237.473 152.141,221.973 150.5,206.5C 148.833,206.5 147.167,206.5 145.5,206.5C 145.333,223.17 145.5,239.837 146,256.5C 147.429,259.95 147.595,263.283 146.5,266.5C 141.875,264.272 137.375,261.939 133,259.5C 132.505,257.527 132.338,255.527 132.5,253.5C 140.902,247.683 143.902,239.683 141.5,229.5C 141.5,228.167 141.5,226.833 141.5,225.5C 140.127,225.657 138.793,225.49 137.5,225C 133.739,222.235 129.739,219.902 125.5,218C 119.849,213.362 117.182,207.362 117.5,200C 118.682,194.193 119.682,188.359 120.5,182.5C 120.291,181.914 119.957,181.414 119.5,181C 121.337,176.32 122.67,171.487 123.5,166.5C 125.169,165.329 126.669,163.996 128,162.5C 153.748,166.363 175.915,159.363 194.5,141.5C 195.635,143.707 196.301,146.04 196.5,148.5C 194.447,157.656 192.614,166.989 191,176.5C 190.581,177.672 189.915,178.672 189,179.5C 188.577,178.044 187.744,177.544 186.5,178C 179.605,187.899 173.105,198.065 167,208.5C 163.784,214.264 161.117,220.264 159,226.5C 158.922,233.497 159.256,240.497 160,247.5C 161.555,249.515 163.389,249.848 165.5,248.5C 167.758,245.643 169.758,242.643 171.5,239.5C 180.209,225.704 186.042,210.704 189,194.5C 189.936,190.886 190.436,187.22 190.5,183.5C 193.821,172.828 196.155,161.828 197.5,150.5C 206.35,149.348 212.35,144.348 215.5,135.5C 218.012,135.423 220.012,136.423 221.5,138.5C 225.52,150.61 227.353,162.943 227,175.5C 229.78,184.26 231.447,193.26 232,202.5C 233.626,202.146 235.459,202.146 237.5,202.5C 237.5,199.5 237.5,196.5 237.5,193.5C 238.5,193.5 239.5,193.5 240.5,193.5C 242.246,199.847 242.413,206.181 241,212.5C 238.961,216.136 235.794,217.802 231.5,217.5C 230.225,213.675 230.225,209.842 231.5,206C 231.333,205.167 231.167,204.333 231,203.5C 230.768,204.737 230.268,205.737 229.5,206.5 Z"/></g>
<g><path style="opacity:1" fill="#ded7d6" d="M 201.5,130.5 C 201.5,130.833 201.5,131.167 201.5,131.5C 202.209,132.404 203.209,132.737 204.5,132.5C 204.5,134.167 204.5,135.833 204.5,137.5C 203.651,140.035 202.651,142.535 201.5,145C 201.836,146.03 202.503,146.53 203.5,146.5C 202.791,147.404 201.791,147.737 200.5,147.5C 200.881,145.058 200.214,144.391 198.5,145.5C 198.167,145 197.833,144.5 197.5,144C 198.493,141.547 198.66,139.047 198,136.5C 197.329,137.252 196.496,137.586 195.5,137.5C 196.939,135.412 197.606,133.079 197.5,130.5C 198.705,129.314 200.039,129.314 201.5,130.5 Z"/></g>
<g><path style="opacity:1" fill="#fbf4eb" d="M 160.5,137.5 C 170.864,139.687 181.197,139.687 191.5,137.5C 192.107,137.624 192.44,137.957 192.5,138.5C 186.937,143.96 180.604,148.46 173.5,152C 164.872,155.199 156.038,157.699 147,159.5C 145.635,159.156 144.468,158.489 143.5,157.5C 137.586,159.958 131.586,159.958 125.5,157.5C 125.167,156.5 124.833,155.5 124.5,154.5C 125.302,150.764 126.302,147.098 127.5,143.5C 127.66,141.847 128.326,140.514 129.5,139.5C 133.785,138.705 138.119,138.372 142.5,138.5C 143.701,140.909 145.367,142.909 147.5,144.5C 150.094,145.83 152.761,147.163 155.5,148.5C 156.562,147.575 156.562,146.575 155.5,145.5C 160.418,145.022 165.252,146.022 170,148.5C 171.28,148.387 172.113,147.72 172.5,146.5C 171.335,145.416 170.002,144.583 168.5,144C 164.176,143.13 159.842,142.297 155.5,141.5C 156.246,140.264 156.579,138.93 156.5,137.5C 157.833,137.5 159.167,137.5 160.5,137.5 Z"/></g>
<g><path style="opacity:0.704" fill="#f5cf69" d="M 282.5,141.5 C 286.182,141.335 289.848,141.501 293.5,142C 296.008,142.115 298.008,143.115 299.5,145C 299.266,146.732 298.266,147.566 296.5,147.5C 292.882,146.654 289.215,146.32 285.5,146.5C 283.75,145.341 282.75,143.674 282.5,141.5 Z"/></g>
<g><path style="opacity:1" fill="#edd0cc" d="M 157.5,135.5 C 159.027,135.427 160.027,136.094 160.5,137.5C 159.167,137.5 157.833,137.5 156.5,137.5C 156.579,138.93 156.246,140.264 155.5,141.5C 159.842,142.297 164.176,143.13 168.5,144C 170.002,144.583 171.335,145.416 172.5,146.5C 172.113,147.72 171.28,148.387 170,148.5C 165.252,146.022 160.418,145.022 155.5,145.5C 153.62,142.403 152.287,139.07 151.5,135.5C 153.5,135.5 155.5,135.5 157.5,135.5 Z"/></g>
<g><path style="opacity:1" fill="#a39397" d="M 227.5,144.5 C 229.258,147.854 230.258,151.521 230.5,155.5C 229.732,154.737 229.232,153.737 229,152.5C 228.601,152.728 228.435,153.062 228.5,153.5C 227.629,150.997 226.963,148.33 226.5,145.5C 227.167,145.5 227.5,145.167 227.5,144.5 Z"/></g>
<g><path style="opacity:0.149" fill="#efd397" d="M 59.5,151.5 C 59.7148,153.179 59.0481,154.179 57.5,154.5C 56.9836,153.242 57.6503,152.242 59.5,151.5 Z"/></g>
<g><path style="opacity:0.62" fill="#937f6f" d="M 59.5,151.5 C 59.8333,151.5 60.1667,151.5 60.5,151.5C 60.3284,152.492 60.6618,153.158 61.5,153.5C 60.8333,154.833 59.8333,155.833 58.5,156.5C 58.5,155.833 58.1667,155.5 57.5,155.5C 57.5,155.167 57.5,154.833 57.5,154.5C 59.0481,154.179 59.7148,153.179 59.5,151.5 Z"/></g>
<g><path style="opacity:1" fill="#806e6e" d="M 197.5,130.5 C 197.606,133.079 196.939,135.412 195.5,137.5C 182.898,151.135 167.231,158.968 148.5,161C 142.167,161.667 135.833,161.667 129.5,161C 127,160.115 124.667,158.948 122.5,157.5C 120.738,158.688 119.738,160.355 119.5,162.5C 118.327,166.173 116.993,169.84 115.5,173.5C 114.659,175.379 114.325,177.379 114.5,179.5C 113.532,177.393 113.198,175.059 113.5,172.5C 118.155,162.203 122.489,151.87 126.5,141.5C 126.328,142.492 126.662,143.158 127.5,143.5C 126.302,147.098 125.302,150.764 124.5,154.5C 124.833,155.5 125.167,156.5 125.5,157.5C 131.586,159.958 137.586,159.958 143.5,157.5C 144.468,158.489 145.635,159.156 147,159.5C 156.038,157.699 164.872,155.199 173.5,152C 180.604,148.46 186.937,143.96 192.5,138.5C 193.931,137.22 194.598,135.553 194.5,133.5C 195.272,132.306 196.272,131.306 197.5,130.5 Z"/></g>
<g><path style="opacity:0.917" fill="#1793d1" d="M 504.5,159.5 C 505.833,159.5 507.167,159.5 508.5,159.5C 508.458,204.836 508.124,250.169 507.5,295.5C 503.423,295.735 499.423,296.402 495.5,297.5C 495.167,291.667 494.833,285.833 494.5,280C 495.252,240.5 495.919,201 496.5,161.5C 499.428,161.435 502.095,160.768 504.5,159.5 Z"/></g>
<g><path style="opacity:0.975" fill="#1793d0" d="M 532.5,160.5 C 535.431,162.764 538.097,165.431 540.5,168.5C 537.826,171.006 534.992,173.339 532,175.5C 529.47,173.304 527.303,170.804 525.5,168C 527.97,165.695 530.303,163.195 532.5,160.5 Z"/></g>
<g><path style="opacity:1" fill="#705a5f" d="M 230.5,155.5 C 230.584,158.327 231.25,160.994 232.5,163.5C 232.44,164.043 232.107,164.376 231.5,164.5C 230.818,163.757 230.151,163.091 229.5,162.5C 229.037,159.518 228.704,156.518 228.5,153.5C 228.435,153.062 228.601,152.728 229,152.5C 229.232,153.737 229.732,154.737 230.5,155.5 Z"/></g>
<g><path style="opacity:1" fill="#98898c" d="M 229.5,162.5 C 230.151,163.091 230.818,163.757 231.5,164.5C 232.107,164.376 232.44,164.043 232.5,163.5C 233.401,164.29 234.068,165.29 234.5,166.5C 233.833,166.5 233.5,166.833 233.5,167.5C 232.632,170.327 232.632,173.327 233.5,176.5C 232.662,176.842 232.328,177.508 232.5,178.5C 230.77,173.43 229.77,168.097 229.5,162.5 Z"/></g>
<g><path style="opacity:0.335" fill="#625056" d="M 57.5,155.5 C 58.1667,155.5 58.5,155.833 58.5,156.5C 52.391,165.716 47.0577,175.383 42.5,185.5C 41.8333,185.167 41.1667,184.833 40.5,184.5C 44.9207,173.976 50.5874,164.309 57.5,155.5 Z"/></g>
<g><path style="opacity:1" fill="#f5f4f3" d="M 226.5,145.5 C 226.963,148.33 227.629,150.997 228.5,153.5C 228.704,156.518 229.037,159.518 229.5,162.5C 229.77,168.097 230.77,173.43 232.5,178.5C 232.668,185.51 233.001,192.51 233.5,199.5C 233.56,200.043 233.893,200.376 234.5,200.5C 235.809,196.351 235.809,192.351 234.5,188.5C 234.354,184.481 234.021,180.481 233.5,176.5C 232.632,173.327 232.632,170.327 233.5,167.5C 236.66,175.822 239.826,184.155 243,192.5C 244.271,197.754 244.771,203.087 244.5,208.5C 243.47,213.56 241.137,217.894 237.5,221.5C 236.061,223.36 234.395,225.027 232.5,226.5C 231.542,226.047 230.708,225.381 230,224.5C 229.501,218.509 229.334,212.509 229.5,206.5C 230.268,205.737 230.768,204.737 231,203.5C 231.167,204.333 231.333,205.167 231.5,206C 230.225,209.842 230.225,213.675 231.5,217.5C 235.794,217.802 238.961,216.136 241,212.5C 242.413,206.181 242.246,199.847 240.5,193.5C 239.5,193.5 238.5,193.5 237.5,193.5C 237.5,196.5 237.5,199.5 237.5,202.5C 235.459,202.146 233.626,202.146 232,202.5C 231.447,193.26 229.78,184.26 227,175.5C 227.353,162.943 225.52,150.61 221.5,138.5C 220.012,136.423 218.012,135.423 215.5,135.5C 212.35,144.348 206.35,149.348 197.5,150.5C 197.672,149.508 197.338,148.842 196.5,148.5C 196.301,146.04 195.635,143.707 194.5,141.5C 175.915,159.363 153.748,166.363 128,162.5C 126.669,163.996 125.169,165.329 123.5,166.5C 122.67,171.487 121.337,176.32 119.5,181C 119.957,181.414 120.291,181.914 120.5,182.5C 119.682,188.359 118.682,194.193 117.5,200C 117.182,207.362 119.849,213.362 125.5,218C 129.739,219.902 133.739,222.235 137.5,225C 138.793,225.49 140.127,225.657 141.5,225.5C 141.5,226.833 141.5,228.167 141.5,229.5C 140.691,231.292 140.191,233.292 140,235.5C 138.533,232.213 136.366,229.546 133.5,227.5C 128.895,223.398 124.395,219.064 120,214.5C 118.259,211.691 117.092,208.691 116.5,205.5C 116.904,191.124 117.904,176.791 119.5,162.5C 119.738,160.355 120.738,158.688 122.5,157.5C 124.667,158.948 127,160.115 129.5,161C 135.833,161.667 142.167,161.667 148.5,161C 167.231,158.968 182.898,151.135 195.5,137.5C 196.496,137.586 197.329,137.252 198,136.5C 198.66,139.047 198.493,141.547 197.5,144C 197.833,144.5 198.167,145 198.5,145.5C 200.214,144.391 200.881,145.058 200.5,147.5C 201.791,147.737 202.791,147.404 203.5,146.5C 204.59,145.143 205.924,144.143 207.5,143.5C 210.412,141.198 212.745,138.364 214.5,135C 217.669,134.022 220.503,134.522 223,136.5C 224.664,139.327 225.83,142.327 226.5,145.5 Z"/></g>
<g><path style="opacity:1" fill="#e4ded8" d="M 137.5,187.5 C 135.743,182.436 134.576,177.103 134,171.5C 133.667,171.167 133.333,170.833 133,170.5C 132.506,172.134 132.34,173.801 132.5,175.5C 131.198,172.893 131.364,170.227 133,167.5C 134.938,166.14 136.604,166.473 138,168.5C 140.214,176.71 140.881,185.044 140,193.5C 139.094,190.866 138.261,188.866 137.5,187.5 Z"/></g>
<g><path style="opacity:1" fill="#dacfcb" d="M 218.5,152.5 C 219.829,157.624 220.495,163.124 220.5,169C 220.333,174.5 220.167,180 220,185.5C 218.569,174.578 218.069,163.578 218.5,152.5 Z"/></g>
<g><path style="opacity:1" fill="#b9b0ae" d="M 188.5,151.5 C 190.028,151.517 190.528,152.184 190,153.5C 181.367,163.391 171.2,171.225 159.5,177C 155.504,178.514 151.504,179.014 147.5,178.5C 164.539,174.801 178.206,165.801 188.5,151.5 Z"/></g>
<g><path style="opacity:1" fill="#948787" d="M 113.5,172.5 C 113.198,175.059 113.532,177.393 114.5,179.5C 114.102,182.34 113.269,185.007 112,187.5C 111.833,186.5 111.667,185.5 111.5,184.5C 112.021,182.476 112.188,180.476 112,178.5C 105.485,188.918 102.318,200.251 102.5,212.5C 101.596,213.209 101.263,214.209 101.5,215.5C 100.836,213.19 100.503,210.69 100.5,208C 101.627,194.927 105.96,183.094 113.5,172.5 Z"/></g>
<g><path style="opacity:1" fill="#b0a8a8" d="M 119.5,162.5 C 117.904,176.791 116.904,191.124 116.5,205.5C 115.833,200.833 115.167,196.167 114.5,191.5C 115.206,186.686 115.873,181.853 116.5,177C 116.486,175.615 116.152,174.449 115.5,173.5C 116.993,169.84 118.327,166.173 119.5,162.5 Z"/></g>
<g><path style="opacity:1" fill="#ded9d4" d="M 196.5,148.5 C 197.338,148.842 197.672,149.508 197.5,150.5C 196.155,161.828 193.821,172.828 190.5,183.5C 189.124,183.747 188.29,185.081 188,187.5C 185.536,205.739 179.702,222.739 170.5,238.5C 170.624,239.107 170.957,239.44 171.5,239.5C 169.758,242.643 167.758,245.643 165.5,248.5C 163.389,249.848 161.555,249.515 160,247.5C 159.256,240.497 158.922,233.497 159,226.5C 161.117,220.264 163.784,214.264 167,208.5C 173.105,198.065 179.605,187.899 186.5,178C 187.744,177.544 188.577,178.044 189,179.5C 189.915,178.672 190.581,177.672 191,176.5C 192.614,166.989 194.447,157.656 196.5,148.5 Z"/></g>
<g><path style="opacity:1" fill="#b7ada9" d="M 137.5,187.5 C 137.666,192.844 137.499,198.177 137,203.5C 135.627,194.041 134.127,184.707 132.5,175.5C 132.34,173.801 132.506,172.134 133,170.5C 133.333,170.833 133.667,171.167 134,171.5C 134.576,177.103 135.743,182.436 137.5,187.5 Z"/></g>
<g><path style="opacity:1" fill="#7d6c6d" d="M 233.5,176.5 C 234.021,180.481 234.354,184.481 234.5,188.5C 234.815,192.371 234.482,196.038 233.5,199.5C 233.001,192.51 232.668,185.51 232.5,178.5C 232.328,177.508 232.662,176.842 233.5,176.5 Z"/></g>
<g><path style="opacity:1" fill="#dbd5d2" d="M 115.5,173.5 C 116.152,174.449 116.486,175.615 116.5,177C 115.873,181.853 115.206,186.686 114.5,191.5C 114.66,193.199 114.494,194.866 114,196.5C 111.349,202.803 108.516,208.97 105.5,215C 104.552,215.483 103.552,215.649 102.5,215.5C 102.5,214.5 102.5,213.5 102.5,212.5C 102.318,200.251 105.485,188.918 112,178.5C 112.188,180.476 112.021,182.476 111.5,184.5C 111.667,185.5 111.833,186.5 112,187.5C 113.269,185.007 114.102,182.34 114.5,179.5C 114.325,177.379 114.659,175.379 115.5,173.5 Z"/></g>
<g><path style="opacity:1" fill="#847276" d="M 234.5,166.5 C 238.091,174.769 241.591,183.102 245,191.5C 246.25,196.42 246.75,201.42 246.5,206.5C 245.833,207.167 245.167,207.833 244.5,208.5C 244.771,203.087 244.271,197.754 243,192.5C 239.826,184.155 236.66,175.822 233.5,167.5C 233.5,166.833 233.833,166.5 234.5,166.5 Z"/></g>
<g><path style="opacity:1" fill="#e4e0da" d="M 228.5,203.5 C 227.205,207.267 226.539,211.267 226.5,215.5C 225.833,221.346 225.167,227.346 224.5,233.5C 224.145,225.787 223.145,218.454 221.5,211.5C 221.501,203.483 221.834,195.483 222.5,187.5C 223.5,187.5 224.5,187.5 225.5,187.5C 226.931,192.75 227.931,198.083 228.5,203.5 Z"/></g>
<g><path style="opacity:1" fill="#bab2b1" d="M 234.5,188.5 C 235.809,192.351 235.809,196.351 234.5,200.5C 233.893,200.376 233.56,200.043 233.5,199.5C 234.482,196.038 234.815,192.371 234.5,188.5 Z"/></g>
<g><path style="opacity:0.932" fill="#1793d1" d="M 594.5,196.5 C 607.432,194.484 619.099,197.317 629.5,205C 636.978,213.563 639.978,223.563 638.5,235C 637.688,255.492 637.354,275.992 637.5,296.5C 633.833,297.167 630.167,297.833 626.5,298.5C 626.915,274.164 627.081,249.831 627,225.5C 623.098,214.203 615.098,208.537 603,208.5C 587.732,208.79 576.399,215.457 569,228.5C 567.693,250.813 567.193,273.146 567.5,295.5C 563.351,295.871 559.351,296.871 555.5,298.5C 555.129,265.845 555.129,233.178 555.5,200.5C 559.79,199.575 564.124,198.909 568.5,198.5C 568.471,204.545 568.304,210.545 568,216.5C 573.852,205.806 582.686,199.139 594.5,196.5 Z"/></g>
<g><path style="opacity:0.912" fill="#1793d1" d="M 536.5,197.5 C 537.497,197.47 538.164,197.97 538.5,199C 537.844,231.157 536.844,263.323 535.5,295.5C 532.243,296.551 528.91,297.218 525.5,297.5C 526.155,265.838 526.655,234.171 527,202.5C 530.388,201.105 533.555,199.438 536.5,197.5 Z"/></g>
<g><path style="opacity:0.935" fill="#1793d1" d="M 665.5,198.5 C 666.5,198.5 667.5,198.5 668.5,198.5C 667.965,223.167 667.798,247.834 668,272.5C 671.489,283.751 679.155,289.084 691,288.5C 714.474,287.358 725.808,275.025 725,251.5C 725.5,234.837 725.667,218.17 725.5,201.5C 729.807,200.673 734.14,200.007 738.5,199.5C 737.936,231.831 737.27,264.165 736.5,296.5C 732.802,297.373 729.135,298.373 725.5,299.5C 724.67,293.862 724.17,288.196 724,282.5C 715.969,295.35 704.303,301.35 689,300.5C 671.674,301.515 660.34,293.848 655,277.5C 654.315,251.825 654.482,226.159 655.5,200.5C 659.078,200.451 662.411,199.785 665.5,198.5 Z"/></g>
<g><path style="opacity:0.613" fill="#736368" d="M 40.5,184.5 C 41.1667,184.833 41.8333,185.167 42.5,185.5C 36.8186,199.925 34.4852,214.925 35.5,230.5C 34.8333,230.5 34.1667,230.5 33.5,230.5C 31.7639,214.682 34.0972,199.349 40.5,184.5 Z"/></g>
<g><path style="opacity:0.994" fill="#1793d1" d="M 759.5,199.5 C 769.128,211.36 778.795,223.36 788.5,235.5C 796.802,224.03 805.302,212.697 814,201.5C 816.984,203.65 819.817,205.984 822.5,208.5C 813.5,221.167 804.5,233.833 795.5,246.5C 806.111,262.443 817.111,278.11 828.5,293.5C 825.319,295.592 822.319,297.925 819.5,300.5C 809.147,285.977 798.98,271.311 789,256.5C 778.5,270.833 768,285.167 757.5,299.5C 754.319,297.408 751.319,295.075 748.5,292.5C 759.5,277.167 770.5,261.833 781.5,246.5C 772.076,232.907 762.076,219.741 751.5,207C 754.062,204.267 756.729,201.767 759.5,199.5 Z"/></g>
<g><path style="opacity:1" fill="#9c9391" d="M 228.5,203.5 C 228.848,210.906 228.348,218.239 227,225.5C 226.502,222.183 226.335,218.85 226.5,215.5C 226.539,211.267 227.205,207.267 228.5,203.5 Z"/></g>
<g><path style="opacity:1" fill="#e9c2c5" d="M 124.5,223.5 C 122.737,225.885 121.237,228.552 120,231.5C 118.887,232.305 117.721,232.972 116.5,233.5C 117.887,227.106 117.72,220.772 116,214.5C 113.919,213.667 111.752,213.667 109.5,214.5C 110.165,210.173 111.665,206.173 114,202.5C 114.413,205.232 115.08,207.899 116,210.5C 118.378,215.29 121.211,219.624 124.5,223.5 Z"/></g>
<g><path style="opacity:1" fill="#e4dfda" d="M 152.5,271.5 C 152.308,259.013 150.808,246.68 148,234.5C 148.07,245.039 148.903,255.539 150.5,266C 150.472,267.07 150.139,267.903 149.5,268.5C 148.609,267.89 147.609,267.557 146.5,267.5C 146.5,267.167 146.5,266.833 146.5,266.5C 147.595,263.283 147.429,259.95 146,256.5C 145.5,239.837 145.333,223.17 145.5,206.5C 147.167,206.5 148.833,206.5 150.5,206.5C 152.141,221.973 153.474,237.473 154.5,253C 154.711,259.414 154.045,265.581 152.5,271.5 Z"/></g>
<g><path style="opacity:1" fill="#827272" d="M 114.5,191.5 C 115.167,196.167 115.833,200.833 116.5,205.5C 117.092,208.691 118.259,211.691 120,214.5C 124.395,219.064 128.895,223.398 133.5,227.5C 132.564,231.735 132.231,236.069 132.5,240.5C 132.577,244.215 132.244,247.881 131.5,251.5C 131.833,252.167 132.167,252.833 132.5,253.5C 132.338,255.527 132.505,257.527 133,259.5C 137.375,261.939 141.875,264.272 146.5,266.5C 146.5,266.833 146.5,267.167 146.5,267.5C 145.833,267.5 145.5,267.833 145.5,268.5C 141.607,265.596 137.274,263.429 132.5,262C 130.646,259.457 129.479,256.624 129,253.5C 127.787,255.925 126.621,258.259 125.5,260.5C 125.5,259.833 125.167,259.5 124.5,259.5C 130.458,249.66 132.624,238.993 131,227.5C 129.549,225.536 127.716,224.203 125.5,223.5C 125.167,223.5 124.833,223.5 124.5,223.5C 121.211,219.624 118.378,215.29 116,210.5C 115.08,207.899 114.413,205.232 114,202.5C 111.665,206.173 110.165,210.173 109.5,214.5C 103.318,217.346 97.9849,221.346 93.5,226.5C 93.5,225.833 93.1667,225.5 92.5,225.5C 96.2054,222.795 99.2054,219.462 101.5,215.5C 101.263,214.209 101.596,213.209 102.5,212.5C 102.5,213.5 102.5,214.5 102.5,215.5C 103.552,215.649 104.552,215.483 105.5,215C 108.516,208.97 111.349,202.803 114,196.5C 114.494,194.866 114.66,193.199 114.5,191.5 Z"/></g>
<g><path style="opacity:1" fill="#e1d9d6" d="M 204.5,229.5 C 202.53,237.769 201.864,246.435 202.5,255.5C 201.173,239.328 201.173,222.995 202.5,206.5C 204.202,214.062 204.869,221.729 204.5,229.5 Z"/></g>
<g><path style="opacity:0.816" fill="#6b595f" d="M 303.5,180.5 C 313.037,201.192 317.704,222.858 317.5,245.5C 316.833,247.167 316.167,248.833 315.5,250.5C 315.602,228.773 311.935,207.773 304.5,187.5C 305.043,187.44 305.376,187.107 305.5,186.5C 304.253,184.677 303.586,182.677 303.5,180.5 Z"/></g>
<g><path style="opacity:1" fill="#c7c0c2" d="M 50.5,221.5 C 51.209,220.596 52.209,220.263 53.5,220.5C 53.5,223.5 53.5,226.5 53.5,229.5C 53.0984,226.523 52.0984,223.857 50.5,221.5 Z"/></g>
<g><path style="opacity:1" fill="#dbd5d0" d="M 125.5,223.5 C 127.716,224.203 129.549,225.536 131,227.5C 132.624,238.993 130.458,249.66 124.5,259.5C 114.18,257.727 109.846,251.561 111.5,241C 114.683,237.49 118.183,234.324 122,231.5C 123.454,228.929 124.62,226.262 125.5,223.5 Z"/></g>
<g><path style="opacity:0.296" fill="#77666b" d="M 91.5,225.5 C 90.0736,226.341 88.7403,227.341 87.5,228.5C 87.5654,228.062 87.3988,227.728 87,227.5C 85.9614,228.244 85.4614,229.244 85.5,230.5C 84.8333,230.5 84.5,230.833 84.5,231.5C 84.1667,231.5 83.8333,231.5 83.5,231.5C 82.8333,231.5 82.1667,231.5 81.5,231.5C 83.0324,228.943 84.6991,226.443 86.5,224C 88.0438,224.487 89.7105,224.987 91.5,225.5 Z"/></g>
<g><path style="opacity:1" fill="#9e9392" d="M 133.5,227.5 C 136.366,229.546 138.533,232.213 140,235.5C 140.191,233.292 140.691,231.292 141.5,229.5C 143.902,239.683 140.902,247.683 132.5,253.5C 132.167,252.833 131.833,252.167 131.5,251.5C 138.108,248.196 140.275,242.863 138,235.5C 137.028,233.695 135.861,232.028 134.5,230.5C 133.833,233.977 133.166,237.311 132.5,240.5C 132.231,236.069 132.564,231.735 133.5,227.5 Z"/></g>
<g><path style="opacity:1" fill="#d7d1ce" d="M 228.5,203.5 C 229.404,204.209 229.737,205.209 229.5,206.5C 229.334,212.509 229.501,218.509 230,224.5C 230.708,225.381 231.542,226.047 232.5,226.5C 230.802,231.154 232.469,233.82 237.5,234.5C 238.117,234.611 238.617,234.944 239,235.5C 239.667,237.833 239.667,240.167 239,242.5C 237.156,245.528 235.322,248.528 233.5,251.5C 232.504,251.586 231.671,251.252 231,250.5C 228.604,245.311 226.604,239.977 225,234.5C 223.117,235.653 222.284,237.319 222.5,239.5C 221.506,230.348 221.173,221.015 221.5,211.5C 223.145,218.454 224.145,225.787 224.5,233.5C 225.167,227.346 225.833,221.346 226.5,215.5C 226.335,218.85 226.502,222.183 227,225.5C 228.348,218.239 228.848,210.906 228.5,203.5 Z"/></g>
<g><path style="opacity:1" fill="#887777" d="M 237.5,221.5 C 237.409,223.698 238.075,224.031 239.5,222.5C 240.43,226.4 240.763,230.4 240.5,234.5C 239.348,233.375 238.348,233.375 237.5,234.5C 232.469,233.82 230.802,231.154 232.5,226.5C 234.395,225.027 236.061,223.36 237.5,221.5 Z"/></g>
<g><path style="opacity:1" fill="#dad5d1" d="M 236.5,224.5 C 238.369,226.635 239.036,229.302 238.5,232.5C 234.323,233.158 232.823,231.492 234,227.5C 235.045,226.627 235.878,225.627 236.5,224.5 Z"/></g>
<g><path style="opacity:1" fill="#faf4ec" d="M 256.5,221.5 C 267.856,231.521 279.522,241.187 291.5,250.5C 291.5,251.833 291.5,253.167 291.5,254.5C 295.935,250.629 300.935,249.629 306.5,251.5C 309.625,252.479 312.958,252.813 316.5,252.5C 318.467,252.261 320.301,252.594 322,253.5C 322.519,255.489 321.686,256.489 319.5,256.5C 306.78,256.504 306.613,258.837 319,263.5C 319.765,263.43 320.265,263.097 320.5,262.5C 321.978,262.238 323.311,262.571 324.5,263.5C 324.145,264.522 323.478,265.189 322.5,265.5C 319.428,265.183 316.428,265.516 313.5,266.5C 316.086,267.48 318.753,267.813 321.5,267.5C 321.5,269.5 320.5,270.5 318.5,270.5C 318.389,269.883 318.056,269.383 317.5,269C 313.892,268.974 310.558,268.141 307.5,266.5C 306.158,268.005 304.492,268.672 302.5,268.5C 301.303,264.969 299.303,261.969 296.5,259.5C 296.167,259.833 295.833,260.167 295.5,260.5C 298.529,263.226 300.529,266.559 301.5,270.5C 300.15,271.65 300.316,272.317 302,272.5C 303.333,271.833 304.667,271.167 306,270.5C 307.683,271.176 307.85,272.176 306.5,273.5C 303.454,274.885 300.454,274.719 297.5,273C 292.833,269.667 288.833,265.667 285.5,261C 274.117,255.436 263.117,249.269 252.5,242.5C 249.852,239.219 247.686,235.552 246,231.5C 244.632,228.262 244.299,224.928 245,221.5C 245.388,220.572 246.055,219.905 247,219.5C 250.026,220.872 253.193,221.538 256.5,221.5 Z"/></g>
<g><path style="opacity:1" fill="#dfd8d4" d="M 131.5,251.5 C 132.244,247.881 132.577,244.215 132.5,240.5C 133.166,237.311 133.833,233.977 134.5,230.5C 135.861,232.028 137.028,233.695 138,235.5C 140.275,242.863 138.108,248.196 131.5,251.5 Z"/></g>
<g><path style="opacity:1" fill="#948785" d="M 190.5,183.5 C 190.436,187.22 189.936,190.886 189,194.5C 186.042,210.704 180.209,225.704 171.5,239.5C 170.957,239.44 170.624,239.107 170.5,238.5C 179.702,222.739 185.536,205.739 188,187.5C 188.29,185.081 189.124,183.747 190.5,183.5 Z"/></g>
<g><path style="opacity:1" fill="#e8c0c3" d="M 256.5,221.5 C 253.193,221.538 250.026,220.872 247,219.5C 246.055,219.905 245.388,220.572 245,221.5C 244.299,224.928 244.632,228.262 246,231.5C 247.686,235.552 249.852,239.219 252.5,242.5C 247.803,240.822 243.803,238.156 240.5,234.5C 240.763,230.4 240.43,226.4 239.5,222.5C 241.837,219.319 244.004,215.986 246,212.5C 249.665,215.399 253.165,218.399 256.5,221.5 Z"/></g>
<g><path style="opacity:0.561" fill="#68565c" d="M 50.5,221.5 C 52.0984,223.857 53.0984,226.523 53.5,229.5C 53.8601,233.384 55.1934,236.884 57.5,240C 59.1667,240.667 60.8333,240.667 62.5,240C 65.3585,236.642 68.0251,233.142 70.5,229.5C 70.3811,233.801 72.3811,235.801 76.5,235.5C 75.0998,236.1 74.0998,237.1 73.5,238.5C 71.8712,237.375 70.3712,236.041 69,234.5C 67.0717,240.116 63.2383,242.949 57.5,243C 53.3249,239.515 50.8249,235.015 50,229.5C 47.4804,234.716 45.147,240.05 43,245.5C 39.2412,249.808 36.5745,249.141 35,243.5C 33.8054,239.249 33.3054,234.915 33.5,230.5C 34.1667,230.5 34.8333,230.5 35.5,230.5C 35.8806,235.237 36.7139,239.904 38,244.5C 38.414,244.957 38.914,245.291 39.5,245.5C 43.1809,237.474 46.8475,229.474 50.5,221.5 Z"/></g>
<g><path style="opacity:1" fill="#e2ddd7" d="M 204.5,231.5 C 205.75,231.577 206.583,232.244 207,233.5C 207.988,236.424 208.654,239.424 209,242.5C 210.244,258.196 211.744,273.862 213.5,289.5C 220.167,289.5 226.833,289.5 233.5,289.5C 232.432,290.434 231.099,290.768 229.5,290.5C 221.5,290.5 213.5,290.5 205.5,290.5C 205.167,289.167 204.833,287.833 204.5,286.5C 205.895,288.054 206.561,287.721 206.5,285.5C 204.713,267.557 204.046,249.557 204.5,231.5 Z"/></g>
<g><path style="opacity:0.941" fill="#5d4b4e" d="M 124.5,223.5 C 124.833,223.5 125.167,223.5 125.5,223.5C 124.62,226.262 123.454,228.929 122,231.5C 118.183,234.324 114.683,237.49 111.5,241C 109.846,251.561 114.18,257.727 124.5,259.5C 125.167,259.5 125.5,259.833 125.5,260.5C 123.888,264.058 122.555,267.725 121.5,271.5C 120.358,275.071 119.691,278.738 119.5,282.5C 118.523,285.287 118.19,288.287 118.5,291.5C 124.5,291.5 130.5,291.5 136.5,291.5C 145.533,291.716 154.533,291.383 163.5,290.5C 179.662,291.331 195.995,291.831 212.5,292C 206.984,292.173 201.651,292.673 196.5,293.5C 169.833,293.5 143.167,293.5 116.5,293.5C 115.68,282.6 117.68,272.266 122.5,262.5C 118.437,260.712 114.77,258.378 111.5,255.5C 111.662,253.473 111.495,251.473 111,249.5C 110.617,248.944 110.117,248.611 109.5,248.5C 109.662,246.473 109.495,244.473 109,242.5C 96.7445,250.046 84.2445,257.213 71.5,264C 68.5,268.333 64.8333,272 60.5,275C 58.0602,276.303 55.5602,277.47 53,278.5C 49.0775,276.85 44.9108,276.017 40.5,276C 33.1278,273.661 29.2945,268.828 29,261.5C 32.3142,260.711 35.4808,260.378 38.5,260.5C 38.8333,260.5 39.1667,260.5 39.5,260.5C 40.1667,260.5 40.8333,260.5 41.5,260.5C 42.1667,260.5 42.5,260.833 42.5,261.5C 40.4004,261.477 38.5671,262.144 37,263.5C 34.8014,262.355 32.6348,262.355 30.5,263.5C 30.9767,264.478 31.6433,265.311 32.5,266C 36.3777,266.188 40.0444,266.354 43.5,266.5C 40.6085,267.403 37.6085,267.736 34.5,267.5C 34.0882,269.973 35.0882,271.306 37.5,271.5C 38.1667,271.833 38.8333,272.167 39.5,272.5C 41.5145,273.924 43.8478,274.59 46.5,274.5C 47.1667,274.167 47.8333,273.833 48.5,273.5C 49.5938,274.582 50.9271,275.248 52.5,275.5C 60.1129,272.726 66.1129,267.892 70.5,261C 83.8134,253.7 97.1467,246.366 110.5,239C 112.996,237.669 114.996,235.836 116.5,233.5C 117.721,232.972 118.887,232.305 120,231.5C 121.237,228.552 122.737,225.885 124.5,223.5 Z"/></g>
<g><path style="opacity:0.384" fill="#49353b" d="M 91.5,225.5 C 91.8333,225.5 92.1667,225.5 92.5,225.5C 93.1667,225.5 93.5,225.833 93.5,226.5C 84.794,234.542 75.794,242.208 66.5,249.5C 65.8333,249.5 65.5,249.167 65.5,248.5C 68.384,244.451 72.0506,241.284 76.5,239C 75.552,238.517 74.552,238.351 73.5,238.5C 74.0998,237.1 75.0998,236.1 76.5,235.5C 78.754,234.876 80.4206,233.543 81.5,231.5C 82.1667,231.5 82.8333,231.5 83.5,231.5C 83.8333,232.833 84.1667,232.833 84.5,231.5C 85.1667,231.5 85.5,231.167 85.5,230.5C 86.5,230.167 87.1667,229.5 87.5,228.5C 88.7403,227.341 90.0736,226.341 91.5,225.5 Z"/></g>
<g><path style="opacity:0.643" fill="#5c4b4d" d="M 237.5,234.5 C 238.348,233.375 239.348,233.375 240.5,234.5C 243.803,238.156 247.803,240.822 252.5,242.5C 263.117,249.269 274.117,255.436 285.5,261C 288.833,265.667 292.833,269.667 297.5,273C 300.454,274.719 303.454,274.885 306.5,273.5C 307.239,273.369 307.906,273.536 308.5,274C 307.584,274.278 306.918,274.778 306.5,275.5C 305.866,276.947 304.699,277.613 303,277.5C 300.008,276.755 297.174,275.588 294.5,274C 290.833,270.333 287.167,266.667 283.5,263C 269.263,256.303 255.763,248.47 243,239.5C 240.497,244.505 237.997,249.505 235.5,254.5C 238.175,259.85 240.842,265.184 243.5,270.5C 243.427,272.027 244.094,273.027 245.5,273.5C 249.23,278.951 251.23,284.951 251.5,291.5C 247.434,291.307 243.434,291.64 239.5,292.5C 238.551,291.848 237.385,291.514 236,291.5C 234.319,291.608 233.152,292.275 232.5,293.5C 230.5,293.5 228.5,293.5 226.5,293.5C 226.5,292.833 226.5,292.167 226.5,291.5C 227.791,291.737 228.791,291.404 229.5,290.5C 231.099,290.768 232.432,290.434 233.5,289.5C 238.5,289.5 243.5,289.5 248.5,289.5C 247.732,282.305 245.065,275.972 240.5,270.5C 238.1,265.368 235.434,260.368 232.5,255.5C 232.833,254.167 233.167,252.833 233.5,251.5C 235.322,248.528 237.156,245.528 239,242.5C 239.667,240.167 239.667,237.833 239,235.5C 238.617,234.944 238.117,234.611 237.5,234.5 Z"/></g>
<g><path style="opacity:0.722" fill="#584447" d="M 246.5,206.5 C 246.346,210.025 247.679,212.859 250.5,215C 254.589,218.095 258.923,220.761 263.5,223C 265.894,228.252 269.894,230.752 275.5,230.5C 275.34,228.801 275.506,227.134 276,225.5C 279.56,231.449 283.726,236.949 288.5,242C 291.259,242.977 293.259,242.144 294.5,239.5C 296.849,243.243 299.849,246.243 303.5,248.5C 304.641,249.339 305.974,250.006 307.5,250.5C 308.107,250.376 308.44,250.043 308.5,249.5C 308.5,248.833 308.167,248.5 307.5,248.5C 307.131,246.007 307.797,245.34 309.5,246.5C 310.167,247.833 310.833,249.167 311.5,250.5C 310.081,251.451 308.415,251.784 306.5,251.5C 300.935,249.629 295.935,250.629 291.5,254.5C 291.5,253.167 291.5,251.833 291.5,250.5C 279.522,241.187 267.856,231.521 256.5,221.5C 253.165,218.399 249.665,215.399 246,212.5C 244.004,215.986 241.837,219.319 239.5,222.5C 238.075,224.031 237.409,223.698 237.5,221.5C 241.137,217.894 243.47,213.56 244.5,208.5C 245.167,207.833 245.833,207.167 246.5,206.5 Z M 294.5,243.5 C 295.646,245.475 297.313,246.975 299.5,248C 295.61,250.262 292.277,249.595 289.5,246C 291.653,245.901 293.319,245.067 294.5,243.5 Z M 282.5,239.5 C 279.732,237.913 277.065,236.08 274.5,234C 275.333,233.167 276.167,232.333 277,231.5C 279.054,234.047 280.887,236.714 282.5,239.5 Z"/></g>
<g><path style="opacity:0.694" fill="#796669" d="M 309.5,246.5 C 307.797,245.34 307.131,246.007 307.5,248.5C 308.167,248.5 308.5,248.833 308.5,249.5C 308.44,250.043 308.107,250.376 307.5,250.5C 305.974,250.006 304.641,249.339 303.5,248.5C 304.496,248.586 305.329,248.252 306,247.5C 306.456,244.428 306.456,241.428 306,238.5C 308.065,240.737 309.231,243.403 309.5,246.5 Z"/></g>
<g><path style="opacity:1" fill="#7f7170" d="M 233.5,251.5 C 233.167,252.833 232.833,254.167 232.5,255.5C 229.16,250.688 226.66,245.355 225,239.5C 226.153,249.44 226.486,259.44 226,269.5C 224.834,261.79 223.667,254.123 222.5,246.5C 222.5,244.167 222.5,241.833 222.5,239.5C 222.284,237.319 223.117,235.653 225,234.5C 226.604,239.977 228.604,245.311 231,250.5C 231.671,251.252 232.504,251.586 233.5,251.5 Z"/></g>
<g><path style="opacity:0.953" fill="#624d51" d="M 65.5,248.5 C 65.5,249.167 65.8333,249.5 66.5,249.5C 65.7701,250.712 64.7701,251.712 63.5,252.5C 64.0253,253.192 64.6919,253.692 65.5,254C 63.0784,254.135 60.7451,253.635 58.5,252.5C 56.866,251.839 55.0326,251.506 53,251.5C 46.6536,251.894 40.4869,252.56 34.5,253.5C 33.3552,254.793 33.6885,255.959 35.5,257C 38.8168,257.498 42.1501,257.665 45.5,257.5C 45.573,259.027 44.9063,260.027 43.5,260.5C 43.0296,259.307 42.0296,258.64 40.5,258.5C 39.2739,258.52 38.2739,258.853 37.5,259.5C 33.8065,259.814 31.4732,258.148 30.5,254.5C 31.3128,253.186 32.3128,252.019 33.5,251C 44.2152,249.595 54.8818,248.761 65.5,248.5 Z"/></g>
<g><path style="opacity:1" fill="#988e8a" d="M 311.5,250.5 C 312.833,250.5 314.167,250.5 315.5,250.5C 315.833,251.167 316.167,251.833 316.5,252.5C 312.958,252.813 309.625,252.479 306.5,251.5C 308.415,251.784 310.081,251.451 311.5,250.5 Z"/></g>
<g><path style="opacity:1" fill="#b6aea8" d="M 58.5,252.5 C 50.5136,253.099 42.5136,253.432 34.5,253.5C 40.4869,252.56 46.6536,251.894 53,251.5C 55.0326,251.506 56.866,251.839 58.5,252.5 Z"/></g>
<g><path style="opacity:1" fill="#a4988f" d="M 284.5,251.5 C 286.337,251.639 286.67,252.306 285.5,253.5C 284.702,253.043 284.369,252.376 284.5,251.5 Z"/></g>
<g><path style="opacity:1" fill="#f9f4eb" d="M 116.5,233.5 C 114.996,235.836 112.996,237.669 110.5,239C 97.1467,246.366 83.8134,253.7 70.5,261C 66.1129,267.892 60.1129,272.726 52.5,275.5C 50.9271,275.248 49.5938,274.582 48.5,273.5C 48.62,272.414 49.2867,271.747 50.5,271.5C 52.0542,272.372 53.3876,272.372 54.5,271.5C 55.5911,267.485 57.5911,263.985 60.5,261C 58.255,261.195 56.4216,262.362 55,264.5C 54.6339,266.452 53.8005,268.118 52.5,269.5C 50.857,269.52 49.5237,268.853 48.5,267.5C 45.3604,269.022 42.0271,269.855 38.5,270C 37.944,270.383 37.6107,270.883 37.5,271.5C 35.0882,271.306 34.0882,269.973 34.5,267.5C 37.6085,267.736 40.6085,267.403 43.5,266.5C 46.6741,266.048 47.0075,265.048 44.5,263.5C 46.2034,261.493 46.5367,259.493 45.5,257.5C 42.1501,257.665 38.8168,257.498 35.5,257C 33.6885,255.959 33.3552,254.793 34.5,253.5C 42.5136,253.432 50.5136,253.099 58.5,252.5C 60.7451,253.635 63.0784,254.135 65.5,254C 64.6919,253.692 64.0253,253.192 63.5,252.5C 64.7701,251.712 65.7701,250.712 66.5,249.5C 75.794,242.208 84.794,234.542 93.5,226.5C 97.9849,221.346 103.318,217.346 109.5,214.5C 111.752,213.667 113.919,213.667 116,214.5C 117.72,220.772 117.887,227.106 116.5,233.5 Z"/></g>
<g><path style="opacity:0.796" fill="#f6cf6c" d="M 109.5,248.5 C 110.117,248.611 110.617,248.944 111,249.5C 111.495,251.473 111.662,253.473 111.5,255.5C 110.318,258.009 108.318,259.343 105.5,259.5C 105.809,255.502 107.143,251.835 109.5,248.5 Z"/></g>
<g><path style="opacity:1" fill="#a99d99" d="M 204.5,229.5 C 204.5,230.167 204.5,230.833 204.5,231.5C 204.046,249.557 204.713,267.557 206.5,285.5C 206.561,287.721 205.895,288.054 204.5,286.5C 202.985,276.242 202.319,265.909 202.5,255.5C 201.864,246.435 202.53,237.769 204.5,229.5 Z"/></g>
<g><path style="opacity:0.69" fill="#6f6062" d="M 319.5,256.5 C 318.89,257.391 318.557,258.391 318.5,259.5C 316.599,259.246 315.933,259.58 316.5,260.5C 317.514,261.674 318.847,262.34 320.5,262.5C 320.265,263.097 319.765,263.43 319,263.5C 306.613,258.837 306.78,256.504 319.5,256.5 Z"/></g>
<g><path style="opacity:0.067" fill="#4e3c3f" d="M 317.5,245.5 C 317.5,246.833 317.5,248.167 317.5,249.5C 321.245,249.203 323.911,250.703 325.5,254C 324.193,257.14 321.86,258.974 318.5,259.5C 318.557,258.391 318.89,257.391 319.5,256.5C 321.686,256.489 322.519,255.489 322,253.5C 320.301,252.594 318.467,252.261 316.5,252.5C 316.167,251.833 315.833,251.167 315.5,250.5C 316.167,248.833 316.833,247.167 317.5,245.5 Z"/></g>
<g><path style="opacity:0.388" fill="#8c7976" d="M 43.5,260.5 C 43.5,261.167 43.1667,261.5 42.5,261.5C 42.5,260.833 42.1667,260.5 41.5,260.5C 40.8333,259.167 40.1667,259.167 39.5,260.5C 39.1667,260.5 38.8333,260.5 38.5,260.5C 37.8333,260.5 37.5,260.167 37.5,259.5C 38.2739,258.853 39.2739,258.52 40.5,258.5C 42.0296,258.64 43.0296,259.307 43.5,260.5 Z"/></g>
<g><path style="opacity:1" fill="#ded8d4" d="M 145.5,268.5 C 146.13,272.048 147.13,275.381 148.5,278.5C 148.495,282.227 149.829,285.227 152.5,287.5C 153.6,288.558 154.934,289.392 156.5,290C 149.842,290.5 143.175,290.666 136.5,290.5C 134.823,287.145 132.656,284.145 130,281.5C 128.096,283.39 126.93,285.724 126.5,288.5C 124.955,289.452 123.288,289.785 121.5,289.5C 121.278,284.516 122.278,279.85 124.5,275.5C 124.423,273.701 123.923,272.034 123,270.5C 122.617,271.056 122.117,271.389 121.5,271.5C 122.555,267.725 123.888,264.058 125.5,260.5C 126.621,258.259 127.787,255.925 129,253.5C 129.479,256.624 130.646,259.457 132.5,262C 137.274,263.429 141.607,265.596 145.5,268.5 Z"/></g>
<g><path style="opacity:1" fill="#c2bab6" d="M 152.5,271.5 C 152.784,273.415 152.451,275.081 151.5,276.5C 151.893,273.487 151.226,270.82 149.5,268.5C 150.139,267.903 150.472,267.07 150.5,266C 148.903,255.539 148.07,245.039 148,234.5C 150.808,246.68 152.308,259.013 152.5,271.5 Z"/></g>
<g><path style="opacity:0.288" fill="#f7cf6b" d="M 245.5,257.5 C 249.232,258.199 252.565,259.866 255.5,262.5C 257.092,267.076 255.759,268.242 251.5,266C 248.392,263.761 246.392,260.927 245.5,257.5 Z"/></g>
<g><path style="opacity:1" fill="#d9d4d2" d="M 45.5,257.5 C 46.5367,259.493 46.2034,261.493 44.5,263.5C 47.0075,265.048 46.6741,266.048 43.5,266.5C 40.0444,266.354 36.3777,266.188 32.5,266C 31.6433,265.311 30.9767,264.478 30.5,263.5C 32.6348,262.355 34.8014,262.355 37,263.5C 38.5671,262.144 40.4004,261.477 42.5,261.5C 43.1667,261.5 43.5,261.167 43.5,260.5C 44.9063,260.027 45.573,259.027 45.5,257.5 Z"/></g>
<g><path style="opacity:1" fill="#7b6b6b" d="M 322.5,265.5 C 322.167,266.167 321.833,266.833 321.5,267.5C 318.753,267.813 316.086,267.48 313.5,266.5C 316.428,265.516 319.428,265.183 322.5,265.5 Z"/></g>
<g><path style="opacity:1" fill="#cfc6bc" d="M 302.5,268.5 C 302.672,269.492 302.338,270.158 301.5,270.5C 300.529,266.559 298.529,263.226 295.5,260.5C 295.833,260.167 296.167,259.833 296.5,259.5C 299.303,261.969 301.303,264.969 302.5,268.5 Z"/></g>
<g><path style="opacity:1" fill="#cec4ba" d="M 54.5,271.5 C 53.8333,270.833 53.1667,270.167 52.5,269.5C 53.8005,268.118 54.6339,266.452 55,264.5C 56.4216,262.362 58.255,261.195 60.5,261C 57.5911,263.985 55.5911,267.485 54.5,271.5 Z"/></g>
<g><path style="opacity:1" fill="#665757" d="M 145.5,268.5 C 145.5,267.833 145.833,267.5 146.5,267.5C 147.609,267.557 148.609,267.89 149.5,268.5C 151.226,270.82 151.893,273.487 151.5,276.5C 150.565,279.113 150.398,281.779 151,284.5C 151.708,285.381 152.542,286.047 153.5,286.5C 153.5,287.167 153.167,287.5 152.5,287.5C 149.829,285.227 148.495,282.227 148.5,278.5C 151.543,274.077 150.543,270.744 145.5,268.5 Z"/></g>
<g><path style="opacity:1" fill="#8b7d7a" d="M 52.5,269.5 C 53.1667,270.167 53.8333,270.833 54.5,271.5C 53.3876,272.372 52.0542,272.372 50.5,271.5C 49.2867,271.747 48.62,272.414 48.5,273.5C 47.8333,273.833 47.1667,274.167 46.5,274.5C 46.5,273.5 46.5,272.5 46.5,271.5C 43.9407,271.198 41.6074,271.532 39.5,272.5C 38.8333,272.167 38.1667,271.833 37.5,271.5C 37.6107,270.883 37.944,270.383 38.5,270C 42.0271,269.855 45.3604,269.022 48.5,267.5C 49.5237,268.853 50.857,269.52 52.5,269.5 Z"/></g>
<g><path style="opacity:1" fill="#928482" d="M 318.5,270.5 C 317.833,271.167 317.167,271.833 316.5,272.5C 314.721,270.656 312.388,269.99 309.5,270.5C 309.285,272.179 309.952,273.179 311.5,273.5C 311.082,274.222 310.416,274.722 309.5,275C 310.793,275.49 312.127,275.657 313.5,275.5C 311.274,276.756 308.941,276.756 306.5,275.5C 306.918,274.778 307.584,274.278 308.5,274C 307.906,273.536 307.239,273.369 306.5,273.5C 307.85,272.176 307.683,271.176 306,270.5C 304.667,271.167 303.333,271.833 302,272.5C 300.316,272.317 300.15,271.65 301.5,270.5C 302.338,270.158 302.672,269.492 302.5,268.5C 304.492,268.672 306.158,268.005 307.5,266.5C 310.558,268.141 313.892,268.974 317.5,269C 318.056,269.383 318.389,269.883 318.5,270.5 Z"/></g>
<g><path style="opacity:1" fill="#e6e4e4" d="M 46.5,274.5 C 43.8478,274.59 41.5145,273.924 39.5,272.5C 41.6074,271.532 43.9407,271.198 46.5,271.5C 46.5,272.5 46.5,273.5 46.5,274.5 Z"/></g>
<g><path style="opacity:1" fill="#ded8d3" d="M 232.5,255.5 C 235.434,260.368 238.1,265.368 240.5,270.5C 236.522,268.522 233.522,265.522 231.5,261.5C 230.914,261.709 230.414,262.043 230,262.5C 228.762,271.109 227.928,279.775 227.5,288.5C 225.833,288.5 224.167,288.5 222.5,288.5C 221.231,274.509 221.231,260.509 222.5,246.5C 223.667,254.123 224.834,261.79 226,269.5C 226.486,259.44 226.153,249.44 225,239.5C 226.66,245.355 229.16,250.688 232.5,255.5 Z"/></g>
<g><path style="opacity:0.455" fill="#dbc48e" d="M 243.5,270.5 C 244.906,270.973 245.573,271.973 245.5,273.5C 244.094,273.027 243.427,272.027 243.5,270.5 Z"/></g>
<g><path style="opacity:1" fill="#b0a4a4" d="M 145.5,268.5 C 150.543,270.744 151.543,274.077 148.5,278.5C 147.13,275.381 146.13,272.048 145.5,268.5 Z"/></g>
<g><path style="opacity:1" fill="#ebe9e9" d="M 316.5,272.5 C 314.784,272.629 313.117,272.962 311.5,273.5C 309.952,273.179 309.285,272.179 309.5,270.5C 312.388,269.99 314.721,270.656 316.5,272.5 Z"/></g>
<g><path style="opacity:0.063" fill="#5d4a4c" d="M 313.5,275.5 C 312.127,275.657 310.793,275.49 309.5,275C 310.416,274.722 311.082,274.222 311.5,273.5C 313.117,272.962 314.784,272.629 316.5,272.5C 317.167,271.833 317.833,271.167 318.5,270.5C 320.5,270.5 321.5,269.5 321.5,267.5C 321.833,266.833 322.167,266.167 322.5,265.5C 323.478,265.189 324.145,264.522 324.5,263.5C 323.311,262.571 321.978,262.238 320.5,262.5C 318.847,262.34 317.514,261.674 316.5,260.5C 319.525,260.123 322.525,259.956 325.5,260C 326.736,268.972 322.736,274.138 313.5,275.5 Z"/></g>
<g><path style="opacity:1" fill="#fafaf7" d="M 136.5,290.5 C 130.833,290.5 125.167,290.5 119.5,290.5C 119.5,287.833 119.5,285.167 119.5,282.5C 119.691,278.738 120.358,275.071 121.5,271.5C 122.117,271.389 122.617,271.056 123,270.5C 123.923,272.034 124.423,273.701 124.5,275.5C 122.278,279.85 121.278,284.516 121.5,289.5C 123.288,289.785 124.955,289.452 126.5,288.5C 126.93,285.724 128.096,283.39 130,281.5C 132.656,284.145 134.823,287.145 136.5,290.5 Z"/></g>
<g><path style="opacity:1" fill="#c4bebf" d="M 119.5,282.5 C 119.5,285.167 119.5,287.833 119.5,290.5C 125.167,290.5 130.833,290.5 136.5,290.5C 136.5,290.833 136.5,291.167 136.5,291.5C 130.5,291.5 124.5,291.5 118.5,291.5C 118.19,288.287 118.523,285.287 119.5,282.5 Z"/></g>
<g><path style="opacity:1" fill="#938785" d="M 153.5,286.5 C 156.836,288.051 160.169,289.385 163.5,290.5C 154.533,291.383 145.533,291.716 136.5,291.5C 136.5,291.167 136.5,290.833 136.5,290.5C 143.175,290.666 149.842,290.5 156.5,290C 154.934,289.392 153.6,288.558 152.5,287.5C 153.167,287.5 153.5,287.167 153.5,286.5 Z"/></g>
<g><path style="opacity:1" fill="#877a7a" d="M 163.5,290.5 C 177.5,290.5 191.5,290.5 205.5,290.5C 213.5,290.5 221.5,290.5 229.5,290.5C 228.791,291.404 227.791,291.737 226.5,291.5C 222.351,290.92 218.684,291.586 215.5,293.5C 209.167,293.5 202.833,293.5 196.5,293.5C 201.651,292.673 206.984,292.173 212.5,292C 195.995,291.831 179.662,291.331 163.5,290.5 Z"/></g>
<g><path style="opacity:0.3" fill="#2e161c" d="M 226.5,291.5 C 226.5,292.167 226.5,292.833 226.5,293.5C 222.833,293.5 219.167,293.5 215.5,293.5C 218.684,291.586 222.351,290.92 226.5,291.5 Z"/></g>
<g><path style="opacity:0.004" fill="#9b898c" d="M 239.5,292.5 C 237.097,292.448 234.764,292.781 232.5,293.5C 234.764,292.781 237.097,292.448 239.5,292.5 Z"/></g>
</svg>
