<?xml version="1.0" encoding="UTF-8"?>
<!DOCTYPE svg PUBLIC "-//W3C//DTD SVG 1.1//EN" "http://www.w3.org/Graphics/SVG/1.1/DTD/svg11.dtd">
<svg xmlns="http://www.w3.org/2000/svg" version="1.1" width="1013px" height="304px" style="shape-rendering:geometricPrecision; text-rendering:geometricPrecision; image-rendering:optimizeQuality; fill-rule:evenodd; clip-rule:evenodd" xmlns:xlink="http://www.w3.org/1999/xlink">
<g><path style="opacity:0.924" fill="#c48cae" d="M 398.5,30.5 C 399.873,30.3433 401.207,30.51 402.5,31C 400.536,33.1675 400.202,35.5008 401.5,38C 400.167,39.6667 398.833,41.3333 397.5,43C 399.137,44.951 400.637,44.7843 402,42.5C 402.287,44.8907 402.787,47.2241 403.5,49.5C 403.023,50.4776 402.357,51.3109 401.5,52C 407.042,52.9128 412.375,52.2461 417.5,50C 420.629,44.7052 424.629,40.2052 429.5,36.5C 430.167,36.8333 430.833,37.1667 431.5,37.5C 429.973,39.1933 428.64,41.0266 427.5,43C 429.158,44.6625 431.158,45.4959 433.5,45.5C 433.5,46.5 433.5,47.5 433.5,48.5C 443.545,48.2048 453.545,48.7048 463.5,50C 466.623,50.8092 469.289,52.3092 471.5,54.5C 470.335,55.5836 469.002,56.4169 467.5,57C 470.856,58.1863 474.189,58.3529 477.5,57.5C 478.192,58.0253 478.692,58.6919 479,59.5C 489.698,52.2676 501.531,48.4343 514.5,48C 517.167,44 520.5,40.6667 524.5,38C 526.65,36.5886 528.984,35.7553 531.5,35.5C 531.649,36.552 531.483,37.552 531,38.5C 529.315,40.0175 527.815,41.6841 526.5,43.5C 528.061,44.3473 529.561,44.0139 531,42.5C 531.265,47.2564 529.765,51.423 526.5,55C 527.025,55.6924 527.692,56.1924 528.5,56.5C 545.661,47.9283 563.328,46.4283 581.5,52C 589.416,58.5572 591.583,66.7239 588,76.5C 583.094,92.0667 574.26,104.9 561.5,115C 560.551,115.617 559.718,115.451 559,114.5C 551.392,124.418 541.558,127.251 529.5,123C 526.5,121.5 523.5,120 520.5,118.5C 518.408,115.319 516.075,112.319 513.5,109.5C 500.381,119.055 485.715,124.722 469.5,126.5C 461.581,125.395 455.747,121.395 452,114.5C 451.667,112.833 451.333,111.167 451,109.5C 433.598,111.581 416.431,115.081 399.5,120C 396.333,123.167 393.167,126.333 390,129.5C 388.667,128.833 387.333,128.167 386,127.5C 384.327,130.001 382.493,132.334 380.5,134.5C 379.526,130.23 380.526,126.397 383.5,123C 379.056,122.386 374.889,120.553 371,117.5C 369.016,117.926 367.016,118.26 365,118.5C 361.904,117.4 359.071,116.4 356.5,115.5C 353.043,105.471 351.21,95.1377 351,84.5C 342.577,101.024 333.41,117.024 323.5,132.5C 322.833,131.833 322.167,131.167 321.5,130.5C 319.397,133.72 317.064,136.72 314.5,139.5C 313.719,138.271 313.219,136.938 313,135.5C 310.394,139.059 307.56,142.393 304.5,145.5C 304.786,139.967 305.953,134.3 308,128.5C 318.873,103.752 331.04,79.7523 344.5,56.5C 348.5,53.5 352.5,50.5 356.5,47.5C 360.361,49.02 363.695,51.3533 366.5,54.5C 367.711,62.8725 368.211,71.2058 368,79.5C 377.176,62.4669 387.343,46.1336 398.5,30.5 Z M 476.5,60.5 C 468.626,68.5829 461.459,77.2495 455,86.5C 453.051,90.6293 451.884,94.9627 451.5,99.5C 449.5,99.5 447.5,99.5 445.5,99.5C 445.5,98.5 445.5,97.5 445.5,96.5C 434.499,95.8723 423.665,96.8723 413,99.5C 411.941,99.3699 411.108,98.8699 410.5,98C 413.167,95.3333 415.833,92.6667 418.5,90C 429.528,88.2362 440.361,85.7362 451,82.5C 451.5,82.1667 452,81.8333 452.5,81.5C 451.624,80.7492 450.624,80.2492 449.5,80C 451.5,79.3333 453.5,78.6667 455.5,78C 456.38,76.6439 456.714,75.1439 456.5,73.5C 446.552,71.3851 436.552,70.5518 426.5,71C 427.833,69.6667 429.167,68.3333 430.5,67C 445.814,64.5767 461.147,62.4101 476.5,60.5 Z M 407.5,63.5 C 408.552,63.3505 409.552,63.5172 410.5,64C 408.004,66.6559 406.004,69.6559 404.5,73C 400.291,74.8033 395.958,75.8033 391.5,76C 393.5,72.6667 395.5,69.3333 397.5,66C 401.09,65.6894 404.423,64.856 407.5,63.5 Z M 562.5,63.5 C 566.91,62.6226 570.243,64.1226 572.5,68C 567.199,84.9678 556.533,97.3011 540.5,105C 536.579,105.765 534.245,104.098 533.5,100C 538.65,86.0129 547.65,75.1795 560.5,67.5C 561.362,66.2342 562.029,64.9008 562.5,63.5 Z M 530.5,67.5 C 531.239,67.369 531.906,67.5357 532.5,68C 525.477,75.2075 519.811,83.3741 515.5,92.5C 504.746,98.711 493.412,103.544 481.5,107C 473.512,109.341 470.345,106.508 472,98.5C 473.427,93.8779 475.427,89.5446 478,85.5C 484.73,79.8841 491.897,74.8841 499.5,70.5C 500.695,74.196 502.862,77.196 506,79.5C 510.953,77.856 515.286,75.1893 519,71.5C 520.131,72.6039 520.965,72.2705 521.5,70.5C 521.291,69.914 520.957,69.414 520.5,69C 522.326,68.7083 524.159,68.875 526,69.5C 527.876,69.4753 529.376,68.8086 530.5,67.5 Z M 386.5,87.5 C 386.73,85.0172 387.397,84.5172 388.5,86C 388.164,87.0299 387.497,87.5299 386.5,87.5 Z M 383.5,90.5 C 387.519,91.1469 391.519,91.4802 395.5,91.5C 392.302,96.5634 389.635,101.897 387.5,107.5C 383.194,109.675 378.861,110.175 374.5,109C 378.44,103.286 381.44,97.1198 383.5,90.5 Z"/></g>
<g><path style="opacity:0.964" fill="#c48cae" d="M 248.5,38.5 C 250.288,38.2148 251.955,38.5481 253.5,39.5C 263.449,64.0661 273.949,88.3995 285,112.5C 301.755,143.675 318.255,175.009 334.5,206.5C 333.833,206.833 333.167,207.167 332.5,207.5C 328.274,205.372 323.941,203.872 319.5,203C 327.286,208.451 334.786,214.285 342,220.5C 348.294,231.586 354.46,242.753 360.5,254C 359.5,254.5 358.5,255 357.5,255.5C 331.946,239.556 304.612,227.723 275.5,220C 275.435,207.283 273.602,194.783 270,182.5C 259.327,162.364 247.327,161.364 234,179.5C 228.776,192.402 227.276,205.735 229.5,219.5C 199.267,226.741 171.1,238.741 145,255.5C 144.13,254.892 143.63,254.059 143.5,253C 162.278,217.277 181.445,181.777 201,146.5C 207.606,133.623 213.939,120.623 220,107.5C 221.049,106.483 222.216,106.316 223.5,107C 227.029,110.421 231.029,112.755 235.5,114C 230.943,109.946 226.943,105.446 223.5,100.5C 232.953,80.2644 241.286,59.5977 248.5,38.5 Z"/></g>
<g><path style="opacity:0.931" fill="#313331" d="M 558.5,131.5 C 560.5,131.5 562.5,131.5 564.5,131.5C 564.749,134.002 565.083,136.502 565.5,139C 564.723,146.559 564.223,154.059 564,161.5C 579.695,154.182 594.862,155.349 609.5,165C 611.333,167.5 613.167,170 615,172.5C 615.667,189.167 615.667,205.833 615,222.5C 614.821,225.553 614.321,228.553 613.5,231.5C 607.326,233.473 600.993,234.473 594.5,234.5C 594.667,216.497 594.5,198.497 594,180.5C 591.581,175.961 587.748,173.961 582.5,174.5C 576.439,174.302 571.272,176.302 567,180.5C 565.427,197.467 564.26,214.467 563.5,231.5C 557.257,233.04 550.924,234.04 544.5,234.5C 544.196,202.819 544.529,171.152 545.5,139.5C 545.833,138.167 546.167,136.833 546.5,135.5C 550.71,134.456 554.71,133.123 558.5,131.5 Z"/></g>
<g><path style="opacity:0.878" fill="#c48cae" d="M 633.5,131.5 C 635.5,131.5 637.5,131.5 639.5,131.5C 639.894,164.859 639.227,198.192 637.5,231.5C 634.579,232.407 631.579,232.74 628.5,232.5C 628.333,202.831 628.5,173.165 629,143.5C 629.176,140.118 629.676,136.785 630.5,133.5C 631.739,133.058 632.739,132.391 633.5,131.5 Z"/></g>
<g><path style="opacity:0.749" fill="#c48cae" d="M 653.5,132.5 C 663.592,136.105 663.926,140.439 654.5,145.5C 651.833,143.5 649.5,141.167 647.5,138.5C 649.028,137.139 650.695,135.972 652.5,135C 653.252,134.329 653.586,133.496 653.5,132.5 Z"/></g>
<g><path style="opacity:0.935" fill="#313331" d="M 380.5,152.5 C 391.798,151.66 402.465,153.826 412.5,159C 419.726,165.336 423.059,173.336 422.5,183C 421.642,199.155 421.309,215.322 421.5,231.5C 414.878,232.532 408.212,233.199 401.5,233.5C 401.815,231.774 401.981,230.107 402,228.5C 384.957,237.826 369.957,235.16 357,220.5C 347.952,201.85 352.452,187.683 370.5,178C 378.436,175.405 386.436,175.071 394.5,177C 396.081,177.707 397.581,178.54 399,179.5C 399.379,177.43 398.545,175.93 396.5,175C 385.622,172.862 374.955,173.696 364.5,177.5C 362.833,177.167 361.833,176.167 361.5,174.5C 363.048,168.546 364.381,162.546 365.5,156.5C 370.686,155.404 375.686,154.07 380.5,152.5 Z M 381.5,194.5 C 387.207,194.558 392.541,195.891 397.5,198.5C 401.249,205.842 399.249,211.008 391.5,214C 380.786,216.253 374.953,212.087 374,201.5C 375.742,198.254 378.242,195.921 381.5,194.5 Z"/></g>
<g><path style="opacity:0.915" fill="#313331" d="M 473.5,172.5 C 466.191,173.737 459.691,176.737 454,181.5C 451.925,197.75 451.091,214.084 451.5,230.5C 444.2,231.717 436.866,232.717 429.5,233.5C 429.167,208.158 429.5,182.825 430.5,157.5C 437.142,156.038 443.809,154.705 450.5,153.5C 450.187,156.247 450.52,158.914 451.5,161.5C 459.911,155.729 469.245,153.063 479.5,153.5C 478.302,160.093 476.302,166.427 473.5,172.5 Z"/></g>
<g><path style="opacity:0.933" fill="#313331" d="M 473.5,172.5 C 484.645,157.111 499.645,151.611 518.5,156C 527.665,157.579 535.331,161.746 541.5,168.5C 537.349,173.152 533.015,177.652 528.5,182C 527.5,182.667 526.5,182.667 525.5,182C 518.287,176.394 510.287,175.06 501.5,178C 491.048,184.287 488.215,193.121 493,204.5C 500.813,215.112 510.647,217.278 522.5,211C 524.609,209.859 526.442,208.359 528,206.5C 534.028,210.162 538.028,215.162 540,221.5C 528.394,233.194 514.561,236.694 498.5,232C 479.371,227.193 469.371,214.86 468.5,195C 468.83,187.181 470.497,179.681 473.5,172.5 Z"/></g>
<g><path style="opacity:0.874" fill="#c48cae" d="M 701.5,157.5 C 711.329,157.331 719.996,160.331 727.5,166.5C 728.919,168.336 730.086,170.336 731,172.5C 731.862,191.507 732.695,210.507 733.5,229.5C 732.76,232.899 730.594,234.232 727,233.5C 725.019,233.371 723.353,232.704 722,231.5C 721.682,215.785 722.182,200.118 723.5,184.5C 719.855,172 711.521,167.167 698.5,170C 691.577,172.451 686.243,176.784 682.5,183C 682.833,183.333 683.167,183.667 683.5,184C 682.755,199.778 681.922,215.611 681,231.5C 677.715,233.137 674.215,233.804 670.5,233.5C 670.5,209.5 670.5,185.5 670.5,161.5C 673.376,161.073 676.209,160.406 679,159.5C 679.5,159.833 680,160.167 680.5,160.5C 681.244,163.443 681.744,166.443 682,169.5C 687.253,163.298 693.753,159.298 701.5,157.5 Z"/></g>
<g><path style="opacity:0.833" fill="#c48cae" d="M 655.5,159.5 C 657.045,160.23 657.878,161.563 658,163.5C 659.884,186.488 660.384,209.488 659.5,232.5C 656.214,233.207 652.881,233.54 649.5,233.5C 649.219,209.804 649.886,186.138 651.5,162.5C 653.261,161.965 654.594,160.965 655.5,159.5 Z"/></g>
<g><path style="opacity:0.878" fill="#c48cae" d="M 746.5,160.5 C 748.833,160.5 751.167,160.5 753.5,160.5C 753.047,179.904 753.88,199.238 756,218.5C 759.308,223.105 763.808,225.105 769.5,224.5C 785.387,224.113 793.387,215.946 793.5,200C 792.615,187.517 792.282,175.017 792.5,162.5C 796.443,161.514 800.443,160.848 804.5,160.5C 804.866,184.524 804.366,208.524 803,232.5C 800.049,234.076 796.883,234.743 793.5,234.5C 793.665,231.15 793.498,227.817 793,224.5C 783.961,235.522 772.461,239.022 758.5,235C 749.744,232.25 744.578,226.416 743,217.5C 742.433,198.833 741.933,180.166 741.5,161.5C 743.415,161.784 745.081,161.451 746.5,160.5 Z"/></g>
<g><path style="opacity:0.876" fill="#c48cae" d="M 816.5,160.5 C 818.716,161.203 820.549,162.536 822,164.5C 827.626,171.794 833.626,178.794 840,185.5C 844.833,178.5 849.667,171.5 854.5,164.5C 860.422,162.37 863.589,164.37 864,170.5C 857.711,178.912 851.544,187.412 845.5,196C 853.388,206.222 860.888,216.722 868,227.5C 868.765,231.421 867.098,233.755 863,234.5C 861.605,234.22 860.438,233.553 859.5,232.5C 852.806,223.64 846.306,214.64 840,205.5C 832.955,215.09 825.788,224.59 818.5,234C 817.5,234.667 816.5,234.667 815.5,234C 814.271,232.471 812.771,231.304 811,230.5C 810.333,229.167 810.333,227.833 811,226.5C 818.66,216.515 825.827,206.182 832.5,195.5C 825.373,186.072 818.373,176.572 811.5,167C 813.765,165.243 815.431,163.076 816.5,160.5 Z"/></g>
<g><path style="opacity:0.004" fill="#7d2a4e" d="M 173.5,269.5 C 175.332,270.14 175.665,271.14 174.5,272.5C 173.614,271.675 173.281,270.675 173.5,269.5 Z"/></g>
</svg>
