<?xml version="1.0" encoding="UTF-8"?>
<!DOCTYPE svg PUBLIC "-//W3C//DTD SVG 1.1//EN" "http://www.w3.org/Graphics/SVG/1.1/DTD/svg11.dtd">
<svg xmlns="http://www.w3.org/2000/svg" version="1.1" width="256px" height="256px" style="shape-rendering:geometricPrecision; text-rendering:geometricPrecision; image-rendering:optimizeQuality; fill-rule:evenodd; clip-rule:evenodd" xmlns:xlink="http://www.w3.org/1999/xlink">
<g><path style="opacity:0.973" fill="#c48cae" d="M 126.5,-0.5 C 127.167,-0.5 127.833,-0.5 128.5,-0.5C 156.129,67.7572 187.795,134.09 223.5,198.5C 223.333,198.833 223.167,199.167 223,199.5C 215.289,193.889 206.789,190.389 197.5,189C 209.508,196.007 220.675,204.174 231,213.5C 238.959,227.084 246.126,241.084 252.5,255.5C 251.833,255.5 251.167,255.5 250.5,255.5C 227.397,240.698 202.897,228.365 177,218.5C 170.232,216.433 163.399,214.6 156.5,213C 156.259,204.582 156.092,196.082 156,187.5C 154.669,173.674 149.169,161.841 139.5,152C 124.432,145.773 113.598,150.273 107,165.5C 101.144,179.758 99.6436,194.425 102.5,209.5C 102.167,210.5 101.833,211.5 101.5,212.5C 76.0934,218.36 52.0934,227.86 29.5,241C 21.2703,245.608 13.2703,250.441 5.5,255.5C 4.5,255.5 3.5,255.5 2.5,255.5C 33.7981,197.577 64.1314,138.91 93.5,79.5C 94.0016,78.479 94.6683,78.3123 95.5,79C 102.891,85.8504 111.225,90.8504 120.5,94C 112.154,86.9877 104.488,79.321 97.5,71C 108.053,47.5034 117.72,23.6701 126.5,-0.5 Z"/></g>
</svg>
