<?xml version="1.0" encoding="UTF-8"?>
<!DOCTYPE svg PUBLIC "-//W3C//DTD SVG 1.1//EN" "http://www.w3.org/Graphics/SVG/1.1/DTD/svg11.dtd">
<svg xmlns="http://www.w3.org/2000/svg" version="1.1" width="1013px" height="304px" style="shape-rendering:geometricPrecision; text-rendering:geometricPrecision; image-rendering:optimizeQuality; fill-rule:evenodd; clip-rule:evenodd" xmlns:xlink="http://www.w3.org/1999/xlink">
<g><path style="opacity:0.86" fill="#f4f4f4" d="M 223.5,8.5 C 227.584,8.04308 231.417,8.70975 235,10.5C 236.504,13.5089 238.004,16.5089 239.5,19.5C 247.815,17.06 251.315,20.06 250,28.5C 247.463,31.372 244.63,33.872 241.5,36C 244.261,38.8522 246.261,42.1855 247.5,46C 246.598,48.8987 244.931,51.232 242.5,53C 246.252,59.7537 248.918,66.9203 250.5,74.5C 249.661,79.0095 246.995,81.3429 242.5,81.5C 242.597,85.3494 242.931,89.1827 243.5,93C 243.645,99.5245 240.645,102.524 234.5,102C 233.343,107.837 230.343,112.337 225.5,115.5C 224.109,114.355 222.776,114.355 221.5,115.5C 219.611,122.288 215.445,124.955 209,123.5C 207.513,124.155 206.347,125.155 205.5,126.5C 217.257,145.123 227.09,164.79 235,185.5C 247.71,191.923 252.71,202.256 250,216.5C 242.659,233.595 230.492,238.595 213.5,231.5C 210.532,232.162 207.532,232.495 204.5,232.5C 205.423,245.548 206.923,258.548 209,271.5C 214.85,272.393 220.683,273.56 226.5,275C 240.111,282.345 239.778,288.678 225.5,294C 216.5,294.667 207.5,294.667 198.5,294C 193.398,292.411 188.565,290.245 184,287.5C 182.964,285.13 182.464,282.63 182.5,280C 184.395,264.553 185.395,249.053 185.5,233.5C 181.167,233.5 176.833,233.5 172.5,233.5C 171.871,249.158 171.371,264.825 171,280.5C 170.462,285.088 168.296,288.588 164.5,291C 151.324,294.772 137.991,295.439 124.5,293C 122.416,291.499 121.083,289.499 120.5,287C 126.071,275.375 135.405,270.208 148.5,271.5C 149.601,262.83 150.767,254.163 152,245.5C 152.828,241.129 152.661,236.795 151.5,232.5C 136.312,238.382 124.479,234.382 116,220.5C 113.923,212.235 115.923,205.235 122,199.5C 122.274,193.699 123.274,188.032 125,182.5C 133.852,168.93 142.519,155.263 151,141.5C 153.44,136.953 155.607,132.287 157.5,127.5C 156.91,126.201 155.91,125.368 154.5,125C 150.394,125.064 146.727,123.897 143.5,121.5C 139.978,126.243 136.145,126.576 132,122.5C 129.318,117.136 126.651,111.802 124,106.5C 116.563,109.412 113.563,106.745 115,98.5C 116.981,94.0417 118.814,89.5417 120.5,85C 117.75,83.9152 116.083,81.9152 115.5,79C 117.65,73.6983 120.317,68.6983 123.5,64C 120.035,63.0343 117.702,60.8677 116.5,57.5C 118.518,53.4637 120.518,49.4637 122.5,45.5C 119.673,41.8293 117.006,37.9959 114.5,34C 116.242,30.1281 119.242,28.2947 123.5,28.5C 120.585,15.5928 125.585,9.75943 138.5,11C 146.163,13.7767 153.663,16.9434 161,20.5C 174.597,15.6358 188.264,15.3025 202,19.5C 204.167,18 206.333,16.5 208.5,15C 213.807,13.2954 218.807,11.1288 223.5,8.5 Z"/></g>
<g><path style="opacity:1" fill="#ce165b" d="M 242.5,65.5 C 242.223,68.4475 242.556,71.2809 243.5,74C 240.82,74.3348 238.487,73.5014 236.5,71.5C 233.932,73.9979 233.932,76.3312 236.5,78.5C 236.818,83.9145 236.818,89.2478 236.5,94.5C 235.084,92.8608 233.417,92.0275 231.5,92C 229.094,96.2081 227.26,100.708 226,105.5C 225.667,105.833 225.333,106.167 225,106.5C 224.768,105.263 224.268,104.263 223.5,103.5C 222.212,97.9089 221.212,92.2422 220.5,86.5C 220.544,83.4153 220.878,80.4153 221.5,77.5C 228.581,73.3204 230.415,67.3204 227,59.5C 220.209,51.6945 211.709,48.8612 201.5,51C 198.065,51.8845 194.732,53.0512 191.5,54.5C 187.39,53.279 183.723,51.279 180.5,48.5C 179.682,51.1071 179.182,53.7737 179,56.5C 176.654,52.8209 173.654,49.8209 170,47.5C 165.777,49.0268 161.944,51.1934 158.5,54C 143.305,55.8541 136.138,64.3541 137,79.5C 138.511,81.8616 140.011,84.1949 141.5,86.5C 141.824,93.3543 141.491,100.021 140.5,106.5C 138.606,105.952 136.94,104.952 135.5,103.5C 135.062,106.295 134.062,108.628 132.5,110.5C 131.502,106.342 130.002,102.342 128,98.5C 125.46,97.1235 123.46,97.7902 122,100.5C 121.833,100 121.667,99.5 121.5,99C 124.838,92.4942 127.172,85.6609 128.5,78.5C 126.833,78.5 125.167,78.5 123.5,78.5C 128.048,65.9604 134.215,54.2937 142,43.5C 143.926,39.4829 145.426,35.3163 146.5,31C 146.167,30.1667 145.833,29.3333 145.5,28.5C 140.531,25.5225 135.865,22.1892 131.5,18.5C 133.765,17.3526 136.098,17.1859 138.5,18C 145.089,20.798 151.755,23.298 158.5,25.5C 158.351,26.552 158.517,27.552 159,28.5C 162.509,27.0774 166.009,25.5774 169.5,24C 181.612,23.2616 193.612,23.5949 205.5,25C 210.195,21.4245 215.361,18.5911 221,16.5C 221.5,16.8333 222,17.1667 222.5,17.5C 217.54,20.7923 213.207,24.7923 209.5,29.5C 214.621,33.4486 219.621,37.6153 224.5,42C 226.818,43.9927 229.484,45.1594 232.5,45.5C 232.343,46.8734 232.51,48.2068 233,49.5C 236.445,54.7315 239.611,60.0649 242.5,65.5 Z"/></g>
<g><path style="opacity:0.925" fill="#d0175c" d="M 512.5,39.5 C 513.239,39.369 513.906,39.5357 514.5,40C 512.955,42.0851 512.622,44.2518 513.5,46.5C 512.248,48.0009 511.248,49.6675 510.5,51.5C 512.098,53.9734 513.598,53.9734 515,51.5C 514.367,53.3379 514.534,55.1712 515.5,57C 515.05,58.2853 514.383,59.452 513.5,60.5C 518.887,61.0295 524.221,60.3629 529.5,58.5C 532.547,53.7037 536.047,49.3704 540,45.5C 540.5,45.6667 541,45.8333 541.5,46C 538.991,48.8432 537.491,52.0099 537,55.5C 538,51.8333 539.667,51.5 542,54.5C 542.333,54.1667 542.667,53.8333 543,53.5C 543.684,54.7839 543.517,55.9505 542.5,57C 553.572,55.861 564.572,56.5277 575.5,59C 574.833,59.3333 574.167,59.6667 573.5,60C 581.096,60.9913 580.762,62.158 572.5,63.5C 576.061,64.7607 579.728,65.594 583.5,66C 581.608,66.9734 579.608,67.6401 577.5,68C 565.027,69.0954 552.86,70.5954 541,72.5C 539.389,74.2096 537.889,76.0429 536.5,78C 540.626,77.6412 544.626,77.4745 548.5,77.5C 553.86,78.17 559.193,79.0033 564.5,80C 565.451,80.7175 565.617,81.5509 565,82.5C 561.659,84.039 558.159,85.2057 554.5,86C 556.936,85.9466 559.269,86.1133 561.5,86.5C 558.749,87.5002 556.082,88.6668 553.5,90C 547.186,90.6143 541.02,91.781 535,93.5C 532.758,92.8253 530.591,93.3253 528.5,95C 526.874,97.6277 524.874,99.961 522.5,102C 523.126,102.75 523.626,103.584 524,104.5C 533.613,101.649 543.446,100.482 553.5,101C 553.833,101.333 554.167,101.667 554.5,102C 553.167,102.333 551.833,102.667 550.5,103C 554.17,103.548 557.837,104.048 561.5,104.5C 561.744,99.9328 562.91,95.5994 565,91.5C 570.697,82.9014 577.197,75.0681 584.5,68C 595.398,60.4847 607.065,56.6514 619.5,56.5C 623.258,51.406 627.925,47.406 633.5,44.5C 634.521,45.0016 634.688,45.6683 634,46.5C 632.5,48 631,49.5 629.5,51C 630.433,53.8475 631.933,54.0142 634,51.5C 634.239,55.6738 632.739,59.1738 629.5,62C 629.957,62.414 630.291,62.914 630.5,63.5C 629.5,64.1667 628.5,64.8333 627.5,65.5C 627.833,65.8333 628.167,66.1667 628.5,66.5C 642.075,58.7071 656.742,55.5405 672.5,57C 683.054,58.7167 688.387,64.8834 688.5,75.5C 685.025,92.7638 676.191,106.764 662,117.5C 661.667,117.167 661.333,116.833 661,116.5C 657.914,120.257 654.248,123.257 650,125.5C 645.603,126.037 640.769,126.037 635.5,125.5C 631.833,123.667 628.167,121.833 624.5,120C 622.628,117.094 620.628,114.26 618.5,111.5C 606.384,121.067 592.717,126.401 577.5,127.5C 571.83,126.905 566.997,124.239 563,119.5C 562.023,117.26 561.523,114.927 561.5,112.5C 553.085,113.059 544.752,114.226 536.5,116C 528.516,117.998 520.516,119.998 512.5,122C 509.553,124.736 506.719,127.57 504,130.5C 502.992,130.018 501.825,129.852 500.5,130C 501.451,129.282 501.617,128.449 501,127.5C 499,130.167 497,132.833 495,135.5C 494.957,131.63 496.123,128.13 498.5,125C 497.069,124.535 495.903,123.701 495,122.5C 493.23,123.276 491.397,123.11 489.5,122C 488.185,120.605 488.519,119.605 490.5,119C 487.709,119.227 484.876,119.727 482,120.5C 479.019,120.919 476.686,119.919 475,117.5C 474.586,117.957 474.086,118.291 473.5,118.5C 469.694,107.786 468.194,96.7857 469,85.5C 460.878,101.599 452.211,117.265 443,132.5C 442.667,132.833 442.333,133.167 442,133.5C 441.577,132.044 440.744,131.544 439.5,132C 437.542,134.748 435.709,137.582 434,140.5C 434,138.5 434,136.5 434,134.5C 431,138.167 428,141.833 425,145.5C 425.686,140.088 427.02,134.755 429,129.5C 435.59,115.984 441.924,102.317 448,88.5C 453.352,80.4619 458.185,72.1285 462.5,63.5C 466.27,61.1972 469.77,58.5306 473,55.5C 473.284,57.8856 474.284,58.5523 476,57.5C 478.185,58.9284 480.185,60.5951 482,62.5C 481.961,68.5401 482.461,74.7068 483.5,81C 482.198,82.9233 482.365,84.7566 484,86.5C 492.105,69.9156 501.605,54.2489 512.5,39.5 Z M 521.5,69.5 C 522.239,69.369 522.906,69.5357 523.5,70C 521.248,73.1676 519.248,76.5009 517.5,80C 513.226,80.8843 509.059,82.051 505,83.5C 504.667,83.1667 504.333,82.8333 504,82.5C 505.867,79.6334 507.7,76.4667 509.5,73C 509.167,72.6667 508.833,72.3333 508.5,72C 513.076,71.7285 517.409,70.8951 521.5,69.5 Z M 664.5,69.5 C 668.826,68.8289 671.826,70.4955 673.5,74.5C 668.259,90.5099 658.592,102.01 644.5,109C 639.314,110.404 636.648,108.404 636.5,103C 641.574,89.9236 650.24,79.9236 662.5,73C 661.952,71.4039 662.618,70.2373 664.5,69.5 Z M 640.5,71.5 C 632.15,78.3699 625.817,86.8699 621.5,97C 611.373,102.726 600.706,107.393 589.5,111C 586.5,111.667 583.5,111.667 580.5,111C 579.707,109.915 579.04,108.748 578.5,107.5C 579.122,101.497 581.289,95.8304 585,90.5C 591.476,84.5262 598.643,79.5262 606.5,75.5C 607.292,77.4648 607.959,79.4648 608.5,81.5C 609.376,82.2508 610.376,82.7508 611.5,83C 610.304,83.6543 610.304,84.1543 611.5,84.5C 616.217,82.8151 620.217,80.1484 623.5,76.5C 624.035,74.5544 625.368,73.5544 627.5,73.5C 627.811,74.4778 628.478,75.1445 629.5,75.5C 633.177,74.0044 636.844,72.671 640.5,71.5 Z M 496.5,97.5 C 498.511,93.6431 500.511,90.3098 502.5,87.5C 504.815,87.7991 504.815,88.6325 502.5,90C 502.957,90.414 503.291,90.914 503.5,91.5C 502.335,92.5836 501.002,93.4169 499.5,94C 500,94.5 500.5,95 501,95.5C 503.884,94.7969 507.051,94.6302 510.5,95C 507.079,99.9124 504.412,105.246 502.5,111C 498.07,113.656 493.404,114.489 488.5,113.5C 491.707,108.419 494.374,103.086 496.5,97.5 Z"/></g>
<g><path style="opacity:1" fill="#281e1e" d="M 242.5,65.5 C 239.611,60.0649 236.445,54.7315 233,49.5C 232.51,48.2068 232.343,46.8734 232.5,45.5C 229.484,45.1594 226.818,43.9927 224.5,42C 219.621,37.6153 214.621,33.4486 209.5,29.5C 213.207,24.7923 217.54,20.7923 222.5,17.5C 222,17.1667 221.5,16.8333 221,16.5C 215.361,18.5911 210.195,21.4245 205.5,25C 193.612,23.5949 181.612,23.2616 169.5,24C 166.009,25.5774 162.509,27.0774 159,28.5C 158.517,27.552 158.351,26.552 158.5,25.5C 163.616,24.8505 168.616,23.6839 173.5,22C 183.211,20.7927 192.711,21.626 202,24.5C 205.063,23.1193 207.896,21.2859 210.5,19C 216.36,16.1542 222.527,14.3208 229,13.5C 230.107,13.5852 231.107,13.9186 232,14.5C 233.15,18.1117 233.983,21.7783 234.5,25.5C 238.462,24.6245 242.462,23.9578 246.5,23.5C 243.777,28.0601 240.111,31.8934 235.5,35C 238.535,38.8449 240.868,43.0115 242.5,47.5C 239.833,46.8333 237.167,46.1667 234.5,45.5C 235.306,50.7796 237.473,55.4463 241,59.5C 241.813,61.4357 242.313,63.4357 242.5,65.5 Z"/></g>
<g><path style="opacity:1" fill="#e0918b" d="M 226.5,15.5 C 228.144,15.2865 229.644,15.6198 231,16.5C 231.911,19.3106 232.744,22.1439 233.5,25C 232.048,26.5648 230.381,27.8982 228.5,29C 233.389,27.5964 238.389,26.5964 243.5,26C 239.995,28.6752 236.661,31.5085 233.5,34.5C 235.375,37.7511 237.375,40.9177 239.5,44C 238.5,44.6667 237.5,44.6667 236.5,44C 234.088,40.9666 231.088,39.2999 227.5,39C 229.5,40.6667 231.5,42.3333 233.5,44C 231.402,43.9678 229.402,43.3011 227.5,42C 222.94,37.8056 218.106,33.9723 213,30.5C 212.333,29.5 212.333,28.5 213,27.5C 217.74,23.5836 222.24,19.5836 226.5,15.5 Z"/></g>
<g><path style="opacity:1" fill="#27201f" d="M 221.5,77.5 C 221.167,77.5 220.833,77.5 220.5,77.5C 230.173,68.9931 229.506,61.1598 218.5,54C 207.495,49.4518 197.661,51.2851 189,59.5C 185.297,69.2624 188.464,75.7624 198.5,79C 204.915,79.7902 211.248,79.6235 217.5,78.5C 218.091,79.1515 218.757,79.8182 219.5,80.5C 219.376,81.1067 219.043,81.44 218.5,81.5C 211.741,81.565 204.741,81.3983 197.5,81C 187.822,77.4802 183.989,70.6468 186,60.5C 187.046,58.9095 188.213,57.4095 189.5,56C 186.751,54.8773 184.251,53.3773 182,51.5C 181.503,54.146 181.336,56.8127 181.5,59.5C 177.47,56.986 173.804,53.8193 170.5,50C 167.478,49.8363 164.811,50.8363 162.5,53C 169.259,53.5489 174.759,56.3822 179,61.5C 182.183,69.9797 180.017,76.8131 172.5,82C 167.964,85.2345 162.964,87.4011 157.5,88.5C 154.5,87.8333 151.5,87.1667 148.5,86.5C 161.628,87.8505 171.462,82.8505 178,71.5C 179.277,64.64 176.777,59.8067 170.5,57C 156.476,52.5589 145.976,56.7256 139,69.5C 137.38,76.0761 138.88,81.7427 143.5,86.5C 143.167,86.5 142.833,86.5 142.5,86.5C 142.167,86.5 141.833,86.5 141.5,86.5C 140.011,84.1949 138.511,81.8616 137,79.5C 136.138,64.3541 143.305,55.8541 158.5,54C 161.944,51.1934 165.777,49.0268 170,47.5C 173.654,49.8209 176.654,52.8209 179,56.5C 179.182,53.7737 179.682,51.1071 180.5,48.5C 183.723,51.279 187.39,53.279 191.5,54.5C 194.732,53.0512 198.065,51.8845 201.5,51C 211.709,48.8612 220.209,51.6945 227,59.5C 230.415,67.3204 228.581,73.3204 221.5,77.5 Z"/></g>
<g><path style="opacity:0.999" fill="#cf175c" d="M 373.5,47.5 C 374.5,47.5 375.5,47.5 376.5,47.5C 385.49,70.4844 395.323,93.1511 406,115.5C 421.167,144.5 436.333,173.5 451.5,202.5C 451.167,202.833 450.833,203.167 450.5,203.5C 445.165,200.153 439.498,197.987 433.5,197C 442.63,202.651 451.13,209.151 459,216.5C 464.754,226.339 470.254,236.339 475.5,246.5C 475,246.833 474.5,247.167 474,247.5C 461.085,240.292 447.918,233.458 434.5,227C 422.537,221.735 410.204,217.568 397.5,214.5C 398.476,202.568 396.976,190.901 393,179.5C 381.703,159.909 370.036,159.575 358,178.5C 353.584,190.243 352.417,202.077 354.5,214C 326.727,221.054 300.727,232.22 276.5,247.5C 276.167,247 275.833,246.5 275.5,246C 290.532,218.103 305.699,190.269 321,162.5C 330.027,145.779 338.527,128.779 346.5,111.5C 347.365,110.417 348.365,110.251 349.5,111C 354.529,115.672 360.195,119.005 366.5,121C 360.313,116.313 354.98,110.813 350.5,104.5C 358.762,85.7097 366.428,66.7097 373.5,47.5 Z"/></g>
<g><path style="opacity:1" fill="#f4f3ef" d="M 220.5,77.5 C 219.391,77.5569 218.391,77.8902 217.5,78.5C 211.248,79.6235 204.915,79.7902 198.5,79C 188.464,75.7624 185.297,69.2624 189,59.5C 197.661,51.2851 207.495,49.4518 218.5,54C 229.506,61.1598 230.173,68.9931 220.5,77.5 Z"/></g>
<g><path style="opacity:1" fill="#24191a" d="M 158.5,25.5 C 151.755,23.298 145.089,20.798 138.5,18C 136.098,17.1859 133.765,17.3526 131.5,18.5C 135.865,22.1892 140.531,25.5225 145.5,28.5C 145.833,29.3333 146.167,30.1667 146.5,31C 145.426,35.3163 143.926,39.4829 142,43.5C 134.215,54.2937 128.048,65.9604 123.5,78.5C 125.167,78.5 126.833,78.5 128.5,78.5C 127.172,85.6609 124.838,92.4942 121.5,99C 121.667,99.5 121.833,100 122,100.5C 123.46,97.7902 125.46,97.1235 128,98.5C 130.002,102.342 131.502,106.342 132.5,110.5C 132.5,110.833 132.5,111.167 132.5,111.5C 129.893,107.47 127.726,103.136 126,98.5C 124.114,101.242 121.614,102.909 118.5,103.5C 121.446,95.9395 124.112,88.2729 126.5,80.5C 124.5,80.5 122.5,80.5 120.5,80.5C 123.107,73.952 126.274,67.6187 130,61.5C 130.494,59.8659 130.66,58.1992 130.5,56.5C 127.833,57.1667 125.167,57.8333 122.5,58.5C 124.13,53.8898 125.796,49.2231 127.5,44.5C 127.333,43.5 127.167,42.5 127,41.5C 124.65,39.3171 122.483,36.9837 120.5,34.5C 123.027,33.7864 125.527,33.1197 128,32.5C 128.191,26.9171 128.691,21.4171 129.5,16C 140.162,16.2463 149.829,19.4129 158.5,25.5 Z"/></g>
<g><path style="opacity:1" fill="#e1928b" d="M 130.5,20.5 C 134.304,23.2394 138.304,25.7394 142.5,28C 143.804,28.804 144.471,29.9707 144.5,31.5C 141.918,40.6649 137.751,48.9983 132,56.5C 131.833,56 131.667,55.5 131.5,55C 132.289,53.3745 133.289,51.8745 134.5,50.5C 134.167,50.1667 133.833,49.8333 133.5,49.5C 131.016,51.483 128.683,53.6496 126.5,56C 125.668,56.6877 125.002,56.521 124.5,55.5C 126.669,52.0173 128.336,48.3506 129.5,44.5C 129.333,43.5 129.167,42.5 129,41.5C 126.982,39.6499 125.149,37.6499 123.5,35.5C 127.425,35.0024 131.425,35.0024 135.5,35.5C 136.043,35.44 136.376,35.1067 136.5,34.5C 134.604,33.5344 132.604,33.2011 130.5,33.5C 130.5,29.1667 130.5,24.8333 130.5,20.5 Z"/></g>
<g><path style="opacity:1" fill="#774e4b" d="M 130.5,20.5 C 130.5,24.8333 130.5,29.1667 130.5,33.5C 132.604,33.2011 134.604,33.5344 136.5,34.5C 136.376,35.1067 136.043,35.44 135.5,35.5C 133.735,34.5386 131.735,34.2053 129.5,34.5C 129.181,29.6367 129.514,24.97 130.5,20.5 Z"/></g>
<g><path style="opacity:1" fill="#f9f7f3" d="M 148.5,86.5 C 146.833,86.5 145.167,86.5 143.5,86.5C 138.88,81.7427 137.38,76.0761 139,69.5C 145.976,56.7256 156.476,52.5589 170.5,57C 176.777,59.8067 179.277,64.64 178,71.5C 171.462,82.8505 161.628,87.8505 148.5,86.5 Z"/></g>
<g><path style="opacity:1" fill="#22771d" d="M 197.5,58.5 C 198.822,58.33 199.989,58.6634 201,59.5C 201.667,64.8333 201.667,70.1667 201,75.5C 198.443,76.6457 197.11,75.6457 197,72.5C 196.283,67.7804 196.45,63.1138 197.5,58.5 Z"/></g>
<g><path style="opacity:1" fill="#2e7d27" d="M 160.5,59.5 C 163.188,60.0241 164.688,61.6908 165,64.5C 165.667,68.8333 165.667,73.1667 165,77.5C 162.81,80.2486 161.143,79.9153 160,76.5C 159.26,70.7821 159.427,65.1154 160.5,59.5 Z"/></g>
<g><path style="opacity:0.733" fill="#d0175c" d="M 584.5,65.5 C 585.833,66.1667 585.833,66.1667 584.5,65.5 Z"/></g>
<g><path style="opacity:1" fill="#311d21" d="M 242.5,65.5 C 243.117,65.6107 243.617,65.944 244,66.5C 244.498,69.8168 244.665,73.1501 244.5,76.5C 241.735,76.2024 239.235,75.2024 237,73.5C 236.506,75.1341 236.34,76.8008 236.5,78.5C 233.932,76.3312 233.932,73.9979 236.5,71.5C 238.487,73.5014 240.82,74.3348 243.5,74C 242.556,71.2809 242.223,68.4475 242.5,65.5 Z"/></g>
<g><path style="opacity:0.333" fill="#d0175c" d="M 623.5,76.5 C 624.363,75.537 625.03,75.537 625.5,76.5C 624.743,77.7733 624.077,77.7733 623.5,76.5 Z"/></g>
<g><path style="opacity:1" fill="#f0dac1" d="M 218.5,81.5 C 215.265,96.2355 206.265,105.069 191.5,108C 179.438,109.541 167.771,108.208 156.5,104C 150.718,100.22 146.384,95.2202 143.5,89C 143.833,88.5 144.167,88 144.5,87.5C 148.765,88.4386 153.098,88.7719 157.5,88.5C 162.964,87.4011 167.964,85.2345 172.5,82C 180.017,76.8131 182.183,69.9797 179,61.5C 174.759,56.3822 169.259,53.5489 162.5,53C 164.811,50.8363 167.478,49.8363 170.5,50C 173.804,53.8193 177.47,56.986 181.5,59.5C 181.336,56.8127 181.503,54.146 182,51.5C 184.251,53.3773 186.751,54.8773 189.5,56C 188.213,57.4095 187.046,58.9095 186,60.5C 183.989,70.6468 187.822,77.4802 197.5,81C 204.741,81.3983 211.741,81.565 218.5,81.5 Z"/></g>
<g><path style="opacity:1" fill="#7b0d37" d="M 141.5,86.5 C 141.833,86.5 142.167,86.5 142.5,86.5C 142.83,93.5316 142.497,100.532 141.5,107.5C 140.893,107.376 140.56,107.043 140.5,106.5C 141.491,100.021 141.824,93.3543 141.5,86.5 Z"/></g>
<g><path style="opacity:1" fill="#211e1b" d="M 193.5,83.5 C 196.135,86.4686 195.469,88.9686 191.5,91C 187.628,91.8912 183.962,91.3912 180.5,89.5C 175.956,94.6345 171.623,94.6345 167.5,89.5C 167.833,89.1667 168.167,88.8333 168.5,88.5C 169.337,90.5053 170.837,91.5053 173,91.5C 175.806,90.7589 178.473,89.7589 181,88.5C 184.471,89.4554 187.971,89.6221 191.5,89C 193.155,87.5557 193.822,85.7224 193.5,83.5 Z"/></g>
<g><path style="opacity:1" fill="#331f23" d="M 236.5,78.5 C 237.984,82.0543 238.651,85.8877 238.5,90C 238.167,92.5 237.833,95 237.5,97.5C 235.833,96.1667 234.167,94.8333 232.5,93.5C 230.244,98.4246 228.078,103.425 226,108.5C 224.841,109.566 224.008,109.233 223.5,107.5C 223.5,106.167 223.5,104.833 223.5,103.5C 224.268,104.263 224.768,105.263 225,106.5C 225.333,106.167 225.667,105.833 226,105.5C 227.26,100.708 229.094,96.2081 231.5,92C 233.417,92.0275 235.084,92.8608 236.5,94.5C 236.818,89.2478 236.818,83.9145 236.5,78.5 Z"/></g>
<g><path style="opacity:1" fill="#323232" d="M 149.5,209.5 C 149.5,208.5 149.5,207.5 149.5,206.5C 150.222,206.918 150.722,207.584 151,208.5C 153.57,202.123 155.737,195.623 157.5,189C 156.48,186.132 154.813,183.632 152.5,181.5C 154.817,179.684 156.984,177.684 159,175.5C 163.304,158.26 167.804,141.093 172.5,124C 169.574,122.493 167.574,120.159 166.5,117C 176.132,115.307 185.799,115.141 195.5,116.5C 193.5,118.833 191.5,121.167 189.5,123.5C 195.462,141.015 200.962,158.681 206,176.5C 207.803,177.313 209.303,178.48 210.5,180C 208.947,182.048 207.614,184.215 206.5,186.5C 210.506,198.528 212.839,210.862 213.5,223.5C 212.624,224.251 211.624,224.751 210.5,225C 192.833,225.667 175.167,225.667 157.5,225C 154.344,224.063 151.511,222.563 149,220.5C 148.74,217.423 149.24,214.423 150.5,211.5C 150.457,210.584 150.124,209.917 149.5,209.5 Z"/></g>
<g><path style="opacity:1" fill="#313131" d="M 199.5,121.5 C 204.638,134.774 211.138,147.441 219,159.5C 223.011,166.516 226.178,173.85 228.5,181.5C 227.778,181.082 227.278,180.416 227,179.5C 226.833,180 226.667,180.5 226.5,181C 227.753,184.835 228.587,188.668 229,192.5C 224.921,198.431 219.421,202.098 212.5,203.5C 211.993,197.799 210.66,192.299 208.5,187C 209.789,184.259 211.455,181.759 213.5,179.5C 211.971,177.812 210.137,176.479 208,175.5C 202.683,158.569 197.516,141.569 192.5,124.5C 192.637,122.893 193.304,121.559 194.5,120.5C 196.146,121.779 197.313,123.445 198,125.5C 198.21,123.942 198.71,122.609 199.5,121.5 Z"/></g>
<g><path style="opacity:1" fill="#323232" d="M 138.5,204.5 C 128.676,200.242 123.343,203.409 122.5,214C 122.464,216.63 122.964,219.13 124,221.5C 131.38,228.94 139.88,230.44 149.5,226C 150.252,225.329 150.586,224.496 150.5,223.5C 151.167,224.167 151.833,224.833 152.5,225.5C 151.426,226.885 150.093,228.051 148.5,229C 137.842,232.629 129.009,230.129 122,221.5C 119.752,215.655 120.085,209.988 123,204.5C 124.242,203.128 125.742,202.128 127.5,201.5C 128.167,195.681 128.833,190.014 129.5,184.5C 129.34,186.199 129.506,187.866 130,189.5C 130.848,186.44 131.848,183.44 133,180.5C 139.493,172.182 145.493,163.515 151,154.5C 154.414,148.003 158.081,141.67 162,135.5C 163.949,131.371 165.116,127.037 165.5,122.5C 168.488,122.155 169.821,123.488 169.5,126.5C 165.316,142.903 160.983,159.236 156.5,175.5C 154.209,177.123 152.209,178.957 150.5,181C 152.606,183.43 154.273,186.096 155.5,189C 154.444,194.231 152.778,199.231 150.5,204C 146.064,204.581 141.731,204.081 137.5,202.5C 136.833,202.667 136.167,202.833 135.5,203C 136.737,203.232 137.737,203.732 138.5,204.5 Z"/></g>
<g><path style="opacity:1" fill="#fefffe" d="M 662.5,133.5 C 663.5,133.5 664.5,133.5 665.5,133.5C 665.832,142.525 665.498,151.525 664.5,160.5C 663.019,161.48 661.685,162.647 660.5,164C 663.48,162.668 666.48,161.001 669.5,159C 681.658,155.545 693.324,156.878 704.5,163C 707.715,165.214 710.215,168.048 712,171.5C 712.833,189.509 712.666,207.509 711.5,225.5C 705.904,226.886 700.237,227.886 694.5,228.5C 694.667,212.163 694.5,195.83 694,179.5C 693.193,176.027 691.027,173.86 687.5,173C 681.078,171.699 675.078,172.699 669.5,176C 668.299,176.903 667.465,178.069 667,179.5C 665.548,194.762 665.048,210.095 665.5,225.5C 659.499,226.5 653.499,227.5 647.5,228.5C 647.167,198.159 647.5,167.826 648.5,137.5C 653.319,136.279 657.985,134.946 662.5,133.5 Z"/></g>
<g><path style="opacity:0.905" fill="#cf175c" d="M 731.5,133.5 C 732.5,133.5 733.5,133.5 734.5,133.5C 734.833,164.174 734.5,194.841 733.5,225.5C 730.916,226.393 728.249,226.726 725.5,226.5C 725.167,196.159 725.5,165.826 726.5,135.5C 728.336,134.972 730.003,134.306 731.5,133.5 Z"/></g>
<g><path style="opacity:1" fill="#c41b5b" d="M 749.5,134.5 C 751.812,136.146 753.812,138.146 755.5,140.5C 753.489,142.341 751.322,144.008 749,145.5C 747.005,143.671 745.172,141.671 743.5,139.5C 745.941,138.291 747.941,136.624 749.5,134.5 Z"/></g>
<g><path style="opacity:1" fill="#fefffe" d="M 496.5,153.5 C 506.396,152.648 515.73,154.482 524.5,159C 530.484,164.304 533.484,170.97 533.5,179C 532.523,194.464 532.19,209.964 532.5,225.5C 526.82,226.058 521.153,226.725 515.5,227.5C 515.446,224.033 516.946,221.366 520,219.5C 520.667,218.833 520.667,218.167 520,217.5C 512.448,226.24 502.948,229.406 491.5,227C 474.026,221.574 467.192,209.741 471,191.5C 475.903,181.28 484.07,175.78 495.5,175C 501.845,173.88 507.679,175.047 513,178.5C 513.63,176.097 512.797,174.263 510.5,173C 499.965,170.798 489.632,171.631 479.5,175.5C 479.167,174.667 478.833,173.833 478.5,173C 479.696,167.523 480.696,162.023 481.5,156.5C 486.647,155.604 491.647,154.604 496.5,153.5 Z M 495.5,191.5 C 500.777,190.931 505.777,191.765 510.5,194C 515.417,200.932 514.083,206.265 506.5,210C 497.203,212.685 490.87,209.518 487.5,200.5C 488.794,196.209 491.461,193.209 495.5,191.5 Z"/></g>
<g><path style="opacity:1" fill="#fefffe" d="M 556.5,154.5 C 557.5,154.5 558.5,154.5 559.5,154.5C 559.336,157.187 559.503,159.854 560,162.5C 567.703,156.375 576.536,153.708 586.5,154.5C 584.908,160.356 582.742,166.023 580,171.5C 572.796,172.102 566.796,175.102 562,180.5C 560.55,195.095 560.05,209.761 560.5,224.5C 554.148,225.392 547.815,226.392 541.5,227.5C 541.5,204.167 541.5,180.833 541.5,157.5C 546.684,156.807 551.684,155.807 556.5,154.5 Z"/></g>
<g><path style="opacity:1" fill="#fefffe" d="M 607.5,155.5 C 618.163,154.666 628.163,156.832 637.5,162C 639.976,163.309 641.976,165.142 643.5,167.5C 639.472,171.859 635.472,176.193 631.5,180.5C 621.061,171.614 610.561,171.614 600,180.5C 593.792,191.955 595.958,201.455 606.5,209C 616.107,212.545 624.607,210.711 632,203.5C 636.851,206.673 640.518,210.673 643,215.5C 635.867,223.98 626.7,227.98 615.5,227.5C 585.799,224.955 573.633,208.955 579,179.5C 583.478,165.521 592.978,157.521 607.5,155.5 Z"/></g>
<g><path style="opacity:0.899" fill="#cd185c" d="M 791.5,158.5 C 800.696,157.505 808.862,159.838 816,165.5C 817.586,167.67 818.92,170.004 820,172.5C 820.473,190.503 820.973,208.503 821.5,226.5C 818.545,227.159 815.545,227.492 812.5,227.5C 812.176,212.255 812.509,197.089 813.5,182C 811.696,172.7 806.029,167.866 796.5,167.5C 786.71,167.688 779.543,172.021 775,180.5C 774.833,195.511 774.333,210.511 773.5,225.5C 770.595,226.813 767.595,227.313 764.5,227C 764.902,205.242 764.902,183.409 764.5,161.5C 767.428,161.148 770.262,160.482 773,159.5C 773.333,163.167 773.667,166.833 774,170.5C 778.39,164.258 784.223,160.258 791.5,158.5 Z"/></g>
<g><path style="opacity:0.866" fill="#ce175c" d="M 751.5,159.5 C 753.489,181.475 754.156,203.808 753.5,226.5C 750.794,226.575 748.127,226.908 745.5,227.5C 745.167,205.823 745.5,184.156 746.5,162.5C 748.396,161.725 750.063,160.725 751.5,159.5 Z"/></g>
<g><path style="opacity:0.933" fill="#cc185c" d="M 835.5,160.5 C 837.167,160.5 838.833,160.5 840.5,160.5C 840.056,177.889 840.556,195.223 842,212.5C 844.998,218.001 849.665,220.668 856,220.5C 872.124,219.039 879.624,210.206 878.5,194C 877.674,183.516 877.341,173.016 877.5,162.5C 880.833,161.833 884.167,161.167 887.5,160.5C 887.667,182.503 887.5,204.503 887,226.5C 884.262,227.482 881.428,228.148 878.5,228.5C 878.665,224.818 878.499,221.152 878,217.5C 872.934,226.202 865.268,230.202 855,229.5C 844.142,229.911 836.476,225.244 832,215.5C 831.527,197.497 831.027,179.497 830.5,161.5C 832.415,161.784 834.081,161.451 835.5,160.5 Z"/></g>
<g><path style="opacity:0.999" fill="#c71a5b" d="M 900.5,160.5 C 907.469,168.308 914.302,176.308 921,184.5C 925.833,177.5 930.667,170.5 935.5,163.5C 939.736,162.57 942.236,164.237 943,168.5C 937.289,176.755 931.456,184.921 925.5,193C 933.33,202.999 940.664,213.332 947.5,224C 946.11,227.362 943.777,228.529 940.5,227.5C 934,218.5 927.5,209.5 921,200.5C 914.36,209.974 907.527,219.307 900.5,228.5C 898.578,227.289 896.745,225.956 895,224.5C 894.333,223.5 894.333,222.5 895,221.5C 902.028,211.972 908.861,202.305 915.5,192.5C 908.707,183.739 902.04,174.906 895.5,166C 897.351,164.317 899.017,162.484 900.5,160.5 Z"/></g>
<g><path style="opacity:1" fill="#f0dac1" d="M 230.5,192.5 C 240.621,193.98 245.288,199.98 244.5,210.5C 243.471,218.708 239.137,224.541 231.5,228C 228.833,228.667 226.167,228.667 223.5,228C 220.478,226.489 217.478,224.989 214.5,223.5C 214.456,217.788 214.289,212.121 214,206.5C 221.231,203.762 226.731,199.095 230.5,192.5 Z"/></g>
<g><path style="opacity:1" fill="#f2dcc2" d="M 138.5,204.5 C 142.042,205.675 145.709,206.341 149.5,206.5C 149.5,207.5 149.5,208.5 149.5,209.5C 148.478,212.881 147.145,216.214 145.5,219.5C 146.611,221.552 148.277,222.886 150.5,223.5C 150.586,224.496 150.252,225.329 149.5,226C 139.88,230.44 131.38,228.94 124,221.5C 122.964,219.13 122.464,216.63 122.5,214C 123.343,203.409 128.676,200.242 138.5,204.5 Z"/></g>
<g><path style="opacity:1" fill="#2e2c2a" d="M 233.5,190.5 C 242.657,193.616 246.99,200.116 246.5,210C 244.486,224.024 236.486,230.691 222.5,230C 219.671,228.644 217.004,227.144 214.5,225.5C 214.5,224.833 214.5,224.167 214.5,223.5C 217.478,224.989 220.478,226.489 223.5,228C 226.167,228.667 228.833,228.667 231.5,228C 239.137,224.541 243.471,218.708 244.5,210.5C 245.288,199.98 240.621,193.98 230.5,192.5C 231.5,191.833 232.5,191.167 233.5,190.5 Z"/></g>
<g><path style="opacity:1" fill="#0c0c0b" d="M 220.5,77.5 C 220.833,77.5 221.167,77.5 221.5,77.5C 220.878,80.4153 220.544,83.4153 220.5,86.5C 221.212,92.2422 222.212,97.9089 223.5,103.5C 223.5,104.833 223.5,106.167 223.5,107.5C 222.425,106.438 221.425,106.438 220.5,107.5C 218.812,112.226 216.145,116.226 212.5,119.5C 211.833,118.167 211.167,116.833 210.5,115.5C 209.352,117.149 208.019,118.649 206.5,120C 204.953,120.333 203.62,119.833 202.5,118.5C 201.145,119.188 200.145,120.188 199.5,121.5C 198.71,122.609 198.21,123.942 198,125.5C 197.313,123.445 196.146,121.779 194.5,120.5C 193.304,121.559 192.637,122.893 192.5,124.5C 197.516,141.569 202.683,158.569 208,175.5C 210.137,176.479 211.971,177.812 213.5,179.5C 211.455,181.759 209.789,184.259 208.5,187C 210.66,192.299 211.993,197.799 212.5,203.5C 219.421,202.098 224.921,198.431 229,192.5C 228.587,188.668 227.753,184.835 226.5,181C 226.667,180.5 226.833,180 227,179.5C 227.278,180.416 227.778,181.082 228.5,181.5C 229.031,184.237 229.864,186.904 231,189.5C 231.671,190.252 232.504,190.586 233.5,190.5C 232.5,191.167 231.5,191.833 230.5,192.5C 226.731,199.095 221.231,203.762 214,206.5C 214.289,212.121 214.456,217.788 214.5,223.5C 214.5,224.167 214.5,224.833 214.5,225.5C 209.664,226.141 204.831,226.808 200,227.5C 199.963,243.656 201.629,259.656 205,275.5C 211.975,277.241 219.142,278.741 226.5,280C 228.09,281.046 229.59,282.213 231,283.5C 231.667,284.5 231.667,285.5 231,286.5C 221.056,289.356 210.89,290.19 200.5,289C 195.922,287.975 191.588,286.475 187.5,284.5C 188.788,265.849 190.121,247.183 191.5,228.5C 183.684,227.508 175.684,227.174 167.5,227.5C 167.5,231.833 167.5,236.167 167.5,240.5C 167.017,255.228 166.183,269.895 165,284.5C 163.829,285.893 162.329,286.727 160.5,287C 155.789,287.793 151.122,288.793 146.5,290C 139.724,290.92 133.057,290.586 126.5,289C 125.483,287.951 125.316,286.784 126,285.5C 132.039,278.22 139.872,275.053 149.5,276C 151.049,274.786 152.215,273.286 153,271.5C 156.171,256.985 157.505,242.319 157,227.5C 155.67,226.418 154.17,225.751 152.5,225.5C 151.833,224.833 151.167,224.167 150.5,223.5C 148.277,222.886 146.611,221.552 145.5,219.5C 147.145,216.214 148.478,212.881 149.5,209.5C 150.124,209.917 150.457,210.584 150.5,211.5C 149.24,214.423 148.74,217.423 149,220.5C 151.511,222.563 154.344,224.063 157.5,225C 175.167,225.667 192.833,225.667 210.5,225C 211.624,224.751 212.624,224.251 213.5,223.5C 212.839,210.862 210.506,198.528 206.5,186.5C 207.614,184.215 208.947,182.048 210.5,180C 209.303,178.48 207.803,177.313 206,176.5C 200.962,158.681 195.462,141.015 189.5,123.5C 191.5,121.167 193.5,118.833 195.5,116.5C 185.799,115.141 176.132,115.307 166.5,117C 167.574,120.159 169.574,122.493 172.5,124C 167.804,141.093 163.304,158.26 159,175.5C 156.984,177.684 154.817,179.684 152.5,181.5C 154.813,183.632 156.48,186.132 157.5,189C 155.737,195.623 153.57,202.123 151,208.5C 150.722,207.584 150.222,206.918 149.5,206.5C 145.709,206.341 142.042,205.675 138.5,204.5C 137.737,203.732 136.737,203.232 135.5,203C 136.167,202.833 136.833,202.667 137.5,202.5C 141.731,204.081 146.064,204.581 150.5,204C 152.778,199.231 154.444,194.231 155.5,189C 154.273,186.096 152.606,183.43 150.5,181C 152.209,178.957 154.209,177.123 156.5,175.5C 160.983,159.236 165.316,142.903 169.5,126.5C 169.821,123.488 168.488,122.155 165.5,122.5C 165.116,127.037 163.949,131.371 162,135.5C 158.081,141.67 154.414,148.003 151,154.5C 145.493,163.515 139.493,172.182 133,180.5C 131.848,183.44 130.848,186.44 130,189.5C 129.506,187.866 129.34,186.199 129.5,184.5C 130.045,182.407 130.878,180.407 132,178.5C 135.147,175.532 137.814,172.198 140,168.5C 145.269,158.903 150.936,149.57 157,140.5C 159.257,136.317 161.257,131.984 163,127.5C 163.769,124.901 163.602,122.401 162.5,120C 160.893,119.885 159.393,120.385 158,121.5C 155.702,120.039 153.535,118.372 151.5,116.5C 150.614,117.325 150.281,118.325 150.5,119.5C 149.448,119.649 148.448,119.483 147.5,119C 145.268,116.265 142.601,114.098 139.5,112.5C 138.833,115.167 138.167,117.833 137.5,120.5C 134.578,118.233 132.911,115.233 132.5,111.5C 132.5,111.167 132.5,110.833 132.5,110.5C 134.062,108.628 135.062,106.295 135.5,103.5C 136.94,104.952 138.606,105.952 140.5,106.5C 140.56,107.043 140.893,107.376 141.5,107.5C 142.497,100.532 142.83,93.5316 142.5,86.5C 142.833,86.5 143.167,86.5 143.5,86.5C 145.167,86.5 146.833,86.5 148.5,86.5C 151.5,87.1667 154.5,87.8333 157.5,88.5C 153.098,88.7719 148.765,88.4386 144.5,87.5C 144.167,88 143.833,88.5 143.5,89C 146.384,95.2202 150.718,100.22 156.5,104C 167.771,108.208 179.438,109.541 191.5,108C 206.265,105.069 215.265,96.2355 218.5,81.5C 219.043,81.44 219.376,81.1067 219.5,80.5C 218.757,79.8182 218.091,79.1515 217.5,78.5C 218.391,77.8902 219.391,77.5569 220.5,77.5 Z"/></g>
<g><path style="opacity:1" fill="#98938c" d="M 184.5,111.5 C 186.048,111.821 186.715,112.821 186.5,114.5C 182.627,114.666 181.96,113.666 184.5,111.5 Z"/></g>
<g><path style="opacity:1" fill="#969695" d="M 191.5,228.5 C 183.833,228.5 176.167,228.5 168.5,228.5C 168.817,232.702 168.483,236.702 167.5,240.5C 167.5,236.167 167.5,231.833 167.5,227.5C 175.684,227.174 183.684,227.508 191.5,228.5 Z"/></g>
<g><path style="opacity:0.02" fill="#7a2a4c" d="M 367.5,258.5 C 368.833,259.167 368.833,259.167 367.5,258.5 Z"/></g>
<g><path style="opacity:0.008" fill="#7e2a4f" d="M 303.5,261.5 C 304.573,262.251 304.74,263.251 304,264.5C 303.517,263.552 303.351,262.552 303.5,261.5 Z"/></g>
</svg>
