<?xml version="1.0" encoding="UTF-8"?>
<!DOCTYPE svg PUBLIC "-//W3C//DTD SVG 1.1//EN" "http://www.w3.org/Graphics/SVG/1.1/DTD/svg11.dtd">
<svg xmlns="http://www.w3.org/2000/svg" version="1.1" width="1013px" height="304px" style="shape-rendering:geometricPrecision; text-rendering:geometricPrecision; image-rendering:optimizeQuality; fill-rule:evenodd; clip-rule:evenodd" xmlns:xlink="http://www.w3.org/1999/xlink">
<g><path style="opacity:0.878" fill="#060505" d="M 223.5,10.5 C 226.518,10.3354 229.518,10.502 232.5,11C 234.819,13.8031 236.485,16.9697 237.5,20.5C 240.386,20.7104 243.386,20.8771 246.5,21C 248.396,22.8083 248.896,24.975 248,27.5C 245.291,30.3777 242.458,33.0443 239.5,35.5C 241.333,38.5 243.167,41.5 245,44.5C 245.63,46.9034 244.797,48.7367 242.5,50C 240.915,50.0848 239.582,50.2514 238.5,50.5C 243.478,57.7924 246.811,65.7924 248.5,74.5C 247.395,78.8151 244.895,80.1485 241,78.5C 240.934,84.8368 240.934,91.1701 241,97.5C 239.053,100.986 236.72,101.319 234,98.5C 232.186,102.953 230.186,107.286 228,111.5C 225.724,114.064 223.724,113.73 222,110.5C 220.371,114.931 217.871,118.764 214.5,122C 210.153,122.002 205.82,122.335 201.5,123C 213.965,143.208 224.632,164.375 233.5,186.5C 246.081,192.664 250.914,202.664 248,216.5C 240.848,232.496 229.348,236.829 213.5,229.5C 209.868,230.246 206.202,230.579 202.5,230.5C 203.344,245.254 205.011,259.92 207.5,274.5C 216.13,273.879 224.13,275.712 231.5,280C 235.84,283.934 235.507,287.267 230.5,290C 228.616,290.216 226.949,290.883 225.5,292C 216.5,292.667 207.5,292.667 198.5,292C 193.649,290.603 189.149,288.436 185,285.5C 185.807,267.608 186.974,249.774 188.5,232C 182.509,231.501 176.509,231.334 170.5,231.5C 169.908,247.827 169.408,264.161 169,280.5C 168.681,283.973 167.181,286.806 164.5,289C 152.142,292.389 139.476,293.389 126.5,292C 124.773,290.611 123.439,288.944 122.5,287C 125.215,281.287 129.548,277.287 135.5,275C 139.848,274.427 144.181,273.76 148.5,273C 150.004,271.509 150.837,269.676 151,267.5C 153.189,254.903 154.189,242.236 154,229.5C 140.852,236.577 129.186,234.244 119,222.5C 115.379,212.996 117.546,205.162 125.5,199C 124.298,193.426 124.798,187.926 127,182.5C 135.966,167.603 145.3,152.937 155,138.5C 157.36,134.245 159.193,129.745 160.5,125C 160.333,124.5 160.167,124 160,123.5C 157.279,124.661 154.946,123.994 153,121.5C 148.555,122.804 144.888,121.471 142,117.5C 140.711,124.069 137.711,125.069 133,120.5C 130.06,114.954 127.394,109.287 125,103.5C 118.63,108.148 115.963,106.482 117,98.5C 119.11,93.9452 120.944,89.2785 122.5,84.5C 120.295,83.1293 118.628,81.296 117.5,79C 119.983,73.0324 122.983,67.3658 126.5,62C 122.816,62.2388 120.149,60.7388 118.5,57.5C 120.721,52.8901 123.054,48.3901 125.5,44C 122.13,40.965 119.13,37.6317 116.5,34C 118.503,31.3603 121.169,29.8603 124.5,29.5C 124.039,25.4931 124.539,21.4931 126,17.5C 126.785,15.714 127.951,14.214 129.5,13C 132.5,12.3333 135.5,12.3333 138.5,13C 146.079,15.6897 153.412,18.8564 160.5,22.5C 174.408,17.6375 188.408,17.3042 202.5,21.5C 209.052,16.8792 216.052,13.2125 223.5,10.5 Z"/></g>
<g><path style="opacity:1" fill="#6c0b2f" d="M 137.5,17.5 C 135.265,17.2053 133.265,17.5386 131.5,18.5C 130.957,18.44 130.624,18.1067 130.5,17.5C 132.973,16.2031 135.307,16.2031 137.5,17.5 Z"/></g>
<g><path style="opacity:1" fill="#cd165b" d="M 221.5,16.5 C 222.043,16.56 222.376,16.8933 222.5,17.5C 217.54,20.7923 213.207,24.7923 209.5,29.5C 215.952,35.5586 222.952,40.8919 230.5,45.5C 234.768,51.6774 238.601,58.3441 242,65.5C 243.149,68.3926 243.649,71.3926 243.5,74.5C 240.821,74.3274 238.487,73.3274 236.5,71.5C 235.89,78.3203 236.224,85.1536 237.5,92C 237.167,92.8333 236.833,93.6667 236.5,94.5C 235.167,93.5 233.833,92.5 232.5,91.5C 231.522,91.9767 230.689,92.6433 230,93.5C 228.716,98.0237 227.05,102.357 225,106.5C 221.116,97.0992 219.95,87.4325 221.5,77.5C 228.581,73.3204 230.415,67.3204 227,59.5C 220.209,51.6945 211.709,48.8612 201.5,51C 198.065,51.8845 194.732,53.0512 191.5,54.5C 187.39,53.279 183.723,51.279 180.5,48.5C 179.682,51.1071 179.182,53.7737 179,56.5C 176.654,52.8209 173.654,49.8209 170,47.5C 165.777,49.0268 161.944,51.1934 158.5,54C 143.305,55.8541 136.138,64.3541 137,79.5C 138.511,81.8616 140.011,84.1949 141.5,86.5C 141.824,93.3543 141.491,100.021 140.5,106.5C 138.606,105.952 136.94,104.952 135.5,103.5C 134.833,105.833 134.167,108.167 133.5,110.5C 131.595,106.283 129.595,102.116 127.5,98C 124.716,97.5828 122.716,98.7495 121.5,101.5C 121.167,101.167 120.833,100.833 120.5,100.5C 124.316,93.5437 126.983,86.2104 128.5,78.5C 126.833,78.5 125.167,78.5 123.5,78.5C 123.767,76.0347 124.434,73.7014 125.5,71.5C 130.265,61.8627 135.765,52.5294 142,43.5C 143.926,39.4829 145.426,35.3163 146.5,31C 145.73,28.9313 144.397,27.2647 142.5,26C 138.806,23.8218 135.139,21.6552 131.5,19.5C 131.5,19.1667 131.5,18.8333 131.5,18.5C 133.265,17.5386 135.265,17.2053 137.5,17.5C 144.396,20.4482 151.396,23.1149 158.5,25.5C 158.351,26.552 158.517,27.552 159,28.5C 162.232,26.4771 165.732,24.9771 169.5,24C 180.085,23.0451 190.585,23.5451 201,25.5C 207.631,22.2268 214.464,19.2268 221.5,16.5 Z"/></g>
<g><path style="opacity:1" fill="#df918b" d="M 231.5,44.5 C 225.735,40.5827 220.068,36.416 214.5,32C 213.426,31.2613 212.759,30.2613 212.5,29C 216.28,24.9422 220.28,21.1089 224.5,17.5C 225.8,16.8921 227.133,16.2255 228.5,15.5C 229.442,15.6082 230.275,15.9415 231,16.5C 231.934,19.1362 232.768,21.8029 233.5,24.5C 232.293,26.4486 230.627,27.9486 228.5,29C 233.389,27.5964 238.389,26.5964 243.5,26C 239.995,28.6752 236.661,31.5085 233.5,34.5C 235.252,37.672 237.252,40.672 239.5,43.5C 238.635,44.5827 237.635,44.7494 236.5,44C 234.088,40.9666 231.088,39.2999 227.5,39C 229.5,40.6667 231.5,42.3333 233.5,44C 232.906,44.4643 232.239,44.631 231.5,44.5 Z"/></g>
<g><path style="opacity:1" fill="#1e1213" d="M 129.5,20.5 C 129.842,19.6618 130.508,19.3284 131.5,19.5C 135.139,21.6552 138.806,23.8218 142.5,26C 144.397,27.2647 145.73,28.9313 146.5,31C 145.426,35.3163 143.926,39.4829 142,43.5C 135.765,52.5294 130.265,61.8627 125.5,71.5C 126.501,67.1391 127.834,62.8058 129.5,58.5C 129.36,56.9704 128.693,55.9704 127.5,55.5C 129.146,53.1878 131.146,51.1878 133.5,49.5C 133.833,49.8333 134.167,50.1667 134.5,50.5C 133.289,51.8745 132.289,53.3745 131.5,55C 131.611,56.7215 132.111,56.8882 133,55.5C 138.167,48.1651 142,40.1651 144.5,31.5C 144.471,29.9707 143.804,28.804 142.5,28C 138.304,25.7394 134.304,23.2394 130.5,20.5C 130.167,20.5 129.833,20.5 129.5,20.5 Z"/></g>
<g><path style="opacity:1" fill="#774e4b" d="M 129.5,20.5 C 129.833,20.5 130.167,20.5 130.5,20.5C 130.5,24.8333 130.5,29.1667 130.5,33.5C 132.604,33.2011 134.604,33.5344 136.5,34.5C 136.376,35.1067 136.043,35.44 135.5,35.5C 133.735,34.5386 131.735,34.2053 129.5,34.5C 129.5,29.8333 129.5,25.1667 129.5,20.5 Z"/></g>
<g><path style="opacity:1" fill="#e1928b" d="M 130.5,20.5 C 134.304,23.2394 138.304,25.7394 142.5,28C 143.804,28.804 144.471,29.9707 144.5,31.5C 142,40.1651 138.167,48.1651 133,55.5C 132.111,56.8882 131.611,56.7215 131.5,55C 132.289,53.3745 133.289,51.8745 134.5,50.5C 134.167,50.1667 133.833,49.8333 133.5,49.5C 131.146,51.1878 129.146,53.1878 127.5,55.5C 126.425,56.5624 125.425,56.5624 124.5,55.5C 127.493,51.2128 128.993,46.5462 129,41.5C 126.982,39.6499 125.149,37.6499 123.5,35.5C 127.425,35.0024 131.425,35.0024 135.5,35.5C 136.043,35.44 136.376,35.1067 136.5,34.5C 134.604,33.5344 132.604,33.2011 130.5,33.5C 130.5,29.1667 130.5,24.8333 130.5,20.5 Z"/></g>
<g><path style="opacity:0.925" fill="#d0175c" d="M 512.5,39.5 C 513.239,39.369 513.906,39.5357 514.5,40C 512.955,42.0851 512.622,44.2518 513.5,46.5C 512.248,48.0009 511.248,49.6675 510.5,51.5C 512.098,53.9734 513.598,53.9734 515,51.5C 514.367,53.3379 514.534,55.1712 515.5,57C 515.05,58.2853 514.383,59.452 513.5,60.5C 518.887,61.0295 524.221,60.3629 529.5,58.5C 532.547,53.7037 536.047,49.3704 540,45.5C 540.5,45.6667 541,45.8333 541.5,46C 538.991,48.8432 537.491,52.0099 537,55.5C 538,51.8333 539.667,51.5 542,54.5C 542.333,54.1667 542.667,53.8333 543,53.5C 543.684,54.7839 543.517,55.9505 542.5,57C 553.572,55.861 564.572,56.5277 575.5,59C 574.833,59.3333 574.167,59.6667 573.5,60C 581.096,60.9913 580.762,62.158 572.5,63.5C 576.061,64.7607 579.728,65.594 583.5,66C 581.608,66.9734 579.608,67.6401 577.5,68C 565.027,69.0954 552.86,70.5954 541,72.5C 539.389,74.2096 537.889,76.0429 536.5,78C 540.626,77.6412 544.626,77.4745 548.5,77.5C 553.86,78.17 559.193,79.0033 564.5,80C 565.451,80.7175 565.617,81.5509 565,82.5C 561.659,84.039 558.159,85.2057 554.5,86C 556.936,85.9466 559.269,86.1133 561.5,86.5C 558.749,87.5002 556.082,88.6668 553.5,90C 547.186,90.6143 541.02,91.781 535,93.5C 532.758,92.8253 530.591,93.3253 528.5,95C 526.874,97.6277 524.874,99.961 522.5,102C 523.126,102.75 523.626,103.584 524,104.5C 533.613,101.649 543.446,100.482 553.5,101C 553.833,101.333 554.167,101.667 554.5,102C 553.167,102.333 551.833,102.667 550.5,103C 554.17,103.548 557.837,104.048 561.5,104.5C 561.744,99.9328 562.91,95.5994 565,91.5C 570.697,82.9014 577.197,75.0681 584.5,68C 595.398,60.4847 607.065,56.6514 619.5,56.5C 623.258,51.406 627.925,47.406 633.5,44.5C 634.521,45.0016 634.688,45.6683 634,46.5C 632.5,48 631,49.5 629.5,51C 630.433,53.8475 631.933,54.0142 634,51.5C 634.239,55.6738 632.739,59.1738 629.5,62C 629.957,62.414 630.291,62.914 630.5,63.5C 629.5,64.1667 628.5,64.8333 627.5,65.5C 627.833,65.8333 628.167,66.1667 628.5,66.5C 642.075,58.7071 656.742,55.5405 672.5,57C 683.054,58.7167 688.387,64.8834 688.5,75.5C 685.025,92.7638 676.191,106.764 662,117.5C 661.667,117.167 661.333,116.833 661,116.5C 657.914,120.257 654.248,123.257 650,125.5C 645.603,126.037 640.769,126.037 635.5,125.5C 631.833,123.667 628.167,121.833 624.5,120C 622.628,117.094 620.628,114.26 618.5,111.5C 606.384,121.067 592.717,126.401 577.5,127.5C 571.83,126.905 566.997,124.239 563,119.5C 562.023,117.26 561.523,114.927 561.5,112.5C 553.085,113.059 544.752,114.226 536.5,116C 528.516,117.998 520.516,119.998 512.5,122C 509.553,124.736 506.719,127.57 504,130.5C 502.992,130.018 501.825,129.852 500.5,130C 501.451,129.282 501.617,128.449 501,127.5C 499,130.167 497,132.833 495,135.5C 494.957,131.63 496.123,128.13 498.5,125C 497.069,124.535 495.903,123.701 495,122.5C 493.23,123.276 491.397,123.11 489.5,122C 488.185,120.605 488.519,119.605 490.5,119C 487.709,119.227 484.876,119.727 482,120.5C 479.019,120.919 476.686,119.919 475,117.5C 474.586,117.957 474.086,118.291 473.5,118.5C 469.694,107.786 468.194,96.7857 469,85.5C 460.878,101.599 452.211,117.265 443,132.5C 442.667,132.833 442.333,133.167 442,133.5C 441.577,132.044 440.744,131.544 439.5,132C 437.542,134.748 435.709,137.582 434,140.5C 434,138.5 434,136.5 434,134.5C 431,138.167 428,141.833 425,145.5C 425.686,140.088 427.02,134.755 429,129.5C 435.59,115.984 441.924,102.317 448,88.5C 453.352,80.4619 458.185,72.1285 462.5,63.5C 466.27,61.1972 469.77,58.5306 473,55.5C 473.284,57.8856 474.284,58.5523 476,57.5C 478.185,58.9284 480.185,60.5951 482,62.5C 481.961,68.5401 482.461,74.7068 483.5,81C 482.198,82.9233 482.365,84.7566 484,86.5C 492.105,69.9156 501.605,54.2489 512.5,39.5 Z M 521.5,69.5 C 522.239,69.369 522.906,69.5357 523.5,70C 521.248,73.1676 519.248,76.5009 517.5,80C 513.226,80.8843 509.059,82.051 505,83.5C 504.667,83.1667 504.333,82.8333 504,82.5C 505.867,79.6334 507.7,76.4667 509.5,73C 509.167,72.6667 508.833,72.3333 508.5,72C 513.076,71.7285 517.409,70.8951 521.5,69.5 Z M 664.5,69.5 C 668.826,68.8289 671.826,70.4955 673.5,74.5C 668.259,90.5099 658.592,102.01 644.5,109C 639.314,110.404 636.648,108.404 636.5,103C 641.574,89.9236 650.24,79.9236 662.5,73C 661.952,71.4039 662.618,70.2373 664.5,69.5 Z M 640.5,71.5 C 632.15,78.3699 625.817,86.8699 621.5,97C 611.373,102.726 600.706,107.393 589.5,111C 586.5,111.667 583.5,111.667 580.5,111C 579.707,109.915 579.04,108.748 578.5,107.5C 579.122,101.497 581.289,95.8304 585,90.5C 591.476,84.5262 598.643,79.5262 606.5,75.5C 607.292,77.4648 607.959,79.4648 608.5,81.5C 609.376,82.2508 610.376,82.7508 611.5,83C 610.304,83.6543 610.304,84.1543 611.5,84.5C 616.217,82.8151 620.217,80.1484 623.5,76.5C 624.035,74.5544 625.368,73.5544 627.5,73.5C 627.811,74.4778 628.478,75.1445 629.5,75.5C 633.177,74.0044 636.844,72.671 640.5,71.5 Z M 496.5,97.5 C 498.511,93.6431 500.511,90.3098 502.5,87.5C 504.815,87.7991 504.815,88.6325 502.5,90C 502.957,90.414 503.291,90.914 503.5,91.5C 502.335,92.5836 501.002,93.4169 499.5,94C 500,94.5 500.5,95 501,95.5C 503.884,94.7969 507.051,94.6302 510.5,95C 507.079,99.9124 504.412,105.246 502.5,111C 498.07,113.656 493.404,114.489 488.5,113.5C 491.707,108.419 494.374,103.086 496.5,97.5 Z"/></g>
<g><path style="opacity:1" fill="#251415" d="M 221.5,16.5 C 221.56,15.9569 221.893,15.6236 222.5,15.5C 223.182,16.2427 223.849,16.9094 224.5,17.5C 220.28,21.1089 216.28,24.9422 212.5,29C 212.759,30.2613 213.426,31.2613 214.5,32C 220.068,36.416 225.735,40.5827 231.5,44.5C 230.833,44.5 230.5,44.8333 230.5,45.5C 222.952,40.8919 215.952,35.5586 209.5,29.5C 213.207,24.7923 217.54,20.7923 222.5,17.5C 222.376,16.8933 222.043,16.56 221.5,16.5 Z"/></g>
<g><path style="opacity:1" fill="#261f1f" d="M 221.5,77.5 C 221.167,77.5 220.833,77.5 220.5,77.5C 230.173,68.9931 229.506,61.1598 218.5,54C 206.454,49.1307 196.288,51.6307 188,61.5C 186.347,67.3782 187.847,72.2115 192.5,76C 195.815,77.8298 199.149,79.3298 202.5,80.5C 202.5,80.8333 202.5,81.1667 202.5,81.5C 189.726,80.2251 184.226,73.2251 186,60.5C 187.046,58.9095 188.213,57.4095 189.5,56C 186.751,54.8773 184.251,53.3773 182,51.5C 181.503,54.146 181.336,56.8127 181.5,59.5C 177.47,56.986 173.804,53.8193 170.5,50C 167.478,49.8363 164.811,50.8363 162.5,53C 169.259,53.5489 174.759,56.3822 179,61.5C 182.183,69.9797 180.017,76.8131 172.5,82C 167.964,85.2345 162.964,87.4011 157.5,88.5C 154.5,87.8333 151.5,87.1667 148.5,86.5C 161.628,87.8505 171.462,82.8505 178,71.5C 179.277,64.64 176.777,59.8067 170.5,57C 156.476,52.5589 145.976,56.7256 139,69.5C 137.38,76.0761 138.88,81.7427 143.5,86.5C 143.167,86.5 142.833,86.5 142.5,86.5C 142.167,86.5 141.833,86.5 141.5,86.5C 140.011,84.1949 138.511,81.8616 137,79.5C 136.138,64.3541 143.305,55.8541 158.5,54C 161.944,51.1934 165.777,49.0268 170,47.5C 173.654,49.8209 176.654,52.8209 179,56.5C 179.182,53.7737 179.682,51.1071 180.5,48.5C 183.723,51.279 187.39,53.279 191.5,54.5C 194.732,53.0512 198.065,51.8845 201.5,51C 211.709,48.8612 220.209,51.6945 227,59.5C 230.415,67.3204 228.581,73.3204 221.5,77.5 Z"/></g>
<g><path style="opacity:0.999" fill="#cf175c" d="M 373.5,47.5 C 374.5,47.5 375.5,47.5 376.5,47.5C 385.49,70.4844 395.323,93.1511 406,115.5C 421.167,144.5 436.333,173.5 451.5,202.5C 451.167,202.833 450.833,203.167 450.5,203.5C 445.165,200.153 439.498,197.987 433.5,197C 442.63,202.651 451.13,209.151 459,216.5C 464.754,226.339 470.254,236.339 475.5,246.5C 475,246.833 474.5,247.167 474,247.5C 461.085,240.292 447.918,233.458 434.5,227C 422.537,221.735 410.204,217.568 397.5,214.5C 398.476,202.568 396.976,190.901 393,179.5C 381.703,159.909 370.036,159.575 358,178.5C 353.584,190.243 352.417,202.077 354.5,214C 326.727,221.054 300.727,232.22 276.5,247.5C 276.167,247 275.833,246.5 275.5,246C 290.532,218.103 305.699,190.269 321,162.5C 330.027,145.779 338.527,128.779 346.5,111.5C 347.365,110.417 348.365,110.251 349.5,111C 354.529,115.672 360.195,119.005 366.5,121C 360.313,116.313 354.98,110.813 350.5,104.5C 358.762,85.7097 366.428,66.7097 373.5,47.5 Z"/></g>
<g><path style="opacity:1" fill="#f3f2ed" d="M 220.5,77.5 C 214.747,79.7829 208.747,80.7829 202.5,80.5C 199.149,79.3298 195.815,77.8298 192.5,76C 187.847,72.2115 186.347,67.3782 188,61.5C 196.288,51.6307 206.454,49.1307 218.5,54C 229.506,61.1598 230.173,68.9931 220.5,77.5 Z"/></g>
<g><path style="opacity:1" fill="#f9f7f3" d="M 148.5,86.5 C 146.833,86.5 145.167,86.5 143.5,86.5C 138.88,81.7427 137.38,76.0761 139,69.5C 145.976,56.7256 156.476,52.5589 170.5,57C 176.777,59.8067 179.277,64.64 178,71.5C 171.462,82.8505 161.628,87.8505 148.5,86.5 Z"/></g>
<g><path style="opacity:1" fill="#22771d" d="M 197.5,58.5 C 198.822,58.33 199.989,58.6634 201,59.5C 201.667,64.8333 201.667,70.1667 201,75.5C 198.443,76.6457 197.11,75.6457 197,72.5C 196.283,67.7804 196.45,63.1138 197.5,58.5 Z"/></g>
<g><path style="opacity:1" fill="#2e7d27" d="M 160.5,59.5 C 163.188,60.0241 164.688,61.6908 165,64.5C 165.667,68.8333 165.667,73.1667 165,77.5C 162.81,80.2486 161.143,79.9153 160,76.5C 159.26,70.7821 159.427,65.1154 160.5,59.5 Z"/></g>
<g><path style="opacity:0.733" fill="#d0175c" d="M 584.5,65.5 C 585.833,66.1667 585.833,66.1667 584.5,65.5 Z"/></g>
<g><path style="opacity:0.333" fill="#d0175c" d="M 623.5,76.5 C 624.363,75.537 625.03,75.537 625.5,76.5C 624.743,77.7733 624.077,77.7733 623.5,76.5 Z"/></g>
<g><path style="opacity:1" fill="#efdac0" d="M 202.5,81.5 C 207.565,81.781 212.565,81.4476 217.5,80.5C 218.631,82.0745 218.798,83.7412 218,85.5C 209.713,104.403 195.213,112.236 174.5,109C 160.194,108.34 149.86,101.673 143.5,89C 143.833,88.5 144.167,88 144.5,87.5C 148.765,88.4386 153.098,88.7719 157.5,88.5C 162.964,87.4011 167.964,85.2345 172.5,82C 180.017,76.8131 182.183,69.9797 179,61.5C 174.759,56.3822 169.259,53.5489 162.5,53C 164.811,50.8363 167.478,49.8363 170.5,50C 173.804,53.8193 177.47,56.986 181.5,59.5C 181.336,56.8127 181.503,54.146 182,51.5C 184.251,53.3773 186.751,54.8773 189.5,56C 188.213,57.4095 187.046,58.9095 186,60.5C 184.226,73.2251 189.726,80.2251 202.5,81.5 Z"/></g>
<g><path style="opacity:1" fill="#7b0d37" d="M 141.5,86.5 C 141.833,86.5 142.167,86.5 142.5,86.5C 142.83,93.5316 142.497,100.532 141.5,107.5C 140.893,107.376 140.56,107.043 140.5,106.5C 141.491,100.021 141.824,93.3543 141.5,86.5 Z"/></g>
<g><path style="opacity:1" fill="#211e1b" d="M 193.5,83.5 C 196.135,86.4686 195.469,88.9686 191.5,91C 187.628,91.8912 183.962,91.3912 180.5,89.5C 175.956,94.6345 171.623,94.6345 167.5,89.5C 167.833,89.1667 168.167,88.8333 168.5,88.5C 169.337,90.5053 170.837,91.5053 173,91.5C 175.806,90.7589 178.473,89.7589 181,88.5C 184.471,89.4554 187.971,89.6221 191.5,89C 193.155,87.5557 193.822,85.7224 193.5,83.5 Z"/></g>
<g><path style="opacity:1" fill="#98938c" d="M 184.5,111.5 C 186.048,111.821 186.715,112.821 186.5,114.5C 182.627,114.666 181.96,113.666 184.5,111.5 Z"/></g>
<g><path style="opacity:1" fill="#323232" d="M 149.5,209.5 C 149.5,208.5 149.5,207.5 149.5,206.5C 150.222,206.918 150.722,207.584 151,208.5C 153.57,202.123 155.737,195.623 157.5,189C 156.48,186.132 154.813,183.632 152.5,181.5C 154.817,179.684 156.984,177.684 159,175.5C 163.304,158.26 167.804,141.093 172.5,124C 169.574,122.493 167.574,120.159 166.5,117C 176.132,115.307 185.799,115.141 195.5,116.5C 193.5,118.833 191.5,121.167 189.5,123.5C 195.462,141.015 200.962,158.681 206,176.5C 207.803,177.313 209.303,178.48 210.5,180C 208.947,182.048 207.614,184.215 206.5,186.5C 210.506,198.528 212.839,210.862 213.5,223.5C 212.624,224.251 211.624,224.751 210.5,225C 192.833,225.667 175.167,225.667 157.5,225C 154.302,224.152 151.469,222.652 149,220.5C 148.74,217.423 149.24,214.423 150.5,211.5C 150.457,210.584 150.124,209.917 149.5,209.5 Z"/></g>
<g><path style="opacity:1" fill="#323232" d="M 193.5,120.5 C 194.496,120.414 195.329,120.748 196,121.5C 204.971,138.103 213.971,154.77 223,171.5C 225.468,177.738 227.635,184.071 229.5,190.5C 225.847,197.489 220.18,201.823 212.5,203.5C 211.993,197.799 210.66,192.299 208.5,187C 209.789,184.259 211.455,181.759 213.5,179.5C 211.971,177.812 210.137,176.479 208,175.5C 202.849,159.236 197.849,142.902 193,126.5C 192.51,124.455 192.677,122.455 193.5,120.5 Z"/></g>
<g><path style="opacity:1" fill="#323232" d="M 138.5,204.5 C 136.102,204.741 134.102,204.074 132.5,202.5C 133.239,202.631 133.906,202.464 134.5,202C 133.109,200.98 131.609,200.147 130,199.5C 129.339,194.442 129.672,189.442 131,184.5C 140.333,169.833 149.667,155.167 159,140.5C 162.463,134.943 164.629,128.943 165.5,122.5C 168.488,122.155 169.821,123.488 169.5,126.5C 165.316,142.903 160.983,159.236 156.5,175.5C 154.209,177.123 152.209,178.957 150.5,181C 152.606,183.43 154.273,186.096 155.5,189C 154.444,194.231 152.778,199.231 150.5,204C 146.064,204.581 141.731,204.081 137.5,202.5C 136.833,202.667 136.167,202.833 135.5,203C 136.737,203.232 137.737,203.732 138.5,204.5 Z"/></g>
<g><path style="opacity:1" fill="#323332" d="M 662.5,133.5 C 663.5,133.5 664.5,133.5 665.5,133.5C 665.832,142.525 665.498,151.525 664.5,160.5C 663.019,161.48 661.685,162.647 660.5,164C 663.48,162.668 666.48,161.001 669.5,159C 681.658,155.545 693.324,156.878 704.5,163C 707.715,165.214 710.215,168.048 712,171.5C 712.833,189.509 712.666,207.509 711.5,225.5C 705.904,226.886 700.237,227.886 694.5,228.5C 694.667,212.163 694.5,195.83 694,179.5C 693.193,176.027 691.027,173.86 687.5,173C 681.078,171.699 675.078,172.699 669.5,176C 668.299,176.903 667.465,178.069 667,179.5C 665.548,194.762 665.048,210.095 665.5,225.5C 659.499,226.5 653.499,227.5 647.5,228.5C 647.167,198.159 647.5,167.826 648.5,137.5C 653.319,136.279 657.985,134.946 662.5,133.5 Z"/></g>
<g><path style="opacity:0.905" fill="#cf175c" d="M 731.5,133.5 C 732.5,133.5 733.5,133.5 734.5,133.5C 734.833,164.174 734.5,194.841 733.5,225.5C 730.916,226.393 728.249,226.726 725.5,226.5C 725.167,196.159 725.5,165.826 726.5,135.5C 728.336,134.972 730.003,134.306 731.5,133.5 Z"/></g>
<g><path style="opacity:1" fill="#c41b5b" d="M 749.5,134.5 C 751.812,136.146 753.812,138.146 755.5,140.5C 753.489,142.341 751.322,144.008 749,145.5C 747.005,143.671 745.172,141.671 743.5,139.5C 745.941,138.291 747.941,136.624 749.5,134.5 Z"/></g>
<g><path style="opacity:1" fill="#323332" d="M 496.5,153.5 C 506.396,152.648 515.73,154.482 524.5,159C 530.484,164.304 533.484,170.97 533.5,179C 532.523,194.464 532.19,209.964 532.5,225.5C 526.82,226.058 521.153,226.725 515.5,227.5C 515.446,224.033 516.946,221.366 520,219.5C 520.667,218.833 520.667,218.167 520,217.5C 512.448,226.24 502.948,229.406 491.5,227C 474.026,221.574 467.192,209.741 471,191.5C 475.903,181.28 484.07,175.78 495.5,175C 501.845,173.88 507.679,175.047 513,178.5C 513.63,176.097 512.797,174.263 510.5,173C 499.965,170.798 489.632,171.631 479.5,175.5C 479.167,174.667 478.833,173.833 478.5,173C 479.696,167.523 480.696,162.023 481.5,156.5C 486.647,155.604 491.647,154.604 496.5,153.5 Z M 495.5,191.5 C 500.777,190.931 505.777,191.765 510.5,194C 515.417,200.932 514.083,206.265 506.5,210C 497.203,212.685 490.87,209.518 487.5,200.5C 488.794,196.209 491.461,193.209 495.5,191.5 Z"/></g>
<g><path style="opacity:1" fill="#323332" d="M 556.5,154.5 C 557.5,154.5 558.5,154.5 559.5,154.5C 559.336,157.187 559.503,159.854 560,162.5C 567.703,156.375 576.536,153.708 586.5,154.5C 584.908,160.356 582.742,166.023 580,171.5C 572.796,172.102 566.796,175.102 562,180.5C 560.55,195.095 560.05,209.761 560.5,224.5C 554.148,225.392 547.815,226.392 541.5,227.5C 541.5,204.167 541.5,180.833 541.5,157.5C 546.684,156.807 551.684,155.807 556.5,154.5 Z"/></g>
<g><path style="opacity:1" fill="#323332" d="M 607.5,155.5 C 618.163,154.666 628.163,156.832 637.5,162C 639.976,163.309 641.976,165.142 643.5,167.5C 639.472,171.859 635.472,176.193 631.5,180.5C 621.061,171.614 610.561,171.614 600,180.5C 593.792,191.955 595.958,201.455 606.5,209C 616.107,212.545 624.607,210.711 632,203.5C 636.851,206.673 640.518,210.673 643,215.5C 635.867,223.98 626.7,227.98 615.5,227.5C 585.799,224.955 573.633,208.955 579,179.5C 583.478,165.521 592.978,157.521 607.5,155.5 Z"/></g>
<g><path style="opacity:0.899" fill="#cd185c" d="M 791.5,158.5 C 800.696,157.505 808.862,159.838 816,165.5C 817.586,167.67 818.92,170.004 820,172.5C 820.473,190.503 820.973,208.503 821.5,226.5C 818.545,227.159 815.545,227.492 812.5,227.5C 812.176,212.255 812.509,197.089 813.5,182C 811.696,172.7 806.029,167.866 796.5,167.5C 786.71,167.688 779.543,172.021 775,180.5C 774.833,195.511 774.333,210.511 773.5,225.5C 770.595,226.813 767.595,227.313 764.5,227C 764.902,205.242 764.902,183.409 764.5,161.5C 767.428,161.148 770.262,160.482 773,159.5C 773.333,163.167 773.667,166.833 774,170.5C 778.39,164.258 784.223,160.258 791.5,158.5 Z"/></g>
<g><path style="opacity:0.866" fill="#ce175c" d="M 751.5,159.5 C 753.489,181.475 754.156,203.808 753.5,226.5C 750.794,226.575 748.127,226.908 745.5,227.5C 745.167,205.823 745.5,184.156 746.5,162.5C 748.396,161.725 750.063,160.725 751.5,159.5 Z"/></g>
<g><path style="opacity:0.933" fill="#cc185c" d="M 835.5,160.5 C 837.167,160.5 838.833,160.5 840.5,160.5C 840.056,177.889 840.556,195.223 842,212.5C 844.998,218.001 849.665,220.668 856,220.5C 872.124,219.039 879.624,210.206 878.5,194C 877.674,183.516 877.341,173.016 877.5,162.5C 880.833,161.833 884.167,161.167 887.5,160.5C 887.667,182.503 887.5,204.503 887,226.5C 884.262,227.482 881.428,228.148 878.5,228.5C 878.665,224.818 878.499,221.152 878,217.5C 872.934,226.202 865.268,230.202 855,229.5C 844.142,229.911 836.476,225.244 832,215.5C 831.527,197.497 831.027,179.497 830.5,161.5C 832.415,161.784 834.081,161.451 835.5,160.5 Z"/></g>
<g><path style="opacity:0.999" fill="#c71a5b" d="M 900.5,160.5 C 907.469,168.308 914.302,176.308 921,184.5C 925.833,177.5 930.667,170.5 935.5,163.5C 939.736,162.57 942.236,164.237 943,168.5C 937.289,176.755 931.456,184.921 925.5,193C 933.33,202.999 940.664,213.332 947.5,224C 946.11,227.362 943.777,228.529 940.5,227.5C 934,218.5 927.5,209.5 921,200.5C 914.36,209.974 907.527,219.307 900.5,228.5C 898.578,227.289 896.745,225.956 895,224.5C 894.333,223.5 894.333,222.5 895,221.5C 902.028,211.972 908.861,202.305 915.5,192.5C 908.707,183.739 902.04,174.906 895.5,166C 897.351,164.317 899.017,162.484 900.5,160.5 Z"/></g>
<g><path style="opacity:1" fill="#f0dac0" d="M 230.5,192.5 C 237.935,193.098 242.435,197.098 244,204.5C 246.038,215.589 241.872,223.422 231.5,228C 225.279,229.553 219.945,228.053 215.5,223.5C 214.732,218.507 214.065,213.507 213.5,208.5C 213.608,207.558 213.941,206.725 214.5,206C 221.561,203.43 226.895,198.93 230.5,192.5 Z"/></g>
<g><path style="opacity:1" fill="#f0dac1" d="M 132.5,202.5 C 134.102,204.074 136.102,204.741 138.5,204.5C 142.042,205.675 145.709,206.341 149.5,206.5C 149.5,207.5 149.5,208.5 149.5,209.5C 148.478,212.881 147.145,216.214 145.5,219.5C 146.528,221.361 148.028,222.695 150,223.5C 150.667,224.167 150.667,224.833 150,225.5C 140.278,231.407 131.611,230.074 124,221.5C 120.299,212.761 122.466,206.094 130.5,201.5C 131.183,201.863 131.85,202.196 132.5,202.5 Z"/></g>
<g><path style="opacity:0.02" fill="#7a2a4c" d="M 367.5,258.5 C 368.833,259.167 368.833,259.167 367.5,258.5 Z"/></g>
<g><path style="opacity:0.008" fill="#7e2a4f" d="M 303.5,261.5 C 304.573,262.251 304.74,263.251 304,264.5C 303.517,263.552 303.351,262.552 303.5,261.5 Z"/></g>
</svg>
