<?xml version="1.0" encoding="UTF-8"?>
<!DOCTYPE svg PUBLIC "-//W3C//DTD SVG 1.1//EN" "http://www.w3.org/Graphics/SVG/1.1/DTD/svg11.dtd">
<svg xmlns="http://www.w3.org/2000/svg" version="1.1" width="256px" height="256px" style="shape-rendering:geometricPrecision; text-rendering:geometricPrecision; image-rendering:optimizeQuality; fill-rule:evenodd; clip-rule:evenodd" xmlns:xlink="http://www.w3.org/1999/xlink">
<g><path style="opacity:0.954" fill="#000000" d="M 212.5,32.5 C 216.106,32.2108 219.606,32.5442 223,33.5C 225.311,40.7455 227.311,48.0789 229,55.5C 235.27,52.9733 241.77,51.8067 248.5,52C 249.576,53.7261 249.743,55.5594 249,57.5C 242.956,63.0493 236.789,68.3826 230.5,73.5C 233.751,79.0044 237.251,84.3378 241,89.5C 241.667,91.5 241.667,93.5 241,95.5C 236.807,96.5611 232.807,95.8944 229,93.5C 228.009,94.4296 227.509,95.5962 227.5,97C 233.129,107.758 238.629,118.592 244,129.5C 247.048,136.892 248.381,144.559 248,152.5C 247.044,153.894 245.711,154.561 244,154.5C 240.004,153.253 236.17,151.586 232.5,149.5C 232.167,150 231.833,150.5 231.5,151C 234.469,164.331 235.636,177.831 235,191.5C 233.274,192.576 231.441,192.743 229.5,192C 227.667,190.167 225.833,188.333 224,186.5C 220.753,196.575 216.92,206.409 212.5,216C 205.468,217.137 202.802,214.304 204.5,207.5C 200.859,196.796 198.693,185.796 198,174.5C 186.689,203.96 165.189,219.293 133.5,220.5C 125.853,219.768 118.187,219.268 110.5,219C 85.1921,218.307 65.6921,207.473 52,186.5C 52.1653,194.137 52.6653,201.804 53.5,209.5C 53.709,216.029 50.709,218.195 44.5,216C 42.3586,214.692 40.3586,213.192 38.5,211.5C 37.6764,214.785 37.1764,218.118 37,221.5C 34.5991,222.602 32.0991,222.769 29.5,222C 25.6703,213.851 21.837,205.684 18,197.5C 15.8333,199.667 13.6667,201.833 11.5,204C 9.55942,204.743 7.72609,204.576 6,203.5C 5.33333,201.167 5.33333,198.833 6,196.5C 11.8721,185.426 16.0388,173.76 18.5,161.5C 15.4816,161.665 12.4816,161.498 9.5,161C 8.40857,158.936 8.2419,156.769 9,154.5C 15.037,142.595 20.8704,130.761 26.5,119C 25.7734,117.601 25.2734,116.101 25,114.5C 21.2568,118.269 16.9235,119.269 12,117.5C 11.4163,114.743 11.7496,112.077 13,109.5C 17.033,104.267 19.8664,98.4335 21.5,92C 19.2005,86.6845 15.7005,82.1845 11,78.5C 9.36946,76.0446 9.20279,73.5446 10.5,71C 14.1516,70.5014 17.8183,70.3347 21.5,70.5C 22.084,59.4909 22.9174,48.4909 24,37.5C 32.2277,34.9681 40.3943,35.4681 48.5,39C 60.9195,43.7118 72.9195,49.2118 84.5,55.5C 92.2531,52.3952 100.253,50.2285 108.5,49C 122.167,48.3333 135.833,48.3333 149.5,49C 154.616,50.3717 159.783,51.5384 165,52.5C 174.78,46.693 184.946,41.5263 195.5,37C 198.213,35.7247 201.047,34.8914 204,34.5C 206.034,34.3536 207.701,35.0203 209,36.5C 209.69,34.6498 210.856,33.3164 212.5,32.5 Z"/></g>
<g><path style="opacity:1" fill="#e1928c" d="M 214.5,35.5 C 216.5,35.5 218.5,35.5 220.5,35.5C 222.159,42.1485 223.826,48.8151 225.5,55.5C 225.167,56.1667 224.833,56.8333 224.5,57.5C 221.382,58.5587 218.382,59.8921 215.5,61.5C 214.289,62.2739 214.289,63.1072 215.5,64C 220.982,62.6004 226.316,60.6004 231.5,58C 236.474,56.5028 241.474,55.5028 246.5,55C 239.733,61.0234 233.066,67.0234 226.5,73C 230.533,79.9177 234.366,86.7511 238,93.5C 235.929,92.4752 233.762,91.6419 231.5,91C 226.725,85.704 221.058,81.8707 214.5,79.5C 214.351,80.552 214.517,81.552 215,82.5C 219.261,84.5932 222.761,87.5932 225.5,91.5C 225.333,91.8333 225.167,92.1667 225,92.5C 222.929,91.4752 220.762,90.6419 218.5,90C 208.5,82.6667 198.5,75.3333 188.5,68C 186.649,66.3163 184.982,64.4829 183.5,62.5C 191.645,53.3517 200.979,45.6851 211.5,39.5C 212.389,37.993 213.389,36.6597 214.5,35.5 Z"/></g>
<g><path style="opacity:1" fill="#cf175c" d="M 202.5,37.5 C 204.355,37.272 205.188,37.9387 205,39.5C 195.369,45.6316 187.202,53.2982 180.5,62.5C 180.94,65.2138 182.274,67.3805 184.5,69C 193.066,74.2306 201.066,80.2306 208.5,87C 213.297,90.4825 218.464,93.3159 224,95.5C 224.492,96.549 224.326,97.549 223.5,98.5C 228.935,107.704 234.101,117.038 239,126.5C 242.291,133.871 244.458,141.538 245.5,149.5C 245.192,150.308 244.692,150.975 244,151.5C 239.753,149.293 235.586,146.96 231.5,144.5C 230.667,145.5 229.833,146.5 229,147.5C 231.076,161.384 232.076,175.384 232,189.5C 229.333,186.833 226.667,184.167 224,181.5C 221.61,183.267 219.943,185.6 219,188.5C 216.907,197.285 213.74,205.618 209.5,213.5C 206.18,212.239 205.846,210.572 208.5,208.5C 202.39,192.636 200.057,176.303 201.5,159.5C 206.098,154.728 210.598,149.728 215,144.5C 218.548,136.536 217.882,128.869 213,121.5C 203.785,108.188 190.952,101.854 174.5,102.5C 163.988,103.448 154.321,106.782 145.5,112.5C 137,109.089 129.333,104.422 122.5,98.5C 121.914,98.7093 121.414,99.0426 121,99.5C 120.833,100.833 120.667,102.167 120.5,103.5C 121.03,107.562 121.197,111.895 121,116.5C 115.74,109.237 109.74,102.57 103,96.5C 95.4122,100.375 88.2455,104.875 81.5,110C 75.3255,110.568 69.3255,111.901 63.5,114C 54.7135,119.12 47.5468,125.953 42,134.5C 39.5484,140.971 38.0484,147.638 37.5,154.5C 40.0374,161.908 43.8707,168.574 49,174.5C 48.5408,186.197 49.0408,197.863 50.5,209.5C 49.7542,210.736 49.4208,212.07 49.5,213.5C 44.9164,212.428 41.2497,209.928 38.5,206C 37.5,205.333 36.5,205.333 35.5,206C 34.5333,210.401 34.2,214.901 34.5,219.5C 33.1779,219.67 32.0113,219.337 31,218.5C 28.0801,210.07 24.5801,201.903 20.5,194C 19.1667,193.333 17.8333,193.333 16.5,194C 14,196.5 11.5,199 9,201.5C 8.83333,201 8.66667,200.5 8.5,200C 15.6768,186.637 20.3434,172.47 22.5,157.5C 18.7867,158.293 15.12,158.293 11.5,157.5C 21.2709,137.065 32.1043,117.731 44,99.5C 50.0472,89.2477 54.5472,78.4144 57.5,67C 57.6081,63.0868 55.9414,60.0868 52.5,58C 43.7446,52.8737 35.2446,47.3737 27,41.5C 26.3123,40.6683 26.479,40.0016 27.5,39.5C 31.8197,38.5462 36.153,38.7129 40.5,40C 54.1128,45.0905 67.4461,50.7571 80.5,57C 80.5943,58.4222 80.9276,59.9222 81.5,61.5C 90.5129,56.4403 100.18,53.2736 110.5,52C 122.833,51.3333 135.167,51.3333 147.5,52C 154.662,54.4339 161.996,55.4339 169.5,55C 180.13,48.3034 191.13,42.4701 202.5,37.5 Z"/></g>
<g><path style="opacity:1" fill="#e2938c" d="M 25.5,45.5 C 32.975,50.101 40.6416,54.601 48.5,59C 52.0308,60.5293 54.0308,63.196 54.5,67C 48.7548,84.9922 40.2548,101.492 29,116.5C 28.3333,114.167 28.3333,111.833 29,109.5C 31.5535,107.284 33.7201,104.784 35.5,102C 35.3699,100.941 34.8699,100.108 34,99.5C 28.7492,105.089 23.2492,110.256 17.5,115C 16.5,115.667 15.5,115.667 14.5,115C 17.192,109.785 20.0253,104.618 23,99.5C 24.9318,94.8058 24.9318,90.1391 23,85.5C 19.1311,81.9662 15.6311,78.1328 12.5,74C 18.7468,73.4079 24.9135,73.9079 31,75.5C 33.8912,75.7404 36.3912,74.9071 38.5,73C 34.3654,71.5692 30.032,71.0692 25.5,71.5C 25.5,62.8333 25.5,54.1667 25.5,45.5 Z"/></g>
<g><path style="opacity:1" fill="#f9f7f2" d="M 166.5,106.5 C 182.034,104.161 195.534,108.161 207,118.5C 217.734,130.58 216.9,141.747 204.5,152C 200.159,155.172 195.492,157.839 190.5,160C 171.237,164.015 154.404,159.515 140,146.5C 135.389,137.861 135.389,129.194 140,120.5C 147.814,113.844 156.647,109.177 166.5,106.5 Z"/></g>
<g><path style="opacity:1" fill="#f9f7f2" d="M 87.5,112.5 C 93.9889,113.273 100.322,114.773 106.5,117C 115.44,121.541 119.44,128.874 118.5,139C 117.661,148.871 112.994,156.538 104.5,162C 88.5728,174.185 70.9062,177.518 51.5,172C 38.3942,157.215 38.3942,142.215 51.5,127C 61.6215,117.352 73.6215,112.518 87.5,112.5 Z"/></g>
<g><path style="opacity:1" fill="#1f771b" d="M 157.5,118.5 C 160.056,118.132 162.056,118.966 163.5,121C 165.784,130.471 165.951,139.971 164,149.5C 162.492,153.674 160.159,154.341 157,151.5C 153.64,140.345 153.807,129.345 157.5,118.5 Z"/></g>
<g><path style="opacity:1" fill="#25791f" d="M 85.5,121.5 C 87.7224,121.178 89.5557,121.845 91,123.5C 94.075,135.14 94.2417,146.807 91.5,158.5C 89.6471,159.76 87.8138,159.76 86,158.5C 81.5883,146.202 81.4216,133.868 85.5,121.5 Z"/></g>
<g><path style="opacity:1" fill="#f1dbc1" d="M 101.5,100.5 C 108.253,106.422 114.586,112.922 120.5,120C 122.433,120.783 123.933,120.283 125,118.5C 125.158,113.588 124.658,108.754 123.5,104C 123.833,103.833 124.167,103.667 124.5,103.5C 129.486,107.661 134.819,111.327 140.5,114.5C 133.929,122.331 131.762,131.331 134,141.5C 135.963,147.799 139.797,152.632 145.5,156C 158.707,163.033 172.707,165.866 187.5,164.5C 190.806,163.455 193.973,162.122 197,160.5C 196.806,168.252 194.806,175.586 191,182.5C 183.725,195.775 173.225,205.609 159.5,212C 150.778,213.644 142.112,215.478 133.5,217.5C 126.55,216.702 119.55,216.202 112.5,216C 87.2161,215.344 67.7161,204.511 54,183.5C 52.5019,180.535 52.3352,177.535 53.5,174.5C 63.5672,179.003 73.9005,179.503 84.5,176C 88.2432,174.864 91.9099,173.53 95.5,172C 98.6587,168.918 102.325,166.584 106.5,165C 125.139,151.283 127.473,135.283 113.5,117C 105.663,112.944 97.3296,110.277 88.5,109C 92.8984,106.143 97.2317,103.309 101.5,100.5 Z"/></g>
<g><path style="opacity:1" fill="#131110" d="M 148.5,167.5 C 149.5,167.5 150.5,167.5 151.5,167.5C 152.113,177.722 147.279,183.055 137,183.5C 132.236,183.079 127.736,181.746 123.5,179.5C 118.289,184.959 111.956,187.126 104.5,186C 101.569,184.474 99.5686,182.141 98.5,179C 98.6135,177.72 99.2801,176.887 100.5,176.5C 101.898,178.797 103.564,180.963 105.5,183C 106.333,183.167 107.167,183.333 108,183.5C 113.516,181.785 118.683,179.452 123.5,176.5C 129.244,179.108 135.244,179.941 141.5,179C 146.999,177.179 149.332,173.345 148.5,167.5 Z"/></g>
</svg>
