<?xml version="1.0" encoding="UTF-8"?>
<!DOCTYPE svg PUBLIC "-//W3C//DTD SVG 1.1//EN" "http://www.w3.org/Graphics/SVG/1.1/DTD/svg11.dtd">
<svg xmlns="http://www.w3.org/2000/svg" version="1.1" width="256px" height="256px" style="shape-rendering:geometricPrecision; text-rendering:geometricPrecision; image-rendering:optimizeQuality; fill-rule:evenodd; clip-rule:evenodd" xmlns:xlink="http://www.w3.org/1999/xlink">
<g><path style="opacity:1" fill="#524c4d" d="M 150.5,0.5 C 151.833,1.16667 151.833,1.16667 150.5,0.5 Z"/></g>
<g><path style="opacity:1" fill="#67535b" d="M 176.5,23.5 C 173.746,25.0528 172.913,27.3861 174,30.5C 179.085,44.1623 187.251,55.6623 198.5,65C 202.635,67.4035 206.968,69.2368 211.5,70.5C 216.743,85.3451 219.91,100.678 221,116.5C 226.654,138.437 231.154,160.604 234.5,183C 234.333,184.167 234.167,185.333 234,186.5C 231.314,177.993 227.147,170.326 221.5,163.5C 221.723,172.811 221.223,182.144 220,191.5C 218.595,197.382 216.595,203.049 214,208.5C 212.316,210.351 210.483,212.018 208.5,213.5C 207.745,208.465 206.079,203.799 203.5,199.5C 201.674,201.147 200.34,203.147 199.5,205.5C 196.928,209.745 193.594,213.411 189.5,216.5C 188.668,208.187 188.168,199.853 188,191.5C 183.913,168.311 180.913,144.978 179,121.5C 177.77,110.683 175.27,100.183 171.5,90C 172.022,89.0497 172.689,88.2164 173.5,87.5C 169.395,82.973 165.061,78.6396 160.5,74.5C 159.653,76.061 159.986,77.561 161.5,79C 158.167,79.3333 154.833,79.6667 151.5,80C 149.415,81.0414 147.748,82.5414 146.5,84.5C 147,84.8333 147.5,85.1667 148,85.5C 151.233,83.8825 154.566,82.5491 158,81.5C 161.267,81.6962 163.934,83.0295 166,85.5C 171.729,100.309 175.229,115.643 176.5,131.5C 171.513,131.226 166.846,129.893 162.5,127.5C 161.948,125.667 161.115,124 160,122.5C 159.823,115.378 158.823,108.378 157,101.5C 156.586,101.043 156.086,100.709 155.5,100.5C 155.167,109.167 154.833,117.833 154.5,126.5C 152.344,118.242 150.51,109.909 149,101.5C 148.632,100.09 147.799,99.09 146.5,98.5C 145.735,108.841 145.068,119.174 144.5,129.5C 135.981,129.108 127.481,128.441 119,127.5C 114.808,127.658 110.641,127.991 106.5,128.5C 103.433,116.282 101.099,103.949 99.5,91.5C 97.7031,98.2739 96.0364,105.107 94.5,112C 94.8918,116.022 95.5585,119.855 96.5,123.5C 96.8064,126.385 96.4731,129.052 95.5,131.5C 95.5,130.167 95.5,128.833 95.5,127.5C 93.1667,127.5 90.8333,127.5 88.5,127.5C 88.7525,124.68 88.2525,122.014 87,119.5C 86.4978,122.513 85.9978,125.513 85.5,128.5C 84.5139,124.03 84.1805,119.363 84.5,114.5C 85.2216,114.918 85.7216,115.584 86,116.5C 86.2382,109.471 86.7382,102.471 87.5,95.5C 87,93.5 86.5,91.5 86,89.5C 80.0947,102.164 76.2613,115.497 74.5,129.5C 71.2979,130.127 68.1312,130.794 65,131.5C 64.8311,124.476 64.3311,117.476 63.5,110.5C 62.5283,114.467 61.6949,118.467 61,122.5C 60.4131,134.858 59.5798,147.191 58.5,159.5C 57.3057,179.469 56.639,199.469 56.5,219.5C 47.6586,219.345 41.492,215.345 38,207.5C 32.8229,191.942 32.1562,176.276 36,160.5C 35.3333,159.167 34.6667,159.167 34,160.5C 31.0657,167.866 29.5657,175.533 29.5,183.5C 30.2308,192.065 31.7308,200.398 34,208.5C 30.9177,205.341 28.5843,201.675 27,197.5C 24.9515,189.207 23.1182,180.874 21.5,172.5C 20.1779,172.33 19.0113,172.663 18,173.5C 13.4521,179.802 10.4521,186.802 9,194.5C 8.50027,186.173 8.3336,177.84 8.5,169.5C 10.5172,159.275 13.6839,149.275 18,139.5C 19.7221,115.889 24.3888,92.8893 32,70.5C 52.5731,22.4468 89.0731,1.61348 141.5,8C 154.759,9.97071 166.425,15.1374 176.5,23.5 Z"/></g>
<g><path style="opacity:1" fill="#432d35" d="M 99.5,-0.5 C 104.5,-0.5 109.5,-0.5 114.5,-0.5C 117.461,2.01697 120.461,2.01697 123.5,-0.5C 131.167,-0.5 138.833,-0.5 146.5,-0.5C 147.058,0.789915 148.058,1.62325 149.5,2C 154.443,2.53876 159.11,3.8721 163.5,6C 169.856,9.51011 176.189,13.0101 182.5,16.5C 194.628,25.297 204.294,36.297 211.5,49.5C 212.263,51.3684 213.263,53.0351 214.5,54.5C 214.833,55.5 215.5,56.1667 216.5,56.5C 215.557,58.0012 215.891,59.3346 217.5,60.5C 218.055,63.096 219.055,65.4293 220.5,67.5C 224.68,81.9004 227.513,96.5671 229,111.5C 229.608,113.066 230.442,114.4 231.5,115.5C 234.64,116.641 237.973,116.808 241.5,116C 243.56,114.304 245.893,113.137 248.5,112.5C 252.493,113.233 253.993,115.567 253,119.5C 249.826,123.503 245.659,125.503 240.5,125.5C 237.551,124.698 234.551,124.364 231.5,124.5C 233.694,134.562 236.194,144.562 239,154.5C 241.215,166.434 242.548,178.434 243,190.5C 242.426,196.038 241.093,201.372 239,206.5C 237.071,208.983 234.738,209.649 232,208.5C 230.078,206.211 228.745,203.545 228,200.5C 224.916,207.007 221.083,213.007 216.5,218.5C 212.707,223.378 207.707,225.211 201.5,224C 199.996,222.509 199.163,220.676 199,218.5C 195.817,222.295 192.651,225.962 189.5,229.5C 188.711,229.217 188.044,228.717 187.5,228C 189.5,225.333 191.5,222.667 193.5,220C 192.925,216.136 194.425,212.969 198,210.5C 199.009,208.975 199.509,207.308 199.5,205.5C 200.34,203.147 201.674,201.147 203.5,199.5C 206.079,203.799 207.745,208.465 208.5,213.5C 210.483,212.018 212.316,210.351 214,208.5C 216.595,203.049 218.595,197.382 220,191.5C 221.223,182.144 221.723,172.811 221.5,163.5C 227.147,170.326 231.314,177.993 234,186.5C 234.167,185.333 234.333,184.167 234.5,183C 231.154,160.604 226.654,138.437 221,116.5C 219.91,100.678 216.743,85.3451 211.5,70.5C 205.467,53.6086 195.801,39.1086 182.5,27C 180.612,25.6063 178.612,24.4396 176.5,23.5C 166.425,15.1374 154.759,9.97071 141.5,8C 89.0731,1.61348 52.5731,22.4468 32,70.5C 24.3888,92.8893 19.7221,115.889 18,139.5C 13.6839,149.275 10.5172,159.275 8.5,169.5C 7.06497,173.255 6.06497,177.255 5.5,181.5C 4.5,182.167 3.5,182.833 2.5,183.5C 1.71264,179.533 2.3793,175.7 4.5,172C 3.29737,170.632 2.29737,169.132 1.5,167.5C 3.1453,163.675 3.81196,159.675 3.5,155.5C 4.97507,148.908 7.14174,142.574 10,136.5C 11.7186,110.638 17.0519,85.6383 26,61.5C 28.2955,57.0404 30.7955,52.7071 33.5,48.5C 35.7315,45.7185 37.7315,42.7185 39.5,39.5C 40.4013,38.7095 41.0679,37.7095 41.5,36.5C 43.8432,33.7928 46.1765,31.1261 48.5,28.5C 61.6767,14.741 77.6767,5.90765 96.5,2C 97.5707,1.14825 98.5707,0.314913 99.5,-0.5 Z"/></g>
<g><path style="opacity:1" fill="#3c3134" d="M 182.5,15.5 C 183.833,16.1667 183.833,16.1667 182.5,15.5 Z"/></g>
<g><path style="opacity:1" fill="#836e77" d="M 176.5,23.5 C 178.612,24.4396 180.612,25.6063 182.5,27C 195.801,39.1086 205.467,53.6086 211.5,70.5C 206.968,69.2368 202.635,67.4035 198.5,65C 187.251,55.6623 179.085,44.1623 174,30.5C 172.913,27.3861 173.746,25.0528 176.5,23.5 Z"/></g>
<g><path style="opacity:1" fill="#545053" d="M 48.5,28.5 C 47.8333,27.1667 47.8333,27.1667 48.5,28.5 Z"/></g>
<g><path style="opacity:1" fill="#535054" d="M 41.5,36.5 C 40.8333,35.1667 40.8333,35.1667 41.5,36.5 Z"/></g>
<g><path style="opacity:0.016" fill="#413d42" d="M 39.5,39.5 C 38.8333,38.1667 38.8333,38.1667 39.5,39.5 Z"/></g>
<g><path style="opacity:1" fill="#846f76" d="M 160.5,36.5 C 169.864,37.3622 175.197,42.5289 176.5,52C 175.555,59.921 171.222,62.5877 163.5,60C 156.46,55.7446 153.96,49.5779 156,41.5C 157.366,39.6383 158.866,37.9717 160.5,36.5 Z"/></g>
<g><path style="opacity:1" fill="#837078" d="M 111.5,46.5 C 119.328,45.4931 122.494,48.8265 121,56.5C 114.569,63.9335 110.069,62.9335 107.5,53.5C 108.071,50.6873 109.404,48.354 111.5,46.5 Z"/></g>
<g><path style="opacity:1" fill="#4b484b" d="M 33.5,48.5 C 32.8333,47.1667 32.8333,47.1667 33.5,48.5 Z"/></g>
<g><path style="opacity:1" fill="#575458" d="M 211.5,48.5 C 212.833,49.1667 212.833,49.1667 211.5,48.5 Z"/></g>
<g><path style="opacity:1" fill="#857076" d="M 135.5,45.5 C 145.935,44.4349 150.435,49.1015 149,59.5C 146.565,64.2238 142.731,65.7238 137.5,64C 132.206,60.5649 130.373,55.7315 132,49.5C 132.69,47.6498 133.856,46.3164 135.5,45.5 Z"/></g>
<g><path style="opacity:1" fill="#544f52" d="M 214.5,53.5 C 215.833,54.1667 215.833,54.1667 214.5,53.5 Z"/></g>
<g><path style="opacity:1" fill="#4c4749" d="M 216.5,55.5 C 217.833,56.1667 217.833,56.1667 216.5,55.5 Z"/></g>
<g><path style="opacity:1" fill="#40373b" d="M 217.5,60.5 C 217.369,59.7611 217.536,59.0944 218,58.5C 218.692,59.4368 218.525,60.1034 217.5,60.5 Z"/></g>
<g><path style="opacity:1" fill="#504a4d" d="M 220.5,66.5 C 221.833,67.1667 221.833,67.1667 220.5,66.5 Z"/></g>
<g><path style="opacity:1" fill="#412f37" d="M 74.5,83.5 C 78.5138,83.3345 82.5138,83.5012 86.5,84C 89.3192,84.5736 91.6525,85.9069 93.5,88C 91.0903,89.0353 88.757,88.3687 86.5,86C 81.2909,85.1342 76.2909,85.8009 71.5,88C 68.6667,90.1667 65.8333,92.3333 63,94.5C 62.935,91.8023 64.1017,89.6356 66.5,88C 69.0993,86.205 71.7659,84.705 74.5,83.5 Z"/></g>
<g><path style="opacity:1" fill="#535051" d="M 226.5,88.5 C 227.833,89.1667 227.833,89.1667 226.5,88.5 Z"/></g>
<g><path style="opacity:1" fill="#5f5b5e" d="M 231.5,114.5 C 232.833,115.167 232.833,115.167 231.5,114.5 Z"/></g>
<g><path style="opacity:1" fill="#442e35" d="M 43.5,86.5 C 44.0431,86.56 44.3764,86.8933 44.5,87.5C 41.3216,105.243 38.155,122.909 35,140.5C 34.3466,121.902 37.18,103.902 43.5,86.5 Z"/></g>
<g><path style="opacity:1" fill="#463239" d="M 84.5,114.5 C 84.6655,110.486 84.4988,106.486 84,102.5C 81.149,111.938 79.4824,121.605 79,131.5C 77.9326,132.191 76.7659,132.691 75.5,133C 82.5858,136.14 89.5858,139.474 96.5,143C 98.2112,144.133 98.7112,145.633 98,147.5C 90.5039,154.325 82.0039,159.158 72.5,162C 69.5983,160.06 68.5983,157.56 69.5,154.5C 74.6657,151.752 79.6657,148.752 84.5,145.5C 78.2766,144.37 72.2766,142.536 66.5,140C 65.5209,138.221 65.8542,136.555 67.5,135C 66.2161,134.316 65.0495,134.483 64,135.5C 63.872,142.401 63.0386,149.068 61.5,155.5C 60.7321,154.737 60.2321,153.737 60,152.5C 59.8138,155.036 59.3138,157.369 58.5,159.5C 59.5798,147.191 60.4131,134.858 61,122.5C 61.6949,118.467 62.5283,114.467 63.5,110.5C 64.3311,117.476 64.8311,124.476 65,131.5C 68.1312,130.794 71.2979,130.127 74.5,129.5C 76.2613,115.497 80.0947,102.164 86,89.5C 86.5,91.5 87,93.5 87.5,95.5C 86.7382,102.471 86.2382,109.471 86,116.5C 85.7216,115.584 85.2216,114.918 84.5,114.5 Z"/></g>
<g><path style="opacity:1" fill="#f9f3e8" d="M 84.5,114.5 C 84.1805,119.363 84.5139,124.03 85.5,128.5C 85.5,129.5 85.5,130.5 85.5,131.5C 88.8333,131.5 92.1667,131.5 95.5,131.5C 96.4731,129.052 96.8064,126.385 96.5,123.5C 96.9267,118.477 97.5934,113.477 98.5,108.5C 99.8022,116.543 101.802,124.376 104.5,132C 117.213,132.182 129.88,133.015 142.5,134.5C 143.833,134.167 145.167,133.833 146.5,133.5C 147.841,129.616 148.675,125.616 149,121.5C 150.762,125.626 151.928,129.96 152.5,134.5C 147.587,137.118 143.254,140.452 139.5,144.5C 146.132,151.568 154.298,155.901 164,157.5C 166.723,156.459 169.223,154.959 171.5,153C 166.344,148.996 160.677,145.83 154.5,143.5C 159.816,141.177 164.816,138.344 169.5,135C 171.833,134.333 174.167,134.333 176.5,135C 179.092,149.686 179.925,164.519 179,179.5C 171.996,192.255 161.162,198.088 146.5,197C 153.508,191.18 156.008,183.68 154,174.5C 151.526,168.856 147.359,165.189 141.5,163.5C 129.092,161.951 116.758,162.451 104.5,165C 92.2214,169.058 88.0547,177.224 92,189.5C 93.7155,192.717 96.2155,195.05 99.5,196.5C 85.545,197.679 73.3784,193.345 63,183.5C 61.5545,174.274 61.0545,164.94 61.5,155.5C 63.0386,149.068 63.872,142.401 64,135.5C 65.0495,134.483 66.2161,134.316 67.5,135C 65.8542,136.555 65.5209,138.221 66.5,140C 72.2766,142.536 78.2766,144.37 84.5,145.5C 79.6657,148.752 74.6657,151.752 69.5,154.5C 68.5983,157.56 69.5983,160.06 72.5,162C 82.0039,159.158 90.5039,154.325 98,147.5C 98.7112,145.633 98.2112,144.133 96.5,143C 89.5858,139.474 82.5858,136.14 75.5,133C 76.7659,132.691 77.9326,132.191 79,131.5C 79.4824,121.605 81.149,111.938 84,102.5C 84.4988,106.486 84.6655,110.486 84.5,114.5 Z"/></g>
<g><path style="opacity:1" fill="#46333b" d="M 95.5,131.5 C 92.1667,131.5 88.8333,131.5 85.5,131.5C 85.5,130.5 85.5,129.5 85.5,128.5C 85.9978,125.513 86.4978,122.513 87,119.5C 88.2525,122.014 88.7525,124.68 88.5,127.5C 90.8333,127.5 93.1667,127.5 95.5,127.5C 95.5,128.833 95.5,130.167 95.5,131.5 Z"/></g>
<g><path style="opacity:1" fill="#47313a" d="M 201.5,109.5 C 202.496,109.414 203.329,109.748 204,110.5C 205.668,128.177 205.668,145.843 204,163.5C 203.781,164.938 203.281,166.271 202.5,167.5C 201.5,148.178 201.167,128.845 201.5,109.5 Z"/></g>
<g><path style="opacity:1" fill="#452e39" d="M 199.5,205.5 C 199.509,207.308 199.009,208.975 198,210.5C 194.425,212.969 192.925,216.136 193.5,220C 191.5,222.667 189.5,225.333 187.5,228C 188.044,228.717 188.711,229.217 189.5,229.5C 190.41,231.019 191.243,232.685 192,234.5C 192.715,239.4 193.548,244.233 194.5,249C 193.086,250.993 192.086,253.16 191.5,255.5C 148.5,255.5 105.5,255.5 62.5,255.5C 60.5717,253.887 58.2383,252.887 55.5,252.5C 54.3377,247.533 54.1711,242.533 55,237.5C 55.0929,234.993 55.9262,232.826 57.5,231C 48.5164,228.624 40.5164,224.457 33.5,218.5C 28.475,215.475 24.475,211.475 21.5,206.5C 19.8569,202.97 18.3569,199.304 17,195.5C 15.9708,200.565 14.6375,205.565 13,210.5C 12.1404,213.633 10.6404,216.3 8.5,218.5C 6.72587,219.881 5.22587,219.548 4,217.5C 2.56071,211.704 1.06071,206.037 -0.5,200.5C -0.5,190.167 -0.5,179.833 -0.5,169.5C 1.4199,164.996 2.75323,160.329 3.5,155.5C 3.81196,159.675 3.1453,163.675 1.5,167.5C 2.29737,169.132 3.29737,170.632 4.5,172C 2.3793,175.7 1.71264,179.533 2.5,183.5C 3.5,182.833 4.5,182.167 5.5,181.5C 6.06497,177.255 7.06497,173.255 8.5,169.5C 8.3336,177.84 8.50027,186.173 9,194.5C 10.4521,186.802 13.4521,179.802 18,173.5C 19.0113,172.663 20.1779,172.33 21.5,172.5C 23.1182,180.874 24.9515,189.207 27,197.5C 28.5843,201.675 30.9177,205.341 34,208.5C 31.7308,200.398 30.2308,192.065 29.5,183.5C 29.5657,175.533 31.0657,167.866 34,160.5C 34.6667,159.167 35.3333,159.167 36,160.5C 32.1562,176.276 32.8229,191.942 38,207.5C 41.492,215.345 47.6586,219.345 56.5,219.5C 56.639,199.469 57.3057,179.469 58.5,159.5C 59.3138,157.369 59.8138,155.036 60,152.5C 60.2321,153.737 60.7321,154.737 61.5,155.5C 61.0545,164.94 61.5545,174.274 63,183.5C 73.3784,193.345 85.545,197.679 99.5,196.5C 100.833,196.5 102.167,196.5 103.5,196.5C 113.123,197.375 122.789,198.042 132.5,198.5C 135.955,198.579 139.288,198.079 142.5,197C 151.645,190.238 153.812,181.738 149,171.5C 147.035,169.45 144.868,167.783 142.5,166.5C 141.89,165.609 141.557,164.609 141.5,163.5C 147.359,165.189 151.526,168.856 154,174.5C 156.008,183.68 153.508,191.18 146.5,197C 161.162,198.088 171.996,192.255 179,179.5C 179.925,164.519 179.092,149.686 176.5,135C 174.167,134.333 171.833,134.333 169.5,135C 164.816,138.344 159.816,141.177 154.5,143.5C 160.677,145.83 166.344,148.996 171.5,153C 169.223,154.959 166.723,156.459 164,157.5C 154.298,155.901 146.132,151.568 139.5,144.5C 143.254,140.452 147.587,137.118 152.5,134.5C 151.928,129.96 150.762,125.626 149,121.5C 148.675,125.616 147.841,129.616 146.5,133.5C 145.167,133.833 143.833,134.167 142.5,134.5C 129.88,133.015 117.213,132.182 104.5,132C 101.802,124.376 99.8022,116.543 98.5,108.5C 97.5934,113.477 96.9267,118.477 96.5,123.5C 95.5585,119.855 94.8918,116.022 94.5,112C 96.0364,105.107 97.7031,98.2739 99.5,91.5C 101.099,103.949 103.433,116.282 106.5,128.5C 110.641,127.991 114.808,127.658 119,127.5C 127.481,128.441 135.981,129.108 144.5,129.5C 145.068,119.174 145.735,108.841 146.5,98.5C 147.799,99.09 148.632,100.09 149,101.5C 150.51,109.909 152.344,118.242 154.5,126.5C 154.833,117.833 155.167,109.167 155.5,100.5C 156.086,100.709 156.586,101.043 157,101.5C 158.823,108.378 159.823,115.378 160,122.5C 161.115,124 161.948,125.667 162.5,127.5C 166.846,129.893 171.513,131.226 176.5,131.5C 175.229,115.643 171.729,100.309 166,85.5C 163.934,83.0295 161.267,81.6962 158,81.5C 154.566,82.5491 151.233,83.8825 148,85.5C 147.5,85.1667 147,84.8333 146.5,84.5C 147.748,82.5414 149.415,81.0414 151.5,80C 154.833,79.6667 158.167,79.3333 161.5,79C 159.986,77.561 159.653,76.061 160.5,74.5C 165.061,78.6396 169.395,82.973 173.5,87.5C 172.689,88.2164 172.022,89.0497 171.5,90C 175.27,100.183 177.77,110.683 179,121.5C 180.913,144.978 183.913,168.311 188,191.5C 188.168,199.853 188.668,208.187 189.5,216.5C 193.594,213.411 196.928,209.745 199.5,205.5 Z"/></g>
<g><path style="opacity:1" fill="#dba59b" d="M 67.5,167.5 C 68.7479,168.334 69.4146,169.667 69.5,171.5C 68.6454,176.543 67.6454,176.376 66.5,171C 66.6483,169.744 66.9816,168.577 67.5,167.5 Z"/></g>
<g><path style="opacity:1" fill="#542e36" d="M 141.5,163.5 C 141.557,164.609 141.89,165.609 142.5,166.5C 131.146,165.036 119.813,165.203 108.5,167C 94.5009,169.685 90.3342,177.518 96,190.5C 98.4784,192.639 100.978,194.639 103.5,196.5C 102.167,196.5 100.833,196.5 99.5,196.5C 96.2155,195.05 93.7155,192.717 92,189.5C 88.0547,177.224 92.2214,169.058 104.5,165C 116.758,162.451 129.092,161.951 141.5,163.5 Z"/></g>
<g><path style="opacity:1" fill="#c78481" d="M 72.5,166.5 C 73.7479,167.334 74.4146,168.667 74.5,170.5C 74.3333,171.833 74.1667,173.167 74,174.5C 72.6253,172.063 72.1253,169.397 72.5,166.5 Z"/></g>
<g><path style="opacity:1" fill="#c6787d" d="M 160.5,162.5 C 161.748,163.334 162.415,164.667 162.5,166.5C 162.167,167.833 161.833,169.167 161.5,170.5C 160.52,167.914 160.187,165.247 160.5,162.5 Z"/></g>
<g><path style="opacity:1" fill="#c88076" d="M 78.5,165.5 C 79.6935,165.97 80.3601,166.97 80.5,168.5C 80.9039,170.224 81.0706,171.891 81,173.5C 78.9771,171.231 78.1437,168.564 78.5,165.5 Z"/></g>
<g><path style="opacity:1" fill="#c38073" d="M 172.5,163.5 C 174.026,164.492 174.693,165.992 174.5,168C 174.167,169.167 173.833,170.333 173.5,171.5C 172.52,168.914 172.187,166.247 172.5,163.5 Z"/></g>
<g><path style="opacity:1" fill="#d6978e" d="M 167.5,163.5 C 169.829,165.996 169.996,168.663 168,171.5C 166.304,168.881 166.137,166.214 167.5,163.5 Z"/></g>
<g><path style="opacity:1" fill="#e38a87" d="M 142.5,166.5 C 144.868,167.783 147.035,169.45 149,171.5C 153.812,181.738 151.645,190.238 142.5,197C 139.288,198.079 135.955,198.579 132.5,198.5C 122.789,198.042 113.123,197.375 103.5,196.5C 100.978,194.639 98.4784,192.639 96,190.5C 90.3342,177.518 94.5009,169.685 108.5,167C 119.813,165.203 131.146,165.036 142.5,166.5 Z"/></g>
<g><path style="opacity:1" fill="#cabec4" d="M 157.5,123.5 C 160.198,126.64 161,129.64 157,132.5C 156.505,129.469 156.671,126.469 157.5,123.5 Z"/></g>
<g><path style="opacity:1" fill="#524f59" d="M 103.5,218.5 C 102.662,218.158 102.328,217.492 102.5,216.5C 103.791,215.458 103.791,214.292 102.5,213C 98.1384,211.077 93.8051,211.077 89.5,213C 87.5296,215.316 85.1963,217.149 82.5,218.5C 71.3531,214.874 68.0197,207.707 72.5,197C 78.7165,198.467 85.0498,199.801 91.5,201C 98.1667,201.333 104.833,201.667 111.5,202C 115.93,204.684 119.596,208.184 122.5,212.5C 125.378,208.458 129.045,205.291 133.5,203C 143.599,202.326 153.599,200.992 163.5,199C 169.412,197.462 174.245,194.295 178,189.5C 178.915,190.328 179.581,191.328 180,192.5C 181.73,205.378 176.896,214.711 165.5,220.5C 162.01,217.421 159.01,213.921 156.5,210C 144.968,207.025 138.968,211.525 138.5,223.5C 134.32,222.956 130.153,222.29 126,221.5C 124.941,221.63 124.108,222.13 123.5,223C 127.647,226.049 132.313,227.716 137.5,228C 136.527,233.407 136.193,238.907 136.5,244.5C 128.167,244.5 119.833,244.5 111.5,244.5C 111.407,238.137 111.74,231.804 112.5,225.5C 116.122,226.076 119.122,225.076 121.5,222.5C 116.517,221.497 111.517,221.497 106.5,222.5C 106.762,221.022 106.429,219.689 105.5,218.5C 104.571,217.45 103.905,217.45 103.5,218.5 Z"/></g>
<g><path style="opacity:1" fill="#faf9fa" d="M 118.5,203.5 C 120.966,202.366 123.633,202.199 126.5,203C 125.315,204.353 123.981,205.52 122.5,206.5C 121.148,205.476 119.815,204.476 118.5,203.5 Z"/></g>
<g><path style="opacity:1" fill="#504a4f" d="M 21.5,206.5 C 20.8333,207.167 20.8333,207.167 21.5,206.5 Z"/></g>
<g><path style="opacity:1" fill="#f8f3e8" d="M 146.5,212.5 C 155.328,211.161 158.828,214.827 157,223.5C 152.254,229.45 147.254,229.784 142,224.5C 141.333,222.167 141.333,219.833 142,217.5C 143.707,215.963 145.207,214.296 146.5,212.5 Z"/></g>
<g><path style="opacity:1" fill="#585153" d="M 8.5,218.5 C 9.83333,219.167 9.83333,219.167 8.5,218.5 Z"/></g>
<g><path style="opacity:1" fill="#5b5457" d="M 33.5,218.5 C 32.8333,219.167 32.8333,219.167 33.5,218.5 Z"/></g>
<g><path style="opacity:1" fill="#605e5f" d="M 216.5,218.5 C 217.833,219.167 217.833,219.167 216.5,218.5 Z"/></g>
<g><path style="opacity:1" fill="#544f57" d="M 70.5,218.5 C 75.1956,219.619 79.8622,220.953 84.5,222.5C 82.8413,223.998 81.1747,225.498 79.5,227C 78.8392,229.464 78.3392,231.964 78,234.5C 75.0956,237.642 73.2622,241.309 72.5,245.5C 69.1667,245.5 65.8333,245.5 62.5,245.5C 63.5691,235.965 66.2358,226.965 70.5,218.5 Z"/></g>
<g><path style="opacity:1" fill="#f8f2e8" d="M 102.5,216.5 C 102.328,217.492 102.662,218.158 103.5,218.5C 103.981,226.517 100.314,230.35 92.5,230C 84.5,224.667 84.5,219.333 92.5,214C 96.4631,212.863 99.7964,213.697 102.5,216.5 Z"/></g>
<g><path style="opacity:1" fill="#524d56" d="M 172.5,219.5 C 179.384,226.272 183.384,234.606 184.5,244.5C 181.428,244.817 178.428,244.484 175.5,243.5C 173.778,238.388 171.278,233.721 168,229.5C 167.009,227.553 166.675,225.553 167,223.5C 169.167,222.512 171,221.179 172.5,219.5 Z"/></g>
<g><path style="opacity:1" fill="#554d58" d="M 161.5,220.5 C 165.501,232.69 160.834,237.857 147.5,236C 143.156,232.614 143.489,231.447 148.5,232.5C 156.099,231.891 160.432,227.891 161.5,220.5 Z"/></g>
<g><path style="opacity:1" fill="#534f59" d="M 82.5,227.5 C 85.7612,230.241 89.4278,232.408 93.5,234C 96.0351,234.617 98.3684,234.117 100.5,232.5C 101.663,234.55 101.496,236.55 100,238.5C 95.5868,239.632 91.0868,239.799 86.5,239C 82.8864,236.056 81.5531,232.223 82.5,227.5 Z"/></g>
<g><path style="opacity:1" fill="#554d58" d="M 78.5,237.5 C 80.9702,239.445 83.6368,241.278 86.5,243C 92.1035,243.411 97.4368,243.577 102.5,243.5C 93.9084,245.079 85.2417,245.745 76.5,245.5C 76.5838,242.673 77.2504,240.006 78.5,237.5 Z"/></g>
<g><path style="opacity:1" fill="#544d55" d="M 165.5,234.5 C 168.996,236.807 170.996,240.14 171.5,244.5C 162.915,244.817 154.415,244.483 146,243.5C 145.333,242.167 145.333,240.833 146,239.5C 153.632,241.801 160.132,240.134 165.5,234.5 Z"/></g>
</svg>
