<?xml version="1.0" encoding="UTF-8"?>
<!DOCTYPE svg PUBLIC "-//W3C//DTD SVG 1.1//EN" "http://www.w3.org/Graphics/SVG/1.1/DTD/svg11.dtd">
<svg xmlns="http://www.w3.org/2000/svg" version="1.1" width="256px" height="256px" style="shape-rendering:geometricPrecision; text-rendering:geometricPrecision; image-rendering:optimizeQuality; fill-rule:evenodd; clip-rule:evenodd" xmlns:xlink="http://www.w3.org/1999/xlink">
<g><path style="opacity:1" fill="#67535b" d="M 177.5,23.5 C 176.25,23.5774 175.417,24.244 175,25.5C 174.333,27.5 174.333,29.5 175,31.5C 180.935,48.8597 192.102,61.6931 208.5,70C 209.749,70.7401 210.749,70.5735 211.5,69.5C 219.591,86.5267 224.257,104.527 225.5,123.5C 225.163,148.502 224.663,173.502 224,198.5C 222.867,205.764 219.867,212.097 215,217.5C 214.832,208.814 214.332,200.148 213.5,191.5C 209.056,203.247 202.056,213.08 192.5,221C 190.783,222.559 188.783,223.392 186.5,223.5C 186.343,222.127 186.51,220.793 187,219.5C 200.187,206.937 205.187,191.603 202,173.5C 202.01,190.151 196.177,204.318 184.5,216C 181.167,218.333 177.833,220.667 174.5,223C 173.833,223.667 173.167,223.667 172.5,223C 177.152,215.129 179.985,206.629 181,197.5C 183.806,165.509 181.806,133.842 175,102.5C 172.348,93.1819 168.181,84.6819 162.5,77C 161.668,76.3123 161.002,76.479 160.5,77.5C 169.111,95.6089 174.778,114.609 177.5,134.5C 172.463,134.03 167.463,133.363 162.5,132.5C 160.528,123.534 158.695,114.534 157,105.5C 156.29,104.027 155.124,103.36 153.5,103.5C 154.392,110.186 154.392,116.853 153.5,123.5C 151.855,121.075 150.689,118.408 150,115.5C 149.792,111.082 149.126,106.749 148,102.5C 147,101.167 146,101.167 145,102.5C 145.455,109.47 145.455,116.47 145,123.5C 144.075,124.047 143.242,124.713 142.5,125.5C 144.559,126.951 145.559,128.951 145.5,131.5C 132.486,130.232 119.486,130.232 106.5,131.5C 103.705,119.942 101.372,108.276 99.5,96.5C 97.0911,100.118 95.5911,104.118 95,108.5C 96.2243,117.115 93.891,124.448 88,130.5C 87.0915,118.514 86.4249,106.514 86,94.5C 79.2231,106.611 76.3898,119.611 77.5,133.5C 73.6578,133.868 69.9912,134.868 66.5,136.5C 65.9238,131.731 65.9238,126.898 66.5,122C 66.1667,119.167 65.8333,116.333 65.5,113.5C 64.914,113.709 64.414,114.043 64,114.5C 61.7887,125.793 60.9554,137.126 61.5,148.5C 56.3124,150.032 56.3124,151.032 61.5,151.5C 61.2361,176.728 64.5694,201.395 71.5,225.5C 68.7212,225.721 66.0545,225.388 63.5,224.5C 55.0765,222.58 49.2431,217.58 46,209.5C 41.3654,195.494 38.1987,181.16 36.5,166.5C 36.1223,182.818 35.9556,199.152 36,215.5C 29.2516,208.61 25.585,200.277 25,190.5C 20.3807,165.355 18.714,140.022 20,114.5C 23.9438,89.3269 32.6104,65.9935 46,44.5C 70.6676,14.2677 102.501,2.10103 141.5,8C 155.004,9.99055 167.004,15.1572 177.5,23.5 Z"/></g>
<g><path style="opacity:1" fill="#4e464a" d="M 223.5,17.5 C 224.833,18.1667 224.833,18.1667 223.5,17.5 Z"/></g>
<g><path style="opacity:1" fill="#555052" d="M 51.5,25.5 C 50.8333,24.1667 50.8333,24.1667 51.5,25.5 Z"/></g>
<g><path style="opacity:1" fill="#595458" d="M 48.5,28.5 C 47.8333,27.1667 47.8333,27.1667 48.5,28.5 Z"/></g>
<g><path style="opacity:1" fill="#4e474a" d="M 39.5,39.5 C 38.8333,38.1667 38.8333,38.1667 39.5,39.5 Z"/></g>
<g><path style="opacity:1" fill="#4e474b" d="M 210.5,45.5 C 211.833,46.1667 211.833,46.1667 210.5,45.5 Z"/></g>
<g><path style="opacity:1" fill="#4e4a4c" d="M 33.5,48.5 C 32.8333,47.1667 32.8333,47.1667 33.5,48.5 Z"/></g>
<g><path style="opacity:1" fill="#50494c" d="M 214.5,53.5 C 215.833,54.1667 215.833,54.1667 214.5,53.5 Z"/></g>
<g><path style="opacity:1" fill="#585254" d="M 217.5,59.5 C 218.833,60.1667 218.833,60.1667 217.5,59.5 Z"/></g>
<g><path style="opacity:1" fill="#50494b" d="M 222.5,69.5 C 223.833,70.1667 223.833,70.1667 222.5,69.5 Z"/></g>
<g><path style="opacity:1" fill="#3f3436" d="M 223.5,75.5 C 223.517,73.9719 224.184,73.4719 225.5,74C 224.956,74.7172 224.289,75.2172 223.5,75.5 Z"/></g>
<g><path style="opacity:1" fill="#575052" d="M 228.5,87.5 C 229.833,88.1667 229.833,88.1667 228.5,87.5 Z"/></g>
<g><path style="opacity:1" fill="#473238" d="M 43.5,84.5 C 44.4972,84.4701 45.1639,84.9701 45.5,86C 43.3894,95.1058 41.556,104.272 40,113.5C 38.7876,125.99 37.121,138.323 35,150.5C 32.8374,127.809 35.6707,105.809 43.5,84.5 Z"/></g>
<g><path style="opacity:1" fill="#494649" d="M 231.5,100.5 C 232.833,101.167 232.833,101.167 231.5,100.5 Z"/></g>
<g><path style="opacity:1" fill="#453138" d="M 202.5,103.5 C 203.117,103.611 203.617,103.944 204,104.5C 207.452,122.897 207.118,141.23 203,159.5C 202.5,140.836 202.333,122.17 202.5,103.5 Z"/></g>
<g><path style="opacity:1" fill="#432d35" d="M 100.5,-0.5 C 105.5,-0.5 110.5,-0.5 115.5,-0.5C 115.962,0.879891 116.962,1.54656 118.5,1.5C 120.422,1.19921 122.088,0.532541 123.5,-0.5C 131.167,-0.5 138.833,-0.5 146.5,-0.5C 147.058,0.789915 148.058,1.62325 149.5,2C 161.474,4.65442 172.474,9.48775 182.5,16.5C 183.29,17.4013 184.29,18.0679 185.5,18.5C 192.167,23.8333 198.167,29.8333 203.5,36.5C 208.36,38.3405 212.693,37.3405 216.5,33.5C 214.851,32.3523 213.351,31.019 212,29.5C 209.048,22.1899 210.882,17.5233 217.5,15.5C 219.801,15.9837 221.801,16.9837 223.5,18.5C 225.466,22.0117 225.966,25.6784 225,29.5C 228.43,28.8642 231.596,27.1975 234.5,24.5C 237.082,24.7466 237.915,26.08 237,28.5C 233.17,33.8339 228.17,35.8339 222,34.5C 218.574,39.3061 214.074,42.8061 208.5,45C 209.044,45.7172 209.711,46.2172 210.5,46.5C 211.095,49.3171 212.428,51.6505 214.5,53.5C 213.167,53.8333 213.167,54.1667 214.5,54.5C 215.248,56.3325 216.248,57.9991 217.5,59.5C 216.167,59.8333 216.167,60.1667 217.5,60.5C 217.839,63.6692 219.505,65.8359 222.5,67C 220.397,67.8534 220.397,69.02 222.5,70.5C 222.216,72.4147 222.549,74.0813 223.5,75.5C 224.8,80.0931 226.466,84.4264 228.5,88.5C 228.124,93.2732 229.124,97.6066 231.5,101.5C 232.024,112.051 233.024,122.551 234.5,133C 233.796,137.175 233.129,141.342 232.5,145.5C 231.939,141.673 231.772,137.673 232,133.5C 230.043,129.89 227.876,126.556 225.5,123.5C 224.257,104.527 219.591,86.5267 211.5,69.5C 205.009,50.4898 193.676,35.1564 177.5,23.5C 167.004,15.1572 155.004,9.99055 141.5,8C 102.501,2.10103 70.6676,14.2677 46,44.5C 32.6104,65.9935 23.9438,89.3269 20,114.5C 18.714,140.022 20.3807,165.355 25,190.5C 25.585,200.277 29.2516,208.61 36,215.5C 35.9556,199.152 36.1223,182.818 36.5,166.5C 38.1987,181.16 41.3654,195.494 46,209.5C 49.2431,217.58 55.0765,222.58 63.5,224.5C 64.0891,226.373 63.4224,228.04 61.5,229.5C 61.1243,234.55 60.4576,239.55 59.5,244.5C 61.7427,245.474 64.076,245.808 66.5,245.5C 66.0825,246.222 65.4158,246.722 64.5,247C 64.9574,247.414 65.2907,247.914 65.5,248.5C 68.6405,249.091 71.6405,249.924 74.5,251C 68.5305,250.995 62.1971,251.828 55.5,253.5C 52.6612,252.824 50.9946,250.991 50.5,248C 51.2213,242.682 51.888,237.348 52.5,232C 52.472,230.93 52.1386,230.097 51.5,229.5C 50.7095,228.599 49.7095,227.932 48.5,227.5C 47.343,225.862 46.1764,224.196 45,222.5C 44.101,224.368 42.601,225.368 40.5,225.5C 30.5185,222.972 23.6852,217.306 20,208.5C 18.2462,201.909 16.9129,195.242 16,188.5C 14.9817,191.588 13.815,194.588 12.5,197.5C 11.2206,199.123 9.88724,200.79 8.5,202.5C 6.59136,203.348 4.59136,203.682 2.5,203.5C 1.5,202.5 0.5,201.5 -0.5,200.5C -0.5,199.167 -0.5,197.833 -0.5,196.5C 0.5,196.167 1.16667,195.5 1.5,194.5C 7.89425,189.056 11.7276,182.056 13,173.5C 12.0066,157.951 11.1733,142.451 10.5,127C 11.079,98.4968 18.7457,72.3301 33.5,48.5C 35.7481,45.672 37.7481,42.672 39.5,39.5C 42.1218,35.5428 45.1218,31.8761 48.5,28.5C 49.5,27.5 50.5,26.5 51.5,25.5C 55.2952,22.4305 59.2952,19.5972 63.5,17C 63.1667,16.6667 62.8333,16.3333 62.5,16C 66.5432,14.4539 70.2099,12.2872 73.5,9.5C 82.4876,5.82656 91.4876,2.49323 100.5,-0.5 Z M 217.5,27.5 C 214.981,25.1192 214.981,22.7858 217.5,20.5C 218.086,20.7093 218.586,21.0426 219,21.5C 219.667,24.1667 219.667,26.8333 219,29.5C 218.283,28.9558 217.783,28.2891 217.5,27.5 Z"/></g>
<g><path style="opacity:1" fill="#856f75" d="M 135.5,45.5 C 146.537,43.9225 151.037,48.5891 149,59.5C 146.565,64.2238 142.731,65.7238 137.5,64C 130.451,58.4498 129.784,52.2831 135.5,45.5 Z"/></g>
<g><path style="opacity:1" fill="#837078" d="M 111.5,46.5 C 117.523,45.1966 121.189,47.53 122.5,53.5C 120.499,59.9167 116.332,61.9167 110,59.5C 107.743,54.8054 108.243,50.4721 111.5,46.5 Z"/></g>
<g><path style="opacity:1" fill="#846e76" d="M 160.5,36.5 C 170.477,36.6404 175.81,41.8071 176.5,52C 175.835,60.1593 171.502,62.826 163.5,60C 154.263,53.0161 153.263,45.1828 160.5,36.5 Z"/></g>
<g><path style="opacity:1" fill="#595559" d="M 203.5,35.5 C 204.833,36.1667 204.833,36.1667 203.5,35.5 Z"/></g>
<g><path style="opacity:1" fill="#846e76" d="M 177.5,23.5 C 193.676,35.1564 205.009,50.4898 211.5,69.5C 210.749,70.5735 209.749,70.7401 208.5,70C 192.102,61.6931 180.935,48.8597 175,31.5C 174.333,29.5 174.333,27.5 175,25.5C 175.417,24.244 176.25,23.5774 177.5,23.5 Z"/></g>
<g><path style="opacity:1" fill="#514c4e" d="M 185.5,17.5 C 186.833,18.1667 186.833,18.1667 185.5,17.5 Z"/></g>
<g><path style="opacity:1" fill="#4a474c" d="M 182.5,15.5 C 183.833,16.1667 183.833,16.1667 182.5,15.5 Z"/></g>
<g><path style="opacity:1" fill="#3d393e" d="M 1.5,194.5 C 0.833333,193.167 0.833333,193.167 1.5,194.5 Z"/></g>
<g><path style="opacity:1" fill="#534d4f" d="M 12.5,197.5 C 13.8333,198.167 13.8333,198.167 12.5,197.5 Z"/></g>
<g><path style="opacity:1" fill="#443039" d="M 225.5,123.5 C 227.876,126.556 230.043,129.89 232,133.5C 231.772,137.673 231.939,141.673 232.5,145.5C 236.076,167.119 235.076,188.453 229.5,209.5C 227.527,214.768 224.527,219.435 220.5,223.5C 218.792,225.543 216.792,227.21 214.5,228.5C 209.891,231.406 205.891,230.74 202.5,226.5C 204.124,225.131 204.624,223.464 204,221.5C 201.652,224.682 198.818,227.348 195.5,229.5C 195.167,228.167 194.833,228.167 194.5,229.5C 193.13,229.856 192.13,230.69 191.5,232C 193.048,237.542 194.048,243.208 194.5,249C 193.609,251.279 192.609,253.446 191.5,255.5C 162.5,255.5 133.5,255.5 104.5,255.5C 103.084,253.149 101.417,253.149 99.5,255.5C 84.8333,255.5 70.1667,255.5 55.5,255.5C 55.5,254.833 55.5,254.167 55.5,253.5C 62.1971,251.828 68.5305,250.995 74.5,251C 71.6405,249.924 68.6405,249.091 65.5,248.5C 65.2907,247.914 64.9574,247.414 64.5,247C 65.4158,246.722 66.0825,246.222 66.5,245.5C 69.5,245.5 72.5,245.5 75.5,245.5C 75.5,240.167 75.5,234.833 75.5,229.5C 70.8136,230.618 66.1469,230.618 61.5,229.5C 63.4224,228.04 64.0891,226.373 63.5,224.5C 66.0545,225.388 68.7212,225.721 71.5,225.5C 64.5694,201.395 61.2361,176.728 61.5,151.5C 56.3124,151.032 56.3124,150.032 61.5,148.5C 60.9554,137.126 61.7887,125.793 64,114.5C 64.414,114.043 64.914,113.709 65.5,113.5C 65.8333,116.333 66.1667,119.167 66.5,122C 65.9238,126.898 65.9238,131.731 66.5,136.5C 69.9912,134.868 73.6578,133.868 77.5,133.5C 76.3898,119.611 79.2231,106.611 86,94.5C 86.4249,106.514 87.0915,118.514 88,130.5C 93.891,124.448 96.2243,117.115 95,108.5C 95.5911,104.118 97.0911,100.118 99.5,96.5C 101.372,108.276 103.705,119.942 106.5,131.5C 119.486,130.232 132.486,130.232 145.5,131.5C 145.559,128.951 144.559,126.951 142.5,125.5C 143.242,124.713 144.075,124.047 145,123.5C 145.455,116.47 145.455,109.47 145,102.5C 146,101.167 147,101.167 148,102.5C 149.126,106.749 149.792,111.082 150,115.5C 150.689,118.408 151.855,121.075 153.5,123.5C 154.392,116.853 154.392,110.186 153.5,103.5C 155.124,103.36 156.29,104.027 157,105.5C 158.695,114.534 160.528,123.534 162.5,132.5C 167.463,133.363 172.463,134.03 177.5,134.5C 174.778,114.609 169.111,95.6089 160.5,77.5C 161.002,76.479 161.668,76.3123 162.5,77C 168.181,84.6819 172.348,93.1819 175,102.5C 181.806,133.842 183.806,165.509 181,197.5C 179.985,206.629 177.152,215.129 172.5,223C 173.167,223.667 173.833,223.667 174.5,223C 177.833,220.667 181.167,218.333 184.5,216C 196.177,204.318 202.01,190.151 202,173.5C 205.187,191.603 200.187,206.937 187,219.5C 186.51,220.793 186.343,222.127 186.5,223.5C 188.783,223.392 190.783,222.559 192.5,221C 202.056,213.08 209.056,203.247 213.5,191.5C 214.332,200.148 214.832,208.814 215,217.5C 219.867,212.097 222.867,205.764 224,198.5C 224.663,173.502 225.163,148.502 225.5,123.5 Z"/></g>
<g><path style="opacity:1" fill="#574f57" d="M 169.5,195.5 C 170.822,195.33 171.989,195.663 173,196.5C 174.097,202.895 173.097,208.895 170,214.5C 169.5,208.175 169.334,201.842 169.5,195.5 Z"/></g>
<g><path style="opacity:1" fill="#492d36" d="M 94.5,177.5 C 94.5,184.167 94.5,190.833 94.5,197.5C 96.5,197.5 98.5,197.5 100.5,197.5C 100.196,191.316 103.196,188.816 109.5,190C 113.59,185.347 118.256,184.513 123.5,187.5C 127.989,184.616 131.989,185.283 135.5,189.5C 137.667,191.83 139.334,194.497 140.5,197.5C 141.808,198.626 143.142,198.626 144.5,197.5C 144.635,199.554 143.968,201.221 142.5,202.5C 138.727,202.263 135.06,202.763 131.5,204C 128.773,206.62 125.94,209.12 123,211.5C 119.512,209.346 116.679,206.512 114.5,203C 108.593,201.639 102.593,201.139 96.5,201.5C 95.4324,200.566 94.099,200.232 92.5,200.5C 92.3612,192.618 93.0279,184.951 94.5,177.5 Z"/></g>
<g><path style="opacity:1" fill="#df8987" d="M 115.5,188.5 C 118.29,188.222 120.79,188.889 123,190.5C 130.315,187.238 135.148,189.571 137.5,197.5C 125.845,198.39 114.178,198.39 102.5,197.5C 102.297,195.61 102.963,194.11 104.5,193C 106.5,193 108.5,193 110.5,193C 112.063,191.264 113.73,189.764 115.5,188.5 Z"/></g>
<g><path style="opacity:1" fill="#ab9c9c" d="M 65.5,160.5 C 65.8333,160.5 66.1667,160.5 66.5,160.5C 67.9179,162.308 69.9179,162.975 72.5,162.5C 72.5,165.833 72.5,169.167 72.5,172.5C 71.5233,169.713 71.19,166.713 71.5,163.5C 69.8333,163.5 68.1667,163.5 66.5,163.5C 66.5,165.167 66.5,166.833 66.5,168.5C 65.5269,166.052 65.1936,163.385 65.5,160.5 Z"/></g>
<g><path style="opacity:1" fill="#f5efea" d="M 72.5,172.5 C 72.265,177.876 72.5983,183.209 73.5,188.5C 73.2668,189.932 72.6001,190.432 71.5,190C 67.2522,183.505 65.5855,176.338 66.5,168.5C 66.5,166.833 66.5,165.167 66.5,163.5C 68.1667,163.5 69.8333,163.5 71.5,163.5C 71.19,166.713 71.5233,169.713 72.5,172.5 Z"/></g>
<g><path style="opacity:1" fill="#97cee1" d="M 85.5,160.5 C 87.1667,160.5 88.8333,160.5 90.5,160.5C 91.0975,188.847 92.0975,217.181 93.5,245.5C 88.57,245.803 83.7367,245.469 79,244.5C 78.1351,219.319 76.9684,194.153 75.5,169C 75.8333,166.833 76.1667,164.667 76.5,162.5C 79.6404,161.911 82.6404,161.244 85.5,160.5 Z"/></g>
<g><path style="opacity:1" fill="#98cfe3" d="M 148.5,158.5 C 153.5,158.5 158.5,158.5 163.5,158.5C 164.873,187.153 165.873,215.819 166.5,244.5C 161.5,244.5 156.5,244.5 151.5,244.5C 148.959,215.895 147.959,187.229 148.5,158.5 Z"/></g>
<g><path style="opacity:1" fill="#efebe7" d="M 83.5,106.5 C 84.8895,114.978 85.3895,123.645 85,132.5C 79.5425,138.127 73.3758,142.794 66.5,146.5C 65.2234,143.966 65.2234,141.466 66.5,139C 70.8848,138.46 75.0515,137.293 79,135.5C 79.5557,125.673 81.0557,116.007 83.5,106.5 Z"/></g>
<g><path style="opacity:1" fill="#fbf6ea" d="M 167.5,175.5 C 166.887,169.729 167.554,164.396 169.5,159.5C 172.397,159.875 175.063,159.375 177.5,158C 174.921,154.395 171.588,152.062 167.5,151C 160.5,150.333 153.5,150.333 146.5,151C 143.466,152.191 141.799,154.358 141.5,157.5C 142.5,157.5 143.5,157.5 144.5,157.5C 143.186,170.84 143.186,184.173 144.5,197.5C 143.142,198.626 141.808,198.626 140.5,197.5C 139.334,194.497 137.667,191.83 135.5,189.5C 131.989,185.283 127.989,184.616 123.5,187.5C 118.256,184.513 113.59,185.347 109.5,190C 103.196,188.816 100.196,191.316 100.5,197.5C 98.5,197.5 96.5,197.5 94.5,197.5C 94.5,190.833 94.5,184.167 94.5,177.5C 94.5,171.5 94.5,165.5 94.5,159.5C 98.3315,159.81 99.8315,158.143 99,154.5C 95.9024,152.953 92.5691,152.286 89,152.5C 82.7545,152.735 76.5879,153.569 70.5,155C 67.7854,155.875 66.4521,157.708 66.5,160.5C 66.1667,160.5 65.8333,160.5 65.5,160.5C 65.335,157.15 65.5017,153.817 66,150.5C 73.1846,146.67 79.6846,142.003 85.5,136.5C 87.0728,139.802 89.4062,140.135 92.5,137.5C 93.8013,138.478 94.968,138.145 96,136.5C 98.4143,136.487 100.914,136.82 103.5,137.5C 115.745,135.75 128.079,135.083 140.5,135.5C 143.596,136.093 145.929,135.093 147.5,132.5C 156.209,140.52 166.542,144.853 178.5,145.5C 179.461,156.819 179.628,168.152 179,179.5C 177.135,184.531 173.969,188.531 169.5,191.5C 167.912,186.29 167.245,180.957 167.5,175.5 Z"/></g>
<g><path style="opacity:1" fill="#7e696c" d="M 169.5,159.5 C 167.554,164.396 166.887,169.729 167.5,175.5C 166.511,170.025 166.178,164.358 166.5,158.5C 167.791,158.263 168.791,158.596 169.5,159.5 Z"/></g>
<g><path style="opacity:1" fill="#ebe4e0" d="M 140.5,135.5 C 128.079,135.083 115.745,135.75 103.5,137.5C 100.914,136.82 98.4143,136.487 96,136.5C 94.968,138.145 93.8013,138.478 92.5,137.5C 89.4062,140.135 87.0728,139.802 85.5,136.5C 89.1675,136.36 93.0008,135.693 97,134.5C 97.3333,127.167 97.6667,119.833 98,112.5C 99.8369,119.847 101.67,127.181 103.5,134.5C 116.011,134.171 128.345,134.505 140.5,135.5 Z"/></g>
<g><path style="opacity:1" fill="#ece8e8" d="M 157.5,124.5 C 158.611,128.016 159.611,131.683 160.5,135.5C 166.244,136.202 171.91,137.202 177.5,138.5C 177.5,139.833 177.5,141.167 177.5,142.5C 170.111,141.601 163.111,139.435 156.5,136C 156.043,135.586 155.709,135.086 155.5,134.5C 156.802,131.292 157.469,127.959 157.5,124.5 Z"/></g>
<g><path style="opacity:1" fill="#eae6e8" d="M 148.5,122.5 C 149.791,124.949 150.791,127.616 151.5,130.5C 150.726,131.711 149.893,131.711 149,130.5C 148.503,127.854 148.336,125.187 148.5,122.5 Z"/></g>
<g><path style="opacity:1" fill="#524f5b" d="M 96.5,201.5 C 102.593,201.139 108.593,201.639 114.5,203C 116.679,206.512 119.512,209.346 123,211.5C 125.94,209.12 128.773,206.62 131.5,204C 135.06,202.763 138.727,202.263 142.5,202.5C 144.045,203.23 144.878,204.563 145,206.5C 145.499,211.155 145.666,215.821 145.5,220.5C 139.167,220.5 132.833,220.5 126.5,220.5C 126.5,221.833 126.5,223.167 126.5,224.5C 129.786,225.207 133.119,225.54 136.5,225.5C 136.811,232.09 136.478,238.59 135.5,245C 125.506,245.5 115.506,245.666 105.5,245.5C 105.046,238.841 104.713,232.174 104.5,225.5C 109.511,225.666 114.511,225.499 119.5,225C 122.646,224.89 123.646,223.557 122.5,221C 118.008,220.782 113.508,220.949 109,221.5C 104.404,221.391 99.9036,220.725 95.5,219.5C 95.1771,213.31 95.5104,207.31 96.5,201.5 Z"/></g>
<g><path style="opacity:1" fill="#fafafa" d="M 118.5,203.5 C 120.966,202.366 123.633,202.199 126.5,203C 125.315,204.353 123.981,205.52 122.5,206.5C 121.148,205.476 119.815,204.476 118.5,203.5 Z"/></g>
<g><path style="opacity:1" fill="#4f484c" d="M 2.5,203.5 C 1.83333,204.167 1.83333,204.167 2.5,203.5 Z"/></g>
<g><path style="opacity:1" fill="#625f5d" d="M 229.5,209.5 C 230.833,210.167 230.833,210.167 229.5,209.5 Z"/></g>
<g><path style="opacity:1" fill="#514f4f" d="M 220.5,223.5 C 221.833,224.167 221.833,224.167 220.5,223.5 Z"/></g>
<g><path style="opacity:1" fill="#574c55" d="M 96.5,224.5 C 97.8333,224.5 99.1667,224.5 100.5,224.5C 100.5,231.5 100.5,238.5 100.5,245.5C 99.1667,245.5 97.8333,245.5 96.5,245.5C 96.5,238.5 96.5,231.5 96.5,224.5 Z"/></g>
<g><path style="opacity:1" fill="#5a5357" d="M 48.5,227.5 C 47.8333,228.167 47.8333,228.167 48.5,227.5 Z"/></g>
<g><path style="opacity:1" fill="#504f57" d="M 180.5,223.5 C 181.693,223.97 182.36,224.97 182.5,226.5C 183.287,231.888 184.287,237.221 185.5,242.5C 185.291,243.086 184.957,243.586 184.5,244C 179.845,244.499 175.179,244.666 170.5,244.5C 170.334,239.489 170.501,234.489 171,229.5C 174.485,227.85 177.651,225.85 180.5,223.5 Z"/></g>
<g><path style="opacity:1" fill="#5d5b5c" d="M 214.5,228.5 C 215.833,229.167 215.833,229.167 214.5,228.5 Z"/></g>
<g><path style="opacity:1" fill="#4f4b4e" d="M 51.5,229.5 C 50.8333,230.167 50.8333,230.167 51.5,229.5 Z"/></g>
<g><path style="opacity:1" fill="#534d57" d="M 141.5,224.5 C 142.496,224.414 143.329,224.748 144,225.5C 145.052,232.128 145.552,238.794 145.5,245.5C 143.833,245.5 142.167,245.5 140.5,245.5C 140.205,238.412 140.538,231.412 141.5,224.5 Z"/></g>
<g><path style="opacity:1" fill="#534e4d" d="M 194.5,229.5 C 194.833,229.5 195.167,229.5 195.5,229.5C 195.315,230.17 194.981,230.17 194.5,229.5 Z"/></g>
<g><path style="opacity:1" fill="#544f5b" d="M 61.5,229.5 C 66.1469,230.618 70.8136,230.618 75.5,229.5C 75.5,234.833 75.5,240.167 75.5,245.5C 72.5,245.5 69.5,245.5 66.5,245.5C 64.076,245.808 61.7427,245.474 59.5,244.5C 60.4576,239.55 61.1243,234.55 61.5,229.5 Z"/></g>
</svg>
