<?xml version="1.0" encoding="UTF-8"?>
<!DOCTYPE svg PUBLIC "-//W3C//DTD SVG 1.1//EN" "http://www.w3.org/Graphics/SVG/1.1/DTD/svg11.dtd">
<svg xmlns="http://www.w3.org/2000/svg" version="1.1" width="256px" height="256px" style="shape-rendering:geometricPrecision; text-rendering:geometricPrecision; image-rendering:optimizeQuality; fill-rule:evenodd; clip-rule:evenodd" xmlns:xlink="http://www.w3.org/1999/xlink">
<g><path style="opacity:1" fill="#504a4d" d="M 95.5,1.5 C 94.8333,0.166667 94.8333,0.166667 95.5,1.5 Z"/></g>
<g><path style="opacity:0.999" fill="#442d35" d="M 99.5,-0.5 C 104.5,-0.5 109.5,-0.5 114.5,-0.5C 117.09,2.05946 119.757,2.05946 122.5,-0.5C 130.167,-0.5 137.833,-0.5 145.5,-0.5C 146.058,0.789915 147.058,1.62325 148.5,2C 163.652,5.49294 177.152,12.3263 189,22.5C 195.129,20.3025 201.296,20.1359 207.5,22C 210.29,24.2103 211.123,27.0437 210,30.5C 207.969,33.3553 205.803,36.022 203.5,38.5C 200.577,37.0917 197.077,36.0917 193,35.5C 192.722,36.4158 192.222,37.0825 191.5,37.5C 189.695,33.6974 186.695,32.0307 182.5,32.5C 174.458,33.6713 166.458,35.0046 158.5,36.5C 153.757,37.0795 149.09,38.0795 144.5,39.5C 140.5,39.3371 139,37.3371 140,33.5C 142.772,31.2389 145.938,29.7389 149.5,29C 158.714,26.6865 168.047,25.0198 177.5,24C 166.647,15.3776 154.314,10.0443 140.5,8C 91.3068,1.50824 55.8068,20.3416 34,64.5C 22.7447,91.1026 18.0781,118.769 20,147.5C 20.7455,157.551 21.9122,167.551 23.5,177.5C 26.4563,174.042 29.6229,170.708 33,167.5C 33.3528,162.882 34.5195,158.548 36.5,154.5C 38.2022,162.062 38.8688,169.729 38.5,177.5C 37.6587,178.009 37.1587,177.343 37,175.5C 36.3333,176.167 35.6667,176.833 35,177.5C 34.502,180.482 34.3354,183.482 34.5,186.5C 33.6829,184.031 33.1829,181.365 33,178.5C 23.0457,190.412 16.8791,204.079 14.5,219.5C 14.3981,223.296 15.8981,226.296 19,228.5C 19.4828,227.552 19.6495,226.552 19.5,225.5C 20.3213,228.641 20.8213,231.975 21,235.5C 21.9138,234.346 22.7471,234.513 23.5,236C 23.5,237 23.5,238 23.5,239C 24.1258,239.75 24.6258,240.584 25,241.5C 26.8402,240.167 27.3402,240.334 26.5,242C 27.3805,242.708 28.0472,243.542 28.5,244.5C 19.9766,240.87 12.8099,234.87 7,226.5C 5.4645,217.105 6.9645,208.272 11.5,200C 9.40702,200.691 7.24036,201.524 5,202.5C 3.74407,202.352 2.5774,202.018 1.5,201.5C 1.16667,200.5 0.5,199.833 -0.5,199.5C -0.5,198.167 -0.5,196.833 -0.5,195.5C 12.7366,183.224 16.5699,168.224 11,150.5C 8.36098,118.213 13.861,87.5465 27.5,58.5C 29.3377,55.3463 31.3377,52.1796 33.5,49C 33.1667,48.6667 32.8333,48.3333 32.5,48C 36.0831,43.8924 38.9164,39.7257 41,35.5C 45.6755,30.6576 50.5088,25.991 55.5,21.5C 58.1787,20.2442 60.8453,18.2442 63.5,15.5C 66.2096,13.7678 68.8763,12.1011 71.5,10.5C 73.5739,9.48615 75.5739,8.48615 77.5,7.5C 83.384,4.87768 89.384,2.87768 95.5,1.5C 97.153,1.3404 98.4863,0.673734 99.5,-0.5 Z"/></g>
<g><path style="opacity:1" fill="#4f4a4d" d="M 77.5,7.5 C 76.8333,6.16667 76.8333,6.16667 77.5,7.5 Z"/></g>
<g><path style="opacity:1" fill="#67525b" d="M 158.5,36.5 C 152.437,45.4691 153.771,53.3025 162.5,60C 167.062,61.2266 171.062,60.3933 174.5,57.5C 170.221,62.6283 166.054,67.9617 162,73.5C 160.877,76.9563 161.71,79.7897 164.5,82C 178.5,82.6667 192.5,82.6667 206.5,82C 209.86,79.5713 210.193,76.9046 207.5,74C 196.485,73.8324 185.485,73.3324 174.5,72.5C 177.977,67.8549 181.644,63.3549 185.5,59C 188.817,58.5017 192.15,58.335 195.5,58.5C 194.737,59.2679 193.737,59.7679 192.5,60C 196.863,64.1809 201.863,67.3475 207.5,69.5C 208.713,69.2528 209.38,68.5862 209.5,67.5C 215.145,82.9648 219.311,98.9648 222,115.5C 226.38,120.211 230.38,125.211 234,130.5C 235.162,136.557 234.162,142.223 231,147.5C 223.403,158.761 214.736,169.094 205,178.5C 204.667,172.167 204.333,165.833 204,159.5C 203.804,157.714 202.971,156.381 201.5,155.5C 201.414,169.418 199.581,183.085 196,196.5C 191.641,208.021 184.474,217.355 174.5,224.5C 173.747,217.947 172.747,211.447 171.5,205C 176.517,162.555 169.017,122.388 149,84.5C 147.632,82.1854 146.799,82.1854 146.5,84.5C 153.098,102.891 158.764,121.558 163.5,140.5C 159.122,140.719 155.789,139.053 153.5,135.5C 152.478,135.855 151.811,136.522 151.5,137.5C 150.833,137.167 150.167,136.833 149.5,136.5C 148.475,136.103 148.308,135.437 149,134.5C 150.364,135.258 151.531,134.758 152.5,133C 149.602,129.095 147.102,124.929 145,120.5C 143.89,118.963 142.39,118.297 140.5,118.5C 143.248,125.883 145.248,133.55 146.5,141.5C 135.659,144.118 124.659,145.284 113.5,145C 110.812,140.105 107.312,135.938 103,132.5C 102.607,137.201 102.607,141.868 103,146.5C 98.0752,147.857 93.2419,149.024 88.5,150C 79.3608,135.084 73.6941,118.917 71.5,101.5C 69.8762,101.36 68.7096,102.027 68,103.5C 66.4081,120.462 69.5747,136.462 77.5,151.5C 73.7192,152.452 69.8859,153.119 66,153.5C 63.9658,153.646 62.2991,152.98 61,151.5C 57.8115,141.727 54.4781,132.06 51,122.5C 50.5228,130.783 51.8561,138.783 55,146.5C 54.9829,160.261 56.8162,173.761 60.5,187C 59.2203,189.734 58.0537,192.567 57,195.5C 56.7104,202.036 56.5437,208.369 56.5,214.5C 50.3029,212.473 45.8029,208.473 43,202.5C 40.92,194.137 39.42,185.804 38.5,177.5C 38.8688,169.729 38.2022,162.062 36.5,154.5C 34.5195,158.548 33.3528,162.882 33,167.5C 29.6229,170.708 26.4563,174.042 23.5,177.5C 21.9122,167.551 20.7455,157.551 20,147.5C 18.0781,118.769 22.7447,91.1026 34,64.5C 55.8068,20.3416 91.3068,1.50824 140.5,8C 154.314,10.0443 166.647,15.3776 177.5,24C 168.047,25.0198 158.714,26.6865 149.5,29C 145.938,29.7389 142.772,31.2389 140,33.5C 139,37.3371 140.5,39.3371 144.5,39.5C 149.09,38.0795 153.757,37.0795 158.5,36.5 Z"/></g>
<g><path style="opacity:1" fill="#4a474c" d="M 71.5,10.5 C 70.8333,9.16667 70.8333,9.16667 71.5,10.5 Z"/></g>
<g><path style="opacity:1" fill="#514e52" d="M 63.5,15.5 C 62.8333,14.1667 62.8333,14.1667 63.5,15.5 Z"/></g>
<g><path style="opacity:1" fill="#464449" d="M 55.5,21.5 C 54.8333,20.1667 54.8333,20.1667 55.5,21.5 Z"/></g>
<g><path style="opacity:1" fill="#452e38" d="M 203.5,38.5 C 205.181,41.2028 206.847,43.8695 208.5,46.5C 208.932,47.7095 209.599,48.7095 210.5,49.5C 216.449,60.1535 220.949,71.8202 224,84.5C 226.171,93.2303 228.005,101.897 229.5,110.5C 230.864,112.191 232.197,113.858 233.5,115.5C 235.512,118.205 237.512,120.872 239.5,123.5C 239.427,125.027 240.094,126.027 241.5,126.5C 243.167,130.339 243.667,134.339 243,138.5C 241.09,142.655 238.923,146.655 236.5,150.5C 235.167,150.833 235.167,151.167 236.5,151.5C 235.26,152.973 234.26,154.64 233.5,156.5C 237.289,159.281 240.289,162.614 242.5,166.5C 243.514,168.574 244.514,170.574 245.5,172.5C 249.398,182.873 247.732,192.206 240.5,200.5C 237.977,203.578 234.977,205.911 231.5,207.5C 230.527,207.987 229.527,208.487 228.5,209C 230.121,211.166 230.955,213.666 231,216.5C 233.111,228.711 231.111,240.044 225,250.5C 223.509,252.004 221.676,252.837 219.5,253C 212.019,253.858 204.686,254.692 197.5,255.5C 185.833,255.5 174.167,255.5 162.5,255.5C 163.245,251.77 164.578,248.437 166.5,245.5C 171.975,246.489 177.642,246.822 183.5,246.5C 182.321,240.207 181.321,233.874 180.5,227.5C 176.572,228.774 173.572,231.107 171.5,234.5C 170.527,233.209 169.527,233.209 168.5,234.5C 167.265,233.66 166.265,232.66 165.5,231.5C 169.005,222.17 168.005,213.503 162.5,205.5C 161.738,203.738 160.404,202.738 158.5,202.5C 155.438,200.87 153.771,201.87 153.5,205.5C 152.833,204.5 152.167,203.5 151.5,202.5C 151.5,201.5 151.5,200.5 151.5,199.5C 149.901,199.768 148.568,199.434 147.5,198.5C 147.5,196.833 147.5,195.167 147.5,193.5C 154.025,191.769 160.358,189.435 166.5,186.5C 167.665,178.855 167.831,171.188 167,163.5C 165.84,156.864 165.006,150.197 164.5,143.5C 158.562,144.539 154.229,142.539 151.5,137.5C 151.811,136.522 152.478,135.855 153.5,135.5C 155.789,139.053 159.122,140.719 163.5,140.5C 158.764,121.558 153.098,102.891 146.5,84.5C 146.799,82.1854 147.632,82.1854 149,84.5C 169.017,122.388 176.517,162.555 171.5,205C 172.747,211.447 173.747,217.947 174.5,224.5C 184.474,217.355 191.641,208.021 196,196.5C 199.581,183.085 201.414,169.418 201.5,155.5C 202.971,156.381 203.804,157.714 204,159.5C 204.333,165.833 204.667,172.167 205,178.5C 214.736,169.094 223.403,158.761 231,147.5C 234.162,142.223 235.162,136.557 234,130.5C 230.38,125.211 226.38,120.211 222,115.5C 219.311,98.9648 215.145,82.9648 209.5,67.5C 206.61,59.3802 202.443,52.0469 197,45.5C 195.699,46.0981 194.865,47.0981 194.5,48.5C 196.047,50.5447 197.381,52.7113 198.5,55C 198.293,56.9497 197.293,58.1164 195.5,58.5C 192.15,58.335 188.817,58.5017 185.5,59C 181.644,63.3549 177.977,67.8549 174.5,72.5C 185.485,73.3324 196.485,73.8324 207.5,74C 210.193,76.9046 209.86,79.5713 206.5,82C 192.5,82.6667 178.5,82.6667 164.5,82C 161.71,79.7897 160.877,76.9563 162,73.5C 166.054,67.9617 170.221,62.6283 174.5,57.5C 175.714,55.192 175.714,52.8587 174.5,50.5C 169.432,48.2128 168.432,44.8794 171.5,40.5C 173.421,39.359 175.421,39.1923 177.5,40C 179.94,41.3034 182.44,42.47 185,43.5C 186.973,41.3634 189.139,39.3634 191.5,37.5C 192.222,37.0825 192.722,36.4158 193,35.5C 197.077,36.0917 200.577,37.0917 203.5,38.5 Z"/></g>
<g><path style="opacity:1" fill="#836c75" d="M 191.5,37.5 C 189.139,39.3634 186.973,41.3634 185,43.5C 182.44,42.47 179.94,41.3034 177.5,40C 175.421,39.1923 173.421,39.359 171.5,40.5C 168.432,44.8794 169.432,48.2128 174.5,50.5C 175.714,52.8587 175.714,55.192 174.5,57.5C 171.062,60.3933 167.062,61.2266 162.5,60C 153.771,53.3025 152.437,45.4691 158.5,36.5C 166.458,35.0046 174.458,33.6713 182.5,32.5C 186.695,32.0307 189.695,33.6974 191.5,37.5 Z"/></g>
<g><path style="opacity:1" fill="#50474c" d="M 208.5,45.5 C 209.833,46.1667 209.833,46.1667 208.5,45.5 Z"/></g>
<g><path style="opacity:1" fill="#837078" d="M 112.5,45.5 C 119.127,45.6261 121.96,48.9595 121,55.5C 118.694,59.8104 115.194,61.3104 110.5,60C 106.128,54.4079 106.794,49.5746 112.5,45.5 Z"/></g>
<g><path style="opacity:1" fill="#836f78" d="M 138.5,63.5 C 138.167,62.5 137.5,61.8333 136.5,61.5C 135.391,60.71 134.058,60.21 132.5,60C 127.94,47.8967 131.94,43.23 144.5,46C 148.128,49.8305 149.295,54.3305 148,59.5C 145.976,63.7669 142.809,65.1002 138.5,63.5 Z"/></g>
<g><path style="opacity:1" fill="#4c454a" d="M 210.5,48.5 C 211.833,49.1667 211.833,49.1667 210.5,48.5 Z"/></g>
<g><path style="opacity:1" fill="#836b75" d="M 209.5,67.5 C 209.38,68.5862 208.713,69.2528 207.5,69.5C 201.863,67.3475 196.863,64.1809 192.5,60C 193.737,59.7679 194.737,59.2679 195.5,58.5C 197.293,58.1164 198.293,56.9497 198.5,55C 197.381,52.7113 196.047,50.5447 194.5,48.5C 194.865,47.0981 195.699,46.0981 197,45.5C 202.443,52.0469 206.61,59.3802 209.5,67.5 Z"/></g>
<g><path style="opacity:1" fill="#413c40" d="M 27.5,58.5 C 26.8333,57.1667 26.8333,57.1667 27.5,58.5 Z"/></g>
<g><path style="opacity:1" fill="#433039" d="M 136.5,61.5 C 137.5,61.8333 138.167,62.5 138.5,63.5C 138.839,68.2969 137.839,72.7969 135.5,77C 137.367,78.7837 139.034,80.7837 140.5,83C 140.355,83.772 140.022,84.4387 139.5,85C 137.196,85.8952 134.862,86.7285 132.5,87.5C 131.754,88.7362 131.421,90.0695 131.5,91.5C 135.49,90.8099 139.49,90.6432 143.5,91C 146.265,93.9663 145.932,96.633 142.5,99C 136.265,100.812 129.932,101.478 123.5,101C 120.73,95.5427 121.396,90.376 125.5,85.5C 121.196,84.4031 119.862,81.9031 121.5,78C 123.392,77.0266 125.392,76.3599 127.5,76C 129.421,74.7592 129.754,73.2592 128.5,71.5C 123.298,73.6364 117.964,74.803 112.5,75C 110.52,70.6335 111.853,67.6335 116.5,66C 122.904,63.2861 129.571,61.7861 136.5,61.5 Z"/></g>
<g><path style="opacity:1" fill="#483d41" d="M 229.5,110.5 C 229.369,109.761 229.536,109.094 230,108.5C 230.692,109.437 230.525,110.103 229.5,110.5 Z"/></g>
<g><path style="opacity:1" fill="#666262" d="M 233.5,114.5 C 234.833,115.167 234.833,115.167 233.5,114.5 Z"/></g>
<g><path style="opacity:1" fill="#462e37" d="M 34.5,96.5 C 35.1641,98.9779 35.4975,101.645 35.5,104.5C 34.9699,120.172 34.3033,135.838 33.5,151.5C 30.6594,133.07 30.9927,114.736 34.5,96.5 Z"/></g>
<g><path style="opacity:1" fill="#504c4e" d="M 239.5,122.5 C 240.833,123.167 240.833,123.167 239.5,122.5 Z"/></g>
<g><path style="opacity:1" fill="#504a4c" d="M 241.5,125.5 C 242.833,126.167 242.833,126.167 241.5,125.5 Z"/></g>
<g><path style="opacity:1" fill="#44323a" d="M 193.5,95.5 C 194.497,95.4701 195.164,95.9701 195.5,97C 200.976,113.676 203.643,130.509 203.5,147.5C 202.194,146.088 201.36,144.421 201,142.5C 198.82,126.769 196.32,111.103 193.5,95.5 Z"/></g>
<g><path style="opacity:1" fill="#462f39" d="M 219.5,131.5 C 228.232,135.215 229.732,140.882 224,148.5C 222.736,150.607 220.903,151.607 218.5,151.5C 218.207,144.745 218.54,138.078 219.5,131.5 Z"/></g>
<g><path style="opacity:1" fill="#f9f4e9" d="M 149.5,136.5 C 150.167,136.833 150.833,137.167 151.5,137.5C 154.229,142.539 158.562,144.539 164.5,143.5C 165.006,150.197 165.84,156.864 167,163.5C 167.831,171.188 167.665,178.855 166.5,186.5C 160.358,189.435 154.025,191.769 147.5,193.5C 134.331,196.479 120.998,198.146 107.5,198.5C 107.431,193.384 108.098,188.384 109.5,183.5C 98.7024,183.811 88.0358,182.811 77.5,180.5C 72.8007,180.271 68.634,181.605 65,184.5C 62.8298,178.983 61.1632,173.317 60,167.5C 59.3333,163.833 59.3333,160.167 60,156.5C 65.1223,157.471 70.289,157.305 75.5,156C 77.9969,155.588 79.9969,154.422 81.5,152.5C 76.7273,143.688 73.894,134.354 73,124.5C 75.6846,134.367 79.8512,143.534 85.5,152C 93.0266,152.894 100.193,151.727 107,148.5C 107.155,146.144 107.155,143.811 107,141.5C 107.914,143.664 109.081,145.664 110.5,147.5C 123.786,148.672 136.786,147.172 149.5,143C 150.605,140.88 150.605,138.713 149.5,136.5 Z"/></g>
<g><path style="opacity:1" fill="#5b5453" d="M 236.5,150.5 C 237.833,151.167 237.833,151.167 236.5,150.5 Z"/></g>
<g><path style="opacity:1" fill="#4a323b" d="M 149.5,136.5 C 150.605,138.713 150.605,140.88 149.5,143C 136.786,147.172 123.786,148.672 110.5,147.5C 109.081,145.664 107.914,143.664 107,141.5C 107.155,143.811 107.155,146.144 107,148.5C 100.193,151.727 93.0266,152.894 85.5,152C 79.8512,143.534 75.6846,134.367 73,124.5C 73.894,134.354 76.7273,143.688 81.5,152.5C 79.9969,154.422 77.9969,155.588 75.5,156C 70.289,157.305 65.1223,157.471 60,156.5C 59.3333,160.167 59.3333,163.833 60,167.5C 61.1632,173.317 62.8298,178.983 65,184.5C 68.634,181.605 72.8007,180.271 77.5,180.5C 88.0358,182.811 98.7024,183.811 109.5,183.5C 108.098,188.384 107.431,193.384 107.5,198.5C 120.998,198.146 134.331,196.479 147.5,193.5C 147.5,195.167 147.5,196.833 147.5,198.5C 133.905,200.599 120.238,201.933 106.5,202.5C 103.333,221.088 92.3328,229.588 73.5,228C 68.5715,225.191 63.5715,223.024 58.5,221.5C 61.0593,221.802 63.3926,221.468 65.5,220.5C 75.094,227.033 84.7606,227.033 94.5,220.5C 97.2476,217.919 99.4143,214.919 101,211.5C 102.551,203.209 104.385,195.042 106.5,187C 96.8504,186.891 87.3504,185.724 78,183.5C 68.5001,183.667 62.5001,188.333 60,197.5C 58.6478,204.696 59.8145,211.363 63.5,217.5C 61.9139,216.587 60.4139,216.587 59,217.5C 57.955,216.627 57.1217,215.627 56.5,214.5C 56.5437,208.369 56.7104,202.036 57,195.5C 58.0537,192.567 59.2203,189.734 60.5,187C 56.8162,173.761 54.9829,160.261 55,146.5C 51.8561,138.783 50.5228,130.783 51,122.5C 54.4781,132.06 57.8115,141.727 61,151.5C 62.2991,152.98 63.9658,153.646 66,153.5C 69.8859,153.119 73.7192,152.452 77.5,151.5C 69.5747,136.462 66.4081,120.462 68,103.5C 68.7096,102.027 69.8762,101.36 71.5,101.5C 73.6941,118.917 79.3608,135.084 88.5,150C 93.2419,149.024 98.0752,147.857 103,146.5C 102.607,141.868 102.607,137.201 103,132.5C 107.312,135.938 110.812,140.105 113.5,145C 124.659,145.284 135.659,144.118 146.5,141.5C 145.248,133.55 143.248,125.883 140.5,118.5C 142.39,118.297 143.89,118.963 145,120.5C 147.102,124.929 149.602,129.095 152.5,133C 151.531,134.758 150.364,135.258 149,134.5C 148.308,135.437 148.475,136.103 149.5,136.5 Z"/></g>
<g><path style="opacity:1" fill="#483235" d="M 156.5,158.5 C 158.833,158.5 161.167,158.5 163.5,158.5C 163.756,160.792 163.423,162.959 162.5,165C 152.608,167.708 142.608,168.542 132.5,167.5C 131.526,165.257 131.192,162.924 131.5,160.5C 140.062,160.843 148.395,160.176 156.5,158.5 Z"/></g>
<g><path style="opacity:1" fill="#534f5a" d="M 226.5,163.5 C 232.584,165.756 236.417,170.089 238,176.5C 240.328,189.005 235.495,197.505 223.5,202C 215.145,205.422 206.478,207.589 197.5,208.5C 200.229,201.027 202.396,193.361 204,185.5C 211.449,177.882 218.949,170.549 226.5,163.5 Z"/></g>
<g><path style="opacity:1" fill="#5e5959" d="M 242.5,165.5 C 243.833,166.167 243.833,166.167 242.5,165.5 Z"/></g>
<g><path style="opacity:1" fill="#482f36" d="M 73.5,168.5 C 80.175,168.334 86.8417,168.5 93.5,169C 94.5536,170.388 94.7203,171.888 94,173.5C 91.834,175.121 89.334,175.955 86.5,176C 79.8333,176.667 73.1667,176.667 66.5,176C 65.572,175.612 64.9054,174.945 64.5,174C 65.1476,172.56 65.4809,171.06 65.5,169.5C 68.3854,169.806 71.0521,169.473 73.5,168.5 Z"/></g>
<g><path style="opacity:1" fill="#585053" d="M 245.5,171.5 C 246.833,172.167 246.833,172.167 245.5,171.5 Z"/></g>
<g><path style="opacity:1" fill="#f7f5f6" d="M 34.5,186.5 C 34.6633,188.857 34.4966,191.19 34,193.5C 27.2534,203.325 22.4201,213.991 19.5,225.5C 19.6495,226.552 19.4828,227.552 19,228.5C 15.8981,226.296 14.3981,223.296 14.5,219.5C 16.8791,204.079 23.0457,190.412 33,178.5C 33.1829,181.365 33.6829,184.031 34.5,186.5 Z"/></g>
<g><path style="opacity:1" fill="#a9e5fb" d="M 65.5,220.5 C 64.8333,219.5 64.1667,218.5 63.5,217.5C 59.8145,211.363 58.6478,204.696 60,197.5C 62.5001,188.333 68.5001,183.667 78,183.5C 87.3504,185.724 96.8504,186.891 106.5,187C 104.385,195.042 102.551,203.209 101,211.5C 99.4143,214.919 97.2476,217.919 94.5,220.5C 84.7606,227.033 75.094,227.033 65.5,220.5 Z"/></g>
<g><path style="opacity:1" fill="#554f54" d="M 165.5,190.5 C 166.497,190.47 167.164,190.97 167.5,192C 166.972,194.862 166.305,197.696 165.5,200.5C 162.5,198.667 159.5,196.833 156.5,195C 159.766,193.942 162.766,192.442 165.5,190.5 Z"/></g>
<g><path style="opacity:1" fill="#564e4f" d="M 1.5,201.5 C 0.833333,202.167 0.833333,202.167 1.5,201.5 Z"/></g>
<g><path style="opacity:1" fill="#e7afb6" d="M 158.5,202.5 C 154.362,217.244 149.029,231.577 142.5,245.5C 140.5,246.833 138.5,246.833 136.5,245.5C 142.733,232.372 148.4,219.039 153.5,205.5C 153.771,201.87 155.438,200.87 158.5,202.5 Z"/></g>
<g><path style="opacity:1" fill="#faf9f9" d="M 162.5,205.5 C 168.005,213.503 169.005,222.17 165.5,231.5C 163.84,236.66 161.506,241.493 158.5,246C 154.459,246.827 150.459,246.66 146.5,245.5C 152.753,232.436 158.087,219.103 162.5,205.5 Z"/></g>
<g><path style="opacity:1" fill="#554e52" d="M 231.5,207.5 C 232.833,208.167 232.833,208.167 231.5,207.5 Z"/></g>
<g><path style="opacity:1" fill="#524f5a" d="M 216.5,212.5 C 221.032,211.878 223.198,213.878 223,218.5C 224.083,226.755 223.083,234.755 220,242.5C 218.829,243.893 217.329,244.727 215.5,245C 207.507,245.5 199.507,245.666 191.5,245.5C 189.741,237.214 188.574,228.88 188,220.5C 188.833,219.667 189.667,218.833 190.5,218C 199.376,216.486 208.043,214.652 216.5,212.5 Z"/></g>
<g><path style="opacity:1" fill="#f3dbe5" d="M 147.5,198.5 C 148.568,199.434 149.901,199.768 151.5,199.5C 151.5,200.5 151.5,201.5 151.5,202.5C 145.135,217.077 138.468,231.577 131.5,246C 103.454,246.497 75.4542,245.497 47.5,243C 42.0535,241.441 36.7202,239.607 31.5,237.5C 33.392,228.264 36.0586,219.264 39.5,210.5C 44.4693,216.486 50.8026,220.152 58.5,221.5C 63.5715,223.024 68.5715,225.191 73.5,228C 92.3328,229.588 103.333,221.088 106.5,202.5C 120.238,201.933 133.905,200.599 147.5,198.5 Z"/></g>
<g><path style="opacity:1" fill="#544d57" d="M 166.5,245.5 C 168.97,242.226 170.636,238.559 171.5,234.5C 173.572,231.107 176.572,228.774 180.5,227.5C 181.321,233.874 182.321,240.207 183.5,246.5C 177.642,246.822 171.975,246.489 166.5,245.5 Z"/></g>
<g><path style="opacity:1" fill="#482b36" d="M 38.5,177.5 C 39.42,185.804 40.92,194.137 43,202.5C 45.8029,208.473 50.3029,212.473 56.5,214.5C 57.1217,215.627 57.955,216.627 59,217.5C 60.4139,216.587 61.9139,216.587 63.5,217.5C 64.1667,218.5 64.8333,219.5 65.5,220.5C 63.3926,221.468 61.0593,221.802 58.5,221.5C 50.8026,220.152 44.4693,216.486 39.5,210.5C 36.0586,219.264 33.392,228.264 31.5,237.5C 36.7202,239.607 42.0535,241.441 47.5,243C 75.4542,245.497 103.454,246.497 131.5,246C 138.468,231.577 145.135,217.077 151.5,202.5C 152.167,203.5 152.833,204.5 153.5,205.5C 148.4,219.039 142.733,232.372 136.5,245.5C 138.5,246.833 140.5,246.833 142.5,245.5C 149.029,231.577 154.362,217.244 158.5,202.5C 160.404,202.738 161.738,203.738 162.5,205.5C 158.087,219.103 152.753,232.436 146.5,245.5C 150.459,246.66 154.459,246.827 158.5,246C 161.506,241.493 163.84,236.66 165.5,231.5C 166.265,232.66 167.265,233.66 168.5,234.5C 169.527,233.209 170.527,233.209 171.5,234.5C 170.636,238.559 168.97,242.226 166.5,245.5C 164.578,248.437 163.245,251.77 162.5,255.5C 139.833,255.5 117.167,255.5 94.5,255.5C 88.3769,254.165 82.0435,253.331 75.5,253C 66.1667,252.667 56.8333,252.333 47.5,252C 40.6953,250.568 34.362,248.068 28.5,244.5C 28.0472,243.542 27.3805,242.708 26.5,242C 27.3402,240.334 26.8402,240.167 25,241.5C 24.6258,240.584 24.1258,239.75 23.5,239C 23.5,238 23.5,237 23.5,236C 22.7471,234.513 21.9138,234.346 21,235.5C 20.8213,231.975 20.3213,228.641 19.5,225.5C 22.4201,213.991 27.2534,203.325 34,193.5C 34.4966,191.19 34.6633,188.857 34.5,186.5C 34.3354,183.482 34.502,180.482 35,177.5C 35.6667,176.833 36.3333,176.167 37,175.5C 37.1587,177.343 37.6587,178.009 38.5,177.5 Z"/></g>
<g><path style="opacity:1" fill="#e6aeb9" d="M 34.5,197.5 C 35.6633,200.323 36.6633,203.323 37.5,206.5C 33.2503,215.494 29.917,224.828 27.5,234.5C 25.0762,233.48 23.4095,231.814 22.5,229.5C 25.3951,218.384 29.3951,207.717 34.5,197.5 Z"/></g>
</svg>
