<?xml version="1.0" encoding="UTF-8"?>
<!DOCTYPE svg PUBLIC "-//W3C//DTD SVG 1.1//EN" "http://www.w3.org/Graphics/SVG/1.1/DTD/svg11.dtd">
<svg xmlns="http://www.w3.org/2000/svg" version="1.1" width="280px" height="280px" style="shape-rendering:geometricPrecision; text-rendering:geometricPrecision; image-rendering:optimizeQuality; fill-rule:evenodd; clip-rule:evenodd" xmlns:xlink="http://www.w3.org/1999/xlink">
<g><path style="opacity:0.008" fill="#5c595d" d="M 203.5,48.5 C 204.833,49.1667 204.833,49.1667 203.5,48.5 Z"/></g>
<g><path style="opacity:0.008" fill="#615d5f" d="M 206.5,50.5 C 207.833,51.1667 207.833,51.1667 206.5,50.5 Z"/></g>
<g><path style="opacity:0.008" fill="#544f52" d="M 72.5,58.5 C 71.8333,57.1667 71.8333,57.1667 72.5,58.5 Z"/></g>
<g><path style="opacity:0.008" fill="#5a5558" d="M 69.5,61.5 C 68.8333,60.1667 68.8333,60.1667 69.5,61.5 Z"/></g>
<g><path style="opacity:0.008" fill="#625e5e" d="M 224.5,68.5 C 225.833,69.1667 225.833,69.1667 224.5,68.5 Z"/></g>
<g><path style="opacity:0.016" fill="#514d4e" d="M 60.5,72.5 C 59.8333,71.1667 59.8333,71.1667 60.5,72.5 Z"/></g>
<g><path style="opacity:0.008" fill="#453e42" d="M 231.5,78.5 C 232.833,79.1667 232.833,79.1667 231.5,78.5 Z"/></g>
<g><path style="opacity:0.031" fill="#535357" d="M 54.5,81.5 C 53.8333,80.1667 53.8333,80.1667 54.5,81.5 Z"/></g>
<g><path style="opacity:0.008" fill="#494343" d="M 235.5,86.5 C 236.833,87.1667 236.833,87.1667 235.5,86.5 Z"/></g>
<g><path style="opacity:0.008" fill="#514d4e" d="M 237.5,88.5 C 238.833,89.1667 238.833,89.1667 237.5,88.5 Z"/></g>
<g><path style="opacity:0.008" fill="#44393a" d="M 241.5,100.5 C 241.897,99.475 242.563,99.3083 243.5,100C 242.906,100.464 242.239,100.631 241.5,100.5 Z"/></g>
<g><path style="opacity:0.016" fill="#54504f" d="M 243.5,102.5 C 244.833,103.167 244.833,103.167 243.5,102.5 Z"/></g>
<g><path style="opacity:0.008" fill="#494449" d="M 42.5,105.5 C 41.8333,104.167 41.8333,104.167 42.5,105.5 Z"/></g>
<g><path style="opacity:0.008" fill="#413538" d="M 244.5,108.5 C 244.517,106.972 245.184,106.472 246.5,107C 245.956,107.717 245.289,108.217 244.5,108.5 Z"/></g>
<g><path style="opacity:0.995" fill="#442f37" d="M 203.5,49.5 C 204.29,50.4013 205.29,51.0679 206.5,51.5C 213.167,56.8333 219.167,62.8333 224.5,69.5C 226.354,73.2208 228.687,76.5541 231.5,79.5C 232.079,82.3311 233.412,84.6644 235.5,86.5C 234.167,86.8333 234.167,87.1667 235.5,87.5C 237.218,91.6784 239.218,96.0117 241.5,100.5C 241.932,101.71 242.599,102.71 243.5,103.5C 243.216,105.415 243.549,107.081 244.5,108.5C 249.931,123.071 253.264,138.238 254.5,154C 254.307,178.743 253.807,203.577 253,228.5C 252.886,233.348 252.053,238.015 250.5,242.5C 248.527,247.768 245.527,252.435 241.5,256.5C 239.792,258.543 237.792,260.21 235.5,261.5C 230.891,264.406 226.891,263.74 223.5,259.5C 225.124,258.131 225.624,256.464 225,254.5C 222.652,257.682 219.818,260.348 216.5,262.5C 216.167,261.167 215.833,261.167 215.5,262.5C 212.106,263.697 211.606,265.697 214,268.5C 214.499,272.152 214.665,275.818 214.5,279.5C 167.167,279.5 119.833,279.5 72.5,279.5C 72.8988,273.64 72.8988,267.974 72.5,262.5C 70.8564,261.684 69.6897,260.35 69,258.5C 68.6667,258.833 68.3333,259.167 68,259.5C 67.7104,257.956 67.0437,256.623 66,255.5C 65.101,257.368 63.601,258.368 61.5,258.5C 51.5452,256.003 44.7119,250.336 41,241.5C 39.4553,235.202 38.1219,228.869 37,222.5C 35.8343,225.155 34.6676,227.822 33.5,230.5C 32.2206,232.123 30.8872,233.79 29.5,235.5C 24.881,237.741 22.5477,236.408 22.5,231.5C 22.5153,229.366 23.0153,227.366 24,225.5C 29.6791,220.478 33.0125,214.145 34,206.5C 33.0254,191.105 32.1921,175.771 31.5,160.5C 32.2861,149.07 33.7861,137.737 36,126.5C 37.6251,119.271 39.7918,112.271 42.5,105.5C 45.9193,97.328 49.9193,89.328 54.5,81.5C 56.7315,78.7185 58.7315,75.7185 60.5,72.5C 63.1218,68.5428 66.1218,64.8761 69.5,61.5C 70.5,60.5 71.5,59.5 72.5,58.5C 86.0745,46.0054 102.408,37.5054 121.5,33C 127.721,31.9798 133.721,32.4798 139.5,34.5C 148.719,32.4829 158.053,31.9829 167.5,33C 180.341,36.5858 192.341,42.0858 203.5,49.5 Z"/></g>
<g><path style="opacity:1" fill="#836d76" d="M 198.5,56.5 C 214.676,68.1564 226.009,83.4898 232.5,102.5C 231.749,103.573 230.749,103.74 229.5,103C 213.105,94.7056 201.938,81.8723 196,64.5C 195.333,62.1667 195.333,59.8333 196,57.5C 196.671,56.7476 197.504,56.4142 198.5,56.5 Z"/></g>
<g><path style="opacity:1" fill="#67525b" d="M 198.5,56.5 C 197.504,56.4142 196.671,56.7476 196,57.5C 195.333,59.8333 195.333,62.1667 196,64.5C 201.938,81.8723 213.105,94.7056 229.5,103C 230.749,103.74 231.749,103.573 232.5,102.5C 237.695,112.907 241.529,123.907 244,135.5C 244.787,142.155 245.453,148.821 246,155.5C 246.19,180.502 245.857,205.502 245,230.5C 244.09,238.199 241.09,244.866 236,250.5C 235.832,241.814 235.332,233.148 234.5,224.5C 230.966,232.199 226.799,239.532 222,246.5C 218.027,250.318 213.694,253.651 209,256.5C 208.333,254.833 208.333,253.167 209,251.5C 221.479,239.058 226.145,224.058 223,206.5C 222.535,227.938 213.368,244.438 195.5,256C 194.833,256.667 194.167,256.667 193.5,256C 198.219,246.753 201.053,236.92 202,226.5C 203.663,213.695 203.83,201.029 202.5,188.5C 203.702,184.422 205.202,180.422 207,176.5C 207.729,168.604 205.062,161.938 199,156.5C 198.646,138.767 193.146,122.933 182.5,109C 181.833,108.333 181.167,108.333 180.5,109C 188.651,123.614 193.651,139.114 195.5,155.5C 190.837,154.47 186.17,154.303 181.5,155C 179.753,148.851 177.919,142.685 176,136.5C 175.831,143.191 175.331,149.858 174.5,156.5C 174.167,156.333 173.833,156.167 173.5,156C 171.277,149.379 169.777,142.546 169,135.5C 166.875,134.149 165.708,134.815 165.5,137.5C 166.394,142.456 166.727,147.456 166.5,152.5C 158.146,152.344 151.812,155.844 147.5,163C 143.167,163.667 138.833,163.667 134.5,163C 130.901,159.278 127.401,155.444 124,151.5C 123.6,143.92 122.267,136.586 120,129.5C 116.474,137.403 114.641,145.736 114.5,154.5C 112.833,155.167 111.167,155.833 109.5,156.5C 108.259,151.574 107.426,146.574 107,141.5C 106.617,142.056 106.117,142.389 105.5,142.5C 105.737,141.209 105.404,140.209 104.5,139.5C 106.08,135.609 106.914,131.609 107,127.5C 104.98,132.558 103.147,137.724 101.5,143C 101.836,144.03 102.503,144.53 103.5,144.5C 103.198,147.373 102.531,150.039 101.5,152.5C 101.762,151.022 101.429,149.689 100.5,148.5C 99.7792,150.686 99.1125,152.853 98.5,155C 94.8484,155.499 91.1817,155.665 87.5,155.5C 87.8204,152.102 87.487,148.768 86.5,145.5C 85.914,145.709 85.414,146.043 85,146.5C 85.2264,153.302 82.8931,158.969 78,163.5C 76.119,166.424 74.9524,169.591 74.5,173C 76.0953,180.292 78.762,187.125 82.5,193.5C 83.9588,206.124 85.1255,218.79 86,231.5C 87.3156,240.742 89.4822,249.742 92.5,258.5C 82.3973,258.866 74.564,254.866 69,246.5C 62.8215,231.445 58.9881,215.779 57.5,199.5C 57.1223,215.818 56.9556,232.152 57,248.5C 51.0385,243.244 47.7052,236.577 47,228.5C 41.6343,201.412 39.6343,174.079 41,146.5C 44.8635,127.911 50.5301,109.911 58,92.5C 80.8918,51.7261 115.725,34.5594 162.5,41C 175.859,43.3844 187.859,48.5511 198.5,56.5 Z"/></g>
<g><path style="opacity:1" fill="#433138" d="M 223.5,136.5 C 224.117,136.611 224.617,136.944 225,137.5C 227.236,156.222 226.903,174.889 224,193.5C 223.5,174.503 223.333,155.503 223.5,136.5 Z"/></g>
<g><path style="opacity:1" fill="#faf4e8" d="M 200.5,209.5 C 197.553,220.278 190.553,226.778 179.5,229C 170.551,230.41 161.551,231.244 152.5,231.5C 138.837,230.911 125.17,230.411 111.5,230C 91.6663,227.643 83.333,216.476 86.5,196.5C 90.4789,199.493 94.8123,201.993 99.5,204C 103.072,205.405 106.739,205.738 110.5,205C 121.167,199.667 129.167,191.667 134.5,181C 139.149,179.537 143.815,179.37 148.5,180.5C 153.305,191.138 160.971,198.971 171.5,204C 183.301,204.504 192.801,200.004 200,190.5C 200.5,196.825 200.666,203.158 200.5,209.5 Z"/></g>
<g><path style="opacity:1" fill="#4b303d" d="M 202.5,188.5 C 201.866,195.6 201.199,202.6 200.5,209.5C 200.666,203.158 200.5,196.825 200,190.5C 192.801,200.004 183.301,204.504 171.5,204C 160.971,198.971 153.305,191.138 148.5,180.5C 143.815,179.37 139.149,179.537 134.5,181C 129.167,191.667 121.167,199.667 110.5,205C 106.739,205.738 103.072,205.405 99.5,204C 94.8123,201.993 90.4789,199.493 86.5,196.5C 84.8595,195.853 83.5261,194.853 82.5,193.5C 78.762,187.125 76.0953,180.292 74.5,173C 74.9524,169.591 76.119,166.424 78,163.5C 82.8931,158.969 85.2264,153.302 85,146.5C 85.414,146.043 85.914,145.709 86.5,145.5C 87.487,148.768 87.8204,152.102 87.5,155.5C 91.1817,155.665 94.8484,155.499 98.5,155C 99.1125,152.853 99.7792,150.686 100.5,148.5C 101.429,149.689 101.762,151.022 101.5,152.5C 100.907,155.596 101.907,157.929 104.5,159.5C 105.495,153.872 105.829,148.206 105.5,142.5C 106.117,142.389 106.617,142.056 107,141.5C 107.426,146.574 108.259,151.574 109.5,156.5C 111.167,155.833 112.833,155.167 114.5,154.5C 114.641,145.736 116.474,137.403 120,129.5C 122.267,136.586 123.6,143.92 124,151.5C 127.401,155.444 130.901,159.278 134.5,163C 138.833,163.667 143.167,163.667 147.5,163C 151.812,155.844 158.146,152.344 166.5,152.5C 166.727,147.456 166.394,142.456 165.5,137.5C 165.708,134.815 166.875,134.149 169,135.5C 169.777,142.546 171.277,149.379 173.5,156C 173.833,156.167 174.167,156.333 174.5,156.5C 175.331,149.858 175.831,143.191 176,136.5C 177.919,142.685 179.753,148.851 181.5,155C 186.17,154.303 190.837,154.47 195.5,155.5C 193.651,139.114 188.651,123.614 180.5,109C 181.167,108.333 181.833,108.333 182.5,109C 193.146,122.933 198.646,138.767 199,156.5C 205.062,161.938 207.729,168.604 207,176.5C 205.202,180.422 203.702,184.422 202.5,188.5 Z"/></g>
<g><path style="opacity:1" fill="#e7bde1" d="M 135.5,173.5 C 139.167,173.5 142.833,173.5 146.5,173.5C 146.5,174.5 146.5,175.5 146.5,176.5C 142.833,176.5 139.167,176.5 135.5,176.5C 135.5,175.5 135.5,174.5 135.5,173.5 Z"/></g>
<g><path style="opacity:1" fill="#f6f0ed" d="M 135.5,167.5 C 139.226,167.177 142.893,167.511 146.5,168.5C 144.667,168.833 142.833,169.167 141,169.5C 138.705,169.453 136.871,168.787 135.5,167.5 Z"/></g>
<g><path style="opacity:1" fill="#e8c0e8" d="M 115.5,158.5 C 126.598,158.098 131.765,163.431 131,174.5C 127.517,185.654 120.684,194.154 110.5,200C 95.8784,199.59 86.0451,192.423 81,178.5C 78.4732,165.698 83.6399,159.865 96.5,161C 99.7789,161.973 102.779,163.473 105.5,165.5C 108.875,163.109 112.208,160.776 115.5,158.5 Z"/></g>
<g><path style="opacity:1" fill="#542c46" d="M 114.5,163.5 C 125.299,163.134 129.132,168.134 126,178.5C 121.843,187.161 115.343,193.161 106.5,196.5C 92.7752,193.676 85.6086,185.342 85,171.5C 87.4507,165.911 91.6174,164.078 97.5,166C 100.329,167.247 102.995,168.747 105.5,170.5C 108.388,167.905 111.388,165.572 114.5,163.5 Z"/></g>
<g><path style="opacity:1" fill="#b47bd7" d="M 115.5,166.5 C 123.003,165.853 125.503,169.186 123,176.5C 119.598,183.237 114.765,188.737 108.5,193C 98.7629,191.862 91.9296,186.695 88,177.5C 87.1667,171 90,168.167 96.5,169C 99.9121,170.455 103.079,172.288 106,174.5C 108.775,171.22 111.942,168.554 115.5,166.5 Z"/></g>
<g><path style="opacity:1" fill="#e8bee7" d="M 159.5,157.5 C 166.307,157.49 172.141,159.823 177,164.5C 180.781,161.859 184.948,160.193 189.5,159.5C 197.266,160.099 201.599,164.266 202.5,172C 199.816,185.686 191.816,194.686 178.5,199C 176.167,199.667 173.833,199.667 171.5,199C 162.897,193.731 156.397,186.564 152,177.5C 149.406,168.66 151.906,161.993 159.5,157.5 Z"/></g>
<g><path style="opacity:1" fill="#542945" d="M 159.5,162.5 C 162.187,162.336 164.854,162.503 167.5,163C 170.853,164.677 173.853,166.843 176.5,169.5C 179.039,167.8 181.705,166.3 184.5,165C 196.966,165.07 200.466,170.903 195,182.5C 189.249,191.964 181.083,195.797 170.5,194C 163.898,189.629 159.065,183.796 156,176.5C 154.496,171.01 155.663,166.343 159.5,162.5 Z"/></g>
<g><path style="opacity:1" fill="#b57cd8" d="M 161.5,165.5 C 167.414,166.292 172.414,168.959 176.5,173.5C 180.461,169.68 185.128,167.846 190.5,168C 194.758,170.945 195.591,174.779 193,179.5C 188.559,187.124 182.059,191.29 173.5,192C 165.557,187.237 160.557,180.404 158.5,171.5C 158.628,169.045 159.628,167.045 161.5,165.5 Z"/></g>
<g><path style="opacity:1" fill="#d5c8cf" d="M 118.5,146.5 C 119.117,146.611 119.617,146.944 120,147.5C 120.667,149.833 120.667,152.167 120,154.5C 118.625,152.063 118.125,149.397 118.5,146.5 Z"/></g>
<g><path style="opacity:1" fill="#463238" d="M 64.5,117.5 C 65.4972,117.47 66.1639,117.97 66.5,119C 61.9537,139.948 58.6203,161.114 56.5,182.5C 54.0997,160.158 56.7664,138.491 64.5,117.5 Z"/></g>
<g><path style="opacity:1" fill="#f3edec" d="M 104.5,139.5 C 105.404,140.209 105.737,141.209 105.5,142.5C 105.829,148.206 105.495,153.872 104.5,159.5C 101.907,157.929 100.907,155.596 101.5,152.5C 102.531,150.039 103.198,147.373 103.5,144.5C 103.366,142.708 103.699,141.042 104.5,139.5 Z"/></g>
<g><path style="opacity:1" fill="#412d34" d="M 104.5,139.5 C 103.699,141.042 103.366,142.708 103.5,144.5C 102.503,144.53 101.836,144.03 101.5,143C 103.147,137.724 104.98,132.558 107,127.5C 106.914,131.609 106.08,135.609 104.5,139.5 Z"/></g>
<g><path style="opacity:1" fill="#846f75" d="M 156.5,78.5 C 167.27,77.1036 171.77,81.7703 170,92.5C 165.895,99.6073 160.895,100.274 155,94.5C 151.243,88.5827 151.743,83.2494 156.5,78.5 Z"/></g>
<g><path style="opacity:1" fill="#856f78" d="M 132.5,79.5 C 138.523,78.1966 142.189,80.53 143.5,86.5C 141.499,92.9167 137.332,94.9167 131,92.5C 128.639,87.7295 129.139,83.3962 132.5,79.5 Z"/></g>
<g><path style="opacity:1" fill="#846e77" d="M 182.5,69.5 C 193.217,70.5457 198.05,76.5457 197,87.5C 193.484,95.2724 188.318,96.4391 181.5,91C 176.98,86.3384 175.48,80.8384 177,74.5C 178.73,72.5981 180.563,70.9314 182.5,69.5 Z"/></g>
<g><path style="opacity:1" fill="#472f36" d="M 151.5,213.5 C 152.573,214.251 152.74,215.251 152,216.5C 146.159,221.96 139.659,222.793 132.5,219C 130.384,217.829 129.718,216.329 130.5,214.5C 134.886,218.157 139.886,219.324 145.5,218C 148.106,217.208 150.106,215.708 151.5,213.5 Z"/></g>
<g><path style="opacity:0.008" fill="#534b4d" d="M 33.5,230.5 C 34.8333,231.167 34.8333,231.167 33.5,230.5 Z"/></g>
<g><path style="opacity:1" fill="#534f5b" d="M 193.5,226.5 C 196.138,227.242 197.471,229.075 197.5,232C 197.457,238.135 195.457,243.468 191.5,248C 185.754,250.55 179.754,252.216 173.5,253C 164.506,253.5 155.506,253.666 146.5,253.5C 146.297,255.39 146.963,256.89 148.5,258C 151.482,258.498 154.482,258.665 157.5,258.5C 157.811,265.09 157.478,271.59 156.5,278C 146.506,278.5 136.506,278.666 126.5,278.5C 126.287,271.826 125.954,265.159 125.5,258.5C 130.844,258.666 136.177,258.499 141.5,258C 144.124,257.424 144.791,256.09 143.5,254C 128.708,255.359 114.375,253.359 100.5,248C 92.81,243.386 90.9767,237.22 95,229.5C 106.557,232.806 118.391,234.306 130.5,234C 135.011,237.181 139.511,240.348 144,243.5C 147.556,240.275 151.39,237.441 155.5,235C 163.18,234.486 170.847,233.819 178.5,233C 183.985,231.924 188.985,229.757 193.5,226.5 Z"/></g>
<g><path style="opacity:1" fill="#f8faf9" d="M 139.5,236.5 C 141.966,235.366 144.633,235.199 147.5,236C 146.315,237.353 144.981,238.52 143.5,239.5C 142.148,238.476 140.815,237.476 139.5,236.5 Z"/></g>
<g><path style="opacity:0.008" fill="#554d4d" d="M 250.5,242.5 C 251.833,243.167 251.833,243.167 250.5,242.5 Z"/></g>
<g><path style="opacity:1" fill="#534f59" d="M 188.5,253.5 C 189.675,253.281 190.675,253.614 191.5,254.5C 189.331,257.307 187.665,260.307 186.5,263.5C 189.647,263.263 192.647,262.43 195.5,261C 197.493,259.001 199.827,257.501 202.5,256.5C 203.942,263.487 205.275,270.487 206.5,277.5C 194.5,277.5 182.5,277.5 170.5,277.5C 170.546,270.809 170.212,264.143 169.5,257.5C 176.175,257.244 182.508,255.91 188.5,253.5 Z"/></g>
<g><path style="opacity:0.008" fill="#585152" d="M 241.5,256.5 C 242.833,257.167 242.833,257.167 241.5,256.5 Z"/></g>
<g><path style="opacity:1" fill="#524f5c" d="M 93.5,248.5 C 99.8307,252.724 106.831,255.391 114.5,256.5C 114.797,263.558 114.464,270.558 113.5,277.5C 102.5,278.833 91.5,278.833 80.5,277.5C 81.3633,272.537 82.03,267.537 82.5,262.5C 87.8541,264.161 93.0207,263.828 98,261.5C 97.025,257.078 95.525,252.745 93.5,248.5 Z"/></g>
<g><path style="opacity:1" fill="#584e56" d="M 118.5,257.5 C 119.5,257.5 120.5,257.5 121.5,257.5C 121.5,264.167 121.5,270.833 121.5,277.5C 120.5,277.5 119.5,277.5 118.5,277.5C 118.5,270.833 118.5,264.167 118.5,257.5 Z"/></g>
<g><path style="opacity:0.008" fill="#595153" d="M 235.5,261.5 C 236.833,262.167 236.833,262.167 235.5,261.5 Z"/></g>
<g><path style="opacity:0.008" fill="#554c52" d="M 72.5,262.5 C 71.8333,263.167 71.8333,263.167 72.5,262.5 Z"/></g>
<g><path style="opacity:0.008" fill="#564e4e" d="M 215.5,262.5 C 215.833,262.5 216.167,262.5 216.5,262.5C 216.315,263.17 215.981,263.17 215.5,262.5 Z"/></g>
<g><path style="opacity:1" fill="#544d56" d="M 162.5,257.5 C 163.5,257.5 164.5,257.5 165.5,257.5C 165.773,264.504 166.106,271.504 166.5,278.5C 164.833,278.5 163.167,278.5 161.5,278.5C 161.205,271.412 161.538,264.412 162.5,257.5 Z"/></g>
</svg>
